<svg width="479" height="261" viewBox="0 0 479 261" fill="none" xmlns="http://www.w3.org/2000/svg">
<path d="M204.498 193.34C197.664 193.34 192.598 187.968 192.598 181.202C192.598 174.436 197.63 169.064 204.464 169.064C208.17 169.064 210.924 170.424 213.1 172.6L210.89 174.81C209.36 173.144 207.184 172.124 204.464 172.124C199.466 172.124 195.896 175.932 195.896 181.202C195.896 186.506 199.5 190.28 204.464 190.28C207.422 190.28 209.53 189.226 211.06 187.56L213.27 189.736C211.128 191.98 208.204 193.34 204.498 193.34Z" fill="#2064AE"/>
<path d="M223.601 193.34C218.739 193.34 215.067 189.736 215.067 184.908C215.067 180.182 218.705 176.51 223.397 176.51C227.817 176.51 231.013 179.842 231.013 184.432C231.013 184.908 230.979 185.418 230.843 186.064H218.195C218.671 188.75 220.711 190.45 223.601 190.45C225.403 190.45 227.001 189.838 228.055 188.546L230.027 190.552C228.463 192.354 226.151 193.34 223.601 193.34ZM223.329 179.332C220.609 179.332 218.671 180.964 218.195 183.514H228.021C227.681 180.896 225.981 179.332 223.329 179.332Z" fill="#2064AE"/>
<path d="M234.349 193V176.85H237.409V178.958C238.565 177.428 240.367 176.51 242.509 176.51C246.215 176.51 248.833 179.604 248.833 182.97V193H245.773V183.582C245.773 181.1 244.073 179.366 241.625 179.366C239.177 179.366 237.409 181.134 237.409 183.582V193H234.349Z" fill="#2064AE"/>
<path d="M255.259 193V179.638H251.281V176.85H255.259V170.084H258.319V176.85H262.297V179.638H258.319V193H255.259Z" fill="#2064AE"/>
<path d="M265.295 193V176.85H268.355V178.754C269.273 177.326 270.769 176.51 272.741 176.51C274.373 176.51 275.665 177.054 276.787 178.346L274.781 180.42C274.067 179.706 273.285 179.4 272.231 179.4C269.953 179.4 268.355 180.862 268.355 183.786V193H265.295Z" fill="#2064AE"/>
<path d="M285.89 193.34C281.028 193.34 277.356 189.736 277.356 184.908C277.356 180.182 280.994 176.51 285.686 176.51C290.106 176.51 293.302 179.842 293.302 184.432C293.302 184.908 293.268 185.418 293.132 186.064H280.484C280.96 188.75 283 190.45 285.89 190.45C287.692 190.45 289.29 189.838 290.344 188.546L292.316 190.552C290.752 192.354 288.44 193.34 285.89 193.34ZM285.618 179.332C282.898 179.332 280.96 180.964 280.484 183.514H290.31C289.97 180.896 288.27 179.332 285.618 179.332Z" fill="#2064AE"/>
<path d="M301.773 193.34C299.053 193.34 296.707 192.252 295.211 190.382L297.183 188.41C298.339 189.872 299.903 190.552 301.807 190.552C303.711 190.552 304.799 189.872 304.799 188.682C304.799 185.146 296.129 187.152 296.129 181.27C296.129 178.346 298.339 176.51 301.909 176.51C304.425 176.51 306.431 177.428 307.723 179.162L305.751 181.134C304.833 179.944 303.507 179.298 301.807 179.298C300.039 179.298 299.087 179.978 299.087 181.032C299.087 184.228 307.723 182.392 307.723 188.41C307.723 191.436 305.411 193.34 301.773 193.34Z" fill="#2064AE"/>
<path d="M320.533 193V179.638H316.555V176.85H320.533V174.436C320.533 170.866 323.049 168.384 326.687 168.384C328.523 168.384 329.815 169.064 330.971 170.254L328.965 172.226C328.353 171.614 327.673 171.24 326.653 171.24C324.715 171.24 323.593 172.43 323.593 174.436V176.85H328.727V179.638H323.593V193H320.533Z" fill="#2064AE"/>
<path d="M338.249 193.34C333.523 193.34 329.817 189.6 329.817 184.874C329.817 180.182 333.489 176.51 338.249 176.51C342.941 176.51 346.681 180.182 346.681 184.874C346.681 189.634 342.975 193.34 338.249 193.34ZM338.249 190.382C341.309 190.382 343.519 188.07 343.519 184.874C343.519 181.712 341.275 179.468 338.249 179.468C335.189 179.468 332.979 181.746 332.979 184.874C332.979 188.07 335.189 190.382 338.249 190.382Z" fill="#2064AE"/>
<path d="M350.129 193V176.85H353.189V178.754C354.107 177.326 355.603 176.51 357.575 176.51C359.207 176.51 360.499 177.054 361.621 178.346L359.615 180.42C358.901 179.706 358.119 179.4 357.065 179.4C354.787 179.4 353.189 180.862 353.189 183.786V193H350.129Z" fill="#2064AE"/>
<path d="M378.551 193.34C374.811 193.34 372.295 191.946 370.289 189.362L372.465 187.186C373.961 189.26 375.797 190.348 378.653 190.348C381.441 190.348 383.311 189.056 383.311 186.914C383.311 180.828 371.819 183.854 371.819 175.422C371.819 171.444 375.015 169.064 379.231 169.064C382.325 169.064 384.807 170.39 386.371 172.328L384.195 174.504C382.801 172.872 381.271 172.056 379.163 172.056C376.613 172.056 375.015 173.212 375.015 175.218C375.015 180.76 386.541 177.938 386.541 186.676C386.541 190.858 383.447 193.34 378.551 193.34Z" fill="#2064AE"/>
<path d="M397.552 193.34C392.69 193.34 389.018 189.736 389.018 184.908C389.018 180.182 392.656 176.51 397.348 176.51C401.768 176.51 404.964 179.842 404.964 184.432C404.964 184.908 404.93 185.418 404.794 186.064H392.146C392.622 188.75 394.662 190.45 397.552 190.45C399.354 190.45 400.952 189.838 402.006 188.546L403.978 190.552C402.414 192.354 400.102 193.34 397.552 193.34ZM397.28 179.332C394.56 179.332 392.622 180.964 392.146 183.514H401.972C401.632 180.896 399.932 179.332 397.28 179.332Z" fill="#2064AE"/>
<path d="M408.301 193V176.85H411.361V178.958C412.517 177.428 414.319 176.51 416.461 176.51C420.167 176.51 422.785 179.604 422.785 182.97V193H419.725V183.582C419.725 181.1 418.025 179.366 415.577 179.366C413.129 179.366 411.361 181.134 411.361 183.582V193H408.301Z" fill="#2064AE"/>
<path d="M428.492 173.62C427.37 173.62 426.554 172.77 426.554 171.648C426.554 170.56 427.37 169.71 428.492 169.71C429.614 169.71 430.43 170.56 430.43 171.648C430.43 172.77 429.614 173.62 428.492 173.62ZM426.962 193V176.85H430.022V193H426.962Z" fill="#2064AE"/>
<path d="M441.909 193.34C437.183 193.34 433.477 189.6 433.477 184.874C433.477 180.182 437.149 176.51 441.909 176.51C446.601 176.51 450.341 180.182 450.341 184.874C450.341 189.634 446.635 193.34 441.909 193.34ZM441.909 190.382C444.969 190.382 447.179 188.07 447.179 184.874C447.179 181.712 444.935 179.468 441.909 179.468C438.849 179.468 436.639 181.746 436.639 184.874C436.639 188.07 438.849 190.382 441.909 190.382Z" fill="#2064AE"/>
<path d="M453.789 193V176.85H456.849V178.754C457.767 177.326 459.263 176.51 461.235 176.51C462.867 176.51 464.159 177.054 465.281 178.346L463.275 180.42C462.561 179.706 461.779 179.4 460.725 179.4C458.447 179.4 456.849 180.862 456.849 183.786V193H453.789Z" fill="#2064AE"/>
<path d="M472.204 193.34C469.484 193.34 467.138 192.252 465.642 190.382L467.614 188.41C468.77 189.872 470.334 190.552 472.238 190.552C474.142 190.552 475.23 189.872 475.23 188.682C475.23 185.146 466.56 187.152 466.56 181.27C466.56 178.346 468.77 176.51 472.34 176.51C474.856 176.51 476.862 177.428 478.154 179.162L476.182 181.134C475.264 179.944 473.938 179.298 472.238 179.298C470.47 179.298 469.518 179.978 469.518 181.032C469.518 184.228 478.154 182.392 478.154 188.41C478.154 191.436 475.842 193.34 472.204 193.34Z" fill="#2064AE"/>
<path d="M56.2 123C40.2 121.8 24.3 120.5 8.39999 119.4C4.69999 119.1 1.29999 123.3 0.999989 127.9C0.699989 131.7 3.89999 135.8 7.69999 136.1C21.6 137.4 35.4 136.5 49.2 134.5C54.9 133.7 57.6 130.5 57.5 124.3C57.5 123.6 56.9 123 56.3 123H56.2ZM88.2 190.3C87.6 189.9 86.8 190.1 86.3 190.7C77.5 203.5 68.8 216.2 60.2 229C57.4 233.2 58.1 236.9 61.8 240.2C65.5 243.6 71.5 242.9 73.8 238.6C80.1 227 86.4 215.3 92.3 203.5C95.2 197.8 94 194.3 88.2 190.3ZM64.4 162C64.1 161.4 63.3 161.1 62.6 161.4L20 181.1C15.9 183.1 14.5 188.1 16.5 192.3C18.4 196.4 23.4 198.4 27.2 196.2C38.8 189.1 50.4 181.9 61.7 174.4C66.3 171.3 67 167 64.3 162H64.4ZM141.1 3.79991C138.9 0.899911 134.1 -0.700089 130.8 0.299911C127 1.49991 125 3.89991 125.2 8.69991C125.7 21.6999 126.6 34.6999 127 47.6999C127.1 52.4999 129.6 54.7999 133.6 56.1999C137.1 57.3999 138 56.8999 138.3 53.1999L141.8 6.89991C141.8 5.79991 141.5 4.69991 140.9 3.79991H141.1ZM68.3 86.2999L29.9 59.2999C26.1 56.6999 20.8 58.1999 18.2 62.2999C15.8 66.0999 16.9 71.3999 21.1 73.5999C32.9 79.8999 44.8 85.9999 56.8 91.8999C61.8 94.3999 65.8 92.9999 68.6 87.9999C69 87.3999 68.8 86.5999 68.2 86.1999L68.3 86.2999ZM99.4 61.0999C92.7 47.0999 86.2 33.0999 79.4 19.2999C77.3 14.9999 74 13.8999 69.4 15.0999C64.2 16.3999 61.5 21.9999 64.3 26.4999C71.5 37.9999 78.8 49.4999 86.4 60.7999C89.4 65.1999 93.9 65.8999 99 62.7999C99.6 62.3999 99.8 61.6999 99.5 60.9999L99.4 61.0999ZM197.5 17.8999C193.6 15.1999 188.6 15.9999 186.4 20.0999C180 31.9999 173.6 43.8999 167.6 55.8999C164.9 61.2999 166.3 64.9999 171.3 68.0999C171.9 68.4999 172.7 68.2999 173.1 67.6999L200 29.3999C202.5 25.6999 201.2 20.4999 197.4 17.8999H197.5ZM244.2 65.3999C241.8 62.1999 237.7 60.9999 234.2 63.0999C222.5 70.2999 210.9 77.5999 199.4 85.1999C194.9 88.1999 194.3 92.5999 197.6 97.7999C198 98.3999 198.7 98.5999 199.3 98.2999C213.4 91.4999 227.4 84.7999 241.4 77.8999C245.7 75.7999 246.9 69.2999 244.1 65.3999H244.2ZM197.5 233.3C190.3 221.7 183.1 210.2 175.7 198.8C172.5 194 168.5 193.2 163.1 196.2C162.5 196.5 162.2 197.3 162.5 197.9C163.1 199.3 163.7 200.6 164.3 201.9C170.5 215 176.7 228.1 183.1 241.1C184.9 244.7 189.9 245.6 194 243.5C197.8 241.5 199.6 236.7 197.5 233.3ZM135.8 213.4C135.3 207.7 132.9 205.1 127.9 203.8C125.8 203.3 124.6 203.8 124.5 206.1C123.3 221.5 121.9 236.9 120.8 252.3C120.5 256.5 124.8 260.4 129.3 260.5C133.4 260.5 137.2 257 137.3 252.7L135.8 213.4ZM242.7 189.8V190.2H242.8C242.8 190.1 242.8 189.9 242.7 189.8Z" fill="#FFDE23"/>
<path d="M180.9 167.2C181.2 167.2 181.5 167.2 181.8 167.2C179.9 169.9 177.7 172.4 175.4 174.7C164.7 185.4 149.9 192.4 132.7 192.7C96.9999 193.3 68.9999 165.5 68.7999 130.2C68.5999 96.2 96.5999 67.8 130.5 67.6C158.5 67.4 182.3 85.3001 190.6 110.5C190.6 110.5 190.6 110.5 190.6 110.6H154.6L161.4 103.8L157.9 99.9001C151.8 93.1001 142.3 89.1001 132 89.1001C115.1 89.1001 103.7 99.0001 103.7 113.7C103.7 128.4 108.5 129.7 114.2 133.4V133.9L97.1999 150.7L100.6 154.6C108.2 163.2 117 167 129 167C141 167 153.2 161.5 157.4 152.1C161.2 160.9 169.9 166.7 180.8 167L180.9 167.2Z" fill="#FFDE23"/>
<path d="M128.76 161.012C118.088 161.012 110.82 157.608 104.472 150.432L113.856 141.14C117.996 146.016 122.872 148.684 129.68 148.684C135.752 148.684 139.34 146.292 139.34 142.428C139.34 130.192 108.888 135.988 108.888 113.172C108.888 101.212 118.272 94.036 131.704 94.036C140.812 94.036 148.632 97.532 153.508 102.96L144.124 112.252C140.26 108.204 136.396 106.272 131.428 106.272C126.276 106.272 123.24 108.204 123.24 111.792C123.24 123.108 153.692 117.496 153.692 141.14C153.692 153.56 144.4 161.012 128.76 161.012Z" fill="#2064AE"/>
<path d="M181.477 161.012C169.149 161.012 160.501 152.824 160.501 141.14V115.288H174.577V141.048C174.577 145.648 177.153 148.5 181.477 148.5C185.709 148.5 188.285 145.74 188.285 141.048V115.288H202.361V141.14C202.361 152.916 193.805 161.012 181.477 161.012Z" fill="#2064AE"/>
<path d="M211.198 160V115.288H225.274V118.876C228.402 116.024 232.818 114.368 237.786 114.368C247.63 114.368 254.806 122.188 254.806 131.388V160H240.73V134.516C240.73 129.824 237.51 126.696 233.094 126.696C228.586 126.696 225.274 129.824 225.274 134.516V160H211.198Z" fill="#2064AE"/>
<path d="M280.131 161.104C272.127 161.104 264.307 157.884 259.707 152.824L267.711 144.728C270.655 147.948 274.795 149.788 279.579 149.788C282.891 149.788 284.731 148.776 284.731 147.028C284.731 140.496 262.927 144.82 262.927 128.352C262.927 119.796 269.919 114 280.867 114C288.411 114 295.219 116.668 299.267 121.82L291.263 129.916C288.503 126.604 284.823 125.408 281.419 125.408C278.199 125.408 276.635 126.42 276.635 128.076C276.635 133.78 298.347 130.1 298.347 146.844C298.347 155.676 291.263 161.104 280.131 161.104Z" fill="#2064AE"/>
<path d="M305.984 160V93.208H320.06V118.6C323.096 115.932 327.236 114.368 332.112 114.368C342.508 114.368 349.592 121.452 349.592 131.388V160H335.516V134.516C335.516 129.824 332.296 126.696 327.88 126.696C323.372 126.696 320.06 129.824 320.06 134.516V160H305.984Z" fill="#2064AE"/>
<path d="M365.716 109.124C361.3 109.124 358.08 105.72 358.08 101.396C358.08 97.072 361.3 93.668 365.716 93.668C370.132 93.668 373.26 97.072 373.26 101.396C373.26 105.72 370.132 109.124 365.716 109.124ZM358.632 160V115.288H372.708V160H358.632Z" fill="#2064AE"/>
<path d="M382.62 160V115.288H396.696V118.876C399.824 116.024 404.24 114.368 409.208 114.368C419.052 114.368 426.228 122.188 426.228 131.388V160H412.152V134.516C412.152 129.824 408.932 126.696 404.516 126.696C400.008 126.696 396.696 129.824 396.696 134.516V160H382.62Z" fill="#2064AE"/>
<path d="M457.349 161.012C442.813 161.012 432.325 151.26 432.325 137.644C432.325 124.304 442.721 114.276 456.337 114.276C469.493 114.276 478.877 123.66 478.877 136.632C478.877 138.288 478.693 139.944 478.233 142.244L446.217 142.336C447.689 147.304 451.553 150.156 457.257 150.156C461.673 150.156 465.261 148.684 467.929 145.556L475.657 153.284C471.241 158.436 464.893 161.012 457.349 161.012ZM456.429 125.04C451.277 125.04 447.597 127.892 446.217 132.676L465.721 132.584C464.617 127.616 461.489 125.04 456.429 125.04Z" fill="#2064AE"/>
</svg>
