<svg width="176" height="92" viewBox="0 0 176 92" fill="none" xmlns="http://www.w3.org/2000/svg">
<g clip-path="url(#clip0_775_3361)">
<path d="M69.6644 66.5199C67.2524 66.5199 65.4644 64.6239 65.4644 62.2359C65.4644 59.8479 67.2404 57.9519 69.6524 57.9519C70.9604 57.9519 71.9324 58.4319 72.7004 59.1999L71.9204 59.9799C71.3804 59.3919 70.6124 59.0319 69.6524 59.0319C67.8884 59.0319 66.6284 60.3759 66.6284 62.2359C66.6284 64.1079 67.9004 65.4399 69.6524 65.4399C70.6964 65.4399 71.4404 65.0679 71.9804 64.4799L72.7604 65.2479C72.0044 66.0399 70.9724 66.5199 69.6644 66.5199ZM76.4066 66.5199C74.6906 66.5199 73.3946 65.2479 73.3946 63.5439C73.3946 61.8759 74.6786 60.5799 76.3346 60.5799C77.8946 60.5799 79.0226 61.7559 79.0226 63.3759C79.0226 63.5439 79.0106 63.7239 78.9626 63.9519H74.4986C74.6666 64.8999 75.3866 65.4999 76.4066 65.4999C77.0426 65.4999 77.6066 65.2839 77.9786 64.8279L78.6746 65.5359C78.1226 66.1719 77.3066 66.5199 76.4066 66.5199ZM76.3106 61.5759C75.3506 61.5759 74.6666 62.1519 74.4986 63.0519H77.9666C77.8466 62.1279 77.2466 61.5759 76.3106 61.5759ZM80.2002 66.3999V60.6999H81.2802V61.4439C81.6882 60.9039 82.3242 60.5799 83.0802 60.5799C84.3882 60.5799 85.3122 61.6719 85.3122 62.8599V66.3999H84.2322V63.0759C84.2322 62.1999 83.6322 61.5879 82.7682 61.5879C81.9042 61.5879 81.2802 62.2119 81.2802 63.0759V66.3999H80.2002ZM87.5801 66.3999V61.6839H86.1761V60.6999H87.5801V58.3119H88.6601V60.6999H90.0641V61.6839H88.6601V66.3999H87.5801ZM91.1221 66.3999V60.6999H92.2021V61.3719C92.5261 60.8679 93.0541 60.5799 93.7501 60.5799C94.3261 60.5799 94.7821 60.7719 95.1781 61.2279L94.4701 61.9599C94.2181 61.7079 93.9421 61.5999 93.5701 61.5999C92.7661 61.5999 92.2021 62.1159 92.2021 63.1479V66.3999H91.1221ZM98.391 66.5199C96.675 66.5199 95.379 65.2479 95.379 63.5439C95.379 61.8759 96.663 60.5799 98.319 60.5799C99.879 60.5799 101.007 61.7559 101.007 63.3759C101.007 63.5439 100.995 63.7239 100.947 63.9519H96.483C96.651 64.8999 97.371 65.4999 98.391 65.4999C99.027 65.4999 99.591 65.2839 99.963 64.8279L100.659 65.5359C100.107 66.1719 99.291 66.5199 98.391 66.5199ZM98.295 61.5759C97.335 61.5759 96.651 62.1519 96.483 63.0519H99.951C99.831 62.1279 99.231 61.5759 98.295 61.5759ZM103.997 66.5199C103.037 66.5199 102.209 66.1359 101.681 65.4759L102.377 64.7799C102.785 65.2959 103.337 65.5359 104.009 65.5359C104.681 65.5359 105.065 65.2959 105.065 64.8759C105.065 63.6279 102.005 64.3359 102.005 62.2599C102.005 61.2279 102.785 60.5799 104.045 60.5799C104.933 60.5799 105.641 60.9039 106.097 61.5159L105.401 62.2119C105.077 61.7919 104.609 61.5639 104.009 61.5639C103.385 61.5639 103.049 61.8039 103.049 62.1759C103.049 63.3039 106.097 62.6559 106.097 64.7799C106.097 65.8479 105.281 66.5199 103.997 66.5199ZM110.618 66.3999V61.6839H109.214V60.6999H110.618V59.8479C110.618 58.5879 111.506 57.7119 112.79 57.7119C113.438 57.7119 113.894 57.9519 114.302 58.3719L113.594 59.0679C113.378 58.8519 113.138 58.7199 112.778 58.7199C112.094 58.7199 111.698 59.1399 111.698 59.8479V60.6999H113.51V61.6839H111.698V66.3999H110.618ZM116.871 66.5199C115.203 66.5199 113.895 65.1999 113.895 63.5319C113.895 61.8759 115.191 60.5799 116.871 60.5799C118.527 60.5799 119.847 61.8759 119.847 63.5319C119.847 65.2119 118.539 66.5199 116.871 66.5199ZM116.871 65.4759C117.951 65.4759 118.731 64.6599 118.731 63.5319C118.731 62.4159 117.939 61.6239 116.871 61.6239C115.791 61.6239 115.011 62.4279 115.011 63.5319C115.011 64.6599 115.791 65.4759 116.871 65.4759ZM121.063 66.3999V60.6999H122.143V61.3719C122.467 60.8679 122.995 60.5799 123.691 60.5799C124.267 60.5799 124.723 60.7719 125.119 61.2279L124.411 61.9599C124.159 61.7079 123.883 61.5999 123.511 61.5999C122.707 61.5999 122.143 62.1159 122.143 63.1479V66.3999H121.063ZM131.095 66.5199C129.775 66.5199 128.887 66.0279 128.179 65.1159L128.947 64.3479C129.475 65.0799 130.123 65.4639 131.131 65.4639C132.115 65.4639 132.775 65.0079 132.775 64.2519C132.775 62.1039 128.719 63.1719 128.719 60.1959C128.719 58.7919 129.847 57.9519 131.335 57.9519C132.427 57.9519 133.303 58.4199 133.855 59.1039L133.087 59.8719C132.595 59.2959 132.055 59.0079 131.311 59.0079C130.411 59.0079 129.847 59.4159 129.847 60.1239C129.847 62.0799 133.915 61.0839 133.915 64.1679C133.915 65.6439 132.823 66.5199 131.095 66.5199ZM137.801 66.5199C136.085 66.5199 134.789 65.2479 134.789 63.5439C134.789 61.8759 136.073 60.5799 137.729 60.5799C139.289 60.5799 140.417 61.7559 140.417 63.3759C140.417 63.5439 140.405 63.7239 140.357 63.9519H135.893C136.061 64.8999 136.781 65.4999 137.801 65.4999C138.437 65.4999 139.001 65.2839 139.373 64.8279L140.069 65.5359C139.517 66.1719 138.701 66.5199 137.801 66.5199ZM137.705 61.5759C136.745 61.5759 136.061 62.1519 135.893 63.0519H139.361C139.241 62.1279 138.641 61.5759 137.705 61.5759ZM141.595 66.3999V60.6999H142.675V61.4439C143.083 60.9039 143.719 60.5799 144.475 60.5799C145.783 60.5799 146.707 61.6719 146.707 62.8599V66.3999H145.627V63.0759C145.627 62.1999 145.027 61.5879 144.163 61.5879C143.299 61.5879 142.675 62.2119 142.675 63.0759V66.3999H141.595ZM148.721 59.5599C148.325 59.5599 148.037 59.2599 148.037 58.8639C148.037 58.4799 148.325 58.1799 148.721 58.1799C149.117 58.1799 149.405 58.4799 149.405 58.8639C149.405 59.2599 149.117 59.5599 148.721 59.5599ZM148.181 66.3999V60.6999H149.261V66.3999H148.181ZM153.457 66.5199C151.789 66.5199 150.481 65.1999 150.481 63.5319C150.481 61.8759 151.777 60.5799 153.457 60.5799C155.113 60.5799 156.433 61.8759 156.433 63.5319C156.433 65.2119 155.125 66.5199 153.457 66.5199ZM153.457 65.4759C154.537 65.4759 155.317 64.6599 155.317 63.5319C155.317 62.4159 154.525 61.6239 153.457 61.6239C152.377 61.6239 151.597 62.4279 151.597 63.5319C151.597 64.6599 152.377 65.4759 153.457 65.4759ZM157.649 66.3999V60.6999H158.729V61.3719C159.053 60.8679 159.581 60.5799 160.277 60.5799C160.853 60.5799 161.309 60.7719 161.705 61.2279L160.997 61.9599C160.745 61.7079 160.469 61.5999 160.097 61.5999C159.293 61.5999 158.729 62.1159 158.729 63.1479V66.3999H157.649ZM164.149 66.5199C163.189 66.5199 162.361 66.1359 161.833 65.4759L162.529 64.7799C162.937 65.2959 163.489 65.5359 164.161 65.5359C164.833 65.5359 165.217 65.2959 165.217 64.8759C165.217 63.6279 162.157 64.3359 162.157 62.2599C162.157 61.2279 162.937 60.5799 164.197 60.5799C165.085 60.5799 165.793 60.9039 166.249 61.5159L165.553 62.2119C165.229 61.7919 164.761 61.5639 164.161 61.5639C163.537 61.5639 163.201 61.8039 163.201 62.1759C163.201 63.3039 166.249 62.6559 166.249 64.7799C166.249 65.8479 165.433 66.5199 164.149 66.5199Z" fill="#2064AE"/>
<path d="M19.5 43.3999C13.8 42.9999 8.2 42.4999 2.6 42.0999C1.3 42.0999 0.1 43.4999 0 45.0999C0 46.4999 1 47.8999 2.4 47.9999C7.3 48.4999 12.2 48.0999 17.1 47.3999C19.1 47.0999 20.1 45.9999 20 43.7999C20 43.5999 19.8 43.3999 19.6 43.2999L19.5 43.3999ZM30.8 67.1999C30.6 67.0999 30.3 67.1999 30.1 67.2999C27 71.7999 23.9 76.2999 20.9 80.7999C19.9 82.2999 20.2 83.5999 21.5 84.7999C22.8 85.9999 24.9 85.7999 25.7 84.1999C27.9 80.0999 30.1 75.9999 32.2 71.7999C33.2 69.7999 32.8 68.4999 30.7 67.1999H30.8ZM22.4 57.1999C22.3 56.9999 22 56.8999 21.8 56.9999L6.8 63.8999C5.3 64.5999 4.9 66.3999 5.6 67.7999C6.3 69.1999 8.1 69.9999 9.4 69.1999C13.5 66.6999 17.6 64.1999 21.6 61.4999C23.2 60.3999 23.5 58.8999 22.5 57.0999L22.4 57.1999ZM49.5 1.2999C48.7 0.299902 47 -0.300098 45.9 0.0999018C44.5 0.499902 43.9 1.3999 43.9 3.0999C44.1 7.6999 44.4 12.2999 44.5 16.8999C44.5 18.5999 45.4 19.3999 46.8 19.8999C48 20.2999 48.3 20.1999 48.5 18.7999L49.8 2.3999C49.8 1.9999 49.7 1.5999 49.5 1.2999ZM23.8 30.3999L10.3 20.8999C8.9 19.9999 7.1 20.4999 6.2 21.9999C5.3 23.3999 5.7 25.1999 7.2 25.9999C11.4 28.1999 15.6 30.3999 19.8 32.4999C21.6 33.3999 23 32.8999 24 31.0999C24.1 30.8999 24 30.5999 23.9 30.4999L23.8 30.3999ZM34.8 21.4999C32.4 16.4999 30.1 11.5999 27.7 6.6999C27 5.1999 25.8 4.7999 24.2 5.1999C22.4 5.6999 21.4 7.5999 22.4 9.1999C24.9 13.2999 27.5 17.2999 30.2 21.2999C31.2 22.8999 32.8 23.0999 34.6 21.9999C34.8 21.8999 34.9 21.5999 34.8 21.3999V21.4999ZM69.4 6.2999C68 5.3999 66.3 5.5999 65.5 7.0999C63.2 11.2999 61 15.4999 58.9 19.6999C58 21.5999 58.4 22.8999 60.2 23.9999C60.4 24.0999 60.7 23.9999 60.8 23.8999L70.3 10.3999C71.2 9.0999 70.7 7.1999 69.4 6.2999ZM85.9 23.0999C85.1 21.9999 83.6 21.4999 82.4 22.2999C78.3 24.7999 74.2 27.3999 70.1 30.0999C68.5 31.0999 68.3 32.6999 69.5 34.4999C69.6 34.6999 69.9 34.7999 70.1 34.6999C75.1 32.2999 80 29.8999 85 27.4999C86.5 26.7999 87 24.4999 85.9 23.0999ZM69.4 82.3999C66.9 78.2999 64.3 74.1999 61.7 70.1999C60.6 68.4999 59.1 68.1999 57.3 69.2999C57.1 69.3999 57 69.6999 57.1 69.8999C57.3 70.3999 57.5 70.8999 57.7 71.2999C59.9 75.8999 62.1 80.4999 64.3 85.0999C64.9 86.3999 66.7 86.6999 68.2 85.8999C69.5 85.1999 70.2 83.4999 69.4 82.2999V82.3999ZM47.6 75.3999C47.4 73.3999 46.6 72.4999 44.8 71.9999C44.1 71.7999 43.6 71.9999 43.6 72.7999C43.2 78.1999 42.7 83.6999 42.3 89.0999C42.2 90.5999 43.7 91.9999 45.3 91.9999C46.8 91.9999 48.1 90.7999 48.1 89.1999L47.6 75.2999V75.3999ZM85.3 67.0999V67.2999C85.3 67.2999 85.3 67.1999 85.3 67.0999Z" fill="#FFDE23"/>
<path d="M63.5008 58.9998C63.6008 58.9998 63.7008 58.9998 63.8008 58.9998C63.1008 59.8998 62.4008 60.7998 61.5008 61.5998C57.7008 65.3998 52.5008 67.8998 46.4008 67.9998C33.8008 68.1998 23.9008 58.3998 23.8008 45.8998C23.8008 33.8998 33.6008 23.8998 45.6008 23.7998C55.5008 23.7998 63.9008 30.0998 66.8008 38.9998H54.1008L56.5008 36.5998L55.3008 35.1998C53.1008 32.7998 49.8008 31.3998 46.2008 31.3998C40.2008 31.3998 36.2008 34.8998 36.2008 40.0998C36.2008 45.2998 37.9008 45.6998 39.9008 46.9998V47.1998L33.9008 53.0998L35.1008 54.4998C37.8008 57.4998 40.9008 58.8998 45.1008 58.8998C49.3008 58.8998 53.7008 56.9998 55.1008 53.5998C56.4008 56.6998 59.5008 58.6998 63.4008 58.8998L63.5008 58.9998Z" fill="#FFDE23"/>
<path d="M45.1 56.8575C41.33 56.8575 38.7625 55.655 36.52 53.12L39.835 49.8375C41.2975 51.56 43.02 52.5025 45.425 52.5025C47.57 52.5025 48.8375 51.6575 48.8375 50.2925C48.8375 45.97 38.08 48.0175 38.08 39.9575C38.08 35.7325 41.395 33.1975 46.14 33.1975C49.3575 33.1975 52.12 34.4325 53.8425 36.35L50.5275 39.6325C49.1625 38.2025 47.7975 37.52 46.0425 37.52C44.2225 37.52 43.15 38.2025 43.15 39.47C43.15 43.4675 53.9075 41.485 53.9075 49.8375C53.9075 54.225 50.625 56.8575 45.1 56.8575ZM63.7228 56.8575C59.3678 56.8575 56.3128 53.965 56.3128 49.8375V40.705H61.2853V49.805C61.2853 51.43 62.1953 52.4375 63.7228 52.4375C65.2178 52.4375 66.1278 51.4625 66.1278 49.805V40.705H71.1003V49.8375C71.1003 53.9975 68.0778 56.8575 63.7228 56.8575ZM74.2223 56.5V40.705H79.1948V41.9725C80.2998 40.965 81.8598 40.38 83.6148 40.38C87.0923 40.38 89.6273 43.1425 89.6273 46.3925V56.5H84.6548V47.4975C84.6548 45.84 83.5173 44.735 81.9573 44.735C80.3648 44.735 79.1948 45.84 79.1948 47.4975V56.5H74.2223ZM98.5734 56.89C95.7459 56.89 92.9834 55.7525 91.3584 53.965L94.1859 51.105C95.2259 52.2425 96.6884 52.8925 98.3784 52.8925C99.5484 52.8925 100.198 52.535 100.198 51.9175C100.198 49.61 92.4959 51.1375 92.4959 45.32C92.4959 42.2975 94.9659 40.25 98.8334 40.25C101.498 40.25 103.903 41.1925 105.333 43.0125L102.506 45.8725C101.531 44.7025 100.231 44.28 99.0284 44.28C97.8909 44.28 97.3384 44.6375 97.3384 45.2225C97.3384 47.2375 105.008 45.9375 105.008 51.8525C105.008 54.9725 102.506 56.89 98.5734 56.89ZM107.706 56.5V32.905H112.679V41.875C113.751 40.9325 115.214 40.38 116.936 40.38C120.609 40.38 123.111 42.8825 123.111 46.3925V56.5H118.139V47.4975C118.139 45.84 117.001 44.735 115.441 44.735C113.849 44.735 112.679 45.84 112.679 47.4975V56.5H107.706ZM128.807 38.5275C127.247 38.5275 126.11 37.325 126.11 35.7975C126.11 34.27 127.247 33.0675 128.807 33.0675C130.367 33.0675 131.472 34.27 131.472 35.7975C131.472 37.325 130.367 38.5275 128.807 38.5275ZM126.305 56.5V40.705H131.277V56.5H126.305ZM134.779 56.5V40.705H139.751V41.9725C140.856 40.965 142.416 40.38 144.171 40.38C147.649 40.38 150.184 43.1425 150.184 46.3925V56.5H145.211V47.4975C145.211 45.84 144.074 44.735 142.514 44.735C140.921 44.735 139.751 45.84 139.751 47.4975V56.5H134.779ZM161.178 56.8575C156.043 56.8575 152.338 53.4125 152.338 48.6025C152.338 43.89 156.01 40.3475 160.82 40.3475C165.468 40.3475 168.783 43.6625 168.783 48.245C168.783 48.83 168.718 49.415 168.555 50.2275L157.245 50.26C157.765 52.015 159.13 53.0225 161.145 53.0225C162.705 53.0225 163.973 52.5025 164.915 51.3975L167.645 54.1275C166.085 55.9475 163.843 56.8575 161.178 56.8575ZM160.853 44.15C159.033 44.15 157.733 45.1575 157.245 46.8475L164.135 46.815C163.745 45.06 162.64 44.15 160.853 44.15Z" fill="#2064AE"/>
</g>
<defs>
<clipPath id="clip0_775_3361">
<rect width="176" height="92" fill="white"/>
</clipPath>
</defs>
</svg>
