<svg width="0" height="0" class="hidden">
  <symbol fill="none" xmlns="http://www.w3.org/2000/svg" viewBox="0 0 113 113" id="question">
    <path d="M56.5 113C87.7041 113 113 87.7041 113 56.5C113 25.2959 87.7041 0 56.5 0C25.2959 0 0 25.2959 0 56.5C0 87.7041 25.2959 113 56.5 113Z" fill="#A9CBEF"></path>
    <path d="M48.2857 45.5714C48.2857 41.5529 51.5529 38.2857 55.5714 38.2857H59.2143C63.2328 38.2857 66.5 41.5529 66.5 45.5714V45.9813C66.5 48.4629 65.2364 50.7739 63.1531 52.1058L58.3491 55.1908C55.4804 57.035 53.75 60.2112 53.75 63.615V63.7857C53.75 65.8007 55.3779 67.4286 57.3929 67.4286C59.4078 67.4286 61.0357 65.8007 61.0357 63.7857V63.6263C61.0357 62.6929 61.5138 61.8277 62.2879 61.3268L67.092 58.2417C71.2585 55.5551 73.7857 50.9446 73.7857 45.9813V45.5714C73.7857 37.523 67.2627 31 59.2143 31H55.5714C47.523 31 41 37.523 41 45.5714C41 47.5864 42.6279 49.2143 44.6429 49.2143C46.6578 49.2143 48.2857 47.5864 48.2857 45.5714ZM57.3929 82C58.6005 82 59.7588 81.5202 60.6127 80.6663C61.4667 79.8123 61.9464 78.6541 61.9464 77.4464C61.9464 76.2387 61.4667 75.0805 60.6127 74.2266C59.7588 73.3726 58.6005 72.8929 57.3929 72.8929C56.1852 72.8929 55.027 73.3726 54.173 74.2266C53.319 75.0805 52.8393 76.2387 52.8393 77.4464C52.8393 78.6541 53.319 79.8123 54.173 80.6663C55.027 81.5202 56.1852 82 57.3929 82Z" fill="#FFE866"></path>
  </symbol>
  <symbol fill="none" xmlns="http://www.w3.org/2000/svg" viewBox="0 0 113 113" id="signUp">
    <path d="M56.5 113C87.7041 113 113 87.7041 113 56.5C113 25.2959 87.7041 0 56.5 0C25.2959 0 0 25.2959 0 56.5C0 87.7041 25.2959 113 56.5 113Z" fill="#A9CBEF"></path>
    <rect x="23" y="46" width="67" height="23" rx="3" fill="#FFE866"></rect>
    <path d="M34.3588 62.15C32.6488 62.15 31.5088 61.58 30.5338 60.41L31.8838 59.06C32.5138 59.885 33.2788 60.35 34.4638 60.35C35.5288 60.35 36.2038 59.9 36.2038 59.165C36.2038 56.93 31.2238 58.055 31.2238 54.32C31.2238 52.415 32.7388 51.29 34.7938 51.29C36.2338 51.29 37.4188 51.875 38.1688 52.745L36.8188 54.095C36.2038 53.42 35.5888 53.105 34.7638 53.105C33.8188 53.105 33.2488 53.48 33.2488 54.155C33.2488 56.18 38.2288 55.13 38.2288 59C38.2288 60.965 36.7588 62.15 34.3588 62.15ZM40.6188 53.585C39.9738 53.585 39.5088 53.09 39.5088 52.46C39.5088 51.83 39.9738 51.335 40.6188 51.335C41.2638 51.335 41.7288 51.83 41.7288 52.46C41.7288 53.09 41.2638 53.585 40.6188 53.585ZM39.6288 62V54.755H41.6088V62H39.6288ZM46.2895 61.805C44.3245 61.805 42.8695 60.245 42.8695 58.19C42.8695 56.165 44.3245 54.605 46.2895 54.605C47.1445 54.605 47.8645 54.89 48.3595 55.37V54.755H50.3095V61.625C50.3095 63.785 48.6895 65.21 46.3795 65.21C44.8345 65.21 43.6345 64.64 42.9295 63.635L44.1745 62.39C44.7145 63.065 45.3895 63.41 46.3645 63.41C47.5795 63.41 48.3445 62.765 48.3445 61.655V61.055C47.8345 61.535 47.1295 61.805 46.2895 61.805ZM46.6795 60.02C47.7595 60.02 48.4645 59.27 48.4645 58.205C48.4645 57.14 47.7595 56.39 46.6795 56.39C45.5995 56.39 44.8795 57.155 44.8795 58.205C44.8795 59.24 45.5995 60.02 46.6795 60.02ZM52.036 62V54.755H54.001V55.445C54.511 54.92 55.246 54.605 56.101 54.605C57.706 54.605 58.876 55.955 58.876 57.41V62H56.911V57.845C56.911 56.99 56.311 56.39 55.456 56.39C54.616 56.39 54.001 56.99 54.001 57.845V62H52.036ZM67.7536 62.15C65.2636 62.15 63.4636 60.365 63.4636 57.92V51.455H65.5036V57.98C65.5036 59.39 66.4786 60.26 67.7536 60.26C69.0436 60.26 69.9736 59.39 69.9736 57.995V51.455H72.0286V57.935C72.0286 60.38 70.2436 62.15 67.7536 62.15ZM73.8329 65.03V54.755H75.7979V55.4C76.3079 54.905 77.0279 54.605 77.8529 54.605C79.8629 54.605 81.3629 56.24 81.3629 58.385C81.3629 60.53 79.8629 62.15 77.8529 62.15C77.0129 62.15 76.2929 61.865 75.7829 61.37V65.03H73.8329ZM77.5079 60.335C78.5879 60.335 79.3529 59.525 79.3529 58.37C79.3529 57.23 78.5879 56.42 77.5229 56.42C76.4279 56.42 75.6779 57.215 75.6779 58.37C75.6779 59.525 76.4279 60.335 77.5079 60.335Z" fill="#68A4E3"></path>
    <line x1="13.6486" y1="37.6118" x2="20.1834" y2="44.1466" stroke="#FFE866" stroke-width="2" stroke-linecap="round"></line>
    <line x1="10" y1="49" x2="19" y2="49" stroke="#FFE866" stroke-width="2" stroke-linecap="round"></line>
    <line x1="24" y1="33" x2="24" y2="42" stroke="#FFE866" stroke-width="2" stroke-linecap="round"></line>
    <line x1="99.0449" y1="36.6256" x2="92.5102" y2="43.1604" stroke="#FFE866" stroke-width="2" stroke-linecap="round"></line>
    <line x1="88" y1="33" x2="88" y2="42.2416" stroke="#FFE866" stroke-width="2" stroke-linecap="round"></line>
    <line x1="103.666" y1="47.4531" x2="94.4245" y2="47.4531" stroke="#FFE866" stroke-width="2" stroke-linecap="round"></line>
    <path d="M56.6006 66.1742C56.5061 65.3152 57.4722 64.7489 58.1755 65.2509L68.4375 72.5756C69.1109 73.0563 68.9426 74.1002 68.1523 74.3448L63.5486 75.7699C63.4014 75.8154 63.2668 75.8943 63.1552 76.0005L59.6623 79.3219C59.0627 79.892 58.0696 79.529 57.9792 78.7066L56.6006 66.1742Z" fill="#68A4E3"></path>
    <path d="M66.3879 82.8359C66.8469 83.5255 67.778 83.7126 68.4677 83.2537C69.1574 82.7947 69.3444 81.8636 68.8855 81.1739L66.3879 82.8359ZM68.8855 81.1739L62.0191 70.8549L59.5215 72.5169L66.3879 82.8359L68.8855 81.1739Z" fill="#68A4E3"></path>
  </symbol>
</svg>