<svg width="386" height="206" viewBox="0 0 386 206" fill="none" xmlns="http://www.w3.org/2000/svg">
<path d="M385.256 190.98C384.566 185.09 380.306 180.82 374.486 181.11C353.996 182.16 333.506 183.29 313.046 184.78C305.616 185.32 301.536 190.82 302.056 199.3C302.116 200.3 302.916 201.11 303.926 201.17C325.346 202.56 346.936 204.08 368.546 205.31C369.896 205.39 371.236 205.47 372.586 205.54C373.636 205.6 374.646 205.51 375.616 205.31C381.776 204 386.046 197.72 385.256 190.98ZM358.106 94.2202C354.506 89.5502 348.426 87.8502 343.346 91.1002C326.246 102 309.246 113.07 292.466 124.46C285.886 128.93 285.146 135.52 290.076 143.07C290.636 143.92 291.746 144.22 292.656 143.76C313.396 133.36 333.966 123.13 354.446 112.71C360.736 109.5 362.456 99.8602 358.106 94.2202ZM288.026 25.0402C282.246 21.1902 274.806 22.4502 271.656 28.4802C262.416 46.1502 253.266 63.8702 244.616 81.8302C240.756 89.8202 242.846 95.3102 250.386 99.8002C251.296 100.34 252.466 100.08 253.066 99.2102L292.056 41.9902C295.736 36.4302 293.586 28.7502 288.026 25.0402ZM143.966 90.9902C133.786 70.4102 123.796 49.9402 113.496 29.6202C110.316 23.3602 105.426 21.8102 98.566 23.6902C90.916 25.7902 87.036 34.0602 91.286 40.6802C102.156 57.5802 113.236 74.3502 124.636 90.8902C129.096 97.3802 135.806 98.2102 143.236 93.5902C144.106 93.0402 144.426 91.9102 143.966 90.9902ZM98.556 128.94L41.276 89.9002C35.536 86.1002 27.736 88.5202 24.056 94.5502C20.556 100.28 22.276 108.02 28.586 111.24C46.176 120.25 63.896 129.04 81.746 137.54C89.236 141.11 95.006 138.9 99.176 131.59C99.686 130.69 99.416 129.53 98.556 128.94ZM204.326 5.45024C201.096 1.16024 193.846 -1.04976 189.066 0.490237C183.436 2.32024 180.626 5.91024 180.996 12.9902C181.996 32.2202 183.706 51.4002 184.556 70.6302C184.866 77.7602 188.536 81.0702 194.536 83.0302C199.706 84.7202 201.006 84.0302 201.476 78.5002L205.706 9.96024C205.596 8.42024 205.226 6.64024 204.326 5.45024ZM83.376 185.39C83.336 184.36 82.516 183.52 81.486 183.46C57.786 181.98 34.306 180.43 10.806 179.13C5.29598 178.83 0.415977 185.01 0.0159774 191.83C-0.314023 197.49 4.51598 203.41 10.046 203.84C30.626 205.43 51.036 203.76 71.366 200.59C79.716 199.28 83.726 194.48 83.376 185.39Z" fill="#FFDE23"/>
<path d="M284.267 205.31H101.257C100.737 201.54 100.427 197.69 100.347 193.78C99.3771 143.57 140.097 100.97 190.117 99.8602C241.667 98.7102 283.927 139.22 284.977 190.79C285.157 195.66 284.917 200.52 284.267 205.31Z" fill="#FFDE23"/>
</svg>
