<svg width="410" height="343" viewBox="0 0 410 343" fill="none" xmlns="http://www.w3.org/2000/svg">
<path d="M364.658 190.553C364.658 273.825 296.541 341.351 212.489 341.351C128.437 341.351 60.3201 273.825 60.3201 190.553C60.3201 107.282 128.437 39.7557 212.489 39.7557C296.541 39.7557 364.658 107.282 364.658 190.553Z" stroke="#2064AE" stroke-width="2.74178"/>
<g clip-path="url(#clip0_367_4410)">
<path d="M348.544 142.603C345.538 145.984 339.954 144.647 339.954 144.647L342.408 154.868L342.609 156.164L346.09 178.581L324 183.896L324.409 159.365C324.409 159.365 321.136 160.183 317.454 158.139C313.773 156.094 308.864 145.056 309.007 141.605C309.146 138.155 314.182 116.846 315.818 113.984C317.454 111.122 335.863 112.758 341.181 113.984C346.008 115.096 344.769 130.023 344.499 132.766C344.47 133.048 344.454 133.199 344.454 133.199C345.272 131.973 346.499 131.973 346.499 131.973C348.953 131.973 349.772 134.017 349.772 134.017C349.772 134.017 351.817 138.923 348.544 142.603Z" fill="#CCA89A"/>
<g opacity="0.1">
<path d="M324.409 159.365C327.33 159.01 330.185 157.276 333.02 155.085C333.253 154.905 333.581 155.138 333.487 155.42L326.045 176.945L324.086 174.496L324.409 165.498V159.365Z" fill="black"/>
</g>
<path d="M344.005 133.98C343.506 133.482 343.178 132.848 343.027 132.161C341.857 126.793 337.905 118.89 337.905 118.89C325.633 124.614 315.406 118.481 315.406 118.481C315.406 118.481 309.961 137.746 309.004 141.605L308.93 141.524C307.31 137.938 306.406 133.94 306.406 129.724C306.406 114.258 318.584 101.719 333.61 101.719C348.635 101.719 360.814 114.258 360.814 129.724C360.814 141.949 353.209 152.337 342.606 156.164L342.405 154.868L339.951 144.647C339.951 144.647 345.535 145.984 348.541 142.603C351.814 138.923 349.768 134.017 349.768 134.017C349.768 134.017 348.95 131.973 346.496 131.973C346.496 131.973 345.269 131.973 344.45 133.2L344.062 133.972C344.05 133.993 344.021 133.997 344.005 133.98Z" fill="#2064AE"/>
<path d="M319.721 131.209C320.319 129.469 320.198 127.85 319.45 127.593C318.702 127.336 317.611 128.539 317.013 130.279C316.415 132.02 316.536 133.639 317.284 133.895C318.032 134.152 319.123 132.949 319.721 131.209Z" fill="#2064AE"/>
<path d="M332.571 133.797C333.169 132.057 333.048 130.438 332.3 130.181C331.552 129.924 330.461 131.127 329.863 132.867C329.264 134.608 329.386 136.227 330.133 136.483C330.881 136.74 331.972 135.538 332.571 133.797Z" fill="#2064AE"/>
<path d="M324.817 130.338C324.817 130.338 321.208 139.353 319.073 141.127C318.905 141.266 318.914 141.524 319.098 141.638L321.949 143.421" stroke="#2064AE" stroke-width="0.480332" stroke-miterlimit="10"/>
<path d="M319.092 152.006C319.092 152.006 326.046 156.503 332.182 144.238" stroke="#2064AE" stroke-width="0.480332" stroke-miterlimit="10"/>
<path d="M344.859 137.697L344.041 141.785" stroke="#2064AE" stroke-width="0.480332" stroke-miterlimit="10"/>
<path d="M209.868 192.89C211.095 191.663 229.503 198.614 230.321 198.614C231.017 198.614 216.891 189.427 212.674 186.696C212.457 186.557 212.604 186.222 212.854 186.283C218.176 187.649 237.443 192.649 238.499 193.704C239.669 194.873 227.09 186.013 226.967 184.12C226.959 184.014 227.086 183.945 227.18 183.994C228.865 184.852 245.535 190.314 252.616 191.578C253.925 191.811 255.009 192.718 255.455 193.973C256.801 197.776 259.992 205.38 261.403 208.017L242.177 216.603C242.177 216.603 242.177 212.514 237.268 210.879C233.062 209.476 224.349 202.072 221.428 199.726C220.88 199.284 220.25 198.961 219.571 198.773C214.093 197.248 210.232 195.408 209.859 192.89H209.868Z" fill="#CCA89A"/>
<path d="M301.908 295.918H398.859C395.304 282.884 389.487 264.641 387.339 243.226C385.683 226.709 382.623 208.974 377.8 191.398C375.132 178.172 369.814 177.763 359.142 176.128L348.951 173.675C337.96 181.684 329.332 183.307 323.998 174.084L304.861 176.762C304.039 176.876 303.323 177.395 302.959 178.148C293.096 198.54 284.8 217.883 279.813 235.005L264.268 204.751L235.633 217.425C247.742 243.827 257.932 270.136 265.905 296.331L301.903 295.922L301.908 295.918Z" fill="#FFF099"/>
<path d="M348.952 173.675L332.527 196.668L324.804 206.5L324.407 194.526L323.998 174.149C323.998 174.149 324.023 174.125 324.031 174.141C329.369 183.299 337.98 181.664 348.952 173.675Z" fill="#A9CBEF"/>
<path d="M353.453 224.37C357.024 246.509 359.692 270.569 361.757 295.909" stroke="#2064AE" stroke-width="0.480332" stroke-miterlimit="10"/>
<path d="M406.288 295.59H3.60807C1.61539 295.59 0 297.205 0 299.196V311.609C0 313.6 1.61539 315.215 3.60807 315.215H406.288C408.281 315.215 409.896 313.6 409.896 311.609V299.196C409.896 297.205 408.281 295.59 406.288 295.59Z" fill="#E9F2FB"/>
<path d="M68.5801 295.68C72.8549 302.569 77.6125 309.123 82.8037 315.304Z" fill="#FFF7CC"/>
<path d="M196.049 225.564C196.049 225.564 196.049 196.128 196.867 195.31C197.685 194.493 198.503 195.31 198.503 195.31L202.594 210.437C202.594 210.437 211.185 188.769 212.003 188.769C212.821 188.769 212.821 189.586 212.821 189.586L211.185 208.802C211.185 208.802 221.003 188.769 224.275 189.586L218.139 209.62C218.139 209.62 226.73 197.763 227.957 197.763C229.184 197.763 222.23 212.073 222.23 212.073L231.5 205.625C231.569 205.576 231.663 205.609 231.684 205.691C231.831 206.267 232.207 208.295 230.82 210.028C229.184 212.073 209.957 235.376 209.957 235.376L196.049 225.564Z" fill="#F0DFD6"/>
<path d="M114.074 107.393C117.199 107.393 125.814 114.098 126.943 114.99L127.88 120.611C127.635 120.46 127.385 120.305 127.131 120.145C122.709 117.332 116.606 112.058 116.544 112.005L116.205 111.711L115.943 112.075C115.812 112.259 102.664 130.387 89.2262 133.486C89.173 132.541 89.1812 129.655 90.0935 121.764C90.5925 117.43 94.3111 113.775 101.147 110.901C106.444 108.673 112.13 107.622 113.873 107.406C113.935 107.398 114.004 107.393 114.074 107.393ZM114.074 106.985C113.988 106.985 113.902 106.989 113.82 107.001C110.547 107.41 90.9116 111.089 89.6844 121.719C88.4572 132.349 88.8662 133.984 88.8662 133.984C102.775 131.122 116.274 112.316 116.274 112.316C116.274 112.316 122.411 117.631 126.91 120.493C127.495 120.865 127.999 121.167 128.428 121.417L127.32 114.769C127.32 114.769 117.583 106.985 114.074 106.985Z" fill="black"/>
<path d="M111.777 158.924L117.914 186.725L91.3235 189.178C91.3235 189.178 96.9728 157.938 97.4269 153.601C97.4474 153.605 97.4596 153.609 97.4596 153.609C97.4596 153.609 97.4596 153.535 97.4515 153.396V153.388C97.4555 153.31 97.4596 153.245 97.4596 153.2C97.4596 152.591 97.3124 151.945 97.1078 151.336C97.0424 151.074 96.9647 150.792 96.8706 150.494C96.7438 150.085 96.4165 149.545 95.9747 148.944C95.9706 148.936 95.9624 148.924 95.9542 148.911C95.8724 148.776 95.8233 148.703 95.8233 148.703L95.6515 148.515C94.0684 146.483 91.5485 144.018 91.3357 143.809C91.3276 143.801 91.3235 143.797 91.3235 143.797C88.4599 145.432 86.7541 144.782 85.5964 144.206C83.9601 143.388 80.6875 137.664 83.551 135.211C86.4145 132.758 88.869 133.985 88.869 133.985C102.778 131.123 116.277 112.316 116.277 112.316C116.277 112.316 122.413 117.631 126.913 120.493C127.498 120.865 128.001 121.168 128.431 121.417L131.004 136.846C131.822 163.012 111.777 158.924 111.777 158.924Z" fill="#F0DFD6"/>
<path d="M118.323 132.349C118.323 132.349 121.187 140.526 122.823 140.935C122.823 140.935 120.369 144.614 117.914 144.614" stroke="#2064AE" stroke-width="0.960664" stroke-miterlimit="10"/>
<path d="M109.224 137.641C110.121 137.536 110.711 136.27 110.541 134.812C110.371 133.354 109.505 132.257 108.608 132.362C107.71 132.466 107.12 133.733 107.29 135.191C107.46 136.648 108.326 137.745 109.224 137.641Z" fill="#2064AE"/>
<path d="M126.645 133.498C127.543 133.393 128.133 132.127 127.963 130.669C127.793 129.211 126.927 128.114 126.03 128.219C125.132 128.323 124.542 129.59 124.712 131.048C124.882 132.505 125.748 133.602 126.645 133.498Z" fill="#2064AE"/>
<path d="M110.587 143.052C113.47 142.493 115.134 138.575 114.304 134.301C113.474 130.028 110.463 127.017 107.58 127.577C104.697 128.136 103.033 132.054 103.863 136.328C104.693 140.601 107.704 143.612 110.587 143.052Z" stroke="#A9CBEF" stroke-width="0.960664" stroke-miterlimit="10"/>
<path d="M113.473 131.834C115.927 127.603 118.705 127.525 121.72 130.387" stroke="#A9CBEF" stroke-width="0.960664" stroke-miterlimit="10"/>
<path d="M128.499 137.934C131.382 137.375 133.046 133.457 132.216 129.183C131.386 124.91 128.375 121.899 125.492 122.458C122.609 123.018 120.945 126.936 121.775 131.21C122.605 135.483 125.616 138.494 128.499 137.934Z" stroke="#A9CBEF" stroke-width="0.960664" stroke-miterlimit="10"/>
<path d="M103.778 132.169L88.8711 133.576" stroke="#A9CBEF" stroke-width="0.960664" stroke-miterlimit="10"/>
<path d="M96.231 181.001C97.8223 181.782 109.354 192.215 115.049 181.001L136.321 289.752H90.5039L96.231 181.001Z" fill="#FFF7CC"/>
<path d="M115.458 176.913L119.647 177.579C121.414 177.89 124.237 178.658 125.902 179.321C133.433 182.334 136.321 187.951 141.639 196.537C148.593 207.167 161.88 226.292 173.952 247.634H173.96L176.214 245.05L192.708 221.165C192.708 221.165 192.712 221.165 192.716 221.165L212.405 234.15C212.405 234.15 212.405 234.15 212.405 234.154C205.246 255.79 198.484 274.22 189.088 285.664C185.623 289.789 183.786 292.716 179.434 294.364C177.621 295.051 175.298 295.026 173.359 295.092L159.233 291.392C159.233 291.392 159.225 291.392 159.225 291.4L160.857 296.698C160.857 296.698 160.857 296.706 160.853 296.706L129.366 294.253C129.366 294.253 129.362 294.253 129.362 294.249C125.55 253.038 113.257 179.296 110.978 179.366C110.974 179.366 110.97 179.366 110.974 179.362C111.248 179.239 114.092 177.951 115.45 176.921L115.458 176.913Z" fill="#A9CBEF"/>
<path d="M136.73 221.885C142.891 236.407 151.003 263.513 159.234 291.396" stroke="#2064AE" stroke-width="0.960664" stroke-miterlimit="10"/>
<path d="M203.314 23.7126C214.18 22.9562 256.486 20.6872 265.494 23.7126C320.311 42.1103 309.515 77.9205 276.13 92.8063C260.356 99.8384 231.962 82.7734 203.314 98.1212C189.214 105.677 175.325 130.951 175.906 142.276C176.892 161.512 211.343 171.575 230.312 170.676" stroke="#68A4E3" stroke-width="2.74178" stroke-miterlimit="10" stroke-dasharray="13.71 13.71"/>
<path d="M113.004 284.437L130.656 279.731C131.139 279.601 131.654 279.674 132.083 279.928L168.225 301.199C168.225 301.199 169.453 303.652 166.998 303.652C166.998 303.652 146.953 293.432 144.499 293.84C144.499 293.84 157.18 299.564 157.589 300.382C157.999 301.199 160.453 304.47 159.635 304.879C158.817 305.288 159.226 305.697 156.771 304.879C154.317 304.061 138.772 295.885 132.227 296.293C125.681 296.702 117.5 295.476 116.273 293.432C115.045 291.387 113 284.437 113 284.437H113.004Z" fill="#F0DFD6"/>
<path d="M104.418 145.841C104.631 146.16 108.93 154.247 123.645 151.156" stroke="#2064AE" stroke-width="0.960664" stroke-miterlimit="10"/>
<g opacity="0.1">
<path d="M108.791 158.404L111.773 158.92L115.455 176.908L114.227 177.726L107.073 163.065C106.389 161.667 105.6 160.322 104.716 159.042L102.556 155.927C102.507 155.857 102.585 155.771 102.659 155.812L105.154 157.17C106.287 157.787 107.514 158.204 108.791 158.404Z" fill="black"/>
</g>
<path d="M88.459 138.073L90.0953 141.343" stroke="#2064AE" stroke-width="0.960664" stroke-miterlimit="10"/>
<path d="M115.867 272.581L120.776 296.294L60.069 307.475L55.3237 308.559C48.8971 309.683 41.6605 309.908 35.2789 308.559L30.7095 307.165C14.915 302.974 12.7796 279.785 18.9158 265.222L30.6277 239.71C33.4503 233.557 36.6984 227.613 40.3474 221.909L54.8124 199.305C60.744 190.31 69.2365 183.299 79.1934 179.178L93.773 174.873C93.7525 175.764 98.9233 181.271 103.591 181.005C99.8191 209.616 97.2092 240.54 95.4093 272.994L115.863 272.585L115.867 272.581Z" fill="#A9CBEF"/>
<path d="M76.1884 216.979L60.2344 276.669L95.4151 272.99" stroke="#2064AE" stroke-width="0.960664" stroke-miterlimit="10"/>
<path d="M128.43 121.417C128 121.167 127.497 120.865 126.912 120.493C122.412 117.631 116.276 112.316 116.276 112.316C116.276 112.316 102.777 131.123 88.868 133.984C88.868 133.984 86.4135 132.758 83.5499 135.211C80.6864 137.664 84.3681 143.797 85.5953 144.205C86.8226 144.614 88.4589 145.432 91.3224 143.797C91.3224 143.797 91.3265 143.797 91.3347 143.809C91.5474 144.017 94.0673 146.483 95.6505 148.515C95.7568 148.649 95.855 148.784 95.9532 148.911C95.9614 148.923 95.9695 148.936 95.9736 148.944C96.4154 149.545 96.7427 150.084 96.8695 150.493C96.9636 150.792 97.0413 151.074 97.1068 151.336C97.3522 152.321 97.4259 153.044 97.4504 153.388V153.396C97.4586 153.535 97.4586 153.609 97.4586 153.609C97.4586 153.609 97.4463 153.609 97.4259 153.601C96.6363 153.396 81.0423 149.263 79.0501 139.299C77.0047 129.078 77.0047 125.808 79.0501 121.31C79.991 119.242 80.7559 117.525 81.3123 116.269C74.0266 115.317 68.4141 109.336 68.4141 102.095C68.4141 94.1921 75.0984 87.7856 83.3454 87.7856C91.5924 87.7856 96.7795 93.1905 97.0495 100.868C101.844 100.766 113.65 101.551 118.322 103.73C123.316 106.061 127.771 112.455 129.252 114.753L129.264 114.765C129.735 115.501 130.025 116.339 130.168 117.198L131.003 122.128C131.003 122.128 131.314 123.056 128.43 121.417Z" fill="#E9F2FB"/>
<path d="M92.9592 148.703C94.5407 148.703 95.8228 147.421 95.8228 145.841C95.8228 144.26 94.5407 142.979 92.9592 142.979C91.3778 142.979 90.0957 144.26 90.0957 145.841C90.0957 147.421 91.3778 148.703 92.9592 148.703Z" fill="#FFF7CC"/>
<path d="M178.399 259.948V263.19C172.848 265.442 168.949 270.79 168.949 277.029C168.949 283.268 172.852 288.615 178.399 290.868V292.806C178.399 294.343 179.647 295.594 181.189 295.594H204.94C206.478 295.594 207.73 294.347 207.73 292.806V259.948C207.73 258.41 206.482 257.159 204.94 257.159H181.189C179.651 257.159 178.399 258.406 178.399 259.948ZM178.399 287.761C174.378 285.75 171.625 281.657 171.625 276.939C171.625 272.221 174.378 268.124 178.399 266.113V287.761Z" fill="#FFE866"/>
<path d="M270.76 257.159H247.009C245.471 257.159 244.219 258.406 244.219 259.948V292.806C244.219 294.343 245.466 295.594 247.009 295.594H270.76C272.298 295.594 273.55 294.347 273.55 292.806V290.868C279.101 288.615 282.999 283.268 282.999 277.029C282.999 270.79 279.097 265.442 273.55 263.19V259.948C273.55 258.41 272.302 257.159 270.76 257.159ZM273.55 266.109C277.571 268.12 280.324 272.217 280.324 276.935C280.324 281.653 277.571 285.745 273.55 287.757V266.109Z" fill="#68A4E3"/>
<path d="M163.001 0C135.794 0 113.74 22.0446 113.74 49.2324C113.74 63.2228 119.586 75.8355 128.962 84.8013L128.172 90.1367L126.913 98.6405L134.914 95.4802L140.776 93.1621C147.456 96.5473 155.004 98.4647 163.005 98.4647C190.213 98.4647 212.267 76.4201 212.267 49.2324C212.267 22.0446 190.205 0 163.001 0Z" fill="#FFF099"/>
<path d="M253.833 181.115C274.957 181.115 292.082 164.001 292.082 142.889C292.082 121.777 274.957 104.662 253.833 104.662C232.709 104.662 215.584 121.777 215.584 142.889C215.584 164.001 232.709 181.115 253.833 181.115Z" fill="#E9F2FB"/>
<path d="M236.187 154.083C237.934 154.549 239.263 153.87 239.677 152.353C239.971 151.282 240.196 150.178 240.315 149.079C240.348 148.776 239.971 148.302 239.656 148.11C238.646 147.492 237.476 147.104 236.547 146.393C231.258 142.37 233.16 135.796 236.371 133.028C238.327 131.339 240.564 130.145 242.982 129.352C244.209 128.947 244.68 128.314 244.95 127.079C245.698 123.616 247.605 120.979 251.024 119.646C253.696 118.604 254.342 119.009 254.453 121.809C254.551 124.303 253.442 126.323 251.597 127.844C250.186 129.005 248.537 129.892 246.966 130.849C246.156 131.339 245.15 133.453 245.514 134.291C245.641 134.577 246.071 134.761 246.398 134.925C247.862 135.661 249.216 136.515 249.949 138.069C251.667 141.72 249.499 146.372 245.338 147.971C245.158 148.04 244.974 148.142 244.79 148.151C242.851 148.228 242.299 149.451 242.111 151.147C241.914 152.93 240.982 154.402 239.705 155.636C238.29 157.01 235.627 157.137 233.921 155.955C232.297 154.827 231.503 152.251 232.244 150.518C232.73 149.377 233.99 148.441 235.132 148.58C236.199 148.711 237.263 149.021 237.717 150.207C238.167 151.38 237.844 152.456 236.735 153.506C236.576 153.658 236.429 153.825 236.183 154.087L236.187 154.083ZM242.581 138.269C240.814 138.751 239.713 139.606 239.349 141.413C237.881 138.056 238.989 135.538 242.201 134.782C243.555 134.463 243.608 133.637 243.6 132.435C240.348 133.637 237.406 134.97 236.15 138.494C235.046 141.593 237.599 145.391 241.076 145.51C241.558 143.183 242.045 140.832 242.577 138.269H242.581ZM244.639 138.322C244.156 140.865 243.69 143.33 243.215 145.82C246.177 145.967 247.29 143.903 247.617 141.752C247.879 140.043 246.525 138.539 244.639 138.322ZM252.023 121.65C249.576 121.797 247.118 124.565 246.827 127.754C249.916 127.5 252.775 124.193 252.023 121.65Z" fill="#68A4E3"/>
<path d="M261.041 132.644C263.43 128.42 265.782 124.266 268.228 119.945C268.928 120.693 269.492 121.29 270.049 121.899C271.795 123.813 273.526 125.738 275.293 127.631C275.739 128.11 275.821 128.518 275.53 129.119C273.325 133.674 271.153 138.245 268.96 142.807C268.498 143.764 267.647 144.234 266.649 144.377C265.078 144.602 263.61 144.336 262.309 143.335C260.914 142.264 260.411 140.452 261.188 139.116C262.186 137.394 263.966 136.691 265.651 137.566C266.67 138.093 267.508 138.964 268.523 139.753C268.711 139.402 268.965 138.952 269.194 138.494C270.077 136.736 270.928 134.962 271.844 133.216C272.241 132.46 272.127 131.944 271.529 131.327C269.987 129.737 268.527 128.065 267.034 126.425C266.931 126.315 266.813 126.221 266.629 126.049C266.432 126.339 266.244 126.568 266.105 126.826C264.71 129.377 263.344 131.94 261.928 134.479C260.476 137.079 258.116 137.738 255.457 136.331C253.44 135.264 252.72 133.322 253.739 131.683C254.884 129.831 257.089 129.385 258.942 130.71C259.687 131.241 260.304 131.949 261.049 132.64L261.041 132.644ZM272.949 130.362C273.783 129.68 273.738 129.123 273.125 128.453C271.689 126.883 270.306 125.268 268.899 123.678C268.744 123.502 268.547 123.359 268.269 123.114C268.003 123.674 267.357 124.029 267.897 124.655C269.554 126.56 271.239 128.437 272.949 130.366V130.362Z" fill="#68A4E3"/>
<path d="M252.002 159.901C252.821 156.242 253.573 152.885 254.326 149.529C254.837 147.243 255.341 144.954 255.889 142.677C255.954 142.399 256.314 141.953 256.478 141.973C257.01 142.047 257.77 141.851 257.955 142.636C258.474 144.888 259.718 146.789 260.953 148.67C262.442 150.927 263.358 153.29 262.81 156.013C262.364 158.212 260.974 159.848 259.333 161.275C259.174 161.414 258.85 161.36 258.601 161.397C258.666 161.176 258.679 160.919 258.805 160.735C261.391 156.949 260.667 152.591 257.455 149.328C257.226 149.095 256.911 148.948 256.486 148.658C256.22 149.725 255.95 150.661 255.758 151.614C254.989 155.375 254.224 159.136 253.496 162.902C253.283 164.006 252.718 164.84 251.782 165.408C249.916 166.54 247.904 167.007 245.776 166.356C244.079 165.837 243.215 164.5 243.019 162.824C242.823 161.123 243.575 159.733 244.946 158.732C246.615 157.513 248.358 157.534 250.096 158.609C250.685 158.973 251.25 159.386 251.998 159.893L252.002 159.901Z" fill="#68A4E3"/>
<path d="M157.01 30.7403C168.133 28.9742 180.36 31.5089 186.382 41.4928C194.432 54.8332 185.171 58.9747 185.171 58.9747C185.171 58.9747 182.757 60.651 179.436 59.9519C177.411 59.5267 174.547 58.5741 172.624 57.8954C170.293 57.0736 167.724 58.4882 167.27 60.9167C167.257 60.974 167.249 61.0312 167.241 61.0925C166.828 63.9094 170.608 65.6633 170.608 65.6633C170.608 65.6633 173.299 68.3903 171.344 71.1213C170.694 72.033 169.556 72.8303 168.337 73.4885C165.482 75.0298 162.238 75.684 158.998 75.4673C152.723 75.0462 140.851 73.1819 135.002 65.2668C130.158 58.7172 130.943 53.4554 131.483 51.5748C131.586 51.2191 131.668 50.8552 131.733 50.4872C132.13 48.2264 134.138 40.6301 143.609 35.2866C147.45 33.1198 152.126 31.513 157.014 30.7362L157.01 30.7403Z" fill="#A9CBEF"/>
<path d="M157.063 40.0171C158.629 40.0171 159.898 38.7486 159.898 37.1838C159.898 35.6191 158.629 34.3506 157.063 34.3506C155.498 34.3506 154.229 35.6191 154.229 37.1838C154.229 38.7486 155.498 40.0171 157.063 40.0171Z" fill="#FFDE23"/>
<path d="M138.999 53.9993C140.565 53.9993 141.834 52.7308 141.834 51.166C141.834 49.6013 140.565 48.3328 138.999 48.3328C137.433 48.3328 136.164 49.6013 136.164 51.166C136.164 52.7308 137.433 53.9993 138.999 53.9993Z" fill="#68A4E3"/>
<path d="M151.747 71.2073C153.313 71.2073 154.582 69.9388 154.582 68.374C154.582 66.8093 153.313 65.5408 151.747 65.5408C150.181 65.5408 148.912 66.8093 148.912 68.374C148.912 69.9388 150.181 71.2073 151.747 71.2073Z" fill="#FFDE23"/>
<path d="M183.95 50.655C183.844 52.5765 182.261 54.0974 180.244 54.3713C179.945 54.4122 179.639 54.4245 179.324 54.4081C178.587 54.3672 177.904 54.1669 177.307 53.8439C175.936 53.0998 175.049 51.7139 175.135 50.1767C175.241 48.2551 176.824 46.7342 178.845 46.4603C179.144 46.4194 179.45 46.4072 179.761 46.4235C180.559 46.4685 181.295 46.6974 181.921 47.0695C183.21 47.8299 184.032 49.1709 183.954 50.655H183.95Z" fill="#FFF099"/>
<path d="M176.258 59.0977C177.207 59.347 178.156 59.576 178.998 59.7477C176.863 67.7609 174.916 75.0546 174.274 77.4463C174.147 77.9247 173.619 78.2477 173.022 78.215C172.727 75.7129 174.31 67.6465 176.253 59.0977H176.258Z" fill="#2064AE"/>
<path d="M187.203 26.5417C187.203 26.5417 186.826 33.4429 185.885 36.5051C185.648 37.2819 184.789 40.0088 183.64 43.6516C183.079 45.43 182.445 47.4292 181.786 49.5225C181.283 51.1088 180.764 52.7523 180.244 54.3959C179.946 54.4163 179.639 54.4204 179.324 54.404C178.587 54.3631 177.9 54.216 177.299 53.987C177.765 52.3067 178.24 50.6427 178.698 49.0564C179.471 46.3785 180.207 43.9173 180.805 41.9508C181.656 39.1462 182.224 37.3432 182.224 37.3432L185.66 26.4558L187.203 26.5417Z" fill="#2064AE"/>
<path d="M189.785 17.1426C189.785 17.1426 188.066 20.2457 188.455 22.5965C188.844 24.9432 188.991 26.9874 187.927 27.5107C186.868 28.034 185.256 27.6211 184.642 26.1697C183.579 23.6472 185.281 19.2236 189.785 17.1467V17.1426Z" fill="#68A4E3"/>
<path d="M155.638 33.3202C155.638 33.451 155.638 33.5819 155.638 33.7086C155.638 33.8926 155.679 34.0643 155.773 34.2237C155.891 34.42 155.973 34.6326 156.002 34.8615C156.018 34.9719 156.022 35.0823 156.039 35.1927C156.047 35.2826 156.1 35.3358 156.182 35.3644C156.268 35.393 156.358 35.393 156.444 35.3848C156.497 35.3807 156.534 35.348 156.562 35.3072C156.636 35.2049 156.71 35.1027 156.787 35.0046C156.836 34.9433 156.898 34.886 156.963 34.837C157.02 34.7879 157.094 34.7675 157.172 34.7716C157.286 34.7716 157.389 34.8002 157.479 34.8779C157.495 34.8942 157.52 34.9065 157.536 34.9228C157.65 35.0251 157.781 35.0169 157.912 34.9637C158.002 34.9269 158.08 34.8697 158.145 34.7961C158.235 34.6939 158.244 34.5876 158.195 34.4649C158.166 34.3914 158.141 34.3137 158.109 34.2401C158.015 34.0398 158.01 33.8394 158.088 33.6391C158.125 33.5369 158.166 33.4388 158.211 33.3406C158.276 33.1975 158.375 33.0831 158.534 33.034C158.669 32.9931 158.808 32.989 158.943 33.0258C159.246 33.1035 159.41 33.3815 159.315 33.68C159.254 33.8721 159.185 34.0602 159.115 34.2483C159.054 34.4241 158.984 34.5958 158.955 34.7838C158.935 34.9147 158.935 35.0373 159 35.16C159.086 35.3235 159.299 35.4462 159.483 35.4298C159.565 35.4216 159.63 35.3767 159.692 35.3276C159.737 35.2949 159.774 35.2581 159.814 35.2213C159.909 35.1314 159.999 35.0332 160.093 34.9433C160.138 34.9024 160.187 34.8656 160.236 34.8329C160.375 34.7348 160.596 34.7961 160.645 34.9719C160.669 35.0578 160.698 35.1436 160.706 35.2336C160.723 35.393 160.649 35.5279 160.547 35.6465C160.428 35.7896 160.277 35.8918 160.093 35.949C159.99 35.9817 159.888 36.0185 159.786 36.0594C159.704 36.0921 159.63 36.1412 159.577 36.2148C159.504 36.3129 159.508 36.4519 159.581 36.5459C159.667 36.6481 159.782 36.6972 159.909 36.7136C160.17 36.7504 160.399 36.6727 160.608 36.5173C160.89 36.3047 161.169 36.088 161.451 35.8795C161.606 35.7651 161.766 35.6628 161.929 35.5647C162.109 35.4584 162.306 35.4012 162.506 35.3603C162.686 35.3235 162.87 35.3112 163.054 35.3317C163.161 35.3439 163.267 35.3603 163.361 35.4175C163.578 35.5484 163.664 35.761 163.598 36.0226C163.578 36.1126 163.533 36.1943 163.488 36.2761C163.447 36.3538 163.378 36.3906 163.283 36.3824C163.132 36.362 162.981 36.3456 162.833 36.3292C162.662 36.3047 162.486 36.3047 162.314 36.3129C161.946 36.3333 161.606 36.4478 161.275 36.595C161.087 36.6809 160.903 36.7749 160.731 36.8812C160.624 36.9466 160.547 37.0325 160.522 37.1633C160.502 37.2778 160.526 37.38 160.612 37.4617C160.657 37.5067 160.714 37.5435 160.764 37.5885C160.829 37.6457 160.899 37.6989 160.964 37.7602C161.074 37.8583 161.099 38.1404 160.952 38.2671C160.878 38.3285 160.8 38.3898 160.731 38.4552C160.682 38.5002 160.637 38.5492 160.596 38.6024C160.518 38.7005 160.522 38.8109 160.571 38.9213C160.62 39.0235 160.702 39.0889 160.796 39.1461C161.034 39.2811 161.283 39.3219 161.549 39.2647C161.643 39.2443 161.741 39.2279 161.839 39.2238C162.069 39.2116 162.269 39.2933 162.453 39.4201C162.715 39.604 162.887 39.8493 162.981 40.1519C163.022 40.2868 163.054 40.4217 163.05 40.5648C163.05 40.7324 163.05 40.9001 163.05 41.0718C163.05 41.1576 163.034 41.2435 163.013 41.3253C162.981 41.4724 162.887 41.5828 162.764 41.6646C162.645 41.7464 162.523 41.7341 162.404 41.6646C162.24 41.5706 162.122 41.4356 162.024 41.2762C161.893 41.0636 161.811 40.8265 161.749 40.5853C161.717 40.4544 161.68 40.3277 161.639 40.201C161.561 39.9638 161.398 39.8003 161.185 39.6858C161.021 39.6 160.854 39.5305 160.669 39.4937C160.534 39.465 160.42 39.4937 160.318 39.5918C160.146 39.7512 160.084 39.9434 160.146 40.1682C160.166 40.2459 160.207 40.3236 160.256 40.3931C160.383 40.5853 160.522 40.7692 160.649 40.9614C160.755 41.1208 160.858 41.2844 160.923 41.4643C160.972 41.6074 161.005 41.7504 160.989 41.9017C160.984 41.9426 160.964 41.9876 160.939 42.0203C160.825 42.1756 160.563 42.2492 160.383 42.1838C160.24 42.1307 160.158 42.0285 160.142 41.8772C160.121 41.7096 160.109 41.5379 160.084 41.3702C160.064 41.2108 160.039 41.0513 159.982 40.9001C159.896 40.6711 159.741 40.5198 159.508 40.4544C159.352 40.4135 159.201 40.4258 159.058 40.5158C159 40.5526 158.976 40.6016 158.964 40.6629C158.947 40.7651 158.951 40.8633 158.96 40.9655C158.968 41.0513 158.968 41.1413 158.972 41.2271C158.972 41.2844 158.951 41.3293 158.91 41.3661C158.857 41.4152 158.796 41.4479 158.726 41.4683C158.649 41.4929 158.587 41.4765 158.53 41.4234C158.444 41.3498 158.379 41.2558 158.321 41.1617C158.207 40.9696 158.141 40.7529 158.068 40.5444C158.055 40.5076 158.039 40.4708 158.019 40.434C157.978 40.3604 157.92 40.3154 157.83 40.3072C157.7 40.2991 157.605 40.3522 157.556 40.4749C157.479 40.6793 157.475 40.8837 157.52 41.0963C157.585 41.3907 157.679 41.6769 157.794 41.9549C157.9 42.2247 158.031 42.4864 158.145 42.7562C158.199 42.8788 158.256 43.0056 158.301 43.1323C158.342 43.255 158.342 43.3858 158.305 43.5085C158.268 43.6393 158.174 43.721 158.043 43.7538C157.998 43.766 157.953 43.7538 157.916 43.7251C157.847 43.6761 157.794 43.6066 157.749 43.533C157.638 43.349 157.577 43.1528 157.556 42.9402C157.536 42.7235 157.511 42.5027 157.495 42.2819C157.479 42.0407 157.438 41.8036 157.389 41.5706C157.307 41.1699 157.176 40.7856 156.992 40.4217C156.971 40.3808 156.943 40.34 156.91 40.3032C156.873 40.2582 156.82 40.2459 156.763 40.2541C156.579 40.2786 156.481 40.3972 156.427 40.5607C156.382 40.6875 156.382 40.8224 156.399 40.9532C156.403 40.99 156.423 41.0268 156.44 41.0595C156.501 41.1903 156.566 41.3171 156.632 41.4479C156.685 41.5542 156.714 41.6687 156.714 41.7913C156.714 41.8854 156.714 41.9835 156.71 42.0775C156.705 42.1838 156.64 42.2533 156.542 42.286C156.476 42.3065 156.411 42.3228 156.341 42.3269C156.239 42.3351 156.137 42.3351 156.039 42.3106C155.912 42.2819 155.842 42.2002 155.801 42.0857C155.752 41.9549 155.756 41.82 155.789 41.685C155.834 41.5092 155.887 41.3375 155.936 41.1617C155.981 40.9859 156.022 40.8101 155.99 40.6261C155.965 40.4953 155.92 40.3727 155.81 40.2868C155.703 40.205 155.662 40.1969 155.568 40.3072C155.474 40.4135 155.421 40.5444 155.368 40.6752C155.229 41.0064 155.131 41.3498 155.049 41.7014C154.971 42.0407 154.918 42.3801 154.865 42.7235C154.816 43.0465 154.783 43.3735 154.705 43.6924C154.648 43.9255 154.529 44.1176 154.325 44.2444C154.218 44.3139 154.1 44.3507 153.969 44.3547C153.846 44.3547 153.76 44.3016 153.711 44.1912C153.646 44.0522 153.637 43.9009 153.65 43.7497C153.666 43.5984 153.732 43.4635 153.805 43.3327C154.001 42.9892 154.198 42.6458 154.39 42.2983C154.546 42.0162 154.668 41.7218 154.779 41.4193C154.918 41.035 155.024 40.6425 155.135 40.25C155.159 40.1682 155.184 40.0865 155.204 40.0006C155.204 39.9884 155.204 39.9761 155.2 39.9638C155.147 39.8534 155.016 39.8616 154.955 39.9148C154.918 39.9516 154.889 39.9965 154.861 40.0456C154.836 40.0865 154.828 40.1314 154.807 40.1723C154.766 40.2705 154.689 40.3236 154.582 40.3318C154.435 40.344 154.308 40.295 154.21 40.1805C154.169 40.1355 154.157 40.0865 154.169 40.0251C154.19 39.8943 154.214 39.7676 154.235 39.6368C154.239 39.6 154.239 39.555 154.231 39.5182C154.198 39.3955 154.145 39.2852 154.034 39.2075C153.92 39.1298 153.772 39.1339 153.67 39.2279C153.609 39.2852 153.556 39.3547 153.507 39.4242C153.343 39.6613 153.175 39.8902 152.975 40.0947C152.905 40.1682 152.827 40.2337 152.746 40.2909C152.611 40.3849 152.484 40.3727 152.369 40.2664C152.32 40.2214 152.279 40.1642 152.234 40.1069C152.181 40.0374 152.169 39.9556 152.169 39.8698C152.169 39.8085 152.189 39.7594 152.23 39.7144C152.345 39.5918 152.48 39.4977 152.631 39.4323C152.807 39.3506 152.987 39.2729 153.167 39.1911C153.302 39.1257 153.433 39.0521 153.527 38.9336C153.654 38.7741 153.723 38.5983 153.666 38.3857C153.629 38.259 153.531 38.2263 153.421 38.2508C153.355 38.2671 153.306 38.3039 153.257 38.3489C153.13 38.4593 153.028 38.5942 152.926 38.725C152.84 38.8354 152.758 38.9499 152.668 39.0562C152.562 39.187 152.439 39.3056 152.271 39.3424C152.071 39.3915 151.87 39.3914 151.682 39.2892C151.645 39.2688 151.608 39.2361 151.576 39.2034C151.363 38.9785 151.281 38.7128 151.33 38.4021C151.355 38.2303 151.453 38.1118 151.576 38.0055C151.739 37.8583 151.936 37.7806 152.157 37.7602C152.422 37.7357 152.688 37.7152 152.95 37.6907C153.22 37.6662 153.482 37.613 153.74 37.5271C153.899 37.474 154.059 37.4249 154.218 37.3677C154.288 37.3432 154.349 37.3023 154.411 37.2614C154.476 37.2205 154.484 37.0856 154.435 37.0243C154.366 36.9384 154.276 36.8975 154.165 36.8894C153.94 36.8689 153.715 36.8485 153.494 36.8239C153.47 36.8239 153.445 36.8158 153.425 36.8035C153.306 36.7299 153.22 36.6277 153.208 36.4805C153.196 36.366 153.286 36.2475 153.412 36.2189C153.494 36.1984 153.576 36.2025 153.65 36.2393C153.785 36.3088 153.916 36.3824 154.051 36.4519C154.198 36.5337 154.349 36.595 154.513 36.6359C154.623 36.6645 154.832 36.5746 154.881 36.4805C154.926 36.4028 154.914 36.3211 154.889 36.2393C154.832 36.0512 154.734 35.8836 154.611 35.7323C154.48 35.5647 154.321 35.4298 154.136 35.3276C153.838 35.1641 153.646 34.9147 153.519 34.6039C153.441 34.4118 153.4 34.2115 153.404 34.003C153.404 33.868 153.4 33.7372 153.437 33.6064C153.478 33.4592 153.556 33.3325 153.678 33.2384C153.785 33.1567 153.936 33.1607 154.055 33.2507C154.202 33.3611 154.296 33.5083 154.325 33.6882C154.366 33.9335 154.398 34.1788 154.443 34.4241C154.472 34.5999 154.505 34.7716 154.546 34.9474C154.566 35.0332 154.599 35.115 154.644 35.1886C154.75 35.3685 154.877 35.5361 155.053 35.6547C155.114 35.6955 155.184 35.7323 155.261 35.7201C155.351 35.7078 155.417 35.6301 155.425 35.5402C155.433 35.4462 155.409 35.3603 155.388 35.2704C155.368 35.1559 155.347 35.0373 155.331 34.9188C155.315 34.792 155.356 34.6694 155.388 34.5467C155.421 34.4159 155.462 34.2891 155.482 34.1583C155.519 33.958 155.47 33.7699 155.372 33.5941C155.302 33.4715 155.233 33.3488 155.167 33.2262C155.147 33.1853 155.131 33.1403 155.118 33.0953C155.098 33.0299 155.11 32.9645 155.155 32.9114C155.208 32.8419 155.274 32.7805 155.356 32.7478C155.405 32.7274 155.458 32.7192 155.507 32.7151C155.548 32.711 155.589 32.7315 155.605 32.7724C155.617 32.8051 155.63 32.8378 155.63 32.8705C155.63 33.0177 155.63 33.1648 155.63 33.312L155.638 33.3202Z" fill="#FFDE23"/>
<path d="M142.648 45.9572C142.546 46.039 142.448 46.1248 142.346 46.2066C142.202 46.3211 142.096 46.4641 142.035 46.6399C141.957 46.8566 141.846 47.0529 141.691 47.2246C141.617 47.3064 141.536 47.3799 141.458 47.4617C141.396 47.5271 141.384 47.6007 141.417 47.6825C141.45 47.7683 141.507 47.8338 141.568 47.8992C141.605 47.936 141.654 47.9441 141.703 47.9401C141.83 47.9319 141.957 47.9237 142.08 47.9237C142.161 47.9237 142.243 47.936 142.321 47.9523C142.395 47.9687 142.456 48.0096 142.505 48.0709C142.579 48.1608 142.62 48.2589 142.616 48.3734C142.616 48.398 142.616 48.4225 142.616 48.447C142.607 48.6024 142.697 48.6964 142.82 48.7618C142.906 48.8068 143 48.8313 143.098 48.8354C143.233 48.8395 143.323 48.7782 143.385 48.6637C143.425 48.5942 143.466 48.5288 143.503 48.4552C143.597 48.2589 143.749 48.1281 143.957 48.0586C144.06 48.0259 144.162 47.9891 144.264 47.9605C144.415 47.9196 144.571 47.9237 144.706 48.0136C144.82 48.0913 144.915 48.1976 144.972 48.3244C145.107 48.6065 144.992 48.909 144.702 49.0276C144.514 49.1052 144.325 49.1666 144.133 49.2361C143.957 49.2974 143.781 49.3546 143.618 49.4528C143.503 49.5182 143.409 49.5999 143.356 49.7267C143.282 49.8943 143.327 50.1396 143.454 50.2704C143.511 50.3318 143.589 50.3481 143.667 50.3686C143.72 50.3808 143.773 50.389 143.826 50.3972C143.957 50.4094 144.088 50.4217 144.219 50.4381C144.28 50.4462 144.338 50.4626 144.395 50.4789C144.563 50.5239 144.653 50.7324 144.55 50.8837C144.501 50.9573 144.448 51.035 144.387 51.0963C144.272 51.2108 144.121 51.2394 143.965 51.2394C143.777 51.2394 143.605 51.1862 143.446 51.0799C143.356 51.0186 143.262 50.9655 143.164 50.9123C143.086 50.8673 143 50.8469 142.91 50.851C142.787 50.8592 142.681 50.9491 142.656 51.0677C142.632 51.1985 142.669 51.3171 142.734 51.4274C142.873 51.6523 143.078 51.7831 143.327 51.8404C143.671 51.9221 144.015 51.9998 144.354 52.0857C144.538 52.1347 144.722 52.192 144.902 52.2574C145.099 52.3269 145.266 52.4455 145.426 52.5763C145.569 52.6908 145.696 52.8257 145.798 52.981C145.855 53.071 145.909 53.165 145.925 53.2713C145.962 53.5248 145.855 53.721 145.61 53.8396C145.528 53.8805 145.434 53.8968 145.344 53.9173C145.258 53.9336 145.185 53.905 145.135 53.8273C145.054 53.7006 144.972 53.5739 144.89 53.443C144.796 53.2958 144.69 53.1609 144.571 53.0301C144.321 52.7603 144.019 52.5722 143.691 52.4087C143.507 52.3187 143.319 52.2369 143.123 52.1715C143.004 52.1307 142.886 52.1266 142.771 52.1879C142.669 52.2451 142.607 52.331 142.595 52.4455C142.591 52.5109 142.595 52.5763 142.595 52.6417C142.595 52.7276 142.595 52.8175 142.591 52.9034C142.583 53.0505 142.382 53.2509 142.19 53.2141C142.096 53.1977 142.002 53.1773 141.904 53.1609C141.838 53.1527 141.769 53.1487 141.703 53.1487C141.576 53.1487 141.495 53.2222 141.441 53.3326C141.392 53.4348 141.392 53.5411 141.413 53.6515C141.458 53.9173 141.585 54.138 141.801 54.3057C141.879 54.367 141.953 54.4324 142.018 54.5019C142.174 54.6695 142.239 54.878 142.256 55.1029C142.28 55.4218 142.198 55.7121 142.026 55.9778C141.949 56.0964 141.863 56.2068 141.752 56.2926C141.621 56.3989 141.495 56.5093 141.36 56.6115C141.29 56.6647 141.216 56.7096 141.139 56.7464C141.004 56.8159 140.861 56.8119 140.717 56.771C140.582 56.7301 140.509 56.632 140.484 56.493C140.452 56.309 140.484 56.1291 140.541 55.9533C140.623 55.7162 140.754 55.5036 140.901 55.3032C140.979 55.1969 141.057 55.0866 141.126 54.9721C141.261 54.7636 141.282 54.5346 141.233 54.2934C141.196 54.1135 141.143 53.9377 141.057 53.7742C140.996 53.6515 140.897 53.582 140.758 53.5657C140.525 53.5371 140.337 53.6106 140.206 53.7987C140.157 53.8641 140.124 53.9459 140.104 54.0236C140.038 54.2443 139.981 54.4651 139.916 54.6859C139.862 54.8699 139.801 55.0498 139.699 55.2174C139.621 55.3441 139.531 55.4627 139.4 55.5445C139.363 55.5649 139.318 55.5812 139.277 55.5812C139.085 55.5894 138.86 55.4341 138.799 55.2542C138.75 55.1111 138.774 54.9843 138.881 54.874C138.999 54.7513 139.122 54.6327 139.237 54.5101C139.347 54.3915 139.453 54.273 139.535 54.134C139.658 53.9214 139.674 53.7047 139.576 53.4839C139.511 53.3367 139.4 53.2304 139.241 53.1773C139.179 53.1568 139.122 53.165 139.069 53.1977C138.979 53.2509 138.905 53.3163 138.832 53.3858C138.77 53.4471 138.705 53.5043 138.639 53.5616C138.598 53.5984 138.549 53.6106 138.492 53.6025C138.422 53.5902 138.357 53.5657 138.296 53.5289C138.23 53.4839 138.202 53.4267 138.206 53.349C138.206 53.2345 138.238 53.1282 138.275 53.0219C138.353 52.8093 138.476 52.6253 138.59 52.4332C138.611 52.4005 138.627 52.3637 138.643 52.3269C138.676 52.2492 138.672 52.1756 138.619 52.102C138.541 51.9957 138.443 51.9548 138.316 51.9957C138.107 52.0652 137.948 52.192 137.813 52.3637C137.629 52.6008 137.469 52.8543 137.322 53.12C137.183 53.3735 137.06 53.6393 136.929 53.9009C136.868 54.0236 136.807 54.1462 136.737 54.2607C136.668 54.3711 136.569 54.4529 136.451 54.506C136.324 54.5632 136.205 54.5387 136.095 54.461C136.054 54.4324 136.042 54.3915 136.038 54.3425C136.029 54.2566 136.05 54.1748 136.078 54.0931C136.148 53.8927 136.263 53.7169 136.414 53.5698C136.569 53.4144 136.725 53.259 136.884 53.1078C137.06 52.9401 137.216 52.7603 137.367 52.5722C137.625 52.2533 137.837 51.9099 138.001 51.5337C138.022 51.4929 138.034 51.4438 138.042 51.3988C138.054 51.3416 138.03 51.2925 137.989 51.2557C137.854 51.129 137.698 51.129 137.539 51.1903C137.412 51.2394 137.31 51.3211 137.22 51.4193C137.195 51.4479 137.179 51.4847 137.163 51.5174C137.101 51.6482 137.044 51.779 136.987 51.9099C136.938 52.0203 136.868 52.1143 136.774 52.1879C136.7 52.2492 136.627 52.3065 136.549 52.3637C136.463 52.4291 136.369 52.4209 136.283 52.3637C136.226 52.3269 136.173 52.286 136.123 52.2369C136.05 52.1634 135.988 52.0857 135.943 51.9916C135.886 51.8772 135.907 51.7709 135.968 51.6646C136.038 51.546 136.144 51.4602 136.267 51.4029C136.43 51.3252 136.598 51.2598 136.762 51.1821C136.925 51.1045 137.089 51.0227 137.208 50.8796C137.293 50.7774 137.363 50.667 137.359 50.528C137.359 50.3931 137.334 50.3563 137.191 50.3563C137.048 50.3563 136.913 50.3931 136.778 50.434C136.434 50.5403 136.107 50.6834 135.784 50.8387C135.473 50.99 135.174 51.1699 134.876 51.3498C134.594 51.5174 134.319 51.6973 134.025 51.8404C133.808 51.9467 133.587 51.9753 133.354 51.8976C133.231 51.8567 133.125 51.7913 133.043 51.6932C132.961 51.5992 132.953 51.4969 133.006 51.3907C133.076 51.2516 133.182 51.1494 133.309 51.0636C133.436 50.9777 133.579 50.945 133.726 50.9205C134.115 50.851 134.508 50.7856 134.896 50.7161C135.211 50.6588 135.518 50.5607 135.821 50.4544C136.205 50.3195 136.578 50.1478 136.95 49.9842C137.028 49.9515 137.109 49.9147 137.187 49.882C137.195 49.878 137.208 49.8657 137.212 49.8575C137.265 49.7471 137.175 49.649 137.093 49.6367C137.04 49.6286 136.987 49.6367 136.933 49.6449C136.888 49.6531 136.843 49.6735 136.803 49.6858C136.7 49.7185 136.61 49.6899 136.537 49.6122C136.434 49.5059 136.393 49.3792 136.418 49.232C136.426 49.1747 136.459 49.1298 136.512 49.1012C136.627 49.0357 136.741 48.9703 136.852 48.9049C136.884 48.8845 136.917 48.8559 136.938 48.8272C137.011 48.725 137.064 48.6106 137.052 48.4797C137.04 48.3448 136.942 48.2303 136.807 48.2099C136.725 48.1976 136.639 48.2017 136.553 48.2099C136.267 48.2344 135.984 48.2467 135.698 48.2262C135.596 48.2181 135.498 48.2017 135.399 48.1731C135.244 48.1281 135.17 48.0259 135.178 47.8665C135.178 47.797 135.199 47.7315 135.215 47.662C135.236 47.5762 135.293 47.5149 135.358 47.4617C135.408 47.4208 135.457 47.4045 135.518 47.4086C135.686 47.4208 135.841 47.4617 135.993 47.5353C136.168 47.6212 136.34 47.7111 136.516 47.7929C136.651 47.8583 136.794 47.9073 136.946 47.9073C137.15 47.9073 137.33 47.846 137.457 47.6661C137.531 47.5598 137.498 47.4617 137.408 47.3922C137.355 47.3513 137.293 47.3391 137.228 47.3268C137.06 47.2982 136.897 47.3064 136.729 47.3104C136.59 47.3145 136.447 47.3227 136.308 47.3227C136.14 47.3227 135.972 47.3064 135.833 47.2001C135.669 47.0774 135.538 46.922 135.502 46.7135C135.493 46.6686 135.493 46.6236 135.502 46.5786C135.543 46.272 135.694 46.039 135.964 45.8795C136.111 45.7896 136.267 45.7896 136.426 45.8182C136.643 45.855 136.831 45.9531 136.983 46.1085C137.171 46.2965 137.355 46.4887 137.543 46.6767C137.731 46.8689 137.944 47.0406 138.169 47.1837C138.312 47.2736 138.451 47.3677 138.594 47.4535C138.656 47.4903 138.729 47.5108 138.799 47.5353C138.872 47.5598 138.983 47.4822 138.999 47.4045C139.024 47.2941 138.995 47.2001 138.93 47.1101C138.803 46.9261 138.676 46.7381 138.553 46.55C138.541 46.5296 138.529 46.505 138.525 46.4846C138.508 46.3456 138.533 46.2148 138.635 46.1125C138.717 46.0308 138.864 46.0267 138.967 46.1044C139.032 46.1534 139.085 46.2188 139.102 46.3006C139.134 46.4478 139.163 46.5991 139.192 46.7462C139.224 46.9098 139.269 47.0692 139.343 47.2205C139.392 47.3227 139.592 47.4249 139.695 47.4086C139.781 47.3922 139.842 47.3309 139.887 47.2614C139.993 47.0978 140.063 46.918 140.104 46.7258C140.149 46.5173 140.153 46.3088 140.116 46.1003C140.055 45.765 140.124 45.4584 140.284 45.164C140.382 44.9801 140.509 44.8206 140.672 44.6939C140.779 44.6121 140.877 44.5181 141 44.4649C141.139 44.4036 141.286 44.3832 141.437 44.4159C141.568 44.4445 141.662 44.563 141.666 44.7143C141.675 44.8983 141.621 45.0618 141.499 45.2008C141.335 45.3889 141.167 45.5688 141.008 45.7569C140.893 45.8918 140.779 46.0267 140.668 46.1657C140.615 46.2352 140.574 46.3129 140.541 46.3946C140.468 46.5909 140.423 46.7953 140.443 47.0079C140.451 47.0815 140.468 47.1551 140.525 47.2082C140.595 47.2696 140.693 47.2736 140.766 47.2205C140.844 47.1673 140.893 47.0897 140.955 47.0202C141.028 46.9302 141.11 46.8403 141.188 46.7544C141.278 46.6604 141.396 46.6154 141.511 46.5623C141.634 46.505 141.756 46.456 141.871 46.3906C142.047 46.2924 142.161 46.1371 142.235 45.949C142.288 45.8182 142.337 45.6874 142.391 45.5606C142.407 45.5197 142.431 45.4788 142.46 45.442C142.501 45.3848 142.554 45.3521 142.624 45.3521C142.714 45.3521 142.8 45.3603 142.877 45.4053C142.922 45.4298 142.963 45.4666 143 45.4993C143.029 45.5279 143.037 45.5729 143.016 45.6097C143 45.6383 142.98 45.671 142.955 45.6914C142.845 45.7855 142.73 45.8795 142.616 45.9735L142.648 45.9572Z" fill="#68A4E3"/>
<path d="M147.182 64.7762C147.276 64.8621 147.374 64.952 147.468 65.0379C147.603 65.1646 147.759 65.2505 147.939 65.2832C148.164 65.3281 148.377 65.4099 148.565 65.5407C148.655 65.6021 148.741 65.6716 148.831 65.737C148.904 65.7901 148.978 65.7901 149.056 65.7451C149.137 65.7002 149.195 65.6348 149.248 65.5653C149.281 65.5244 149.281 65.4753 149.268 65.4263C149.244 65.3036 149.215 65.181 149.199 65.0542C149.186 64.9765 149.186 64.8907 149.191 64.813C149.195 64.7353 149.227 64.6699 149.281 64.6127C149.358 64.5268 149.448 64.4696 149.567 64.4573C149.591 64.4573 149.616 64.4491 149.641 64.445C149.796 64.4287 149.878 64.3265 149.927 64.1957C149.96 64.1057 149.968 64.0076 149.96 63.9095C149.943 63.7786 149.87 63.6969 149.751 63.6478C149.677 63.6192 149.604 63.5824 149.53 63.562C149.321 63.4965 149.17 63.3657 149.072 63.1695C149.023 63.0713 148.974 62.9773 148.933 62.8792C148.871 62.732 148.851 62.5807 148.925 62.4336C148.986 62.3068 149.076 62.2046 149.195 62.1269C149.456 61.9552 149.771 62.0247 149.927 62.2945C150.029 62.4663 150.119 62.6502 150.213 62.826C150.299 62.9896 150.381 63.1572 150.5 63.3044C150.581 63.4066 150.676 63.4925 150.806 63.5252C150.982 63.5701 151.22 63.4965 151.33 63.3534C151.379 63.288 151.387 63.2103 151.395 63.1327C151.4 63.0795 151.4 63.0264 151.4 62.9691C151.395 62.8383 151.387 62.7075 151.383 62.5766C151.383 62.5153 151.391 62.4581 151.4 62.3968C151.42 62.225 151.616 62.1065 151.776 62.1883C151.858 62.2291 151.94 62.2659 152.009 62.3191C152.136 62.4172 152.189 62.5603 152.21 62.7157C152.234 62.9037 152.21 63.0795 152.128 63.2512C152.083 63.3494 152.042 63.4516 152.001 63.5538C151.968 63.6396 151.956 63.7255 151.976 63.8154C152.001 63.934 152.103 64.028 152.226 64.0362C152.361 64.0444 152.471 63.9871 152.57 63.9054C152.774 63.7378 152.872 63.517 152.897 63.2594C152.93 62.9078 152.958 62.5562 152.995 62.2087C153.015 62.0206 153.048 61.8285 153.085 61.6404C153.126 61.436 153.22 61.252 153.326 61.0762C153.42 60.9168 153.535 60.7737 153.674 60.651C153.756 60.5815 153.838 60.512 153.944 60.4834C154.189 60.4098 154.402 60.4916 154.549 60.7123C154.599 60.7859 154.631 60.8759 154.664 60.9617C154.693 61.0435 154.676 61.1212 154.603 61.1825C154.488 61.2806 154.374 61.3828 154.259 61.4769C154.124 61.5873 154.005 61.714 153.899 61.8489C153.666 62.131 153.523 62.4622 153.408 62.8056C153.343 63.0018 153.29 63.1981 153.253 63.4025C153.228 63.5252 153.24 63.6437 153.318 63.7459C153.388 63.84 153.482 63.889 153.6 63.8808C153.666 63.8808 153.731 63.8604 153.797 63.8522C153.883 63.84 153.969 63.8277 154.059 63.8195C154.206 63.8073 154.431 63.9749 154.427 64.1711C154.427 64.2692 154.414 64.3633 154.414 64.4614C154.414 64.5268 154.419 64.5963 154.431 64.6617C154.451 64.7885 154.537 64.858 154.652 64.8948C154.758 64.9275 154.864 64.9111 154.971 64.8784C155.229 64.7966 155.429 64.6372 155.564 64.4042C155.613 64.3183 155.666 64.2365 155.728 64.1629C155.871 63.9871 156.067 63.8931 156.288 63.8441C156.603 63.7745 156.898 63.8154 157.188 63.9463C157.315 64.0035 157.438 64.073 157.54 64.1711C157.663 64.2856 157.789 64.396 157.912 64.5145C157.973 64.5759 158.027 64.6413 158.076 64.7108C158.162 64.8334 158.182 64.9765 158.162 65.1237C158.141 65.2627 158.051 65.3486 157.92 65.3935C157.74 65.4508 157.56 65.4467 157.38 65.4099C157.131 65.3649 156.906 65.2627 156.685 65.1442C156.566 65.0828 156.448 65.0215 156.325 64.9684C156.1 64.8661 155.867 64.8784 155.638 64.9602C155.462 65.0215 155.298 65.1033 155.147 65.2096C155.036 65.2873 154.979 65.3935 154.983 65.5326C154.983 65.7656 155.085 65.9414 155.294 66.0477C155.368 66.0845 155.449 66.1049 155.531 66.1172C155.76 66.1499 155.989 66.1744 156.214 66.2071C156.403 66.2358 156.591 66.2726 156.771 66.3461C156.91 66.4034 157.041 66.477 157.139 66.5955C157.168 66.6282 157.184 66.6691 157.192 66.71C157.229 66.8981 157.106 67.1434 156.934 67.2333C156.799 67.3028 156.669 67.2947 156.546 67.2047C156.407 67.1066 156.276 67.0003 156.137 66.9062C156.006 66.8163 155.871 66.7264 155.724 66.665C155.499 66.5751 155.278 66.5874 155.073 66.7182C154.938 66.804 154.844 66.9267 154.815 67.0902C154.803 67.1556 154.824 67.2088 154.86 67.2579C154.922 67.3396 154.999 67.405 155.081 67.4664C155.151 67.5195 155.216 67.5767 155.282 67.634C155.323 67.6708 155.343 67.7158 155.343 67.773C155.343 67.8466 155.327 67.912 155.298 67.9774C155.265 68.051 155.208 68.0837 155.134 68.0919C155.02 68.1042 154.909 68.0919 154.803 68.0674C154.582 68.0224 154.382 67.9243 154.173 67.8384C154.136 67.822 154.1 67.8098 154.059 67.8016C153.977 67.7812 153.903 67.7934 153.838 67.8588C153.744 67.9529 153.719 68.0551 153.776 68.1737C153.875 68.3699 154.022 68.5089 154.21 68.6193C154.472 68.7706 154.746 68.8891 155.028 68.9954C155.302 69.0976 155.58 69.1794 155.854 69.2734C155.981 69.3184 156.112 69.3593 156.239 69.4124C156.358 69.4656 156.452 69.5514 156.521 69.6618C156.595 69.7804 156.587 69.903 156.525 70.0216C156.505 70.0625 156.464 70.087 156.419 70.0952C156.333 70.1156 156.251 70.1075 156.165 70.0911C155.957 70.0502 155.769 69.9603 155.597 69.8335C155.421 69.7027 155.245 69.5719 155.073 69.437C154.885 69.2898 154.68 69.159 154.476 69.0363C154.124 68.8278 153.752 68.6643 153.359 68.5539C153.314 68.5416 153.265 68.5375 153.22 68.5334C153.163 68.5334 153.118 68.562 153.085 68.607C152.979 68.7583 152.999 68.9096 153.085 69.0608C153.15 69.1794 153.249 69.2693 153.355 69.347C153.388 69.3675 153.425 69.3797 153.461 69.392C153.6 69.4329 153.74 69.4697 153.875 69.5106C153.989 69.5433 154.091 69.6005 154.181 69.6823C154.251 69.7477 154.32 69.809 154.39 69.8785C154.468 69.9562 154.472 70.0502 154.431 70.1443C154.402 70.2056 154.369 70.2669 154.329 70.3201C154.267 70.4018 154.198 70.4754 154.112 70.5327C154.005 70.6062 153.899 70.6022 153.785 70.5531C153.654 70.4999 153.555 70.4059 153.482 70.2914C153.384 70.1402 153.294 69.9848 153.195 69.8335C153.097 69.6823 152.991 69.5351 152.835 69.4329C152.721 69.3634 152.602 69.3102 152.463 69.3348C152.332 69.3593 152.3 69.3838 152.316 69.5228C152.332 69.6618 152.39 69.7927 152.451 69.9194C152.602 70.2465 152.79 70.549 152.995 70.8434C153.191 71.1296 153.408 71.3994 153.629 71.6692C153.838 71.9227 154.054 72.168 154.234 72.4419C154.369 72.6423 154.431 72.8589 154.386 73.0961C154.361 73.2228 154.312 73.3373 154.226 73.4354C154.145 73.5294 154.046 73.5499 153.932 73.5131C153.785 73.464 153.666 73.3741 153.564 73.2596C153.461 73.1451 153.408 73.0061 153.359 72.8671C153.236 72.491 153.118 72.1149 152.991 71.7387C152.889 71.4362 152.75 71.1459 152.602 70.8597C152.414 70.4959 152.189 70.1565 151.976 69.809C151.931 69.7354 151.886 69.6618 151.841 69.5882C151.837 69.5801 151.825 69.5719 151.813 69.5678C151.694 69.531 151.612 69.6332 151.612 69.715C151.612 69.7681 151.629 69.8213 151.645 69.8703C151.657 69.9153 151.686 69.9521 151.706 69.9971C151.751 70.0952 151.739 70.1851 151.67 70.271C151.575 70.3896 151.457 70.4468 151.31 70.4427C151.248 70.4427 151.203 70.4182 151.166 70.3691C151.085 70.2669 151.007 70.1606 150.921 70.0625C150.896 70.0339 150.864 70.0053 150.831 69.9889C150.716 69.9317 150.602 69.8949 150.471 69.9235C150.336 69.9562 150.238 70.0666 150.238 70.2056C150.238 70.2914 150.254 70.3732 150.271 70.455C150.336 70.733 150.389 71.0151 150.41 71.2972C150.418 71.3994 150.41 71.5016 150.401 71.5997C150.381 71.7592 150.287 71.8491 150.131 71.8614C150.062 71.8655 149.992 71.8614 149.923 71.8532C149.837 71.845 149.767 71.8 149.706 71.7428C149.661 71.7019 149.636 71.6529 149.632 71.5915C149.62 71.4239 149.641 71.2645 149.694 71.105C149.755 70.921 149.816 70.733 149.878 70.549C149.923 70.4059 149.951 70.2587 149.931 70.1075C149.898 69.9071 149.816 69.7354 149.62 69.6373C149.506 69.5801 149.411 69.6291 149.354 69.7272C149.321 69.7845 149.317 69.8499 149.313 69.9153C149.313 70.0829 149.338 70.2465 149.371 70.4141C149.395 70.5531 149.42 70.688 149.44 70.827C149.465 70.9946 149.469 71.1623 149.387 71.3135C149.289 71.4934 149.154 71.6447 148.949 71.7101C148.908 71.7224 148.859 71.7305 148.818 71.7305C148.507 71.7346 148.258 71.6161 148.062 71.3708C147.955 71.2359 147.931 71.0846 147.935 70.921C147.935 70.7003 148.012 70.504 148.143 70.3282C148.303 70.1156 148.466 69.9071 148.63 69.6945C148.794 69.4778 148.933 69.2489 149.043 69.0036C149.113 68.8523 149.186 68.697 149.248 68.5416C149.276 68.4762 149.285 68.4026 149.301 68.329C149.317 68.2513 149.223 68.1573 149.146 68.1491C149.031 68.1409 148.945 68.1818 148.863 68.2595C148.7 68.4108 148.532 68.5621 148.364 68.7133C148.348 68.7297 148.323 68.7419 148.303 68.7501C148.168 68.7869 148.037 68.7828 147.918 68.6929C147.824 68.6234 147.8 68.4803 147.861 68.3658C147.902 68.2922 147.959 68.235 148.037 68.2023C148.18 68.1491 148.323 68.1001 148.466 68.051C148.626 67.9978 148.773 67.9283 148.916 67.8343C149.011 67.7689 149.084 67.5563 149.051 67.4582C149.023 67.3723 148.957 67.3233 148.88 67.2906C148.7 67.2088 148.516 67.1638 148.319 67.1516C148.107 67.1393 147.902 67.1597 147.697 67.2292C147.374 67.3355 147.059 67.3151 146.744 67.1965C146.548 67.1229 146.372 67.0207 146.221 66.8776C146.122 66.7877 146.02 66.7018 145.947 66.5874C145.865 66.4565 145.824 66.3175 145.836 66.1622C145.844 66.0313 145.951 65.9169 146.098 65.8923C146.278 65.8596 146.45 65.8923 146.605 65.9905C146.814 66.1254 147.018 66.2644 147.227 66.3993C147.374 66.4933 147.526 66.5914 147.681 66.6773C147.755 66.7182 147.841 66.7509 147.927 66.7713C148.131 66.8163 148.34 66.8327 148.544 66.7836C148.618 66.7672 148.687 66.7386 148.732 66.6732C148.781 66.5996 148.773 66.4974 148.712 66.432C148.651 66.3625 148.565 66.3257 148.487 66.2766C148.385 66.2153 148.287 66.1499 148.192 66.0845C148.086 66.0109 148.025 65.9005 147.955 65.7942C147.882 65.6838 147.812 65.5693 147.734 65.463C147.612 65.2995 147.44 65.2096 147.243 65.1646C147.108 65.1319 146.969 65.1033 146.834 65.0665C146.789 65.0542 146.748 65.0379 146.707 65.0174C146.646 64.9888 146.605 64.9357 146.593 64.8661C146.577 64.7803 146.577 64.6903 146.609 64.6086C146.626 64.5595 146.654 64.5145 146.687 64.4737C146.712 64.441 146.752 64.4246 146.793 64.441C146.826 64.4532 146.859 64.4696 146.883 64.49C146.994 64.5881 147.1 64.6863 147.211 64.7844L147.182 64.7762Z" fill="#FFDE23"/>
</g>
<defs>
<clipPath id="clip0_367_4410">
<rect width="409.896" height="315.305" fill="white"/>
</clipPath>
</defs>
</svg>
