<svg width="800" height="669" viewBox="0 0 800 669" fill="none" xmlns="http://www.w3.org/2000/svg">
<path d="M713.013 370.296C713.013 532.834 579.479 664.629 414.718 664.629C249.957 664.629 116.424 532.834 116.424 370.296C116.424 207.757 249.957 75.9627 414.718 75.9627C579.479 75.9627 713.013 207.757 713.013 370.296Z" stroke="#2064AE" stroke-width="2.74178"/>
<g clip-path="url(#clip0_794_3360)">
<path d="M680.258 277.115C674.389 283.685 663.491 281.087 663.491 281.087L668.282 300.949L668.673 303.468L675.467 347.029L632.353 357.357L633.152 309.688C633.152 309.688 626.765 311.277 619.579 307.305C612.393 303.333 602.812 281.882 603.092 275.176C603.363 268.471 613.192 227.062 616.385 221.501C619.579 215.94 655.507 219.118 665.886 221.501C675.308 223.662 672.888 252.668 672.361 257.999C672.305 258.548 672.274 258.842 672.274 258.842C673.87 256.458 676.266 256.458 676.266 256.458C681.056 256.458 682.653 260.431 682.653 260.431C682.653 260.431 686.645 269.964 680.258 277.115Z" fill="#CCA89A"/>
<g opacity="0.1">
<path d="M633.152 309.689C638.853 308.997 644.426 305.629 649.959 301.37C650.414 301.021 651.052 301.474 650.869 302.022L636.346 343.851L632.521 339.092L633.152 321.606V309.689Z" fill="black"/>
</g>
<path d="M671.397 260.359C670.423 259.39 669.784 258.158 669.489 256.824C667.205 246.392 659.493 231.035 659.493 231.035C635.541 242.157 615.58 230.24 615.58 230.24C615.58 230.24 604.954 267.676 603.085 275.176L602.942 275.017C599.78 268.05 598.016 260.28 598.016 252.088C598.016 222.033 621.784 197.667 651.109 197.667C680.435 197.667 704.203 222.033 704.203 252.088C704.203 275.843 689.361 296.031 668.666 303.468L668.275 300.949L663.485 281.087C663.485 281.087 674.383 283.685 680.251 277.115C686.638 269.964 682.646 260.431 682.646 260.431C682.646 260.431 681.05 256.458 676.259 256.458C676.259 256.458 673.864 256.458 672.267 258.842L671.509 260.343C671.485 260.383 671.429 260.391 671.397 260.359Z" fill="#2064AE"/>
<path d="M624.003 254.974C625.171 251.592 624.934 248.446 623.475 247.947C622.015 247.448 619.885 249.785 618.718 253.167C617.55 256.549 617.787 259.695 619.246 260.194C620.706 260.693 622.836 258.356 624.003 254.974Z" fill="#2064AE"/>
<path d="M649.081 260.003C650.249 256.621 650.012 253.475 648.553 252.976C647.093 252.477 644.963 254.814 643.796 258.196C642.628 261.578 642.865 264.724 644.324 265.223C645.784 265.722 647.914 263.385 649.081 260.003Z" fill="#2064AE"/>
<path d="M633.95 253.281C633.95 253.281 626.908 270.799 622.74 274.247C622.413 274.517 622.429 275.018 622.788 275.24L628.353 278.704" stroke="#2064AE" stroke-width="0.480332" stroke-miterlimit="10"/>
<path d="M622.773 295.388C622.773 295.388 636.346 304.127 648.322 280.292" stroke="#2064AE" stroke-width="0.480332" stroke-miterlimit="10"/>
<path d="M673.066 267.581L671.469 275.526" stroke="#2064AE" stroke-width="0.480332" stroke-miterlimit="10"/>
<path d="M409.6 374.836C411.995 372.453 447.923 385.959 449.52 385.959C450.877 385.959 423.309 368.107 415.077 362.8C414.654 362.53 414.941 361.878 415.428 361.997C425.816 364.651 463.42 374.367 465.48 376.417C467.764 378.689 443.213 361.473 442.973 357.795C442.957 357.588 443.205 357.453 443.388 357.548C446.678 359.217 479.213 369.831 493.033 372.286C495.588 372.739 497.704 374.502 498.574 376.942C501.201 384.33 507.428 399.108 510.183 404.232L472.658 420.916C472.658 420.916 472.658 412.971 463.077 409.793C454.869 407.068 437.863 392.68 432.163 388.12C431.093 387.262 429.863 386.634 428.538 386.269C417.847 383.305 410.311 379.73 409.584 374.836H409.6Z" fill="#CCA89A"/>
<path d="M589.236 575.046H778.458C771.519 549.718 760.166 514.268 755.975 472.653C752.741 440.556 746.769 406.092 737.356 371.937C732.15 346.235 721.771 345.441 700.941 342.263L681.052 337.496C659.599 353.06 642.761 356.214 632.35 338.291L595 343.494C593.396 343.717 591.999 344.726 591.288 346.188C572.038 385.816 555.847 423.403 546.114 456.676L515.775 397.885L459.887 422.514C483.519 473.821 503.408 524.946 518.969 575.849L589.228 575.054L589.236 575.046Z" fill="#FFF099"/>
<path d="M681.054 337.496L648.998 382.178L633.924 401.285L633.15 378.015L632.352 338.418C632.352 338.418 632.399 338.37 632.415 338.402C642.835 356.198 659.641 353.02 681.054 337.496Z" fill="#A9CBEF"/>
<path d="M689.84 436.011C696.81 479.032 702.015 525.787 706.047 575.029" stroke="#2064AE" stroke-width="0.480332" stroke-miterlimit="10"/>
<path d="M792.958 574.41H7.04192C3.15277 574.41 0 577.547 0 581.417V605.538C0 609.408 3.15277 612.545 7.04192 612.545H792.958C796.847 612.545 800 609.408 800 605.538V581.417C800 577.547 796.847 574.41 792.958 574.41Z" fill="#E9F2FB"/>
<path d="M133.85 574.584C142.193 587.971 151.478 600.707 161.61 612.72Z" fill="#FFF7CC"/>
<path d="M382.631 438.331C382.631 438.331 382.631 381.128 384.228 379.539C385.824 377.95 387.421 379.539 387.421 379.539L395.405 408.935C395.405 408.935 412.172 366.828 413.769 366.828C415.365 366.828 415.365 368.417 415.365 368.417L412.172 405.757C412.172 405.757 431.333 366.828 437.721 368.417L425.745 407.346C425.745 407.346 442.511 384.306 444.906 384.306C447.302 384.306 433.729 412.113 433.729 412.113L451.821 399.584C451.956 399.489 452.14 399.552 452.18 399.711C452.467 400.831 453.202 404.772 450.495 408.141C447.302 412.113 409.777 457.399 409.777 457.399L382.631 438.331Z" fill="#F0DFD6"/>
<path d="M222.642 208.694C228.742 208.694 245.556 221.723 247.76 223.455L249.588 234.379C249.109 234.086 248.622 233.784 248.127 233.474C239.496 228.008 227.584 217.759 227.464 217.656L226.801 217.084L226.29 217.791C226.035 218.148 200.374 253.376 174.147 259.398C174.043 257.562 174.059 251.953 175.839 236.62C176.813 228.198 184.071 221.096 197.412 215.511C207.752 211.181 218.849 209.139 222.251 208.718C222.37 208.702 222.506 208.694 222.642 208.694ZM222.642 207.899C222.474 207.899 222.306 207.907 222.147 207.931C215.76 208.726 177.436 215.876 175.041 236.533C172.646 257.189 173.444 260.367 173.444 260.367C200.59 254.806 226.937 218.259 226.937 218.259C226.937 218.259 238.913 228.588 247.696 234.149C248.837 234.872 249.819 235.46 250.658 235.945L248.494 223.026C248.494 223.026 229.492 207.899 222.642 207.899Z" fill="black"/>
<path d="M218.157 308.831L230.133 362.855L178.236 367.622C178.236 367.622 189.262 306.916 190.149 298.487C190.189 298.494 190.213 298.502 190.213 298.502C190.213 298.502 190.213 298.359 190.197 298.089V298.073C190.205 297.922 190.213 297.795 190.213 297.708C190.213 296.524 189.925 295.269 189.526 294.085C189.398 293.577 189.246 293.028 189.063 292.448C188.815 291.654 188.177 290.605 187.314 289.437C187.306 289.421 187.29 289.398 187.274 289.374C187.115 289.112 187.019 288.969 187.019 288.969L186.684 288.603C183.594 284.655 178.676 279.864 178.26 279.459C178.244 279.443 178.236 279.435 178.236 279.435C172.648 282.613 169.318 281.35 167.059 280.229C163.865 278.64 157.478 267.518 163.067 262.751C168.656 257.984 173.446 260.367 173.446 260.367C200.592 254.806 226.939 218.26 226.939 218.26C226.939 218.26 238.915 228.588 247.698 234.149C248.839 234.872 249.821 235.46 250.66 235.945L255.682 265.929C257.278 316.775 218.157 308.831 218.157 308.831Z" fill="#F0DFD6"/>
<path d="M230.931 257.189C230.931 257.189 236.52 273.079 239.714 273.874C239.714 273.874 234.923 281.024 230.133 281.024" stroke="#2064AE" stroke-width="0.960664" stroke-miterlimit="10"/>
<path d="M213.171 267.472C214.923 267.269 216.074 264.808 215.742 261.975C215.41 259.142 213.721 257.01 211.969 257.214C210.217 257.417 209.066 259.878 209.398 262.711C209.73 265.544 211.419 267.676 213.171 267.472Z" fill="#2064AE"/>
<path d="M247.175 259.421C248.927 259.218 250.078 256.757 249.746 253.924C249.414 251.091 247.725 248.959 245.973 249.162C244.221 249.366 243.07 251.827 243.402 254.66C243.734 257.493 245.423 259.624 247.175 259.421Z" fill="#2064AE"/>
<path d="M215.835 277.988C221.462 276.901 224.71 269.287 223.09 260.983C221.469 252.678 215.593 246.827 209.966 247.915C204.339 249.002 201.091 256.616 202.712 264.92C204.333 273.225 210.208 279.076 215.835 277.988Z" stroke="#A9CBEF" stroke-width="0.960664" stroke-miterlimit="10"/>
<path d="M221.465 256.188C226.255 247.965 231.676 247.814 237.561 253.376" stroke="#A9CBEF" stroke-width="0.960664" stroke-miterlimit="10"/>
<path d="M250.792 268.042C256.419 266.955 259.667 259.341 258.047 251.037C256.426 242.732 250.55 236.882 244.923 237.969C239.296 239.056 236.048 246.67 237.669 254.975C239.29 263.279 245.165 269.13 250.792 268.042Z" stroke="#A9CBEF" stroke-width="0.960664" stroke-miterlimit="10"/>
<path d="M202.545 256.84L173.451 259.573" stroke="#A9CBEF" stroke-width="0.960664" stroke-miterlimit="10"/>
<path d="M187.814 351.732C190.92 353.25 213.427 373.525 224.541 351.732L266.058 563.064H176.637L187.814 351.732Z" fill="#FFF7CC"/>
<path d="M225.342 343.788L233.517 345.083C236.966 345.686 242.475 347.18 245.725 348.467C260.424 354.322 266.06 365.239 276.44 381.923C290.012 402.579 315.944 439.745 339.505 481.217H339.521L343.921 476.196L376.112 429.782C376.112 429.782 376.12 429.782 376.128 429.782L414.555 455.015C414.555 455.015 414.555 455.015 414.555 455.023C400.583 497.067 387.386 532.882 369.046 555.12C362.284 563.136 358.699 568.824 350.204 572.026C346.667 573.361 342.132 573.313 338.348 573.44L310.779 566.25C310.779 566.25 310.763 566.25 310.763 566.266L313.948 576.563C313.948 576.563 313.948 576.579 313.941 576.579L252.487 571.812C252.487 571.812 252.479 571.812 252.479 571.804C245.038 491.72 221.046 348.419 216.599 348.554C216.591 348.554 216.583 348.554 216.591 348.547C217.126 348.308 222.675 345.806 225.326 343.803L225.342 343.788Z" fill="#A9CBEF"/>
<path d="M266.857 431.181C278.881 459.401 294.714 512.075 310.778 566.258" stroke="#2064AE" stroke-width="0.960664" stroke-miterlimit="10"/>
<path d="M396.813 46.0796C418.018 44.6098 500.589 40.2005 518.17 46.0797C625.156 81.8313 604.086 151.42 538.928 180.347C508.142 194.012 452.725 160.85 396.813 190.675C369.292 205.357 342.186 254.472 343.32 276.479C345.244 313.86 412.482 333.416 449.504 331.668" stroke="#68A4E3" stroke-width="2.74178" stroke-miterlimit="10" stroke-dasharray="13.71 13.71"/>
<path d="M220.551 552.736L255.002 543.591C255.944 543.337 256.95 543.48 257.788 543.973L328.327 585.31C328.327 585.31 330.723 590.076 325.932 590.076C325.932 590.076 286.81 570.214 282.02 571.009C282.02 571.009 306.771 582.132 307.569 583.721C308.367 585.31 313.158 591.665 311.561 592.46C309.964 593.254 310.763 594.049 305.972 592.46C301.182 590.871 270.842 574.981 258.068 575.776C245.293 576.57 229.325 574.187 226.93 570.214C224.535 566.242 220.543 552.736 220.543 552.736H220.551Z" fill="#F0DFD6"/>
<path d="M203.793 283.407C204.208 284.027 212.599 299.742 241.318 293.735" stroke="#2064AE" stroke-width="0.960664" stroke-miterlimit="10"/>
<g opacity="0.1">
<path d="M212.33 307.822L218.151 308.823L225.336 343.78L222.941 345.369L208.977 316.879C207.644 314.162 206.103 311.548 204.378 309.061L200.163 303.007C200.067 302.872 200.219 302.705 200.362 302.785L205.233 305.422C207.444 306.622 209.839 307.432 212.33 307.822Z" fill="black"/>
</g>
<path d="M172.646 268.312L175.84 274.668" stroke="#2064AE" stroke-width="0.960664" stroke-miterlimit="10"/>
<path d="M226.14 529.696L235.721 575.776L117.238 597.505L107.976 599.611C95.4333 601.796 81.3096 602.232 68.8545 599.611L59.9363 596.902C29.11 588.758 24.9423 543.695 36.9183 515.396L59.7766 465.82C65.2856 453.863 71.6249 442.311 78.7467 431.228L106.978 387.301C118.555 369.823 135.13 356.198 154.563 348.189L183.018 339.823C182.978 341.555 193.07 352.257 202.18 351.74C194.819 407.338 189.725 467.433 186.212 530.499L226.132 529.704L226.14 529.696Z" fill="#A9CBEF"/>
<path d="M148.696 421.647L117.559 537.641L186.221 530.491" stroke="#2064AE" stroke-width="0.960664" stroke-miterlimit="10"/>
<path d="M250.659 235.945C249.821 235.46 248.839 234.872 247.697 234.149C238.915 228.588 226.939 218.26 226.939 218.26C226.939 218.26 200.591 254.806 173.446 260.367C173.446 260.367 168.655 257.984 163.066 262.751C157.477 267.518 164.663 279.435 167.058 280.229C169.454 281.024 172.647 282.613 178.236 279.435C178.236 279.435 178.244 279.435 178.26 279.459C178.675 279.864 183.593 284.655 186.683 288.603C186.891 288.865 187.082 289.127 187.274 289.374C187.29 289.398 187.306 289.421 187.314 289.437C188.176 290.605 188.815 291.654 189.062 292.448C189.246 293.028 189.398 293.577 189.525 294.085C190.004 296 190.148 297.406 190.196 298.073V298.089C190.212 298.359 190.212 298.502 190.212 298.502C190.212 298.502 190.188 298.502 190.148 298.486C188.607 298.089 158.172 290.057 154.284 270.695C150.292 250.833 150.292 244.478 154.284 235.738C156.12 231.718 157.613 228.381 158.699 225.942C144.479 224.091 133.525 212.468 133.525 198.398C133.525 183.04 146.571 170.591 162.667 170.591C178.763 170.591 188.887 181.094 189.414 196.014C198.771 195.816 221.813 197.341 230.931 201.576C240.679 206.104 249.374 218.53 252.264 222.995L252.288 223.019C253.206 224.449 253.773 226.077 254.052 227.746L255.681 237.327C255.681 237.327 256.288 239.131 250.659 235.945Z" fill="#E9F2FB"/>
<path d="M181.429 288.968C184.515 288.968 187.017 286.479 187.017 283.407C187.017 280.336 184.515 277.846 181.429 277.846C178.342 277.846 175.84 280.336 175.84 283.407C175.84 286.479 178.342 288.968 181.429 288.968Z" fill="#FFF7CC"/>
<path d="M348.183 505.147V511.447C337.349 515.825 329.74 526.217 329.74 538.34C329.74 550.464 337.357 560.856 348.183 565.234V568.999C348.183 571.987 350.618 574.418 353.628 574.418H399.984C402.986 574.418 405.429 571.995 405.429 568.999V505.147C405.429 502.16 402.994 499.729 399.984 499.729H353.628C350.626 499.729 348.183 502.152 348.183 505.147ZM348.183 559.195C340.335 555.287 334.962 547.334 334.962 538.166C334.962 528.997 340.335 521.037 348.183 517.128V559.195Z" fill="#FFE866"/>
<path d="M528.447 499.729H482.092C479.09 499.729 476.646 502.152 476.646 505.147V568.999C476.646 571.987 479.082 574.418 482.092 574.418H528.447C531.449 574.418 533.892 571.995 533.892 568.999V565.234C544.726 560.856 552.335 550.464 552.335 538.34C552.335 526.217 544.718 515.825 533.892 511.447V505.147C533.892 502.16 531.457 499.729 528.447 499.729ZM533.892 517.12C541.74 521.029 547.114 528.989 547.114 538.158C547.114 547.326 541.74 555.279 533.892 559.188V517.12Z" fill="#68A4E3"/>
<path d="M318.134 0C265.032 0 221.99 42.8384 221.99 95.6715C221.99 122.859 233.399 147.368 251.699 164.791L250.158 175.159L247.699 191.685L263.316 185.543L274.757 181.038C287.795 187.617 302.525 191.343 318.142 191.343C371.244 191.343 414.286 148.504 414.286 95.6715C414.286 42.8384 371.228 0 318.134 0Z" fill="#FFF099"/>
<path d="M495.409 351.955C536.637 351.955 570.059 318.697 570.059 277.671C570.059 236.645 536.637 203.387 495.409 203.387C454.18 203.387 420.758 236.645 420.758 277.671C420.758 318.697 454.18 351.955 495.409 351.955Z" fill="#E9F2FB"/>
<path d="M460.969 299.424C464.379 300.33 466.973 299.011 467.78 296.063C468.355 293.982 468.794 291.837 469.025 289.699C469.089 289.112 468.355 288.19 467.74 287.816C465.768 286.617 463.484 285.862 461.672 284.48C451.349 276.662 455.061 263.887 461.329 258.508C465.145 255.227 469.512 252.907 474.231 251.366C476.626 250.579 477.544 249.348 478.071 246.948C479.532 240.219 483.253 235.095 489.927 232.505C495.141 230.479 496.403 231.265 496.618 236.708C496.81 241.554 494.646 245.479 491.045 248.434C488.291 250.69 485.073 252.414 482.007 254.273C480.426 255.227 478.462 259.334 479.173 260.963C479.42 261.519 480.259 261.877 480.898 262.194C483.756 263.625 486.399 265.285 487.828 268.304C491.181 275.399 486.949 284.44 478.83 287.546C478.478 287.681 478.119 287.88 477.76 287.896C473.975 288.047 472.898 290.422 472.53 293.72C472.147 297.183 470.327 300.044 467.836 302.443C465.073 305.112 459.876 305.359 456.546 303.063C453.377 300.87 451.828 295.865 453.273 292.496C454.223 290.279 456.682 288.46 458.91 288.73C460.993 288.984 463.069 289.588 463.955 291.892C464.834 294.172 464.203 296.262 462.039 298.304C461.728 298.598 461.44 298.923 460.961 299.432L460.969 299.424ZM473.448 268.693C469.999 269.631 467.852 271.291 467.141 274.803C464.275 268.28 466.438 263.386 472.706 261.916C475.349 261.297 475.452 259.692 475.436 257.356C469.089 259.692 463.349 262.282 460.898 269.13C458.742 275.152 463.724 282.533 470.51 282.764C471.452 278.243 472.402 273.675 473.44 268.693H473.448ZM477.464 268.797C476.522 273.738 475.612 278.529 474.686 283.367C480.466 283.653 482.638 279.641 483.277 275.462C483.788 272.141 481.145 269.218 477.464 268.797ZM491.876 236.398C487.101 236.684 482.303 242.062 481.736 248.259C487.764 247.767 493.345 241.339 491.876 236.398Z" fill="#68A4E3"/>
<path d="M509.478 257.762C514.141 249.555 518.732 241.483 523.506 233.085C524.871 234.539 525.973 235.699 527.059 236.883C530.468 240.601 533.845 244.343 537.295 248.021C538.165 248.951 538.324 249.745 537.758 250.913C533.454 259.764 529.215 268.646 524.935 277.512C524.033 279.371 522.372 280.285 520.424 280.563C517.358 281 514.492 280.484 511.953 278.537C509.231 276.456 508.249 272.936 509.766 270.338C511.714 266.993 515.187 265.627 518.476 267.327C520.464 268.352 522.101 270.044 524.081 271.578C524.448 270.894 524.943 270.02 525.39 269.131C527.115 265.714 528.776 262.266 530.564 258.874C531.338 257.404 531.115 256.403 529.949 255.203C526.939 252.113 524.089 248.863 521.175 245.677C520.975 245.463 520.744 245.28 520.384 244.947C520.001 245.511 519.634 245.956 519.362 246.456C516.64 251.414 513.973 256.395 511.211 261.329C508.376 266.382 503.77 267.661 498.58 264.928C494.644 262.854 493.239 259.08 495.227 255.895C497.462 252.296 501.766 251.43 505.382 254.004C506.835 255.036 508.041 256.411 509.494 257.754L509.478 257.762ZM532.72 253.328C534.348 252.002 534.261 250.921 533.063 249.618C530.261 246.567 527.562 243.429 524.815 240.339C524.512 239.997 524.129 239.719 523.586 239.242C523.067 240.331 521.805 241.022 522.859 242.237C526.093 245.94 529.382 249.586 532.72 253.336V253.328Z" fill="#68A4E3"/>
<path d="M491.837 310.729C493.434 303.619 494.903 297.096 496.372 290.573C497.37 286.132 498.352 281.683 499.422 277.258C499.55 276.718 500.252 275.852 500.572 275.891C501.61 276.034 503.095 275.653 503.454 277.179C504.468 281.556 506.895 285.25 509.306 288.905C512.213 293.291 514.001 297.883 512.931 303.174C512.061 307.448 509.346 310.626 506.145 313.399C505.833 313.669 505.203 313.566 504.715 313.637C504.843 313.208 504.867 312.708 505.115 312.35C510.161 304.993 508.747 296.524 502.48 290.184C502.033 289.731 501.418 289.445 500.588 288.881C500.069 290.955 499.542 292.774 499.167 294.625C497.666 301.935 496.173 309.244 494.751 316.561C494.336 318.706 493.234 320.327 491.406 321.431C487.765 323.632 483.837 324.538 479.686 323.274C476.372 322.265 474.688 319.667 474.304 316.41C473.921 313.105 475.39 310.404 478.065 308.457C481.322 306.09 484.723 306.129 488.117 308.219C489.266 308.926 490.368 309.728 491.829 310.714L491.837 310.729Z" fill="#68A4E3"/>
<path d="M306.438 59.7368C328.146 56.3047 352.011 61.2305 363.763 80.6317C379.476 106.556 361.4 114.604 361.4 114.604C361.4 114.604 356.689 117.861 350.206 116.503C346.254 115.676 340.665 113.825 336.913 112.506C332.362 110.909 327.348 113.658 326.462 118.378C326.438 118.489 326.422 118.6 326.406 118.719C325.599 124.193 332.977 127.601 332.977 127.601C332.977 127.601 338.23 132.901 334.414 138.208C333.144 139.979 330.925 141.529 328.545 142.808C322.973 145.803 316.641 147.074 310.318 146.653C298.07 145.835 274.901 142.212 263.484 126.831C254.03 114.103 255.563 103.878 256.617 100.224C256.817 99.5324 256.977 98.8253 257.104 98.1103C257.879 93.7168 261.799 78.9553 280.282 68.5715C287.779 64.3607 296.905 61.2384 306.446 59.7289L306.438 59.7368Z" fill="#A9CBEF"/>
<path d="M306.543 77.7635C309.598 77.7635 312.076 75.2985 312.076 72.2577C312.076 69.217 309.598 66.752 306.543 66.752C303.487 66.752 301.01 69.217 301.01 72.2577C301.01 75.2985 303.487 77.7635 306.543 77.7635Z" fill="#FFDE23"/>
<path d="M271.285 104.935C274.341 104.935 276.818 102.47 276.818 99.4291C276.818 96.3884 274.341 93.9233 271.285 93.9233C268.229 93.9233 265.752 96.3884 265.752 99.4291C265.752 102.47 268.229 104.935 271.285 104.935Z" fill="#68A4E3"/>
<path d="M296.168 138.375C299.223 138.375 301.701 135.91 301.701 132.869C301.701 129.828 299.223 127.363 296.168 127.363C293.112 127.363 290.635 129.828 290.635 132.869C290.635 135.91 293.112 138.375 296.168 138.375Z" fill="#FFDE23"/>
<path d="M359.02 98.4362C358.812 102.17 355.722 105.126 351.786 105.658C351.203 105.737 350.604 105.761 349.99 105.73C348.552 105.65 347.219 105.261 346.053 104.633C343.379 103.187 341.646 100.494 341.814 97.5067C342.021 93.7726 345.111 90.8171 349.055 90.2848C349.638 90.2054 350.237 90.1815 350.844 90.2133C352.401 90.3007 353.838 90.7456 355.059 91.4686C357.574 92.9463 359.179 95.5522 359.027 98.4362H359.02Z" fill="#FFF099"/>
<path d="M344.002 114.842C345.854 115.327 347.706 115.772 349.351 116.106C345.183 131.677 341.383 145.851 340.129 150.499C339.882 151.428 338.852 152.056 337.686 151.992C337.111 147.13 340.201 131.455 343.994 114.842H344.002Z" fill="#2064AE"/>
<path d="M365.366 51.5775C365.366 51.5775 364.632 64.9883 362.796 70.939C362.333 72.4485 360.656 77.7477 358.412 84.8265C357.319 88.2825 356.081 92.1675 354.796 96.2353C353.814 99.3179 352.8 102.512 351.786 105.706C351.203 105.745 350.604 105.753 349.989 105.721C348.552 105.642 347.211 105.356 346.037 104.911C346.947 101.646 347.873 98.4122 348.768 95.3296C350.277 90.1257 351.714 85.343 352.879 81.5215C354.54 76.0714 355.65 72.5677 355.65 72.5677L362.356 51.4106L365.366 51.5775Z" fill="#2064AE"/>
<path d="M370.406 33.3125C370.406 33.3125 367.052 39.3426 367.811 43.9109C368.569 48.4712 368.857 52.4436 366.781 53.4605C364.713 54.4775 361.567 53.6751 360.37 50.8547C358.294 45.9527 361.615 37.3564 370.406 33.3204V33.3125Z" fill="#68A4E3"/>
<path d="M303.762 64.7501C303.762 65.0043 303.762 65.2585 303.762 65.5048C303.762 65.8623 303.842 66.196 304.026 66.5059C304.257 66.8872 304.417 67.3004 304.473 67.7453C304.505 67.9598 304.513 68.1743 304.545 68.3888C304.561 68.5636 304.664 68.6669 304.824 68.7225C304.992 68.7781 305.167 68.7781 305.335 68.7622C305.439 68.7543 305.511 68.6907 305.567 68.6113C305.71 68.4126 305.854 68.214 306.006 68.0233C306.102 67.9042 306.221 67.7929 306.349 67.6976C306.461 67.6023 306.605 67.5625 306.756 67.5705C306.98 67.5705 307.179 67.6261 307.355 67.777C307.387 67.8088 307.435 67.8327 307.467 67.8644C307.69 68.0631 307.946 68.0472 308.201 67.9439C308.377 67.8724 308.529 67.7612 308.656 67.6182C308.832 67.4195 308.848 67.213 308.752 66.9746C308.696 66.8316 308.648 66.6807 308.585 66.5377C308.401 66.1484 308.393 65.7591 308.545 65.3698C308.617 65.1711 308.696 64.9805 308.784 64.7898C308.912 64.5117 309.104 64.2893 309.415 64.1939C309.678 64.1145 309.95 64.1065 310.213 64.178C310.804 64.329 311.124 64.8692 310.94 65.4492C310.82 65.8226 310.684 66.1881 310.549 66.5535C310.429 66.8952 310.293 67.2289 310.237 67.5943C310.197 67.8486 310.197 68.0869 310.325 68.3252C310.493 68.643 310.908 68.8814 311.267 68.8496C311.427 68.8337 311.555 68.7463 311.674 68.651C311.762 68.5874 311.834 68.5159 311.914 68.4444C312.098 68.2696 312.273 68.079 312.457 67.9042C312.545 67.8247 312.641 67.7532 312.736 67.6897C313.008 67.499 313.439 67.6182 313.535 67.9598C313.583 68.1266 313.639 68.2935 313.654 68.4682C313.686 68.7781 313.543 69.0403 313.343 69.2707C313.112 69.5487 312.816 69.7474 312.457 69.8586C312.257 69.9221 312.058 69.9936 311.858 70.0731C311.698 70.1367 311.555 70.232 311.451 70.375C311.307 70.5657 311.315 70.8358 311.459 71.0185C311.627 71.2172 311.85 71.3125 312.098 71.3443C312.609 71.4158 313.056 71.2648 313.463 70.9629C314.014 70.5498 314.557 70.1287 315.108 69.7235C315.411 69.5011 315.722 69.3025 316.042 69.1118C316.393 68.9052 316.776 68.794 317.167 68.7145C317.519 68.643 317.878 68.6192 318.237 68.6589C318.445 68.6828 318.652 68.7145 318.836 68.8258C319.259 69.08 319.427 69.4931 319.299 70.0016C319.259 70.1764 319.171 70.3353 319.084 70.4942C319.004 70.6451 318.868 70.7166 318.684 70.7007C318.389 70.661 318.094 70.6292 317.806 70.5975C317.471 70.5498 317.128 70.5498 316.792 70.5657C316.074 70.6054 315.411 70.8279 314.764 71.1139C314.397 71.2807 314.038 71.4634 313.702 71.67C313.495 71.7971 313.343 71.964 313.295 72.2182C313.255 72.4407 313.303 72.6393 313.471 72.7982C313.559 72.8856 313.67 72.9571 313.766 73.0445C313.894 73.1557 314.03 73.259 314.157 73.3781C314.373 73.5688 314.421 74.117 314.134 74.3633C313.99 74.4825 313.838 74.6016 313.702 74.7288C313.607 74.8162 313.519 74.9115 313.439 75.0148C313.287 75.2054 313.295 75.42 313.391 75.6345C313.487 75.8331 313.646 75.9602 313.83 76.0714C314.293 76.3336 314.78 76.4131 315.299 76.3018C315.483 76.2621 315.674 76.2303 315.866 76.2224C316.313 76.1986 316.704 76.3574 317.064 76.6037C317.575 76.9613 317.91 77.4379 318.094 78.0259C318.173 78.288 318.237 78.5502 318.229 78.8283C318.229 79.154 318.229 79.4798 318.229 79.8134C318.229 79.9803 318.197 80.1471 318.157 80.306C318.094 80.592 317.91 80.8065 317.67 80.9654C317.439 81.1243 317.199 81.1005 316.968 80.9654C316.648 80.7827 316.417 80.5205 316.225 80.2107C315.97 79.7975 315.81 79.3367 315.69 78.868C315.627 78.6138 315.555 78.3675 315.475 78.1212C315.323 77.6604 315.004 77.3426 314.589 77.1201C314.269 76.9533 313.942 76.8182 313.583 76.7467C313.319 76.6911 313.096 76.7467 312.896 76.9374C312.561 77.2473 312.441 77.6207 312.561 78.0576C312.601 78.2086 312.68 78.3595 312.776 78.4946C313.024 78.868 313.295 79.2255 313.543 79.5989C313.75 79.9088 313.95 80.2266 314.078 80.5761C314.173 80.8542 314.237 81.1323 314.205 81.4262C314.197 81.5057 314.157 81.5931 314.11 81.6566C313.886 81.9585 313.375 82.1015 313.024 81.9744C312.744 81.8711 312.585 81.6725 312.553 81.3786C312.513 81.0528 312.489 80.7191 312.441 80.3934C312.401 80.0836 312.353 79.7737 312.241 79.4798C312.074 79.0348 311.77 78.7409 311.315 78.6138C311.012 78.5343 310.716 78.5582 310.437 78.7329C310.325 78.8044 310.277 78.8998 310.253 79.019C310.221 79.2176 310.229 79.4083 310.245 79.6069C310.261 79.7737 310.261 79.9485 310.269 80.1153C310.269 80.2266 310.229 80.314 310.149 80.3855C310.046 80.4808 309.926 80.5444 309.79 80.5841C309.639 80.6318 309.519 80.6 309.407 80.4967C309.239 80.3537 309.112 80.171 309 79.9882C308.776 79.6148 308.648 79.1937 308.505 78.7886C308.481 78.7171 308.449 78.6456 308.409 78.574C308.329 78.431 308.217 78.3436 308.042 78.3278C307.786 78.3119 307.603 78.4152 307.507 78.6535C307.355 79.0507 307.347 79.448 307.435 79.8611C307.563 80.4331 307.746 80.9893 307.97 81.5295C308.177 82.0539 308.433 82.5623 308.656 83.0867C308.76 83.325 308.872 83.5713 308.96 83.8176C309.04 84.056 309.04 84.3102 308.968 84.5485C308.896 84.8028 308.712 84.9617 308.457 85.0252C308.369 85.0491 308.281 85.0252 308.209 84.9696C308.074 84.8743 307.97 84.7392 307.882 84.5962C307.666 84.2387 307.547 83.8573 307.507 83.4442C307.467 83.0231 307.419 82.5941 307.387 82.1651C307.355 81.6964 307.275 81.2356 307.179 80.7827C307.02 80.0041 306.764 79.2573 306.405 78.5502C306.365 78.4708 306.309 78.3913 306.245 78.3198C306.173 78.2324 306.07 78.2086 305.958 78.2245C305.599 78.2721 305.407 78.5025 305.303 78.8203C305.215 79.0666 305.215 79.3288 305.247 79.583C305.255 79.6545 305.295 79.726 305.327 79.7896C305.447 80.0438 305.575 80.2901 305.702 80.5444C305.806 80.7509 305.862 80.9734 305.862 81.2117C305.862 81.3945 305.862 81.5851 305.854 81.7679C305.846 81.9744 305.718 82.1095 305.527 82.173C305.399 82.2128 305.271 82.2446 305.136 82.2525C304.936 82.2684 304.736 82.2684 304.545 82.2207C304.297 82.1651 304.161 82.0062 304.082 81.7838C303.986 81.5295 303.994 81.2673 304.058 81.0052C304.145 80.6635 304.249 80.3299 304.345 79.9882C304.433 79.6466 304.513 79.305 304.449 78.9475C304.401 78.6932 304.313 78.4549 304.098 78.288C303.89 78.1291 303.81 78.1132 303.627 78.3278C303.443 78.5343 303.339 78.7886 303.235 79.0428C302.964 79.6863 302.772 80.3537 302.613 81.0369C302.461 81.6964 302.357 82.3558 302.253 83.0231C302.157 83.6508 302.094 84.2864 301.942 84.9061C301.83 85.3589 301.599 85.7323 301.199 85.9786C300.992 86.1137 300.76 86.1852 300.505 86.1931C300.265 86.1931 300.098 86.0898 300.002 85.8753C299.874 85.6052 299.858 85.3113 299.882 85.0173C299.914 84.7233 300.042 84.4612 300.185 84.2069C300.569 83.5396 300.952 82.8722 301.327 82.1969C301.631 81.6487 301.87 81.0767 302.086 80.4887C302.357 79.7419 302.565 78.9792 302.78 78.2165C302.828 78.0576 302.876 77.8987 302.916 77.7319C302.916 77.7081 302.916 77.6842 302.908 77.6604C302.804 77.4459 302.549 77.4618 302.429 77.5651C302.357 77.6366 302.301 77.724 302.245 77.8193C302.197 77.8987 302.181 77.9861 302.141 78.0656C302.062 78.2563 301.91 78.3595 301.702 78.3754C301.415 78.3993 301.167 78.3039 300.976 78.0815C300.896 77.9941 300.872 77.8987 300.896 77.7796C300.936 77.5253 300.984 77.279 301.024 77.0248C301.032 76.9533 301.032 76.8659 301.016 76.7944C300.952 76.5561 300.848 76.3416 300.633 76.1906C300.409 76.0397 300.122 76.0476 299.922 76.2303C299.802 76.3416 299.698 76.4766 299.603 76.6117C299.283 77.0725 298.956 77.5174 298.565 77.9146C298.429 78.0576 298.277 78.1848 298.118 78.296C297.854 78.4787 297.607 78.4549 297.383 78.2483C297.287 78.1609 297.207 78.0497 297.12 77.9385C297.016 77.8034 296.992 77.6445 296.992 77.4777C296.992 77.3585 297.032 77.2632 297.112 77.1758C297.335 76.9374 297.599 76.7547 297.894 76.6276C298.237 76.4687 298.589 76.3177 298.94 76.1588C299.203 76.0317 299.459 75.8887 299.642 75.6583C299.89 75.3485 300.026 75.0068 299.914 74.5937C299.842 74.3474 299.65 74.2838 299.435 74.3315C299.307 74.3633 299.211 74.4348 299.116 74.5222C298.868 74.7367 298.668 74.9989 298.469 75.2531C298.301 75.4676 298.142 75.6901 297.966 75.8966C297.758 76.1509 297.519 76.3813 297.191 76.4528C296.8 76.5481 296.409 76.5481 296.042 76.3495C295.97 76.3098 295.898 76.2462 295.834 76.1827C295.419 75.7457 295.259 75.2293 295.355 74.6255C295.403 74.2918 295.595 74.0614 295.834 73.8548C296.153 73.5688 296.537 73.4179 296.968 73.3781C297.487 73.3305 298.006 73.2908 298.517 73.2431C299.044 73.1954 299.555 73.0921 300.058 72.9253C300.369 72.822 300.68 72.7267 300.992 72.6154C301.128 72.5678 301.247 72.4883 301.367 72.4089C301.495 72.3294 301.511 72.0672 301.415 71.9481C301.279 71.7812 301.104 71.7018 300.888 71.6859C300.449 71.6462 300.01 71.6064 299.579 71.5588C299.531 71.5588 299.483 71.5429 299.443 71.5191C299.211 71.376 299.044 71.1774 299.02 70.8914C298.996 70.669 299.171 70.4386 299.419 70.3829C299.579 70.3432 299.738 70.3512 299.882 70.4227C300.146 70.5577 300.401 70.7007 300.664 70.8358C300.952 70.9947 301.247 71.1139 301.567 71.1933C301.782 71.2489 302.189 71.0741 302.285 70.8914C302.373 70.7405 302.349 70.5816 302.301 70.4227C302.189 70.0572 301.998 69.7315 301.758 69.4375C301.503 69.1118 301.191 68.8496 300.832 68.651C300.249 68.3332 299.874 67.8486 299.627 67.2447C299.475 66.8713 299.395 66.482 299.403 66.0769C299.403 65.8147 299.395 65.5604 299.467 65.3062C299.547 65.0202 299.698 64.7739 299.938 64.5912C300.146 64.4323 300.441 64.4402 300.672 64.615C300.96 64.8295 301.143 65.1155 301.199 65.4651C301.279 65.9418 301.343 66.4185 301.431 66.8952C301.487 67.2368 301.551 67.5705 301.631 67.9121C301.67 68.079 301.734 68.2378 301.822 68.3809C302.03 68.7304 302.277 69.0562 302.621 69.2866C302.74 69.366 302.876 69.4375 303.028 69.4137C303.203 69.3898 303.331 69.2389 303.347 69.0641C303.363 68.8814 303.315 68.7145 303.275 68.5397C303.235 68.3173 303.195 68.0869 303.163 67.8565C303.132 67.6102 303.211 67.3719 303.275 67.1335C303.339 66.8793 303.419 66.633 303.459 66.3788C303.531 65.9895 303.435 65.624 303.243 65.2824C303.108 65.044 302.972 64.8057 302.844 64.5673C302.804 64.4879 302.772 64.4005 302.748 64.3131C302.708 64.186 302.732 64.0589 302.82 63.9556C302.924 63.8205 303.052 63.7014 303.211 63.6378C303.307 63.5981 303.411 63.5822 303.507 63.5742C303.587 63.5663 303.666 63.606 303.698 63.6855C303.722 63.749 303.746 63.8126 303.746 63.8761C303.746 64.1622 303.746 64.4482 303.746 64.7342L303.762 64.7501Z" fill="#FFDE23"/>
<path d="M278.407 89.307C278.208 89.4659 278.016 89.6327 277.817 89.7916C277.537 90.0141 277.33 90.2922 277.21 90.6338C277.058 91.0549 276.843 91.4362 276.539 91.7699C276.395 91.9288 276.236 92.0718 276.084 92.2307C275.964 92.3578 275.94 92.5008 276.004 92.6597C276.068 92.8266 276.18 92.9537 276.3 93.0808C276.371 93.1523 276.467 93.1682 276.563 93.1602C276.811 93.1443 277.058 93.1285 277.298 93.1285C277.457 93.1285 277.617 93.1523 277.769 93.1841C277.912 93.2159 278.032 93.2953 278.128 93.4145C278.272 93.5893 278.352 93.7799 278.344 94.0024C278.344 94.0501 278.344 94.0977 278.344 94.1454C278.328 94.4473 278.503 94.63 278.743 94.7571C278.91 94.8445 279.094 94.8922 279.286 94.9001C279.549 94.9081 279.725 94.7889 279.845 94.5665C279.924 94.4314 280.004 94.3043 280.076 94.1613C280.26 93.7799 280.555 93.5257 280.962 93.3906C281.162 93.3271 281.362 93.2556 281.561 93.2C281.857 93.1205 282.16 93.1285 282.423 93.3032C282.647 93.4542 282.831 93.6608 282.942 93.907C283.206 94.4552 282.982 95.0432 282.415 95.2736C282.048 95.4245 281.681 95.5437 281.306 95.6787C280.962 95.7979 280.619 95.9091 280.3 96.0998C280.076 96.2269 279.892 96.3858 279.789 96.6321C279.645 96.9579 279.733 97.4345 279.98 97.6888C280.092 97.808 280.244 97.8397 280.395 97.8795C280.499 97.9033 280.603 97.9192 280.707 97.9351C280.962 97.9589 281.218 97.9827 281.473 98.0145C281.593 98.0304 281.705 98.0622 281.817 98.094C282.144 98.1814 282.32 98.5865 282.12 98.8805C282.024 99.0235 281.92 99.1745 281.801 99.2936C281.577 99.5161 281.282 99.5717 280.978 99.5717C280.611 99.5717 280.276 99.4684 279.964 99.2619C279.789 99.1427 279.605 99.0394 279.413 98.9361C279.262 98.8487 279.094 98.809 278.918 98.8169C278.679 98.8328 278.471 99.0076 278.423 99.238C278.375 99.4923 278.447 99.7227 278.575 99.9372C278.847 100.374 279.246 100.628 279.733 100.74C280.403 100.898 281.074 101.049 281.737 101.216C282.096 101.312 282.455 101.423 282.807 101.55C283.19 101.685 283.517 101.915 283.829 102.17C284.108 102.392 284.356 102.654 284.555 102.956C284.667 103.131 284.771 103.314 284.803 103.52C284.874 104.013 284.667 104.394 284.188 104.625C284.028 104.704 283.845 104.736 283.669 104.776C283.501 104.807 283.358 104.752 283.262 104.601C283.102 104.354 282.942 104.108 282.783 103.854C282.599 103.568 282.391 103.306 282.16 103.052C281.673 102.527 281.082 102.162 280.443 101.844C280.084 101.669 279.717 101.51 279.334 101.383C279.102 101.304 278.871 101.296 278.647 101.415C278.447 101.526 278.328 101.693 278.304 101.915C278.296 102.043 278.304 102.17 278.304 102.297C278.304 102.464 278.304 102.638 278.296 102.805C278.28 103.091 277.888 103.481 277.513 103.409C277.33 103.377 277.146 103.338 276.954 103.306C276.827 103.29 276.691 103.282 276.563 103.282C276.316 103.282 276.156 103.425 276.052 103.639C275.956 103.838 275.956 104.045 275.996 104.259C276.084 104.776 276.332 105.205 276.755 105.53C276.906 105.649 277.05 105.777 277.178 105.912C277.481 106.237 277.609 106.643 277.641 107.08C277.689 107.699 277.529 108.263 277.194 108.78C277.042 109.01 276.875 109.225 276.659 109.391C276.403 109.598 276.156 109.813 275.892 110.011C275.757 110.114 275.613 110.202 275.461 110.273C275.198 110.408 274.918 110.4 274.639 110.321C274.376 110.242 274.232 110.051 274.184 109.781C274.12 109.423 274.184 109.074 274.296 108.732C274.455 108.271 274.711 107.858 274.998 107.469C275.15 107.262 275.302 107.048 275.437 106.825C275.701 106.42 275.741 105.975 275.645 105.506C275.573 105.157 275.469 104.815 275.302 104.497C275.182 104.259 274.99 104.124 274.719 104.092C274.264 104.037 273.896 104.18 273.641 104.545C273.545 104.672 273.481 104.831 273.441 104.982C273.314 105.411 273.202 105.84 273.074 106.269C272.97 106.627 272.851 106.976 272.651 107.302C272.499 107.548 272.324 107.779 272.068 107.938C271.996 107.977 271.908 108.009 271.829 108.009C271.453 108.025 271.014 107.723 270.894 107.374C270.799 107.095 270.847 106.849 271.054 106.635C271.286 106.396 271.525 106.166 271.749 105.928C271.964 105.697 272.172 105.467 272.332 105.197C272.571 104.784 272.603 104.362 272.411 103.933C272.284 103.647 272.068 103.441 271.757 103.338C271.637 103.298 271.525 103.314 271.421 103.377C271.246 103.481 271.102 103.608 270.958 103.743C270.839 103.862 270.711 103.973 270.583 104.084C270.503 104.156 270.407 104.18 270.296 104.164C270.16 104.14 270.032 104.092 269.912 104.021C269.785 103.933 269.729 103.822 269.737 103.671C269.737 103.449 269.801 103.242 269.873 103.036C270.024 102.623 270.264 102.265 270.487 101.892C270.527 101.828 270.559 101.757 270.591 101.685C270.655 101.534 270.647 101.391 270.543 101.248C270.391 101.041 270.2 100.962 269.952 101.041C269.545 101.177 269.234 101.423 268.97 101.757C268.611 102.217 268.3 102.71 268.012 103.226C267.741 103.719 267.501 104.235 267.246 104.744C267.126 104.982 267.006 105.22 266.871 105.443C266.735 105.657 266.543 105.816 266.312 105.92C266.064 106.031 265.833 105.983 265.617 105.832C265.537 105.777 265.513 105.697 265.505 105.602C265.489 105.435 265.529 105.276 265.585 105.117C265.721 104.728 265.944 104.386 266.24 104.1C266.543 103.798 266.847 103.496 267.158 103.202C267.501 102.877 267.805 102.527 268.1 102.162C268.603 101.542 269.018 100.875 269.338 100.144C269.377 100.064 269.401 99.9689 269.417 99.8815C269.441 99.7703 269.393 99.675 269.314 99.6035C269.05 99.3572 268.747 99.3572 268.435 99.4764C268.188 99.5717 267.988 99.7306 267.813 99.9213C267.765 99.9769 267.733 100.048 267.701 100.112C267.581 100.366 267.469 100.62 267.358 100.875C267.262 101.089 267.126 101.272 266.942 101.415C266.799 101.534 266.655 101.645 266.503 101.757C266.336 101.884 266.152 101.868 265.984 101.757C265.873 101.685 265.769 101.606 265.673 101.51C265.529 101.367 265.409 101.216 265.322 101.034C265.21 100.811 265.25 100.605 265.37 100.398C265.505 100.168 265.713 100.001 265.952 99.8895C266.272 99.7385 266.599 99.6114 266.918 99.4605C267.238 99.3095 267.557 99.1506 267.789 98.8726C267.956 98.6739 268.092 98.4594 268.084 98.1893C268.084 97.9271 268.036 97.8556 267.757 97.8556C267.477 97.8556 267.214 97.9271 266.95 98.0066C266.28 98.2131 265.641 98.4912 265.01 98.7931C264.403 99.0871 263.821 99.4366 263.238 99.7862C262.687 100.112 262.152 100.462 261.577 100.74C261.154 100.946 260.723 101.002 260.268 100.851C260.028 100.771 259.821 100.644 259.661 100.454C259.501 100.271 259.485 100.072 259.589 99.8657C259.725 99.5955 259.932 99.3969 260.18 99.2301C260.427 99.0632 260.707 98.9997 260.994 98.952C261.753 98.8169 262.519 98.6898 263.278 98.5548C263.892 98.4435 264.491 98.2529 265.082 98.0463C265.833 97.7841 266.559 97.4504 267.286 97.1326C267.437 97.0691 267.597 96.9976 267.749 96.934C267.765 96.9261 267.789 96.9022 267.797 96.8864C267.9 96.6718 267.725 96.4812 267.565 96.4573C267.461 96.4414 267.358 96.4573 267.254 96.4732C267.166 96.4891 267.078 96.5288 266.998 96.5527C266.799 96.6162 266.623 96.5606 266.479 96.4097C266.28 96.2031 266.2 95.9568 266.248 95.6708C266.264 95.5596 266.328 95.4722 266.431 95.4166C266.655 95.2894 266.878 95.1623 267.094 95.0352C267.158 94.9955 267.222 94.9399 267.262 94.8843C267.405 94.6856 267.509 94.4632 267.485 94.209C267.461 93.9468 267.27 93.7243 267.006 93.6846C266.847 93.6608 266.679 93.6687 266.511 93.6846C265.952 93.7323 265.401 93.7561 264.843 93.7164C264.643 93.7005 264.451 93.6687 264.26 93.6131C263.956 93.5257 263.813 93.3271 263.829 93.0172C263.829 92.8822 263.869 92.7551 263.9 92.62C263.94 92.4531 264.052 92.334 264.18 92.2307C264.276 92.1512 264.371 92.1195 264.491 92.1274C264.819 92.1512 265.122 92.2307 265.417 92.3737C265.761 92.5405 266.096 92.7153 266.439 92.8742C266.703 93.0013 266.982 93.0967 267.278 93.0967C267.677 93.0967 268.028 92.9775 268.276 92.6279C268.419 92.4214 268.356 92.2307 268.18 92.0956C268.076 92.0162 267.956 91.9924 267.829 91.9685C267.501 91.9129 267.182 91.9288 266.855 91.9367C266.583 91.9447 266.304 91.9606 266.032 91.9606C265.705 91.9606 265.377 91.9288 265.106 91.7222C264.787 91.4839 264.531 91.182 264.459 90.7768C264.443 90.6894 264.443 90.602 264.459 90.5146C264.539 89.9188 264.835 89.4659 265.362 89.1561C265.649 88.9813 265.952 88.9813 266.264 89.0369C266.687 89.1084 267.054 89.2991 267.35 89.601C267.717 89.9664 268.076 90.3398 268.443 90.7053C268.811 91.0787 269.226 91.4124 269.665 91.6904C269.944 91.8652 270.216 92.048 270.495 92.2148C270.615 92.2863 270.759 92.326 270.894 92.3737C271.038 92.4214 271.254 92.2704 271.286 92.1195C271.334 91.905 271.278 91.7222 271.15 91.5474C270.902 91.1899 270.655 90.8245 270.415 90.459C270.391 90.4193 270.368 90.3716 270.36 90.3319C270.328 90.0618 270.376 89.8075 270.575 89.6089C270.735 89.45 271.022 89.4421 271.222 89.593C271.35 89.6884 271.453 89.8155 271.485 89.9744C271.549 90.2604 271.605 90.5543 271.661 90.8403C271.725 91.1581 271.813 91.468 271.956 91.7619C272.052 91.9606 272.443 92.1592 272.643 92.1274C272.811 92.0956 272.93 91.9765 273.018 91.8414C273.226 91.5236 273.362 91.174 273.441 90.8006C273.529 90.3954 273.537 89.9903 273.465 89.5851C273.346 88.9336 273.481 88.3377 273.793 87.7657C273.984 87.4082 274.232 87.0983 274.551 86.8521C274.759 86.6932 274.95 86.5104 275.19 86.4071C275.461 86.288 275.749 86.2482 276.044 86.3118C276.3 86.3674 276.483 86.5978 276.491 86.8918C276.507 87.2493 276.403 87.5671 276.164 87.8372C275.845 88.2027 275.517 88.5522 275.206 88.9177C274.982 89.1799 274.759 89.4421 274.543 89.7122C274.439 89.8472 274.36 89.9982 274.296 90.1571C274.152 90.5385 274.064 90.9357 274.104 91.3488C274.12 91.4918 274.152 91.6348 274.264 91.7381C274.399 91.8573 274.591 91.8652 274.735 91.7619C274.886 91.6587 274.982 91.5077 275.102 91.3727C275.246 91.1979 275.405 91.0231 275.557 90.8562C275.733 90.6735 275.964 90.5861 276.188 90.4828C276.427 90.3716 276.667 90.2763 276.89 90.1492C277.234 89.9585 277.457 89.6566 277.601 89.2911C277.705 89.0369 277.801 88.7826 277.904 88.5364C277.936 88.4569 277.984 88.3775 278.04 88.306C278.12 88.1947 278.224 88.1312 278.36 88.1312C278.535 88.1312 278.703 88.1471 278.855 88.2345C278.942 88.2821 279.022 88.3536 279.094 88.4172C279.15 88.4728 279.166 88.5602 279.126 88.6317C279.094 88.6873 279.054 88.7509 279.006 88.7906C278.791 88.9733 278.567 89.156 278.344 89.3388L278.407 89.307Z" fill="#68A4E3"/>
<path d="M287.26 125.878C287.443 126.045 287.635 126.219 287.819 126.386C288.082 126.632 288.386 126.799 288.737 126.863C289.176 126.95 289.591 127.109 289.958 127.363C290.134 127.483 290.302 127.618 290.477 127.745C290.621 127.848 290.765 127.848 290.917 127.761C291.076 127.673 291.188 127.546 291.292 127.411C291.356 127.332 291.356 127.236 291.332 127.141C291.284 126.903 291.228 126.664 291.196 126.418C291.172 126.267 291.172 126.1 291.18 125.949C291.188 125.798 291.252 125.671 291.356 125.56C291.507 125.393 291.683 125.282 291.915 125.258C291.962 125.258 292.01 125.242 292.058 125.234C292.362 125.202 292.521 125.004 292.617 124.75C292.681 124.575 292.697 124.384 292.681 124.193C292.649 123.939 292.505 123.78 292.274 123.685C292.13 123.629 291.986 123.558 291.843 123.518C291.435 123.391 291.14 123.137 290.948 122.755C290.853 122.565 290.757 122.382 290.677 122.191C290.557 121.905 290.517 121.611 290.661 121.325C290.781 121.079 290.956 120.88 291.188 120.729C291.699 120.396 292.314 120.531 292.617 121.055C292.817 121.389 292.992 121.746 293.176 122.088C293.344 122.406 293.503 122.732 293.735 123.018C293.895 123.216 294.078 123.383 294.334 123.447C294.677 123.534 295.14 123.391 295.356 123.113C295.451 122.986 295.467 122.835 295.483 122.684C295.491 122.581 295.491 122.477 295.491 122.366C295.483 122.112 295.467 121.858 295.459 121.603C295.459 121.484 295.475 121.373 295.491 121.254C295.531 120.92 295.915 120.69 296.226 120.849C296.386 120.928 296.545 121 296.681 121.103C296.928 121.293 297.032 121.572 297.072 121.873C297.12 122.239 297.072 122.581 296.913 122.914C296.825 123.105 296.745 123.304 296.665 123.502C296.601 123.669 296.577 123.836 296.617 124.011C296.665 124.241 296.865 124.424 297.104 124.44C297.368 124.456 297.583 124.344 297.775 124.185C298.174 123.86 298.366 123.431 298.414 122.93C298.477 122.247 298.533 121.564 298.605 120.888C298.645 120.523 298.709 120.149 298.781 119.784C298.861 119.387 299.044 119.029 299.252 118.688C299.435 118.378 299.659 118.1 299.93 117.861C300.09 117.726 300.25 117.591 300.457 117.536C300.936 117.393 301.352 117.551 301.639 117.981C301.735 118.124 301.799 118.298 301.863 118.465C301.919 118.624 301.887 118.775 301.743 118.894C301.519 119.085 301.296 119.283 301.072 119.466C300.809 119.681 300.577 119.927 300.37 120.189C299.915 120.737 299.635 121.381 299.412 122.048C299.284 122.43 299.18 122.811 299.108 123.208C299.06 123.447 299.084 123.677 299.236 123.876C299.372 124.058 299.555 124.154 299.787 124.138C299.915 124.138 300.042 124.098 300.17 124.082C300.338 124.058 300.505 124.034 300.681 124.019C300.968 123.995 301.408 124.32 301.4 124.702C301.4 124.893 301.376 125.075 301.376 125.266C301.376 125.393 301.384 125.528 301.408 125.655C301.447 125.902 301.615 126.037 301.839 126.108C302.046 126.172 302.254 126.14 302.461 126.076C302.964 125.917 303.356 125.608 303.619 125.155C303.715 124.988 303.819 124.829 303.938 124.686C304.218 124.344 304.601 124.162 305.032 124.066C305.647 123.931 306.222 124.011 306.789 124.265C307.036 124.376 307.276 124.511 307.475 124.702C307.715 124.924 307.962 125.139 308.202 125.369C308.322 125.488 308.426 125.615 308.521 125.751C308.689 125.989 308.729 126.267 308.689 126.553C308.649 126.823 308.473 126.99 308.218 127.077C307.867 127.189 307.515 127.181 307.164 127.109C306.677 127.022 306.238 126.823 305.807 126.593C305.575 126.474 305.344 126.354 305.104 126.251C304.665 126.052 304.21 126.076 303.763 126.235C303.42 126.354 303.1 126.513 302.805 126.72C302.589 126.871 302.477 127.077 302.485 127.347C302.485 127.8 302.685 128.142 303.092 128.349C303.236 128.42 303.396 128.46 303.555 128.484C304.002 128.547 304.449 128.595 304.889 128.658C305.256 128.714 305.623 128.785 305.974 128.928C306.246 129.04 306.501 129.183 306.693 129.413C306.749 129.477 306.781 129.556 306.797 129.636C306.869 130.001 306.629 130.478 306.294 130.652C306.03 130.788 305.775 130.772 305.535 130.597C305.264 130.406 305.008 130.2 304.737 130.017C304.481 129.842 304.218 129.667 303.931 129.548C303.491 129.373 303.06 129.397 302.661 129.651C302.398 129.818 302.214 130.057 302.158 130.374C302.134 130.502 302.174 130.605 302.246 130.7C302.366 130.859 302.517 130.986 302.677 131.105C302.813 131.209 302.94 131.32 303.068 131.431C303.148 131.503 303.188 131.59 303.188 131.701C303.188 131.844 303.156 131.971 303.1 132.098C303.036 132.241 302.925 132.305 302.781 132.321C302.557 132.345 302.342 132.321 302.134 132.273C301.703 132.186 301.312 131.995 300.905 131.828C300.833 131.797 300.761 131.773 300.681 131.757C300.521 131.717 300.378 131.741 300.25 131.868C300.066 132.051 300.018 132.249 300.13 132.48C300.322 132.861 300.609 133.131 300.976 133.346C301.487 133.64 302.022 133.87 302.573 134.077C303.108 134.275 303.651 134.434 304.186 134.617C304.433 134.704 304.689 134.784 304.936 134.887C305.168 134.99 305.352 135.157 305.487 135.372C305.631 135.602 305.615 135.84 305.495 136.071C305.455 136.15 305.376 136.198 305.288 136.214C305.12 136.254 304.96 136.238 304.793 136.206C304.386 136.126 304.018 135.952 303.683 135.705C303.34 135.451 302.996 135.197 302.661 134.935C302.294 134.649 301.895 134.395 301.495 134.156C300.809 133.751 300.082 133.433 299.316 133.219C299.228 133.195 299.132 133.187 299.044 133.179C298.932 133.179 298.845 133.235 298.781 133.322C298.573 133.616 298.613 133.91 298.781 134.204C298.909 134.434 299.1 134.609 299.308 134.76C299.372 134.8 299.443 134.824 299.515 134.847C299.787 134.927 300.058 134.998 300.322 135.078C300.545 135.141 300.745 135.253 300.921 135.411C301.056 135.539 301.192 135.658 301.328 135.793C301.479 135.944 301.487 136.126 301.408 136.309C301.352 136.428 301.288 136.548 301.208 136.651C301.088 136.81 300.952 136.953 300.785 137.064C300.577 137.207 300.37 137.199 300.146 137.104C299.891 137 299.699 136.818 299.555 136.595C299.364 136.301 299.188 135.999 298.996 135.705C298.805 135.411 298.597 135.125 298.294 134.927C298.07 134.792 297.839 134.688 297.567 134.736C297.312 134.784 297.248 134.831 297.28 135.102C297.312 135.372 297.424 135.626 297.543 135.872C297.839 136.508 298.206 137.096 298.605 137.668C298.988 138.224 299.412 138.748 299.843 139.273C300.25 139.765 300.673 140.242 301.024 140.774C301.288 141.163 301.408 141.585 301.32 142.045C301.272 142.292 301.176 142.514 301.008 142.705C300.849 142.888 300.657 142.927 300.433 142.856C300.146 142.76 299.915 142.586 299.715 142.363C299.515 142.141 299.412 141.871 299.316 141.6C299.076 140.87 298.845 140.139 298.597 139.408C298.398 138.82 298.126 138.256 297.839 137.7C297.471 136.992 297.032 136.333 296.617 135.658C296.529 135.515 296.441 135.372 296.354 135.229C296.346 135.213 296.322 135.197 296.298 135.189C296.066 135.117 295.907 135.316 295.907 135.475C295.907 135.578 295.938 135.682 295.97 135.777C295.994 135.864 296.05 135.936 296.09 136.023C296.178 136.214 296.154 136.389 296.018 136.555C295.835 136.786 295.603 136.897 295.316 136.889C295.196 136.889 295.108 136.842 295.036 136.746C294.877 136.548 294.725 136.341 294.557 136.15C294.509 136.095 294.445 136.039 294.382 136.007C294.158 135.896 293.934 135.825 293.679 135.88C293.416 135.944 293.224 136.158 293.224 136.428C293.224 136.595 293.256 136.754 293.288 136.913C293.416 137.453 293.519 138.001 293.559 138.55C293.575 138.748 293.559 138.947 293.543 139.138C293.503 139.447 293.32 139.622 293.016 139.646C292.881 139.654 292.745 139.646 292.609 139.63C292.441 139.614 292.306 139.527 292.186 139.416C292.098 139.336 292.05 139.241 292.042 139.122C292.018 138.796 292.058 138.486 292.162 138.176C292.282 137.819 292.402 137.453 292.521 137.096C292.609 136.818 292.665 136.532 292.625 136.238C292.561 135.848 292.402 135.515 292.018 135.324C291.795 135.213 291.611 135.308 291.499 135.499C291.435 135.61 291.428 135.737 291.42 135.864C291.42 136.19 291.467 136.508 291.531 136.834C291.579 137.104 291.627 137.366 291.667 137.636C291.715 137.962 291.723 138.287 291.563 138.581C291.372 138.931 291.108 139.225 290.709 139.352C290.629 139.376 290.533 139.392 290.453 139.392C289.847 139.4 289.36 139.169 288.976 138.693C288.769 138.43 288.721 138.137 288.729 137.819C288.729 137.39 288.881 137.008 289.136 136.667C289.447 136.254 289.767 135.848 290.086 135.435C290.406 135.014 290.677 134.569 290.893 134.093C291.028 133.799 291.172 133.497 291.292 133.195C291.348 133.068 291.364 132.925 291.396 132.782C291.428 132.631 291.244 132.448 291.092 132.432C290.869 132.416 290.701 132.496 290.541 132.647C290.222 132.941 289.895 133.235 289.567 133.529C289.535 133.56 289.487 133.584 289.447 133.6C289.184 133.672 288.928 133.664 288.697 133.489C288.513 133.354 288.465 133.076 288.585 132.853C288.665 132.71 288.777 132.599 288.929 132.535C289.208 132.432 289.487 132.337 289.767 132.241C290.078 132.138 290.366 132.003 290.645 131.82C290.829 131.693 290.972 131.28 290.909 131.089C290.853 130.923 290.725 130.827 290.573 130.764C290.222 130.605 289.863 130.517 289.479 130.494C289.064 130.47 288.665 130.509 288.266 130.645C287.635 130.851 287.02 130.811 286.406 130.581C286.022 130.438 285.679 130.239 285.384 129.961C285.192 129.787 284.992 129.62 284.849 129.397C284.689 129.143 284.609 128.873 284.633 128.571C284.649 128.317 284.857 128.094 285.144 128.047C285.495 127.983 285.831 128.047 286.134 128.237C286.541 128.499 286.94 128.77 287.348 129.032C287.635 129.214 287.931 129.405 288.234 129.572C288.378 129.651 288.545 129.715 288.713 129.755C289.112 129.842 289.519 129.874 289.919 129.779C290.062 129.747 290.198 129.691 290.286 129.564C290.382 129.421 290.366 129.222 290.246 129.095C290.126 128.96 289.958 128.889 289.807 128.793C289.607 128.674 289.416 128.547 289.232 128.42C289.024 128.277 288.905 128.062 288.769 127.856C288.625 127.641 288.489 127.419 288.338 127.212C288.098 126.895 287.763 126.72 287.38 126.632C287.116 126.569 286.845 126.513 286.581 126.442C286.493 126.418 286.414 126.386 286.334 126.346C286.214 126.291 286.134 126.188 286.11 126.052C286.078 125.886 286.078 125.711 286.142 125.552C286.174 125.457 286.23 125.369 286.294 125.29C286.342 125.226 286.422 125.194 286.501 125.226C286.565 125.25 286.629 125.282 286.677 125.322C286.893 125.512 287.1 125.703 287.316 125.894L287.26 125.878Z" fill="#FFDE23"/>
</g>
<defs>
<clipPath id="clip0_794_3360">
<rect width="800" height="612.72" fill="white"/>
</clipPath>
</defs>
</svg>
