<svg viewBox="0 0 192 344" fill="none" xmlns="http://www.w3.org/2000/svg">
<path d="M33.6935 9.05892C33.6137 7.68029 33.3175 6.08517 32.5313 5.01417C29.7057 1.14033 23.2797 -0.921922 18.9957 0.399742C13.9483 1.94928 11.4075 5.11671 11.6354 11.4288C12.2734 28.5649 13.5495 45.6895 14.0508 62.8256C14.2445 69.1832 17.4689 72.1798 22.7898 74.0027C27.37 75.5751 28.5322 74.9826 29.0335 70.0605L33.6935 9.04752V9.05892ZM110.225 38.728C113.574 33.8287 111.763 26.9583 106.852 23.5744C101.748 20.0652 95.1167 21.0906 92.2227 26.4228C83.7686 42.0435 75.3715 57.7098 67.4301 73.604C63.8867 80.6794 65.6869 85.6015 72.3408 89.6918C73.1383 90.1817 74.198 89.9652 74.7335 89.1905L110.225 38.7166V38.728ZM107.137 128.772C107.627 129.535 108.607 129.82 109.427 129.421C128.033 120.432 146.502 111.579 164.891 102.555C170.543 99.7866 172.195 91.2072 168.401 86.137C165.245 81.9213 159.855 80.3376 155.287 83.1518C139.905 92.6428 124.615 102.282 109.518 112.217C103.594 116.114 102.853 121.981 107.148 128.761L107.137 128.772ZM61.494 258.375C60.6851 258.819 60.3546 259.822 60.7306 260.665C61.5624 262.522 62.3258 264.265 63.1575 265.997C71.3837 283.213 79.5416 300.463 87.9387 317.599C90.2744 322.373 96.9283 323.581 102.295 320.744C107.262 318.123 109.666 311.8 106.852 307.242C97.4182 291.998 87.9273 276.776 78.0946 261.782C73.9131 255.412 68.5353 254.467 61.5054 258.363L61.494 258.375ZM117.061 179.041C117.106 179.941 117.813 180.67 118.702 180.738C138.959 182.356 159.388 184.1 179.829 185.535C186.71 186.014 192.02 179.69 191.302 172.729C190.766 167.476 187.029 163.602 181.834 163.796C163.558 164.457 145.294 165.198 127.042 166.257C120.411 166.645 116.708 171.498 117.049 179.052L117.061 179.041ZM25.6382 281.094C24.9432 273.563 21.8669 270.156 15.2016 268.504C12.4102 267.809 10.9062 268.378 10.6669 271.512C9.06043 291.815 7.28303 312.107 5.79046 332.422C5.38029 337.96 11.0657 343.052 17.0132 343.166C22.4708 343.269 27.4726 338.529 27.5979 332.889L25.6382 281.094ZM98.4778 225.641C98.0676 226.438 98.3183 227.43 99.0589 227.931C116.252 239.632 133.536 251.482 150.911 263.183C155.264 266.111 162.123 263.741 165.359 258.546C168.082 254.182 166.954 247.289 162.51 244.908C146.308 236.214 130.05 227.601 113.597 219.397C107.65 216.435 101.896 219.021 98.4778 225.629V225.641Z" fill="#FFF099"/>
<path d="M18.6309 88.9516C64.5701 88.6098 101.702 125.263 101.964 171.225H101.975C102.921 212.937 69.0136 252.975 21.5477 253.772C14.0762 253.895 6.85768 253.073 0 251.415V91.2982C5.99316 89.8106 12.2324 88.999 18.6309 88.9516Z" fill="#FFF099"/>
</svg>
