<svg width="171" height="44" viewBox="0 0 171 44" fill="none" xmlns="http://www.w3.org/2000/svg">
<path d="M147.518 43.2639C147.015 43.2249 146.511 43.1858 146.007 43.1467C143.297 42.9368 140.647 42.4472 138.126 41.4082C133.65 39.5628 130.704 36.3081 129.134 31.7922C128.371 29.5991 127.984 27.3319 127.809 25.0235C127.652 22.9333 127.65 20.8451 127.818 18.7569C128.071 15.6091 128.701 12.554 130.165 9.71688C132.033 6.0939 134.962 3.66623 138.779 2.25078C140.917 1.4587 143.135 1.03489 145.4 0.820926C147.465 0.627535 149.532 0.594618 151.601 0.713944C154.736 0.89499 157.8 1.4155 160.692 2.69311C165.02 4.60644 167.812 7.87556 169.307 12.2886C170.033 14.4303 170.408 16.6419 170.574 18.8906C170.609 19.3617 170.651 19.8308 170.688 20.2999V23.6142C170.651 24.0833 170.609 24.5545 170.574 25.0235C170.408 27.2722 170.033 29.4818 169.307 31.6255C167.754 36.2175 164.8 39.536 160.257 41.4082C157.734 42.4472 155.086 42.9368 152.376 43.1467C151.872 43.1858 151.369 43.2249 150.865 43.2639H147.521H147.518ZM149.175 36.8615C149.936 36.4294 151.178 35.3452 152.061 34.2939C154.499 31.3931 155.617 28.0478 155.428 24.2788C155.416 24.0401 155.48 23.9414 155.687 23.8344C160.35 21.3923 162.961 17.5615 163.558 12.375C163.576 12.2186 163.527 12.1466 163.388 12.0828C160.939 10.9842 158.381 10.5645 155.71 10.8567C153.407 11.1097 151.294 11.8977 149.362 13.165C149.223 13.2555 149.132 13.2535 148.995 13.1609C146.917 11.7866 144.632 11.0048 142.142 10.8134C139.65 10.6221 137.274 11.0644 135.002 12.0911C134.855 12.1569 134.796 12.2289 134.815 12.4017C134.989 14.0826 135.423 15.6935 136.159 17.22C137.577 20.162 139.762 22.3613 142.688 23.8426C142.856 23.929 142.959 23.9949 142.947 24.2314C142.746 27.8771 143.78 31.1421 146.063 34.0079C146.95 35.121 147.997 36.0694 149.177 36.8615H149.175Z" fill="#2064AE"/>
<path d="M13.0772 13.1959C14.6695 13.2 16.465 13.4387 18.1817 14.1094C21.1736 15.2779 23.1847 17.3867 24.1301 20.4275C25.0154 23.2707 25.0134 26.1448 24.099 28.984C23.081 32.144 20.9517 34.296 17.7961 35.3679C14.5368 36.4768 11.2174 36.4933 7.95188 35.4214C4.20121 34.1911 1.98689 31.5392 1.17828 27.7352C0.674464 25.363 0.724224 22.9847 1.43331 20.6558C2.56327 16.9444 5.10519 14.6669 8.85171 13.6712C10.1558 13.3235 11.489 13.1938 13.0792 13.1938L13.0772 13.1959ZM19.6642 24.6985C19.5895 24.0731 19.5584 23.4394 19.434 22.8243C18.9613 20.4851 17.6779 18.7981 15.3433 18.0204C14.0268 17.5822 12.6687 17.5266 11.3065 17.7612C8.95123 18.1685 7.28219 19.4441 6.49018 21.7113C5.81012 23.6637 5.81634 25.647 6.48603 27.6014C7.15779 29.558 8.51997 30.8417 10.527 31.4116C12.1317 31.8663 13.7531 31.8498 15.3475 31.3479C17.0414 30.815 18.2501 29.7226 18.9654 28.1014C19.4423 27.0171 19.6103 25.8733 19.6662 24.6944L19.6642 24.6985Z" fill="#2064AE"/>
<path d="M109.938 36.1641C108.597 36.16 107.28 35.9975 106.014 35.5407C103.463 34.6211 101.782 32.8744 101.046 30.2801C100.453 28.1898 100.472 26.0831 101.141 24.0155C101.966 21.4623 103.716 19.7671 106.283 18.9544C108.738 18.1768 111.23 18.1706 113.679 18.9606C116.737 19.9481 118.51 22.096 119.09 25.2088C119.428 27.0192 119.364 28.8276 118.773 30.5846C117.796 33.4875 115.711 35.1869 112.746 35.8514C111.831 36.0571 110.882 36.1147 109.949 36.2402C109.945 36.2155 109.941 36.1888 109.938 36.1641ZM114.489 27.4821C114.417 26.869 114.396 26.4329 114.309 26.0111C113.977 24.4002 113.098 23.2255 111.454 22.7708C110.861 22.6062 110.216 22.5486 109.601 22.5692C107.596 22.6309 106.19 23.7439 105.692 25.612C105.387 26.76 105.392 27.9183 105.734 29.058C106.161 30.4735 107.079 31.4261 108.531 31.8334C109.287 32.0453 110.061 32.0762 110.836 31.9568C112.422 31.712 113.567 30.8891 114.085 29.3605C114.307 28.7062 114.382 28.0026 114.489 27.4842V27.4821Z" fill="#2064AE"/>
<path d="M75.5071 35.7937H70.9188V34.1293C70.811 34.2095 70.7447 34.2548 70.6845 34.3083C68.9491 35.841 66.8841 36.306 64.6387 36.057C63.9483 35.9809 63.2454 35.7937 62.6068 35.52C60.9108 34.7938 59.9301 33.4915 59.7352 31.6543C59.5694 30.101 59.8327 28.6423 60.8797 27.4079C61.7485 26.3813 62.9157 25.8567 64.2054 25.5728C65.8682 25.2066 67.5455 25.2704 69.2187 25.4864C69.8179 25.5625 70.4088 25.6942 71.0038 25.8011C71.1759 24.5729 70.5166 23.3797 69.37 22.8489C68.7273 22.5526 68.041 22.4497 67.3402 22.4395C65.7293 22.4168 64.1805 22.7419 62.6711 23.2747C62.5778 23.3076 62.4845 23.3406 62.3912 23.3735C62.3746 23.3797 62.3518 23.3735 62.2896 23.3735C61.9226 22.2481 61.5515 21.1125 61.1596 19.9171C61.7505 19.6991 62.3228 19.4563 62.9157 19.2773C65.4411 18.5099 68.012 18.2939 70.5975 18.8844C73.3716 19.518 75.0344 21.4108 75.3869 24.2191C75.4636 24.8342 75.503 25.4555 75.5071 26.0748C75.5196 29.1917 75.5133 32.3065 75.5133 35.4233V35.7957L75.5071 35.7937ZM70.9665 29.4673C70.9665 29.3892 70.9541 29.3069 70.9686 29.2307C71.037 28.8913 70.8774 28.7493 70.5581 28.6588C69.6147 28.3893 68.6568 28.2556 67.6761 28.272C66.9131 28.2844 66.1688 28.3852 65.4929 28.7678C64.6573 29.239 64.3152 29.9734 64.4106 30.9013C64.5018 31.7633 65.0471 32.2736 65.8391 32.5472C66.5607 32.7982 67.305 32.792 68.0473 32.6645C69.7349 32.3764 71.064 31.249 70.9644 29.4673H70.9665Z" fill="#2064AE"/>
<path d="M33.0541 18.7795V21.1578C33.1661 21.0261 33.2303 20.95 33.2946 20.8738C34.1779 19.8081 35.2062 18.942 36.5974 18.619C38.0115 18.2919 39.411 18.3742 40.742 18.9708C42.5894 19.7979 43.4726 21.3347 43.7919 23.2398C43.8831 23.7809 43.9122 24.3384 43.9142 24.8877C43.9246 28.3976 43.9205 31.9094 43.9205 35.4193C43.9205 35.5365 43.9205 35.6518 43.9205 35.7875H39.0232V35.4337C39.0232 32.2674 39.0378 29.1032 39.0108 25.937C39.0046 25.3465 38.903 24.7334 38.7143 24.1738C38.3639 23.1205 37.5429 22.5753 36.444 22.5053C35.9671 22.4745 35.4592 22.5136 35.003 22.6514C33.8005 23.0114 33.2905 23.9516 33.1184 25.1099C33.0665 25.4597 33.0562 25.8176 33.0562 26.1715C33.052 29.2575 33.0541 32.3456 33.0541 35.4316C33.0541 35.5468 33.0541 35.662 33.0541 35.7937H28.1797V18.7815H33.0541V18.7795Z" fill="#2064AE"/>
<path d="M57.4576 22.7316H53.2943C53.2943 22.8489 53.2943 22.9435 53.2943 23.0382C53.2943 25.365 53.2943 27.694 53.2943 30.0208C53.2943 30.0702 53.2943 30.1196 53.2943 30.1689C53.3088 31.3396 53.8292 31.8477 55.0048 31.8292C55.7678 31.8169 56.5038 31.6646 57.2046 31.3581C57.2834 31.3231 57.3643 31.2902 57.4659 31.247C57.4741 31.3457 57.4845 31.4219 57.4845 31.4959C57.4845 32.6213 57.4804 33.7446 57.4887 34.8679C57.4887 35.051 57.4285 35.1477 57.2689 35.2341C55.9316 35.9563 54.4948 36.1784 52.9999 36.0632C52.4691 36.0221 51.93 35.9377 51.4221 35.7834C49.9459 35.3349 49.1227 34.2754 48.8325 32.8167C48.6998 32.1461 48.65 31.4486 48.6438 30.7615C48.6231 28.2165 48.6355 25.6716 48.6355 23.1287C48.6355 23.0114 48.6355 22.8921 48.6355 22.7358H46.6016V18.7754H48.6189V14.3973H53.2819V18.7425H57.4555V22.7316H57.4576Z" fill="#2064AE"/>
<path d="M89.5865 18.4524V22.742C89.0225 22.8058 88.4648 22.8263 87.9257 22.9395C85.9498 23.353 84.8468 24.6409 84.4176 26.5316C84.2642 27.2085 84.1875 27.9162 84.1771 28.6095C84.1481 30.8767 84.1647 33.146 84.1647 35.4132C84.1647 35.5304 84.1647 35.6477 84.1647 35.7855H79.4043V18.7775H84.1605V22.0507C85.22 19.728 86.8621 18.3063 89.5844 18.4524H89.5865Z" fill="#2064AE"/>
<path d="M97.2799 35.7937H92.418V18.7836H97.2799V35.7937Z" fill="#2064AE"/>
<path d="M92.3047 12.6157H97.403V16.8415H92.3047V12.6157Z" fill="#2064AE"/>
<path d="M160.186 14.1072C159.69 15.8745 158.851 17.4093 157.619 18.728C156.24 20.2052 154.596 21.2894 152.635 21.8387C151.428 22.1761 150.286 22.028 149.326 21.1331C149.313 21.1207 149.288 21.1228 149.247 21.1104C149.118 22.0218 149.069 22.925 149.506 23.7706C149.942 24.6161 150.7 24.9741 151.623 25.0338C151.88 25.0502 152.139 25.0358 152.45 25.0358C152.429 28.1116 151.351 30.7491 149.176 33.0224C148.803 32.576 148.426 32.1728 148.105 31.7284C146.168 29.0559 145.515 26.0954 146.158 22.8715C146.367 21.8202 146.898 20.9397 147.891 20.4068C148.09 20.2998 148.308 20.2278 148.608 20.1003C148.511 20.0468 148.44 20.0159 148.378 19.9707C147.816 19.5551 147.223 19.1992 146.525 19.0551C145.343 18.8124 144.321 19.3576 143.709 20.5488C143.651 20.6599 143.599 20.7751 143.533 20.9129C140.852 19.3452 139.079 17.1068 138.184 14.0949C138.814 13.992 139.413 13.8562 140.019 13.8048C143.151 13.5373 145.934 14.4158 148.357 16.397C149.114 17.0163 149.672 17.7796 149.813 18.7671C149.869 19.1601 149.821 19.5654 149.821 19.9809C149.827 19.9809 149.896 19.9789 149.948 19.948C150.452 19.6559 150.997 19.4111 151.445 19.049C152.359 18.3104 152.575 17.3002 152.114 16.2263C151.98 15.9115 151.793 15.6194 151.613 15.2861C154.293 13.778 157.14 13.3728 160.192 14.1052L160.186 14.1072Z" fill="#2064AE"/>
</svg>
