<svg width="171" height="52" viewBox="0 0 171 52" fill="none" xmlns="http://www.w3.org/2000/svg">
<path d="M82.3723 23.8468C82.3723 23.8468 84.2412 21.9838 84.3983 20.0996C84.3983 20.0996 85.2401 24.7688 88.6169 26.6294C88.6169 26.6294 83.5471 25.5253 80.8926 26.6932C80.8926 26.6932 82.9773 24.8587 85.4746 25.1589C85.4746 25.1589 84.5859 24.4757 84.2482 22.8964C84.2482 22.8964 83.866 23.4094 82.3723 23.8468Z" fill="#2064AE"/>
<path d="M77.6737 33.4429C77.0827 34.3059 76.1729 36.3887 71.6166 36.3367C67.0603 36.2847 66.0075 36.4903 65.1914 37.5448C65.1914 37.5448 65.9699 28.7123 71.9074 27.8564C71.9074 27.8564 75.6687 29.5917 79.1533 29.0882C79.1533 29.0882 78.2646 32.5777 77.6737 33.4429Z" fill="#2064AE"/>
<path d="M96.7863 26.3788C97.8181 26.5159 100.072 26.3859 102.098 30.5019C104.124 34.6155 104.785 35.469 106.089 35.7219C106.089 35.7219 97.933 39.0412 94.4742 34.0978C94.4742 34.0978 94.296 29.9321 92.2676 27.0313C92.2676 27.0313 95.7545 26.2417 96.7863 26.3788Z" fill="#2064AE"/>
<path d="M75.3517 27.2441C75.3517 27.2441 69.7894 27.0431 66.5862 19.9601C63.3853 12.8771 62.3136 11.3948 60.1211 10.8912C60.1211 10.8912 73.6023 5.72791 79.181 14.2956C79.181 14.2956 70.6594 9.20086 64.1755 11.7092C64.1755 11.7092 65.7138 13.4256 68.2159 19.1185C69.4142 21.8444 72.0101 25.6577 75.3493 27.2441" fill="#2064AE"/>
<path d="M85.4238 16.0806C85.4238 16.0806 87.4311 10.8463 95.1203 10.1158C102.807 9.38292 104.547 8.85098 105.736 6.92419C105.736 6.92419 107.352 21.7333 93.7086 25.1471C93.7086 25.1471 104.153 18.7923 104.247 10.539C104.247 10.539 100.875 11.4728 95.7909 11.8487C92.9207 12.0591 88.0033 13.4185 85.4238 16.0782" fill="#2064AE"/>
<path d="M91.6305 29.5917C91.6305 29.5917 94.6344 34.3176 90.6831 41.0035C86.7319 47.6916 86.1339 49.4222 86.9734 51.5263C86.9734 51.5263 75.0868 43.2967 78.895 33.7928C78.895 33.7928 79.4859 43.7104 85.2241 47.6538C85.2241 47.6538 86.5185 44.2873 88.8236 40.6536C90.4744 38.0506 92.2425 33.2632 91.6352 29.5917" fill="#2064AE"/>
<path d="M83.0044 0.195801C83.0044 0.195801 90.1824 5.31893 87.9289 10.9243C87.9289 10.9243 84.5498 13.3263 83.2248 16.6149C83.2248 16.6149 80.6806 14.0852 80.2374 13.1348C79.7942 12.1844 78.4692 10.3451 80.8048 6.40171C83.1404 2.4583 83.4969 1.43698 83.0044 0.195801Z" fill="#2064AE"/>
<path d="M20.4071 7.57913C19.0494 7.57913 17.6471 8.60991 17.6471 10.4421C17.6471 12.2743 19.0494 13.3169 20.4071 13.3169C21.7648 13.3169 23.1671 12.2743 23.1671 10.4421C23.1671 8.60991 21.7414 7.57913 20.4071 7.57913ZM20.4071 14.291C18.4514 14.291 16.5215 12.8417 16.5215 10.4421C16.5215 8.04251 18.4537 6.6051 20.4071 6.6051C22.3605 6.6051 24.2927 8.06615 24.2927 10.4421C24.2927 12.8181 22.3605 14.291 20.4071 14.291Z" fill="#2064AE"/>
<path d="M28.9374 14.1514V10.7778C28.9374 10.2316 28.6044 9.67606 27.7297 9.67606C26.855 9.67606 26.4775 10.2316 26.4775 10.7778V14.1514H25.4316V8.90061H26.3509L26.3978 9.42309C26.8011 8.98336 27.1904 8.77295 28.0064 8.77295C29.1461 8.77295 29.9832 9.50347 29.9832 10.6737V14.1514H28.9374Z" fill="#2064AE"/>
<path d="M34.4156 9.74701H32.7601V12.6691C32.7601 13.0994 33.1048 13.3311 33.5292 13.3311C33.7473 13.3311 33.9443 13.3074 34.1037 13.2507L33.8974 14.1893C33.7825 14.2247 33.6324 14.2365 33.426 14.2365C32.4833 14.2365 31.7236 13.681 31.7236 12.636V9.74937H30.7012V8.903H31.7236V7.83677L32.7577 7.29065V8.903H34.5985L34.4156 9.74937V9.74701Z" fill="#2064AE"/>
<path d="M38.166 11.7423L37.1318 11.8345C36.5104 11.8936 36.2361 12.2979 36.2361 12.6809C36.2361 13.0638 36.5456 13.3877 36.9607 13.3877C37.5117 13.3877 38.1683 12.8653 38.1683 12.2057V11.7423H38.166ZM39.1321 14.2814C38.7757 14.201 38.4872 13.9339 38.3723 13.61C38.0042 14.097 37.4742 14.2814 36.9114 14.2814C35.8773 14.2814 35.2324 13.5154 35.2324 12.669C35.2324 11.6501 36.0602 11.0685 36.9466 10.9881L38.166 10.8723V10.5366C38.166 10.0614 37.8893 9.67838 37.1553 9.67838C36.6371 9.67838 36.0977 9.8415 35.7178 10.0968L35.5115 9.22682C35.9828 8.91475 36.5808 8.77527 37.2139 8.77527C38.3747 8.77527 39.2142 9.43487 39.2142 10.676V12.7967C39.2142 13.2719 39.4674 13.5509 39.8004 13.6076L39.1344 14.279L39.1321 14.2814Z" fill="#2064AE"/>
<path d="M43.5933 9.72336C42.7538 9.72336 41.7431 10.1773 41.7431 11.6714V14.1514H40.6973V8.90064H41.6868L41.7337 9.72336C42.0104 9.07322 42.7233 8.82971 43.5042 8.82971L43.6988 9.72336H43.5956" fill="#2064AE"/>
<path d="M44.6172 14.1514V8.90062H45.6748V14.1514H44.6172ZM45.1449 7.89113C44.9385 7.89113 44.5117 7.46321 44.5117 7.2528C44.5117 7.03294 44.9362 6.60266 45.1449 6.60266C45.3629 6.60266 45.7897 7.03057 45.7897 7.2528C45.7897 7.46085 45.3653 7.89113 45.1449 7.89113Z" fill="#2064AE"/>
<path d="M49.6311 9.70202C48.7119 9.70202 47.917 10.4325 47.917 11.5342C47.917 12.6359 48.7096 13.3546 49.6311 13.3546C50.5527 13.3546 51.3336 12.6241 51.3336 11.5342C51.3336 10.4444 50.541 9.70202 49.6311 9.70202ZM49.6311 14.2814C48.0788 14.2814 46.8594 13.1584 46.8594 11.5342C46.8594 9.91006 48.0788 8.77527 49.6311 8.77527C51.1835 8.77527 52.3912 9.90061 52.3912 11.5342C52.3912 13.1679 51.1835 14.2814 49.6311 14.2814Z" fill="#2064AE"/>
<path d="M21.1584 21.6292V28.0621H20.0422V21.6292H17.6855V20.667H23.5151V21.6292H21.1584Z" fill="#2064AE"/>
<path d="M26.646 23.634C25.8065 23.634 24.7959 24.0856 24.7959 25.5821V28.0621H23.75V22.8113H24.7396L24.7865 23.634C25.0632 22.9839 25.7761 22.7404 26.5569 22.7404L26.7516 23.634H26.6484" fill="#2064AE"/>
<path d="M27.6719 28.0621V22.8113H28.7295V28.0621H27.6719ZM28.1995 21.8018C27.9932 21.8018 27.5664 21.3739 27.5664 21.1634C27.5664 20.9436 27.9908 20.5133 28.1995 20.5133C28.4176 20.5133 28.8444 20.9412 28.8444 21.1634C28.8444 21.3715 28.42 21.8018 28.1995 21.8018Z" fill="#2064AE"/>
<path d="M31.5009 28.2725C31.1562 28.1803 30.4668 27.8327 30.4668 26.8232V19.8112H31.5127V26.6861C31.5127 27.1731 31.8925 27.497 32.2138 27.5561L31.5009 28.2748V28.2725Z" fill="#2064AE"/>
<path d="M34.2255 28.2725C33.8808 28.1803 33.1914 27.8327 33.1914 26.8232V19.8112H34.2373V26.6861C34.2373 27.1731 34.6171 27.497 34.9384 27.5561L34.2255 28.2748V28.2725Z" fill="#2064AE"/>
<path d="M35.943 28.0621V22.8113H37.0006V28.0621H35.943ZM36.473 21.8018C36.2666 21.8018 35.8398 21.3739 35.8398 21.1634C35.8398 20.9436 36.2643 20.5133 36.473 20.5133C36.6911 20.5133 37.1179 20.9412 37.1179 21.1634C37.1179 21.3715 36.6934 21.8018 36.473 21.8018Z" fill="#2064AE"/>
<path d="M42.246 28.0621L42.1991 27.5396C41.7958 27.9793 41.4065 28.1897 40.5881 28.1897C39.4508 28.1897 38.6113 27.4592 38.6113 26.289V22.8113H39.6572V26.1849C39.6572 26.7287 39.9902 27.2866 40.8648 27.2866C41.7395 27.2866 42.1171 26.7287 42.1171 26.1849V22.8113H43.1629V28.0621H42.2437H42.246Z" fill="#2064AE"/>
<path d="M51.2175 28.062V24.4685C51.2175 23.9461 50.8259 23.5985 50.0779 23.5985C49.3298 23.5985 48.9288 23.9933 48.9288 24.4685V28.062H47.883V24.4685C47.883 23.9461 47.4914 23.5985 46.734 23.5985C45.9765 23.5985 45.5849 23.9933 45.5849 24.4685V28.062H44.5391V22.8113H45.4583L45.5052 23.3337C45.9085 22.894 46.2743 22.6836 47.0927 22.6836C47.7376 22.6836 48.2887 23.0311 48.5536 23.4259C48.9101 23.0193 49.4729 22.6836 50.4273 22.6836C51.4849 22.6836 52.2657 23.4023 52.2657 24.3763V28.062H51.2199H51.2175Z" fill="#2064AE"/>
<path d="M1.80566 35.5398V37.7763H4.28898V38.7386H1.80566V41.9727H0.689453V34.5776H4.74859V35.5398H1.80566Z" fill="#2064AE"/>
<path d="M7.82253 37.5211C6.90331 37.5211 6.10836 38.2516 6.10836 39.3533C6.10836 40.455 6.90096 41.1737 7.82253 41.1737C8.74411 41.1737 9.52498 40.4432 9.52498 39.3533C9.52498 38.2635 8.73238 37.5211 7.82253 37.5211ZM7.82253 42.1005C6.27016 42.1005 5.05078 40.9775 5.05078 39.3533C5.05078 37.7292 6.27016 36.5944 7.82253 36.5944C9.3749 36.5944 10.5826 37.7197 10.5826 39.3533C10.5826 40.987 9.3749 42.1005 7.82253 42.1005Z" fill="#2064AE"/>
<path d="M15.189 41.9728L15.1421 41.4504C14.7388 41.8901 14.3495 42.1005 13.5334 42.1005C12.3961 42.1005 11.5566 41.37 11.5566 40.1997V36.722H12.6025V40.0957C12.6025 40.6418 12.9355 41.1974 13.8102 41.1974C14.6848 41.1974 15.0624 40.6395 15.0624 40.0957V36.722H16.1082V41.9728H15.189Z" fill="#2064AE"/>
<path d="M20.9823 41.9728V38.5991C20.9823 38.053 20.6493 37.4974 19.7746 37.4974C18.9 37.4974 18.5224 38.053 18.5224 38.5991V41.9728H17.4766V36.722H18.3958L18.4427 37.2445C18.846 36.8047 19.2353 36.5967 20.0537 36.5967C21.191 36.5967 22.0305 37.3272 22.0305 38.4975V41.9751H20.9846L20.9823 41.9728Z" fill="#2064AE"/>
<path d="M27.1626 38.0081C26.8859 37.7409 26.4146 37.521 25.8635 37.521C24.9326 37.521 24.1728 38.2516 24.1728 39.3533C24.1728 40.455 24.9326 41.1737 25.8635 41.1737C26.4263 41.1737 26.8859 40.9538 27.1626 40.6417V38.0104V38.0081ZM27.3127 41.9727L27.2776 41.5567C26.9563 41.9042 26.3818 42.1004 25.6689 42.1004C24.5527 42.1004 23.1152 41.1737 23.1152 39.3533C23.1152 37.7315 24.3112 36.5943 25.8635 36.5943C26.4263 36.5943 26.8977 36.7692 27.1626 36.9418V33.7195H28.2085V41.9727H27.3127Z" fill="#2064AE"/>
<path d="M32.207 39.5613L31.1729 39.6535C30.5514 39.7103 30.2747 40.1169 30.2747 40.4999C30.2747 40.8829 30.5866 41.2068 30.9993 41.2068C31.5504 41.2068 32.207 40.6843 32.207 40.0247V39.5613ZM33.1731 42.1004C32.8167 42.0201 32.5283 41.7529 32.4133 41.429C32.0452 41.916 31.5176 42.1004 30.9524 42.1004C29.9183 42.1004 29.2734 41.3344 29.2734 40.4904C29.2734 39.4715 30.1012 38.8899 30.9876 38.8095L32.207 38.6937V38.358C32.207 37.8828 31.9303 37.4998 31.1963 37.4998C30.6781 37.4998 30.1387 37.6629 29.7588 37.9182L29.5525 37.0482C30.0238 36.7338 30.6218 36.5967 31.2549 36.5967C32.4157 36.5967 33.2552 37.2563 33.2552 38.4975V40.6181C33.2552 41.0933 33.5084 41.3723 33.8414 41.429L33.1755 42.1004H33.1731Z" fill="#2064AE"/>
<path d="M37.7375 37.5683H36.0819V40.4904C36.0819 40.9184 36.4266 41.15 36.8534 41.15C37.0715 41.15 37.2685 41.1264 37.4279 41.0697L37.2216 42.0082C37.1067 42.0413 36.9566 42.0531 36.7502 42.0531C35.8076 42.0531 35.0478 41.4976 35.0478 40.4526V37.566H34.0254V36.7196H35.0478V35.6534L36.0819 35.1096V36.7196H37.9227L37.7398 37.566L37.7375 37.5683Z" fill="#2064AE"/>
<path d="M38.9274 41.9728V36.722H39.985V41.9728H38.9274ZM39.4574 35.7125C39.251 35.7125 38.8242 35.2846 38.8242 35.0765C38.8242 34.8567 39.2487 34.4264 39.4574 34.4264C39.6754 34.4264 40.1022 34.8543 40.1022 35.0765C40.1022 35.2846 39.6754 35.7125 39.4574 35.7125Z" fill="#2064AE"/>
<path d="M44.0003 37.5211C43.081 37.5211 42.2861 38.2516 42.2861 39.3533C42.2861 40.455 43.0787 41.1737 44.0003 41.1737C44.9218 41.1737 45.7027 40.4432 45.7027 39.3533C45.7027 38.2635 44.9101 37.5211 44.0003 37.5211ZM44.0003 42.1005C42.4479 42.1005 41.2285 40.9775 41.2285 39.3533C41.2285 37.7292 42.4479 36.5944 44.0003 36.5944C45.5526 36.5944 46.7603 37.7197 46.7603 39.3533C46.7603 40.987 45.5526 42.1005 44.0003 42.1005Z" fill="#2064AE"/>
<path d="M51.2362 41.9728V38.5991C51.2362 38.053 50.9032 37.4974 50.0285 37.4974C49.1539 37.4974 48.7763 38.053 48.7763 38.5991V41.9728H47.7305V36.722H48.6497L48.6943 37.2445C49.0976 36.8047 49.4869 36.5967 50.3029 36.5967C51.4426 36.5967 52.2797 37.3272 52.2797 38.4975V41.9751H51.2338L51.2362 41.9728Z" fill="#2064AE"/>
<path d="M116.491 7.71856V9.95505H118.975V10.9173H116.491V14.1514H115.375V6.75635H119.434V7.71856H116.491Z" fill="#2064AE"/>
<path d="M122.797 9.70202C121.878 9.70202 121.083 10.4325 121.083 11.5342C121.083 12.6359 121.876 13.3546 122.797 13.3546C123.719 13.3546 124.5 12.6241 124.5 11.5342C124.5 10.4444 123.707 9.70202 122.797 9.70202ZM122.797 14.2814C121.245 14.2814 120.025 13.1584 120.025 11.5342C120.025 9.91006 121.245 8.77527 122.797 8.77527C124.35 8.77527 125.557 9.90061 125.557 11.5342C125.557 13.1679 124.35 14.2814 122.797 14.2814Z" fill="#2064AE"/>
<path d="M130.151 14.1514V10.7778C130.151 10.2316 129.818 9.67606 128.943 9.67606C128.068 9.67606 127.688 10.2316 127.688 10.7778V14.1514H126.643V8.90061H127.562L127.609 9.42309C128.01 8.98336 128.401 8.77295 129.217 8.77295C130.355 8.77295 131.194 9.50347 131.194 10.6737V14.1514H130.148H130.151Z" fill="#2064AE"/>
<path d="M136.329 10.1868C136.052 9.92198 135.581 9.69975 135.03 9.69975C134.099 9.69975 133.339 10.4303 133.339 11.532C133.339 12.6337 134.099 13.3524 135.03 13.3524C135.592 13.3524 136.054 13.1325 136.329 12.8181V10.1868ZM136.479 14.1515L136.444 13.7354C136.122 14.0829 135.548 14.2791 134.835 14.2791C133.719 14.2791 132.281 13.3524 132.281 11.532C132.281 9.91016 133.477 8.77301 135.03 8.77301C135.592 8.77301 136.066 8.94795 136.329 9.12054V5.89819H137.375V14.1515H136.476H136.479Z" fill="#2064AE"/>
<path d="M141.371 11.7423L140.337 11.8345C139.716 11.8936 139.439 12.2979 139.439 12.6809C139.439 13.0638 139.748 13.3877 140.163 13.3877C140.714 13.3877 141.371 12.8653 141.371 12.2057V11.7423ZM142.337 14.2814C141.981 14.201 141.692 13.9339 141.577 13.61C141.209 14.097 140.679 14.2814 140.117 14.2814C139.082 14.2814 138.438 13.5154 138.438 12.669C138.438 11.6501 139.265 11.0685 140.149 10.9881L141.369 10.8723V10.5366C141.369 10.0614 141.092 9.67838 140.358 9.67838C139.84 9.67838 139.3 9.8415 138.921 10.0968L138.714 9.22682C139.186 8.91475 139.784 8.77527 140.417 8.77527C141.577 8.77527 142.417 9.43487 142.417 10.676V12.7967C142.417 13.2719 142.67 13.5509 143.003 13.6076L142.337 14.279V14.2814Z" fill="#2064AE"/>
<path d="M146.902 9.74701H145.246V12.6691C145.246 13.0994 145.591 13.3311 146.017 13.3311C146.236 13.3311 146.43 13.3074 146.592 13.2507L146.386 14.1893C146.271 14.2247 146.121 14.2365 145.914 14.2365C144.972 14.2365 144.212 13.681 144.212 12.636V9.74937H143.189V8.903H144.212V7.83677L145.246 7.29065V8.903H147.087L146.902 9.74937V9.74701Z" fill="#2064AE"/>
<path d="M148.095 14.1514V8.90062H149.153V14.1514H148.095ZM148.625 7.89113C148.419 7.89113 147.992 7.46321 147.992 7.2528C147.992 7.03294 148.417 6.60266 148.625 6.60266C148.843 6.60266 149.27 7.03057 149.27 7.2528C149.27 7.46085 148.843 7.89113 148.625 7.89113Z" fill="#2064AE"/>
<path d="M153.274 9.70202C152.354 9.70202 151.56 10.4325 151.56 11.5342C151.56 12.6359 152.352 13.3546 153.274 13.3546C154.195 13.3546 154.974 12.6241 154.974 11.5342C154.974 10.4444 154.181 9.70202 153.274 9.70202ZM153.274 14.2814C151.721 14.2814 150.502 13.1584 150.502 11.5342C150.502 9.91006 151.721 8.77527 153.274 8.77527C154.826 8.77527 156.034 9.90061 156.034 11.5342C156.034 13.1679 154.826 14.2814 153.274 14.2814Z" fill="#2064AE"/>
<path d="M160.57 14.1514V10.7778C160.57 10.2316 160.237 9.67606 159.363 9.67606C158.488 9.67606 158.11 10.2316 158.11 10.7778V14.1514H157.064V8.90061H157.984L158.031 9.42309C158.432 8.98336 158.823 8.77295 159.639 8.77295C160.779 8.77295 161.616 9.50347 161.616 10.6737V14.1514H160.57Z" fill="#2064AE"/>
<path d="M118.158 21.6292V28.0621H117.042V21.6292H114.686V20.667H120.515V21.6292H118.158Z" fill="#2064AE"/>
<path d="M123.644 23.634C122.805 23.634 121.794 24.0856 121.794 25.5821V28.0621H120.748V22.8113H121.738L121.785 23.634C122.061 22.9839 122.774 22.7404 123.555 22.7404L123.752 23.634H123.649" fill="#2064AE"/>
<path d="M124.67 28.0621V22.8113H125.727V28.0621H124.67ZM125.2 21.8018C124.993 21.8018 124.566 21.3739 124.566 21.1634C124.566 20.9436 124.991 20.5133 125.2 20.5133C125.418 20.5133 125.842 20.9412 125.842 21.1634C125.842 21.3715 125.418 21.8018 125.2 21.8018Z" fill="#2064AE"/>
<path d="M128.503 28.2725C128.158 28.1803 127.469 27.8327 127.469 26.8232V19.8112H128.515V26.6861C128.515 27.1731 128.894 27.497 129.216 27.5561L128.503 28.2748V28.2725Z" fill="#2064AE"/>
<path d="M131.227 28.2725C130.883 28.1803 130.193 27.8327 130.193 26.8232V19.8112H131.239V26.6861C131.239 27.1731 131.619 27.497 131.94 27.5561L131.227 28.2748V28.2725Z" fill="#2064AE"/>
<path d="M132.943 28.0621V22.8113H134.001V28.0621H132.943ZM133.471 21.8018C133.265 21.8018 132.838 21.3739 132.838 21.1634C132.838 20.9436 133.262 20.5133 133.471 20.5133C133.689 20.5133 134.116 20.9412 134.116 21.1634C134.116 21.3715 133.691 21.8018 133.471 21.8018Z" fill="#2064AE"/>
<path d="M139.246 28.0621L139.199 27.5396C138.795 27.9793 138.406 28.1897 137.59 28.1897C136.453 28.1897 135.613 27.4592 135.613 26.289V22.8113H136.659V26.1849C136.659 26.7287 136.992 27.2866 137.867 27.2866C138.741 27.2866 139.119 26.7287 139.119 26.1849V22.8113H140.165V28.0621H139.246Z" fill="#2064AE"/>
<path d="M148.213 28.062V24.4685C148.213 23.9461 147.822 23.5985 147.076 23.5985C146.33 23.5985 145.927 23.9933 145.927 24.4685V28.062H144.881V24.4685C144.881 23.9461 144.489 23.5985 143.732 23.5985C142.975 23.5985 142.583 23.9933 142.583 24.4685V28.062H141.537V22.8113H142.456L142.503 23.3337C142.904 22.894 143.272 22.6836 144.091 22.6836C144.736 22.6836 145.287 23.0311 145.552 23.4259C145.908 23.0193 146.471 22.6836 147.425 22.6836C148.483 22.6836 149.266 23.4023 149.266 24.3763V28.062H148.22H148.213Z" fill="#2064AE"/>
<path d="M119.077 38.0081C118.8 37.7409 118.329 37.521 117.778 37.521C116.847 37.521 116.087 38.2516 116.087 39.3533C116.087 40.455 116.844 41.1737 117.778 41.1737C118.34 41.1737 118.8 40.9538 119.077 40.6417V38.0104V38.0081ZM119.227 41.9727L119.192 41.5567C118.87 41.9042 118.293 42.1004 117.583 42.1004C116.467 42.1004 115.029 41.1737 115.029 39.3533C115.029 37.7315 116.225 36.5943 117.778 36.5943C118.34 36.5943 118.812 36.7692 119.077 36.9418V33.7195H120.123V41.9727H119.224H119.227Z" fill="#2064AE"/>
<path d="M123.852 37.4975C123.198 37.4975 122.497 38.0199 122.356 38.7481H124.978C124.989 38.7008 124.989 38.6559 124.989 38.6086C124.989 38.0861 124.542 37.4951 123.852 37.4951V37.4975ZM126.014 39.0153L125.428 39.6063H122.288C122.323 40.2564 122.921 41.1714 124.141 41.1714C124.807 41.1714 125.325 40.987 125.808 40.6394L125.543 41.7648C125.175 41.961 124.703 42.1005 124.002 42.1005C122.52 42.1005 121.207 40.987 121.207 39.3533C121.207 37.5684 122.586 36.5944 123.794 36.5944C125.231 36.5944 126.047 37.6133 126.047 38.5873C126.047 38.7505 126.035 38.8994 126.012 39.0153" fill="#2064AE"/>
<path d="M131.351 42.1808C131.006 42.0886 130.316 41.7411 130.316 40.7316V33.7195H131.362V40.5944C131.362 41.0815 131.742 41.4053 132.063 41.4645L131.351 42.1832V42.1808Z" fill="#2064AE"/>
<path d="M132.856 36.4548L132.455 36.3839C132.87 35.8496 133.144 35.2704 133.203 34.911C132.997 34.8756 132.64 34.5399 132.64 34.3555C132.64 34.1001 133.123 33.6604 133.341 33.6604C133.536 33.6604 134.043 34.0883 134.043 34.3555C134.043 34.8307 133.398 35.9442 132.858 36.4548" fill="#2064AE"/>
<path d="M138.548 35.4004C137.192 35.4004 135.788 36.4312 135.788 38.2634C135.788 40.0956 137.19 41.1382 138.548 41.1382C139.905 41.1382 141.308 40.0956 141.308 38.2634C141.308 36.4312 139.882 35.4004 138.548 35.4004ZM138.548 42.1123C136.594 42.1123 134.662 40.663 134.662 38.2634C134.662 35.8638 136.594 34.4264 138.548 34.4264C140.501 34.4264 142.433 35.8874 142.433 38.2634C142.433 40.6394 140.501 42.1123 138.548 42.1123Z" fill="#2064AE"/>
<path d="M147.021 41.9728V38.5991C147.021 38.053 146.688 37.4974 145.814 37.4974C144.939 37.4974 144.561 38.053 144.561 38.5991V41.9728H143.516V36.722H144.435L144.482 37.2445C144.883 36.8047 145.274 36.5967 146.09 36.5967C147.23 36.5967 148.067 37.3272 148.067 38.4975V41.9751H147.021V41.9728Z" fill="#2064AE"/>
<path d="M152.503 37.5683H150.848V40.4904C150.848 40.9184 151.193 41.15 151.617 41.15C151.835 41.15 152.032 41.1264 152.192 41.0697L151.985 42.0082C151.87 42.0413 151.72 42.0531 151.514 42.0531C150.571 42.0531 149.811 41.4976 149.811 40.4526V37.566H148.789V36.7196H149.811V35.6534L150.846 35.1096V36.7196H152.686L152.503 37.566V37.5683Z" fill="#2064AE"/>
<path d="M156.25 39.5613L155.213 39.6535C154.592 39.7103 154.318 40.1169 154.318 40.4999C154.318 40.8829 154.627 41.2068 155.042 41.2068C155.593 41.2068 156.25 40.6843 156.25 40.0247V39.5613ZM157.216 42.1004C156.86 42.0201 156.571 41.7529 156.456 41.429C156.088 41.916 155.558 42.1004 154.995 42.1004C153.961 42.1004 153.316 41.3344 153.316 40.4904C153.316 39.4715 154.144 38.8899 155.028 38.8095L156.248 38.6937V38.358C156.248 37.8828 155.971 37.4998 155.235 37.4998C154.719 37.4998 154.177 37.6629 153.797 37.9182L153.591 37.0482C154.062 36.7338 154.66 36.5967 155.293 36.5967C156.454 36.5967 157.293 37.2563 157.293 38.4975V40.6181C157.293 41.0933 157.547 41.3723 157.88 41.429L157.214 42.1004H157.216Z" fill="#2064AE"/>
<path d="M161.678 37.5448C160.838 37.5448 159.825 37.9963 159.825 39.4928V41.9728H158.779V36.722H159.769L159.816 37.5448C160.092 36.8946 160.805 36.6511 161.586 36.6511L161.781 37.5448H161.678Z" fill="#2064AE"/>
<path d="M162.703 41.9728V36.722H163.76V41.9728H162.703ZM163.233 35.7125C163.026 35.7125 162.6 35.2846 162.6 35.0765C162.6 34.8567 163.024 34.4264 163.233 34.4264C163.451 34.4264 163.878 34.8543 163.878 35.0765C163.878 35.2846 163.451 35.7125 163.233 35.7125Z" fill="#2064AE"/>
<path d="M167.774 37.5211C166.854 37.5211 166.062 38.2516 166.062 39.3533C166.062 40.455 166.854 41.1737 167.774 41.1737C168.693 41.1737 169.476 40.4432 169.476 39.3533C169.476 38.2635 168.684 37.5211 167.774 37.5211ZM167.774 42.1005C166.221 42.1005 165.002 40.9775 165.002 39.3533C165.002 37.7292 166.221 36.5944 167.774 36.5944C169.326 36.5944 170.534 37.7197 170.534 39.3533C170.534 40.987 169.326 42.1005 167.774 42.1005Z" fill="#2064AE"/>
</svg>
