<svg width="113" height="113" viewBox="0 0 113 113" fill="none" xmlns="http://www.w3.org/2000/svg">
<g clip-path="url(#clip0_653_3565)">
<path d="M113 56.4882C113 68.8523 109.025 80.2922 102.284 89.5989C101.778 90.302 101.249 90.9894 100.703 91.6688C90.3589 104.665 74.4035 113 56.496 113C38.5886 113 22.6411 104.673 12.2965 91.6767C11.7512 90.9973 11.2218 90.302 10.7081 89.591C3.96713 80.2843 0 68.8444 0 56.4882C0 52.2298 0.466256 48.0979 1.36716 44.1556C3.82488 33.1186 9.47528 23.3379 17.3068 15.7851C27.5012 6.02804 41.2676 0 56.496 0C74.0557 0 89.7504 8.01895 100.134 20.5727C101.565 22.3424 102.932 24.2069 104.141 26.1268C104.141 26.1426 104.157 26.1505 104.165 26.1663C109.302 34.2326 112.471 43.6736 112.937 53.8415C112.976 54.7185 113 55.6033 113 56.4882Z" fill="#A9CBEF"/>
<path d="M100.704 91.6688C90.3593 104.665 74.4038 113 56.4964 113C38.589 113 22.6414 104.673 12.2969 91.6767C19.9941 75.6783 36.8899 64.5703 56.5043 64.5703C76.1187 64.5703 92.9987 75.6704 100.704 91.6688Z" fill="#68A4E3"/>
<path d="M56.5046 55.0896C69.2097 55.0896 79.5092 44.793 79.5092 32.0914C79.5092 19.3899 69.2097 9.09326 56.5046 9.09326C43.7995 9.09326 33.5 19.3899 33.5 32.0914C33.5 44.793 43.7995 55.0896 56.5046 55.0896Z" fill="#68A4E3"/>
</g>
<defs>
<clipPath id="clip0_653_3565">
<rect width="113" height="113" fill="white"/>
</clipPath>
</defs>
</svg>
