<svg viewBox="0 0 192 344" fill="none" xmlns="http://www.w3.org/2000/svg">
<path d="M157.674 9.05892C157.753 7.68029 158.05 6.08517 158.836 5.01417C161.661 1.14033 168.087 -0.921922 172.371 0.399742C177.419 1.94928 179.96 5.11671 179.732 11.4288C179.094 28.5649 177.818 45.6895 177.316 62.8256C177.123 69.1832 173.898 72.1798 168.577 74.0027C163.997 75.5751 162.835 74.9826 162.334 70.0605L157.674 9.04752V9.05892ZM81.1425 38.728C77.7928 33.8287 79.6044 26.9583 84.5151 23.5744C89.6194 20.0652 96.2505 21.0906 99.1445 26.4228C107.599 42.0435 115.996 57.7098 123.937 73.604C127.48 80.6794 125.68 85.6015 119.026 89.6918C118.229 90.1817 117.169 89.9652 116.634 89.1905L81.1425 38.7166V38.728ZM84.2302 128.772C83.7403 129.535 82.7604 129.82 81.9401 129.421C63.3342 120.432 44.8651 111.579 26.4758 102.555C20.8245 99.7866 19.1724 91.2072 22.9665 86.137C26.1225 81.9213 31.5118 80.3376 36.0806 83.1518C51.462 92.6428 66.7523 102.282 81.8489 112.217C87.7736 116.114 88.5142 121.981 84.2188 128.761L84.2302 128.772ZM129.873 258.375C130.682 258.819 131.013 259.822 130.637 260.665C129.805 262.522 129.041 264.265 128.21 265.997C119.983 283.213 111.826 300.463 103.429 317.599C101.093 322.373 94.4389 323.581 89.0725 320.744C84.1049 318.123 81.7008 311.8 84.5151 307.242C93.949 291.998 103.44 276.776 113.273 261.782C117.454 255.412 122.832 254.467 129.862 258.363L129.873 258.375ZM74.3063 179.041C74.2607 179.941 73.5543 180.67 72.6656 180.738C52.4077 182.356 31.9789 184.1 11.5387 185.535C4.65692 186.014 -0.652508 179.69 0.0652924 172.729C0.600794 167.476 4.3379 163.602 9.5334 163.796C27.8088 164.457 46.0729 165.198 64.3255 166.257C70.9566 166.645 74.6595 171.498 74.3177 179.052L74.3063 179.041ZM165.729 281.094C166.424 273.563 169.5 270.156 176.166 268.504C178.957 267.809 180.461 268.378 180.7 271.512C182.307 291.815 184.084 312.107 185.577 332.422C185.987 337.96 180.301 343.052 174.354 343.166C168.896 343.269 163.895 338.529 163.769 332.889L165.729 281.094ZM92.8894 225.641C93.2995 226.438 93.0489 227.43 92.3083 227.931C75.1153 239.632 57.8311 251.482 40.4558 263.183C36.1034 266.111 29.2444 263.741 26.0086 258.546C23.2855 254.182 24.4135 247.289 28.857 244.908C45.0588 236.214 61.3176 227.601 77.77 219.397C83.7175 216.435 89.4713 219.021 92.8894 225.629V225.641Z" fill="#FFF099"/>
<path d="M172.736 88.9516C126.797 88.6098 89.6651 125.263 89.4031 171.225H89.3917C88.446 212.937 122.354 252.975 169.82 253.772C177.291 253.895 184.51 253.073 191.367 251.415V91.2982C185.374 89.8106 179.135 88.999 172.736 88.9516Z" fill="#FFF099"/>
</svg>
