<svg id="Layer_2" xmlns="http://www.w3.org/2000/svg" viewBox="0 0 301.4 301.2"><path d="m65.3,143.7c0-.8-.6-1.5-1.4-1.5-18.5-1.4-36.9-2.9-55.2-4.2-4.3-.3-8.2,4.5-8.6,9.8-.3,4.4,3.4,9.1,7.7,9.5,16.1,1.5,32.1.4,48-1.8,6.5-.9,9.7-4.6,9.6-11.7Zm35.5,76.3c-.7-.5-1.7-.3-2.2.4-10.2,14.8-20.3,29.5-30.2,44.2-3.2,4.8-2.4,9.1,1.8,13,4.3,3.9,11.2,3.2,13.9-1.9,7.3-13.4,14.6-26.9,21.4-40.6,3.3-6.6,1.9-10.7-4.8-15.2Zm-78.8-10.6c-4.8,2.3-6.3,8-4.1,12.9,2.2,4.7,8,7.1,12.3,4.5,13.4-8.2,26.8-16.5,39.9-25.2,5.4-3.5,6.2-8.5,3-14.3-.4-.7-1.3-1-2-.7l-49.2,22.7ZM163,7.9c0-1.2-.3-2.6-1-3.5-2.5-3.4-8.1-5.2-11.9-4.1-4.4,1.4-6.7,4.1-6.5,9.7.6,15,1.7,30.1,2.1,45.1.2,5.6,3,8.2,7.7,9.8,4,1.4,5,.9,5.5-3.5l4.1-53.5ZM33.5,68.6c-4.4-3-10.6-1.2-13.5,3.4-2.8,4.4-1.5,10.5,3.3,13.1,13.7,7.2,27.4,14.3,41.3,21.2,5.8,2.9,10.4,1.2,13.7-4.5s.2-1.6-.5-2.1l-44.3-31.2Zm79.7,4.1c.7-.4.9-1.3.6-2-7.7-16.2-15.3-32.3-23.1-48.3-2.4-4.9-6.2-6.2-11.6-4.8-6,1.6-9.1,8-5.9,13.2,8.3,13.3,16.8,26.6,25.5,39.7,3.4,5.1,8.7,5.9,14.5,2.3Zm117-38.6c2.9-4.3,1.4-10.3-3-13.3-4.5-3.1-10.3-2.2-12.8,2.5-7.4,13.7-14.8,27.5-21.8,41.4-3.1,6.2-1.5,10.5,4.3,14.1.7.4,1.6.2,2.1-.4l31.1-44.3Zm-2.7,79c.4.7,1.3.9,2,.6,16.3-7.9,32.5-15.7,48.7-23.6,5-2.4,6.4-10,3.1-14.4-2.8-3.7-7.5-5.1-11.5-2.6-13.5,8.3-26.9,16.8-40.2,25.5-5.2,3.4-5.9,8.6-2.1,14.5Zm-40.1,113.7c-.7.4-1,1.3-.7,2,.7,1.6,1.4,3.2,2.1,4.7,7.2,15.1,14.4,30.2,21.7,45.3,2.1,4.2,7.9,5.3,12.6,2.8,4.4-2.3,6.5-7.9,4-11.8-8.3-13.4-16.6-26.7-25.2-39.9-3.7-5.6-8.4-6.4-14.6-3Zm48.8-69.6c0,.8.7,1.4,1.4,1.5,17.8,1.4,35.7,3,53.7,4.2,6,.4,10.7-5.1,10.1-11.2-.5-4.6-3.8-8-8.3-7.8-16,.6-32.1,1.2-48.1,2.2-5.8.3-9.1,4.6-8.8,11.2Zm-80.2,89.6c-.6-6.6-3.3-9.6-9.2-11.1-2.4-.6-3.8-.1-4,2.6-1.4,17.8-3,35.6-4.3,53.5-.4,4.9,4.6,9.3,9.9,9.4,4.8,0,9.2-4.1,9.3-9l-1.7-45.5Zm63.9-48.7c-.4.7-.1,1.6.5,2,15.1,10.3,30.3,20.7,45.5,30.9,3.8,2.6,9.8.5,12.7-4.1,2.4-3.8,1.4-9.9-2.5-12-14.2-7.6-28.5-15.2-42.9-22.4-5.2-2.6-10.3-.3-13.3,5.5Z" style="fill:#ffde23;"/><path d="m222.9,150.3c-.2-40.3-32.8-72.5-73.1-72.2-39.1.3-71.5,33.1-71.3,72.4.2,40.8,32.6,72.9,73.8,72.2,41.7-.7,71.4-35.8,70.6-72.4Z" style="fill:#ffde23;"/></svg>