<?xml version="1.0" encoding="UTF-8"?><svg id="Layer_1" xmlns="http://www.w3.org/2000/svg" viewBox="0 0 418 461"><path d="m24.5,119.6c0-.2-.2-.4-.4-.4-4.9-.4-9.9-.8-14.8-1.1-1.2,0-2.2,1.2-2.3,2.6,0,1.2.9,2.4,2.1,2.5,4.3.4,8.6.1,12.8-.5,1.8-.2,2.6-1.2,2.6-3.1Zm9.5,20.4c-.2-.1-.5,0-.6.1-2.7,4-5.4,7.9-8.1,11.8-.9,1.3-.6,2.5.5,3.5,1.1,1,3,.8,3.7-.5,2-3.6,3.9-7.2,5.7-10.9.9-1.8.5-2.9-1.3-4.1h0Zm-21.1-2.8c-1.3.6-1.7,2.1-1.1,3.4.6,1.3,2.1,1.9,3.3,1.2,3.6-2.2,7.2-4.4,10.7-6.7,1.4-.9,1.6-2.3.8-3.8-.1-.2-.3-.3-.5-.2l-13.2,6.1h0Zm37.7-53.9c0-.3,0-.7-.3-.9-.7-.9-2.2-1.4-3.2-1.1-1.2.4-1.8,1.1-1.7,2.6.2,4,.5,8,.6,12.1,0,1.5.8,2.2,2,2.6,1.1.4,1.4.2,1.5-.9l1.1-14.3h0Zm-34.6,16.2c-1.2-.8-2.8-.3-3.6.9-.8,1.2-.4,2.8.9,3.5,3.6,1.9,7.3,3.8,11,5.7,1.6.8,2.8.3,3.7-1.2.1-.2,0-.4-.1-.5l-11.9-8.3h0Zm21.3,1.1c.2-.1.2-.3.2-.5-2.1-4.3-4.1-8.6-6.2-12.9-.6-1.3-1.7-1.7-3.1-1.3-1.6.4-2.4,2.1-1.6,3.5,2.2,3.6,4.5,7.1,6.8,10.6.9,1.4,2.3,1.6,3.9.6h0Zm31.3-10.3c.8-1.2.4-2.8-.8-3.6-1.2-.8-2.8-.6-3.4.7-2,3.7-4,7.3-5.8,11.1-.8,1.7-.4,2.8,1.1,3.8.2.1.4,0,.6-.1l8.3-11.8Zm-.7,21.1c.1.2.3.2.5.2,4.4-2.1,8.7-4.2,13-6.3,1.3-.7,1.7-2.7.8-3.9-.7-1-2-1.4-3.1-.7-3.6,2.2-7.2,4.5-10.8,6.8-1.4.9-1.6,2.3-.6,3.9h0Zm-10.7,30.4c-.2.1-.3.3-.2.5.2.4.4.8.6,1.2,1.9,4,3.8,8.1,5.8,12.1.5,1.1,2.1,1.4,3.4.7,1.2-.6,1.7-2.1,1.1-3.2-2.2-3.6-4.4-7.1-6.8-10.7-1-1.5-2.2-1.7-3.9-.8h0Zm13-18.6c0,.2.2.4.4.4,4.8.4,9.5.8,14.3,1.1,1.6.1,2.9-1.4,2.7-3-.1-1.2-1-2.1-2.2-2.1-4.3.2-8.6.3-12.9.6-1.6,0-2.4,1.2-2.4,3h0Zm-21.5,24c-.2-1.8-.9-2.6-2.5-3-.7-.2-1,0-1.1.7-.4,4.8-.8,9.5-1.2,14.3,0,1.3,1.2,2.5,2.6,2.5,1.3,0,2.5-1.1,2.5-2.4l-.5-12.2h0Zm17.1-13c-.1.2,0,.4.1.5,4,2.8,8.1,5.5,12.2,8.3,1,.7,2.6.1,3.4-1.1.6-1,.4-2.6-.7-3.2-3.8-2-7.6-4.1-11.5-6-1.4-.7-2.8,0-3.5,1.5Z" style="fill:#266baa;"/><path d="m66.6,121.3c0-10.8-8.8-19.4-19.6-19.3-10.5,0-19.1,8.9-19.1,19.4,0,10.9,8.7,19.5,19.8,19.3,11.1-.2,19.1-9.6,18.9-19.4Z" style="fill:#266baa;"/><path d="m24.5,265.8c0-.2-.2-.4-.4-.4-4.9-.4-9.9-.8-14.8-1.1-1.2,0-2.2,1.2-2.3,2.6,0,1.2.9,2.4,2.1,2.5,4.3.4,8.6.1,12.8-.5,1.8-.2,2.6-1.2,2.6-3.1Zm9.5,20.4c-.2-.1-.5,0-.6.1-2.7,4-5.4,7.9-8.1,11.8-.9,1.3-.6,2.5.5,3.5,1.1,1,3,.8,3.7-.5,2-3.6,3.9-7.2,5.7-10.9.9-1.8.5-2.9-1.3-4.1h0Zm-21.1-2.8c-1.3.6-1.7,2.1-1.1,3.4.6,1.3,2.1,1.9,3.3,1.2,3.6-2.2,7.2-4.4,10.7-6.7,1.4-.9,1.6-2.3.8-3.8-.1-.2-.3-.3-.5-.2l-13.2,6.1h0Zm37.7-53.9c0-.3,0-.7-.3-.9-.7-.9-2.2-1.4-3.2-1.1-1.2.4-1.8,1.1-1.7,2.6.2,4,.5,8,.6,12.1,0,1.5.8,2.2,2,2.6,1.1.4,1.4.2,1.5-.9l1.1-14.3h0Zm-34.6,16.2c-1.2-.8-2.8-.3-3.6.9-.8,1.2-.4,2.8.9,3.5,3.6,1.9,7.3,3.8,11,5.7,1.6.8,2.8.3,3.7-1.2.1-.2,0-.4-.1-.6l-11.9-8.3h0Zm21.3,1.1c.2-.1.2-.4.2-.5-2.1-4.3-4.1-8.6-6.2-12.9-.6-1.3-1.7-1.7-3.1-1.3-1.6.4-2.4,2.1-1.6,3.5,2.2,3.6,4.5,7.1,6.8,10.6.9,1.4,2.3,1.6,3.9.6h0Zm31.3-10.3c.8-1.1.4-2.8-.8-3.6-1.2-.8-2.8-.6-3.4.7-2,3.7-4,7.4-5.8,11.1-.8,1.7-.4,2.8,1.1,3.8.2.1.4,0,.6-.1l8.3-11.9Zm-.7,21.1c.1.2.3.2.5.1,4.4-2.1,8.7-4.2,13-6.3,1.3-.7,1.7-2.7.8-3.9-.7-1-2-1.4-3.1-.7-3.6,2.2-7.2,4.5-10.8,6.8-1.4.9-1.6,2.3-.6,3.9h0Zm-10.7,30.4c-.2.1-.3.3-.2.5.2.4.4.8.6,1.2,1.9,4,3.8,8.1,5.8,12.1.5,1.1,2.1,1.4,3.4.7,1.2-.6,1.7-2.1,1.1-3.2-2.2-3.6-4.4-7.1-6.8-10.7-1-1.5-2.2-1.7-3.9-.8h0Zm13-18.6c0,.2.2.4.4.4,4.8.4,9.5.8,14.3,1.1,1.6.1,2.9-1.4,2.7-3-.1-1.2-1-2.1-2.2-2.1-4.3.2-8.6.3-12.9.6-1.6,0-2.4,1.2-2.4,3h0Zm-21.5,24c-.2-1.8-.9-2.6-2.5-3-.7-.2-1,0-1.1.7-.4,4.8-.8,9.5-1.2,14.3,0,1.3,1.2,2.5,2.6,2.5,1.3,0,2.5-1.1,2.5-2.4l-.5-12.2h0Zm17.1-13c-.1.2,0,.4.1.5,4,2.8,8.1,5.5,12.2,8.3,1,.7,2.6.1,3.4-1.1.6-1,.4-2.6-.7-3.2-3.8-2-7.6-4.1-11.5-6-1.4-.7-2.8,0-3.5,1.5Z" style="fill:#266baa;"/><path d="m66.6,267.5c0-10.8-8.8-19.4-19.6-19.3-10.5,0-19.1,8.9-19.1,19.4,0,10.9,8.7,19.5,19.8,19.3,11.1-.2,19.1-9.6,18.9-19.4Z" style="fill:#266baa;"/><path d="m24.5,412c0-.2-.2-.4-.4-.4-4.9-.4-9.9-.8-14.8-1.1-1.2,0-2.2,1.2-2.3,2.6,0,1.2.9,2.4,2.1,2.5,4.3.4,8.6.1,12.8-.5,1.8-.2,2.6-1.2,2.6-3.1Zm9.5,20.4c-.2-.1-.5,0-.6.1-2.7,4-5.4,7.9-8.1,11.8-.9,1.3-.6,2.4.5,3.5,1.1,1,3,.8,3.7-.5,2-3.6,3.9-7.2,5.7-10.9.9-1.8.5-2.9-1.3-4.1h0Zm-21.1-2.8c-1.3.6-1.7,2.1-1.1,3.5.6,1.3,2.1,1.9,3.3,1.2,3.6-2.2,7.2-4.4,10.7-6.7,1.4-.9,1.6-2.3.8-3.8-.1-.2-.3-.3-.5-.2l-13.2,6.1h0Zm37.7-53.9c0-.3,0-.7-.3-1-.7-.9-2.2-1.4-3.2-1.1-1.2.4-1.8,1.1-1.7,2.6.2,4,.5,8,.6,12.1,0,1.5.8,2.2,2,2.6,1.1.4,1.4.2,1.5-.9l1.1-14.3h0Zm-34.6,16.2c-1.2-.8-2.8-.3-3.6.9-.8,1.2-.4,2.8.9,3.5,3.6,1.9,7.3,3.8,11,5.7,1.6.8,2.8.3,3.7-1.2.1-.2,0-.4-.1-.5l-11.9-8.3h0Zm21.3,1.1c.2-.1.2-.4.2-.5-2.1-4.3-4.1-8.6-6.2-12.9-.6-1.3-1.7-1.7-3.1-1.3-1.6.4-2.4,2.1-1.6,3.5,2.2,3.6,4.5,7.1,6.8,10.6.9,1.4,2.3,1.6,3.9.6h0Zm31.3-10.3c.8-1.1.4-2.8-.8-3.6-1.2-.8-2.8-.6-3.4.7-2,3.7-4,7.4-5.8,11.1-.8,1.7-.4,2.8,1.1,3.8.2.1.4,0,.6-.1l8.3-11.9Zm-.7,21.1c.1.2.3.2.5.1,4.4-2.1,8.7-4.2,13-6.3,1.3-.6,1.7-2.7.8-3.9-.7-1-2-1.4-3.1-.7-3.6,2.2-7.2,4.5-10.8,6.8-1.4.9-1.6,2.3-.6,3.9h0Zm-10.7,30.4c-.2.1-.3.3-.2.5.2.4.4.9.6,1.2,1.9,4,3.8,8.1,5.8,12.1.5,1.1,2.1,1.4,3.4.7,1.2-.6,1.7-2.1,1.1-3.2-2.2-3.6-4.4-7.1-6.8-10.7-1-1.5-2.2-1.7-3.9-.8h0Zm13-18.6c0,.2.2.4.4.4,4.8.4,9.5.8,14.3,1.1,1.6.1,2.9-1.4,2.7-3-.1-1.2-1-2.1-2.2-2.1-4.3.2-8.6.3-12.9.6-1.6,0-2.4,1.2-2.4,3h0Zm-21.5,24c-.2-1.8-.9-2.6-2.5-3-.7-.2-1,0-1.1.7-.4,4.8-.8,9.5-1.2,14.3,0,1.3,1.2,2.5,2.6,2.5,1.3,0,2.5-1.1,2.5-2.4l-.5-12.2h0Zm17.1-13c-.1.2,0,.4.1.5,4,2.8,8.1,5.5,12.2,8.3,1,.7,2.6.1,3.4-1.1.6-1,.4-2.6-.7-3.2-3.8-2-7.6-4.1-11.5-6-1.4-.7-2.8,0-3.5,1.5Z" style="fill:#266baa;"/><path d="m66.6,413.7c0-10.8-8.8-19.4-19.6-19.3-10.5,0-19.1,8.9-19.1,19.4,0,10.9,8.7,19.5,19.8,19.3,11.1-.2,19.1-9.6,18.9-19.4Z" style="fill:#266baa;"/><path d="m240.5,119.6c0-.2-.2-.4-.4-.4-4.9-.4-9.9-.8-14.8-1.1-1.1,0-2.2,1.2-2.3,2.6,0,1.2.9,2.4,2.1,2.5,4.3.4,8.6.1,12.8-.5,1.8-.2,2.6-1.2,2.6-3.1Zm9.5,20.4c-.2-.1-.4,0-.6.1-2.7,4-5.4,7.9-8.1,11.8-.9,1.3-.6,2.5.5,3.5,1.1,1,3,.8,3.7-.5,1.9-3.6,3.9-7.2,5.7-10.9.9-1.8.5-2.9-1.3-4.1h0Zm-21.1-2.8c-1.3.6-1.7,2.1-1.1,3.4.6,1.3,2.1,1.9,3.3,1.2,3.6-2.2,7.2-4.4,10.7-6.7,1.4-.9,1.6-2.3.8-3.8,0-.2-.3-.3-.5-.2l-13.2,6.1h0Zm37.7-53.9c0-.3,0-.7-.3-.9-.7-.9-2.2-1.4-3.2-1.1-1.2.4-1.8,1.1-1.7,2.6.1,4,.4,8,.6,12.1,0,1.5.8,2.2,2,2.6,1.1.4,1.4.2,1.5-.9l1.1-14.3h0Zm-34.6,16.2c-1.2-.8-2.8-.3-3.6.9-.8,1.2-.4,2.8.9,3.5,3.7,1.9,7.3,3.8,11,5.7,1.6.8,2.8.3,3.7-1.2.1-.2,0-.4-.1-.5l-11.9-8.3h0Zm21.3,1.1c.2-.1.2-.3.2-.5-2.1-4.3-4.1-8.6-6.2-12.9-.7-1.3-1.7-1.7-3.1-1.3-1.6.4-2.4,2.1-1.6,3.5,2.2,3.6,4.5,7.1,6.8,10.6.9,1.4,2.3,1.6,3.9.6h0Zm31.3-10.3c.8-1.2.4-2.8-.8-3.6-1.2-.8-2.8-.6-3.4.7-2,3.7-4,7.3-5.8,11.1-.8,1.7-.4,2.8,1.2,3.8.2.1.4,0,.6-.1l8.3-11.8Zm-.7,21.1c.1.2.4.2.5.2,4.4-2.1,8.7-4.2,13-6.3,1.3-.7,1.7-2.7.8-3.9-.7-1-2-1.4-3.1-.7-3.6,2.2-7.2,4.5-10.8,6.8-1.4.9-1.6,2.3-.6,3.9h0Zm-10.7,30.4c-.2.1-.3.3-.2.5.2.4.4.8.6,1.2,1.9,4,3.9,8.1,5.8,12.1.5,1.1,2.1,1.4,3.4.7,1.2-.6,1.7-2.1,1.1-3.2-2.2-3.6-4.4-7.1-6.8-10.7-1-1.5-2.2-1.7-3.9-.8h0Zm13-18.6c0,.2.2.4.4.4,4.8.4,9.5.8,14.4,1.1,1.6.1,2.9-1.4,2.7-3-.1-1.2-1-2.1-2.2-2.1-4.3.2-8.6.3-12.9.6-1.6,0-2.4,1.2-2.4,3h0Zm-21.5,24c-.2-1.8-.9-2.6-2.5-3-.6-.2-1,0-1.1.7-.4,4.8-.8,9.5-1.2,14.3,0,1.3,1.2,2.5,2.6,2.5,1.3,0,2.5-1.1,2.5-2.4l-.5-12.2h0Zm17.1-13c-.1.2,0,.4.1.5,4,2.8,8.1,5.5,12.2,8.3,1,.7,2.6.1,3.4-1.1.6-1,.4-2.6-.7-3.2-3.8-2-7.6-4.1-11.5-6-1.4-.7-2.8,0-3.5,1.5Z" style="fill:#266baa;"/><path d="m282.6,121.3c0-10.8-8.8-19.4-19.6-19.3-10.5,0-19.1,8.9-19.1,19.4,0,10.9,8.7,19.5,19.7,19.3,11.1-.2,19.1-9.6,18.9-19.4Z" style="fill:#266baa;"/><path d="m240.5,265.8c0-.2-.2-.4-.4-.4-4.9-.4-9.9-.8-14.8-1.1-1.1,0-2.2,1.2-2.3,2.6,0,1.2.9,2.4,2.1,2.5,4.3.4,8.6.1,12.8-.5,1.8-.2,2.6-1.2,2.6-3.1Zm9.5,20.4c-.2-.1-.4,0-.6.1-2.7,4-5.4,7.9-8.1,11.8-.9,1.3-.6,2.5.5,3.5,1.1,1,3,.8,3.7-.5,1.9-3.6,3.9-7.2,5.7-10.9.9-1.8.5-2.9-1.3-4.1h0Zm-21.1-2.8c-1.3.6-1.7,2.1-1.1,3.4.6,1.3,2.1,1.9,3.3,1.2,3.6-2.2,7.2-4.4,10.7-6.7,1.4-.9,1.6-2.3.8-3.8,0-.2-.3-.3-.5-.2l-13.2,6.1h0Zm37.7-53.9c0-.3,0-.7-.3-.9-.7-.9-2.2-1.4-3.2-1.1-1.2.4-1.8,1.1-1.7,2.6.1,4,.4,8,.6,12.1,0,1.5.8,2.2,2,2.6,1.1.4,1.4.2,1.5-.9l1.1-14.3h0Zm-34.6,16.2c-1.2-.8-2.8-.3-3.6.9-.8,1.2-.4,2.8.9,3.5,3.7,1.9,7.3,3.8,11,5.7,1.6.8,2.8.3,3.7-1.2.1-.2,0-.4-.1-.6l-11.9-8.3h0Zm21.3,1.1c.2-.1.2-.4.2-.5-2.1-4.3-4.1-8.6-6.2-12.9-.7-1.3-1.7-1.7-3.1-1.3-1.6.4-2.4,2.1-1.6,3.5,2.2,3.6,4.5,7.1,6.8,10.6.9,1.4,2.3,1.6,3.9.6h0Zm31.3-10.3c.8-1.1.4-2.8-.8-3.6-1.2-.8-2.8-.6-3.4.7-2,3.7-4,7.4-5.8,11.1-.8,1.7-.4,2.8,1.2,3.8.2.1.4,0,.6-.1l8.3-11.9Zm-.7,21.1c.1.2.4.2.5.1,4.4-2.1,8.7-4.2,13-6.3,1.3-.7,1.7-2.7.8-3.9-.7-1-2-1.4-3.1-.7-3.6,2.2-7.2,4.5-10.8,6.8-1.4.9-1.6,2.3-.6,3.9h0Zm-10.7,30.4c-.2.1-.3.3-.2.5.2.4.4.8.6,1.2,1.9,4,3.9,8.1,5.8,12.1.5,1.1,2.1,1.4,3.4.7,1.2-.6,1.7-2.1,1.1-3.2-2.2-3.6-4.4-7.1-6.8-10.7-1-1.5-2.2-1.7-3.9-.8h0Zm13-18.6c0,.2.2.4.4.4,4.8.4,9.5.8,14.4,1.1,1.6.1,2.9-1.4,2.7-3-.1-1.2-1-2.1-2.2-2.1-4.3.2-8.6.3-12.9.6-1.6,0-2.4,1.2-2.4,3h0Zm-21.5,24c-.2-1.8-.9-2.6-2.5-3-.6-.2-1,0-1.1.7-.4,4.8-.8,9.5-1.2,14.3,0,1.3,1.2,2.5,2.6,2.5,1.3,0,2.5-1.1,2.5-2.4l-.5-12.2h0Zm17.1-13c-.1.2,0,.4.1.5,4,2.8,8.1,5.5,12.2,8.3,1,.7,2.6.1,3.4-1.1.6-1,.4-2.6-.7-3.2-3.8-2-7.6-4.1-11.5-6-1.4-.7-2.8,0-3.5,1.5Z" style="fill:#266baa;"/><path d="m282.6,267.5c0-10.8-8.8-19.4-19.6-19.3-10.5,0-19.1,8.9-19.1,19.4,0,10.9,8.7,19.5,19.7,19.3,11.1-.2,19.1-9.6,18.9-19.4Z" style="fill:#266baa;"/><path d="m240.5,412c0-.2-.2-.4-.4-.4-4.9-.4-9.9-.8-14.8-1.1-1.1,0-2.2,1.2-2.3,2.6,0,1.2.9,2.4,2.1,2.5,4.3.4,8.6.1,12.8-.5,1.8-.2,2.6-1.2,2.6-3.1Zm9.5,20.4c-.2-.1-.4,0-.6.1-2.7,4-5.4,7.9-8.1,11.8-.9,1.3-.6,2.4.5,3.5,1.1,1,3,.8,3.7-.5,1.9-3.6,3.9-7.2,5.7-10.9.9-1.8.5-2.9-1.3-4.1h0Zm-21.1-2.8c-1.3.6-1.7,2.1-1.1,3.5.6,1.3,2.1,1.9,3.3,1.2,3.6-2.2,7.2-4.4,10.7-6.7,1.4-.9,1.6-2.3.8-3.8,0-.2-.3-.3-.5-.2l-13.2,6.1h0Zm37.7-53.9c0-.3,0-.7-.3-1-.7-.9-2.2-1.4-3.2-1.1-1.2.4-1.8,1.1-1.7,2.6.1,4,.4,8,.6,12.1,0,1.5.8,2.2,2,2.6,1.1.4,1.4.2,1.5-.9l1.1-14.3h0Zm-34.6,16.2c-1.2-.8-2.8-.3-3.6.9-.8,1.2-.4,2.8.9,3.5,3.7,1.9,7.3,3.8,11,5.7,1.6.8,2.8.3,3.7-1.2.1-.2,0-.4-.1-.5l-11.9-8.3h0Zm21.3,1.1c.2-.1.2-.4.2-.5-2.1-4.3-4.1-8.6-6.2-12.9-.7-1.3-1.7-1.7-3.1-1.3-1.6.4-2.4,2.1-1.6,3.5,2.2,3.6,4.5,7.1,6.8,10.6.9,1.4,2.3,1.6,3.9.6h0Zm31.3-10.3c.8-1.1.4-2.8-.8-3.6-1.2-.8-2.8-.6-3.4.7-2,3.7-4,7.4-5.8,11.1-.8,1.7-.4,2.8,1.2,3.8.2.1.4,0,.6-.1l8.3-11.9Zm-.7,21.1c.1.2.4.2.5.1,4.4-2.1,8.7-4.2,13-6.3,1.3-.6,1.7-2.7.8-3.9-.7-1-2-1.4-3.1-.7-3.6,2.2-7.2,4.5-10.8,6.8-1.4.9-1.6,2.3-.6,3.9h0Zm-10.7,30.4c-.2.1-.3.3-.2.5.2.4.4.9.6,1.2,1.9,4,3.9,8.1,5.8,12.1.5,1.1,2.1,1.4,3.4.7,1.2-.6,1.7-2.1,1.1-3.2-2.2-3.6-4.4-7.1-6.8-10.7-1-1.5-2.2-1.7-3.9-.8h0Zm13-18.6c0,.2.2.4.4.4,4.8.4,9.5.8,14.4,1.1,1.6.1,2.9-1.4,2.7-3-.1-1.2-1-2.1-2.2-2.1-4.3.2-8.6.3-12.9.6-1.6,0-2.4,1.2-2.4,3h0Zm-21.5,24c-.2-1.8-.9-2.6-2.5-3-.6-.2-1,0-1.1.7-.4,4.8-.8,9.5-1.2,14.3,0,1.3,1.2,2.5,2.6,2.5,1.3,0,2.5-1.1,2.5-2.4l-.5-12.2h0Zm17.1-13c-.1.2,0,.4.1.5,4,2.8,8.1,5.5,12.2,8.3,1,.7,2.6.1,3.4-1.1.6-1,.4-2.6-.7-3.2-3.8-2-7.6-4.1-11.5-6-1.4-.7-2.8,0-3.5,1.5Z" style="fill:#266baa;"/><path d="m282.6,413.7c0-10.8-8.8-19.4-19.6-19.3-10.5,0-19.1,8.9-19.1,19.4,0,10.9,8.7,19.5,19.7,19.3,11.1-.2,19.1-9.6,18.9-19.4Z" style="fill:#266baa;"/><path d="m132.5,46.5c0-.2-.2-.4-.4-.4-5-.4-9.9-.8-14.8-1.1-1.2,0-2.2,1.2-2.3,2.6,0,1.2.9,2.4,2.1,2.5,4.3.4,8.6.1,12.8-.5,1.8-.2,2.6-1.2,2.6-3.1Zm9.5,20.4c-.2-.1-.4,0-.6.1-2.7,4-5.4,7.9-8.1,11.8-.9,1.3-.6,2.4.5,3.5,1.1,1,3,.8,3.7-.5,1.9-3.6,3.9-7.2,5.7-10.9.9-1.8.5-2.9-1.3-4.1h0Zm-21.1-2.8c-1.3.6-1.7,2.2-1.1,3.4.6,1.3,2.1,1.9,3.3,1.2,3.6-2.2,7.2-4.4,10.7-6.7,1.4-.9,1.6-2.3.8-3.8-.1-.2-.3-.3-.5-.2l-13.2,6.1h0Zm37.7-53.9c0-.3,0-.7-.3-.9-.7-.9-2.2-1.4-3.2-1.1-1.2.4-1.8,1.1-1.7,2.6.1,4,.4,8,.6,12.1,0,1.5.8,2.2,2.1,2.6,1.1.4,1.4.2,1.5-.9l1.1-14.3h0Zm-34.6,16.2c-1.2-.8-2.8-.3-3.6.9-.8,1.2-.4,2.8.9,3.5,3.7,1.9,7.3,3.8,11,5.7,1.6.8,2.8.3,3.7-1.2.1-.2,0-.4-.1-.5l-11.9-8.3h0Zm21.3,1.1c.2-.1.2-.4.2-.5-2.1-4.3-4.1-8.6-6.2-12.9-.7-1.3-1.7-1.7-3.1-1.3-1.6.4-2.4,2.1-1.6,3.5,2.2,3.6,4.5,7.1,6.8,10.6.9,1.4,2.3,1.6,3.9.6h0Zm31.3-10.3c.8-1.2.4-2.8-.8-3.6-1.2-.8-2.8-.6-3.4.7-2,3.7-4,7.3-5.8,11.1-.8,1.7-.4,2.8,1.1,3.8.2.1.4,0,.6-.1l8.3-11.9Zm-.7,21.1c.1.2.4.2.5.1,4.4-2.1,8.7-4.2,13-6.3,1.3-.7,1.7-2.7.8-3.9-.7-1-2-1.4-3.1-.7-3.6,2.2-7.2,4.5-10.8,6.8-1.4.9-1.6,2.3-.6,3.9h0Zm-10.7,30.4c-.2.1-.3.3-.2.5.2.4.4.8.6,1.2,1.9,4,3.9,8.1,5.8,12.1.6,1.1,2.1,1.4,3.4.7,1.2-.6,1.7-2.1,1.1-3.2-2.2-3.6-4.4-7.2-6.8-10.7-1-1.5-2.2-1.7-3.9-.8h0Zm13.1-18.6c0,.2.2.4.4.4,4.8.4,9.6.8,14.3,1.1,1.6.1,2.9-1.4,2.7-3-.1-1.2-1-2.1-2.2-2.1-4.3.2-8.6.3-12.9.6-1.6,0-2.4,1.2-2.3,3h0Zm-21.5,24c-.2-1.8-.9-2.6-2.4-3-.6-.2-1,0-1.1.7-.4,4.8-.8,9.5-1.1,14.3-.1,1.3,1.2,2.5,2.6,2.5,1.3,0,2.4-1.1,2.5-2.4l-.5-12.2h0Zm17.1-13c-.1.2,0,.4.1.5,4,2.7,8.1,5.5,12.2,8.3,1,.7,2.6.1,3.4-1.1.6-1,.4-2.6-.7-3.2-3.8-2-7.6-4.1-11.5-6-1.4-.7-2.8,0-3.6,1.5Z" style="fill:#266baa;"/><path d="m174.6,48.2c0-10.8-8.8-19.4-19.6-19.3-10.5,0-19.1,8.9-19.1,19.4,0,10.9,8.7,19.5,19.8,19.3,11.1-.2,19.1-9.6,18.9-19.4Z" style="fill:#266baa;"/><path d="m132.5,192.7c0-.2-.2-.4-.4-.4-5-.4-9.9-.8-14.8-1.1-1.2,0-2.2,1.2-2.3,2.6,0,1.2.9,2.4,2.1,2.5,4.3.4,8.6.1,12.8-.5,1.8-.2,2.6-1.2,2.6-3.1Zm9.5,20.4c-.2-.1-.4,0-.6.1-2.7,4-5.4,7.9-8.1,11.8-.9,1.3-.6,2.5.5,3.5,1.1,1,3,.8,3.7-.5,1.9-3.6,3.9-7.2,5.7-10.9.9-1.8.5-2.9-1.3-4.1h0Zm-21.1-2.8c-1.3.6-1.7,2.1-1.1,3.4.6,1.3,2.1,1.9,3.3,1.2,3.6-2.2,7.2-4.4,10.7-6.7,1.4-.9,1.6-2.3.8-3.8-.1-.2-.3-.3-.5-.2l-13.2,6.1h0Zm37.7-53.9c0-.3,0-.7-.3-.9-.7-.9-2.2-1.4-3.2-1.1-1.2.4-1.8,1.1-1.7,2.6.2,4,.5,8,.6,12.1,0,1.5.8,2.2,2.1,2.6,1.1.4,1.3.2,1.5-.9l1.1-14.3h0Zm-34.6,16.2c-1.2-.8-2.8-.3-3.6.9-.8,1.2-.4,2.8.9,3.5,3.6,1.9,7.3,3.8,11,5.7,1.6.8,2.8.3,3.7-1.2.1-.2,0-.4-.1-.6l-11.9-8.3h0Zm21.3,1.1c.2-.1.2-.4.2-.5-2.1-4.3-4.1-8.7-6.2-12.9-.6-1.3-1.7-1.7-3.1-1.3-1.6.4-2.4,2.1-1.6,3.5,2.2,3.6,4.5,7.1,6.8,10.6.9,1.4,2.3,1.6,3.9.6h0Zm31.3-10.3c.8-1.2.4-2.8-.8-3.6-1.2-.8-2.8-.6-3.4.7-2,3.7-4,7.3-5.8,11.1-.8,1.7-.4,2.8,1.2,3.8.2.1.4,0,.6-.1l8.3-11.8Zm-.7,21.1c.1.2.3.2.5.1,4.4-2.1,8.7-4.2,13-6.3,1.3-.6,1.7-2.7.8-3.9-.7-1-2-1.4-3.1-.7-3.6,2.2-7.2,4.5-10.8,6.8-1.4.9-1.6,2.3-.6,3.9h0Zm-10.7,30.4c-.2.1-.3.3-.2.5.2.4.4.8.6,1.2,1.9,4,3.9,8.1,5.8,12.1.6,1.1,2.1,1.4,3.4.7,1.2-.6,1.7-2.1,1.1-3.2-2.2-3.6-4.4-7.1-6.8-10.7-1-1.5-2.2-1.7-3.9-.8h0Zm13.1-18.6c0,.2.2.4.4.4,4.8.4,9.6.8,14.4,1.1,1.6.1,2.9-1.4,2.7-3-.1-1.2-1-2.1-2.2-2.1-4.3.2-8.6.3-12.9.6-1.6,0-2.4,1.2-2.4,3h0Zm-21.5,24c-.2-1.8-.9-2.6-2.4-3-.6-.2-1,0-1.1.7-.4,4.8-.8,9.5-1.2,14.3,0,1.3,1.2,2.5,2.6,2.5,1.3,0,2.4-1.1,2.5-2.4l-.5-12.2h0Zm17.1-13c-.1.2,0,.4.1.5,4,2.8,8.1,5.5,12.2,8.3,1,.7,2.6.1,3.4-1.1.6-1,.4-2.6-.7-3.2-3.8-2-7.6-4.1-11.5-6-1.4-.7-2.8,0-3.6,1.5Z" style="fill:#266baa;"/><path d="m174.6,194.4c0-10.8-8.8-19.4-19.6-19.3-10.5,0-19.1,8.9-19.1,19.4,0,10.9,8.7,19.5,19.8,19.3,11.1-.2,19.1-9.6,18.9-19.4Z" style="fill:#266baa;"/><path d="m132.5,338.9c0-.2-.2-.4-.4-.4-5-.4-9.9-.8-14.8-1.1-1.2,0-2.2,1.2-2.3,2.6,0,1.2.9,2.4,2.1,2.5,4.3.4,8.6.1,12.8-.5,1.8-.2,2.6-1.2,2.6-3.1Zm9.5,20.4c-.2-.1-.4,0-.6.1-2.7,4-5.4,7.9-8.1,11.8-.9,1.3-.6,2.5.5,3.5,1.1,1,3,.8,3.7-.5,1.9-3.6,3.9-7.2,5.7-10.9.9-1.8.5-2.9-1.3-4.1h0Zm-21.1-2.8c-1.3.6-1.7,2.1-1.1,3.5.6,1.3,2.1,1.9,3.3,1.2,3.6-2.2,7.2-4.4,10.7-6.7,1.4-.9,1.6-2.3.8-3.8-.1-.2-.3-.3-.5-.2l-13.2,6.1h0Zm37.7-53.9c0-.3,0-.7-.3-1-.7-.9-2.2-1.4-3.2-1.1-1.2.4-1.8,1.1-1.7,2.6.2,4,.5,8,.6,12.1,0,1.5.8,2.2,2.1,2.6,1.1.4,1.3.2,1.5-.9l1.1-14.3h0Zm-34.6,16.2c-1.2-.8-2.8-.3-3.6.9-.8,1.2-.4,2.8.9,3.5,3.6,1.9,7.3,3.8,11,5.7,1.6.8,2.8.3,3.7-1.2.1-.2,0-.4-.1-.6l-11.9-8.3h0Zm21.3,1.1c.2-.1.2-.4.2-.5-2.1-4.3-4.1-8.6-6.2-12.9-.6-1.3-1.7-1.7-3.1-1.3-1.6.4-2.4,2.1-1.6,3.5,2.2,3.6,4.5,7.1,6.8,10.6.9,1.4,2.3,1.6,3.9.6h0Zm31.3-10.3c.8-1.2.4-2.8-.8-3.6-1.2-.8-2.8-.6-3.4.7-2,3.7-4,7.4-5.8,11.1-.8,1.7-.4,2.8,1.2,3.8.2.1.4,0,.6-.1l8.3-11.8Zm-.7,21.1c.1.2.3.2.5.1,4.4-2.1,8.7-4.2,13-6.3,1.3-.6,1.7-2.7.8-3.9-.7-1-2-1.4-3.1-.7-3.6,2.2-7.2,4.5-10.8,6.8-1.4.9-1.6,2.3-.6,3.9h0Zm-10.7,30.4c-.2.1-.3.3-.2.5.2.4.4.9.6,1.2,1.9,4,3.9,8.1,5.8,12.1.6,1.1,2.1,1.4,3.4.7,1.2-.6,1.7-2.1,1.1-3.2-2.2-3.6-4.4-7.1-6.8-10.7-1-1.5-2.2-1.7-3.9-.8h0Zm13.1-18.6c0,.2.2.4.4.4,4.8.4,9.6.8,14.4,1.1,1.6.1,2.9-1.4,2.7-3-.1-1.2-1-2.1-2.2-2.1-4.3.2-8.6.3-12.9.6-1.6,0-2.4,1.2-2.4,3h0Zm-21.5,24c-.2-1.8-.9-2.6-2.4-3-.6-.2-1,0-1.1.7-.4,4.8-.8,9.5-1.2,14.3,0,1.3,1.2,2.5,2.6,2.5,1.3,0,2.4-1.1,2.5-2.4l-.5-12.2h0Zm17.1-13c-.1.2,0,.4.1.5,4,2.8,8.1,5.5,12.2,8.3,1,.7,2.6.1,3.4-1.1.6-1,.4-2.6-.7-3.2-3.8-2-7.6-4.1-11.5-6-1.4-.7-2.8,0-3.6,1.5Z" style="fill:#266baa;"/><path d="m174.6,340.6c0-10.8-8.8-19.4-19.6-19.3-10.5,0-19.1,8.9-19.1,19.4,0,10.9,8.7,19.5,19.8,19.3,11.1-.2,19.1-9.6,18.9-19.4Z" style="fill:#266baa;"/><path d="m348.5,46.5c0-.2-.2-.4-.4-.4-5-.4-9.9-.8-14.8-1.1-1.2,0-2.2,1.2-2.3,2.6,0,1.2.9,2.4,2.1,2.5,4.3.4,8.6.1,12.8-.5,1.8-.2,2.6-1.2,2.6-3.1Zm9.5,20.4c-.2-.1-.4,0-.6.1-2.7,4-5.4,7.9-8.1,11.8-.9,1.3-.6,2.4.5,3.5,1.1,1,3,.8,3.7-.5,1.9-3.6,3.9-7.2,5.7-10.9.9-1.8.5-2.9-1.3-4.1h0Zm-21.1-2.8c-1.3.6-1.7,2.2-1.1,3.4.6,1.3,2.1,1.9,3.3,1.2,3.6-2.2,7.2-4.4,10.7-6.7,1.4-.9,1.6-2.3.8-3.8-.1-.2-.3-.3-.5-.2l-13.2,6.1h0Zm37.7-53.9c0-.3,0-.7-.3-.9-.7-.9-2.2-1.4-3.2-1.1-1.2.4-1.8,1.1-1.7,2.6.1,4,.5,8,.6,12.1,0,1.5.8,2.2,2,2.6,1.1.4,1.4.2,1.5-.9l1.1-14.3h0Zm-34.6,16.2c-1.2-.8-2.8-.3-3.6.9-.8,1.2-.4,2.8.9,3.5,3.6,1.9,7.3,3.8,11,5.7,1.6.8,2.8.3,3.7-1.2.1-.2,0-.4-.1-.5l-11.9-8.3h0Zm21.3,1.1c.2-.1.2-.4.2-.5-2.1-4.3-4.1-8.6-6.2-12.9-.6-1.3-1.7-1.7-3.1-1.3-1.6.4-2.4,2.1-1.6,3.5,2.2,3.6,4.5,7.1,6.8,10.6.9,1.4,2.3,1.6,3.9.6h0Zm31.3-10.3c.8-1.2.4-2.8-.8-3.6-1.2-.8-2.8-.6-3.4.7-2,3.7-4,7.3-5.8,11.1-.8,1.7-.4,2.8,1.1,3.8.2.1.4,0,.6-.1l8.3-11.9Zm-.7,21.1c.1.2.4.2.5.1,4.4-2.1,8.7-4.2,13-6.3,1.3-.7,1.7-2.7.8-3.9-.7-1-2-1.4-3.1-.7-3.6,2.2-7.2,4.5-10.8,6.8-1.4.9-1.6,2.3-.6,3.9h0Zm-10.7,30.4c-.2.1-.3.3-.2.5.2.4.4.8.6,1.2,1.9,4,3.8,8.1,5.8,12.1.6,1.1,2.1,1.4,3.4.7,1.2-.6,1.7-2.1,1.1-3.2-2.2-3.6-4.4-7.2-6.8-10.7-1-1.5-2.2-1.7-3.9-.8h0Zm13-18.6c0,.2.2.4.4.4,4.8.4,9.5.8,14.4,1.1,1.6.1,2.9-1.4,2.7-3-.1-1.2-1-2.1-2.2-2.1-4.3.2-8.6.3-12.9.6-1.6,0-2.4,1.2-2.4,3h0Zm-21.5,24c-.2-1.8-.9-2.6-2.4-3-.7-.2-1,0-1.1.7-.4,4.8-.8,9.5-1.1,14.3-.1,1.3,1.2,2.5,2.6,2.5,1.3,0,2.5-1.1,2.5-2.4l-.5-12.2h0Zm17.1-13c-.1.2,0,.4.1.5,4,2.7,8.1,5.5,12.2,8.3,1,.7,2.6.1,3.4-1.1.6-1,.4-2.6-.7-3.2-3.8-2-7.6-4.1-11.5-6-1.4-.7-2.8,0-3.5,1.5Z" style="fill:#266baa;"/><path d="m390.7,48.2c0-10.8-8.8-19.4-19.6-19.3-10.5,0-19.1,8.9-19.1,19.4,0,10.9,8.7,19.5,19.8,19.3,11.1-.2,19.1-9.6,18.9-19.4Z" style="fill:#266baa;"/><path d="m348.5,192.7c0-.2-.2-.4-.4-.4-5-.4-9.9-.8-14.8-1.1-1.2,0-2.2,1.2-2.3,2.6,0,1.2.9,2.4,2.1,2.5,4.3.4,8.6.1,12.8-.5,1.8-.2,2.6-1.2,2.6-3.1Zm9.5,20.4c-.2-.1-.4,0-.6.1-2.7,4-5.4,7.9-8.1,11.8-.9,1.3-.6,2.5.5,3.5,1.1,1,3,.8,3.7-.5,1.9-3.6,3.9-7.2,5.7-10.9.9-1.8.5-2.9-1.3-4.1h0Zm-21.1-2.8c-1.3.6-1.7,2.1-1.1,3.4.6,1.3,2.1,1.9,3.3,1.2,3.6-2.2,7.2-4.4,10.7-6.7,1.4-.9,1.6-2.3.8-3.8-.1-.2-.3-.3-.5-.2l-13.2,6.1h0Zm37.7-53.9c0-.3,0-.7-.3-.9-.7-.9-2.2-1.4-3.2-1.1-1.2.4-1.8,1.1-1.7,2.6.1,4,.4,8,.6,12.1,0,1.5.8,2.2,2.1,2.6,1.1.4,1.4.2,1.5-.9l1.1-14.3h0Zm-34.6,16.2c-1.2-.8-2.8-.3-3.6.9-.8,1.2-.4,2.8.9,3.5,3.7,1.9,7.3,3.8,11,5.7,1.6.8,2.8.3,3.7-1.2.1-.2,0-.4-.1-.6l-11.9-8.3h0Zm21.3,1.1c.2-.1.2-.4.2-.5-2.1-4.3-4.1-8.7-6.2-12.9-.6-1.3-1.7-1.7-3.1-1.3-1.6.4-2.4,2.1-1.6,3.5,2.2,3.6,4.5,7.1,6.8,10.6.9,1.4,2.3,1.6,3.9.6h0Zm31.3-10.3c.8-1.2.4-2.8-.8-3.6-1.2-.8-2.8-.6-3.4.7-2,3.7-4,7.3-5.8,11.1-.8,1.7-.4,2.8,1.1,3.8.2.1.4,0,.6-.1l8.3-11.8Zm-.7,21.1c.1.2.4.2.5.1,4.4-2.1,8.7-4.2,13-6.3,1.3-.6,1.7-2.7.8-3.9-.7-1-2-1.4-3.1-.7-3.6,2.2-7.2,4.5-10.8,6.8-1.4.9-1.6,2.3-.6,3.9h0Zm-10.7,30.4c-.2.1-.3.3-.2.5.2.4.4.8.6,1.2,1.9,4,3.9,8.1,5.8,12.1.5,1.1,2.1,1.4,3.4.7,1.2-.6,1.7-2.1,1.1-3.2-2.2-3.6-4.4-7.1-6.8-10.7-1-1.5-2.2-1.7-3.9-.8h0Zm13-18.6c0,.2.2.4.4.4,4.8.4,9.5.8,14.3,1.1,1.6.1,2.9-1.4,2.7-3-.1-1.2-1-2.1-2.2-2.1-4.3.2-8.6.3-12.9.6-1.6,0-2.4,1.2-2.4,3h0Zm-21.5,24c-.2-1.8-.9-2.6-2.5-3-.6-.2-1,0-1.1.7-.4,4.8-.8,9.5-1.1,14.3-.1,1.3,1.2,2.5,2.6,2.5,1.3,0,2.5-1.1,2.5-2.4l-.5-12.2h0Zm17.1-13c-.1.2,0,.4.1.5,4,2.8,8.1,5.5,12.2,8.3,1,.7,2.6.1,3.4-1.1.6-1,.4-2.6-.7-3.2-3.8-2-7.6-4.1-11.5-6-1.4-.7-2.8,0-3.5,1.5Z" style="fill:#266baa;"/><path d="m390.7,194.4c0-10.8-8.8-19.4-19.6-19.3-10.5,0-19.1,8.9-19.1,19.4,0,10.9,8.7,19.5,19.8,19.3,11.1-.2,19.1-9.6,18.9-19.4Z" style="fill:#266baa;"/><path d="m348.5,338.9c0-.2-.2-.4-.4-.4-5-.4-9.9-.8-14.8-1.1-1.2,0-2.2,1.2-2.3,2.6,0,1.2.9,2.4,2.1,2.5,4.3.4,8.6.1,12.8-.5,1.8-.2,2.6-1.2,2.6-3.1Zm9.5,20.4c-.2-.1-.4,0-.6.1-2.7,4-5.4,7.9-8.1,11.8-.9,1.3-.6,2.5.5,3.5,1.1,1,3,.8,3.7-.5,1.9-3.6,3.9-7.2,5.7-10.9.9-1.8.5-2.9-1.3-4.1h0Zm-21.1-2.8c-1.3.6-1.7,2.1-1.1,3.5.6,1.3,2.1,1.9,3.3,1.2,3.6-2.2,7.2-4.4,10.7-6.7,1.4-.9,1.6-2.3.8-3.8-.1-.2-.3-.3-.5-.2l-13.2,6.1h0Zm37.7-53.9c0-.3,0-.7-.3-1-.7-.9-2.2-1.4-3.2-1.1-1.2.4-1.8,1.1-1.7,2.6.1,4,.4,8,.6,12.1,0,1.5.8,2.2,2.1,2.6,1.1.4,1.4.2,1.5-.9l1.1-14.3h0Zm-34.6,16.2c-1.2-.8-2.8-.3-3.6.9-.8,1.2-.4,2.8.9,3.5,3.7,1.9,7.3,3.8,11,5.7,1.6.8,2.8.3,3.7-1.2.1-.2,0-.4-.1-.6l-11.9-8.3h0Zm21.3,1.1c.2-.1.2-.4.2-.5-2.1-4.3-4.1-8.6-6.2-12.9-.6-1.3-1.7-1.7-3.1-1.3-1.6.4-2.4,2.1-1.6,3.5,2.2,3.6,4.5,7.1,6.8,10.6.9,1.4,2.3,1.6,3.9.6h0Zm31.3-10.3c.8-1.2.4-2.8-.8-3.6-1.2-.8-2.8-.6-3.4.7-2,3.7-4,7.4-5.8,11.1-.8,1.7-.4,2.8,1.1,3.8.2.1.4,0,.6-.1l8.3-11.8Zm-.7,21.1c.1.2.4.2.5.1,4.4-2.1,8.7-4.2,13-6.3,1.3-.6,1.7-2.7.8-3.9-.7-1-2-1.4-3.1-.7-3.6,2.2-7.2,4.5-10.8,6.8-1.4.9-1.6,2.3-.6,3.9h0Zm-10.7,30.4c-.2.1-.3.3-.2.5.2.4.4.9.6,1.2,1.9,4,3.9,8.1,5.8,12.1.5,1.1,2.1,1.4,3.4.7,1.2-.6,1.7-2.1,1.1-3.2-2.2-3.6-4.4-7.1-6.8-10.7-1-1.5-2.2-1.7-3.9-.8h0Zm13-18.6c0,.2.2.4.4.4,4.8.4,9.5.8,14.3,1.1,1.6.1,2.9-1.4,2.7-3-.1-1.2-1-2.1-2.2-2.1-4.3.2-8.6.3-12.9.6-1.6,0-2.4,1.2-2.4,3h0Zm-21.5,24c-.2-1.8-.9-2.6-2.5-3-.6-.2-1,0-1.1.7-.4,4.8-.8,9.5-1.1,14.3-.1,1.3,1.2,2.5,2.6,2.5,1.3,0,2.5-1.1,2.5-2.4l-.5-12.2h0Zm17.1-13c-.1.2,0,.4.1.5,4,2.8,8.1,5.5,12.2,8.3,1,.7,2.6.1,3.4-1.1.6-1,.4-2.6-.7-3.2-3.8-2-7.6-4.1-11.5-6-1.4-.7-2.8,0-3.5,1.5Z" style="fill:#266baa;"/><path d="m390.7,340.6c0-10.8-8.8-19.4-19.6-19.3-10.5,0-19.1,8.9-19.1,19.4,0,10.9,8.7,19.5,19.8,19.3,11.1-.2,19.1-9.6,18.9-19.4Z" style="fill:#266baa;"/></svg>