<svg width="171" height="52" viewBox="0 0 171 52" fill="none" xmlns="http://www.w3.org/2000/svg">
<path d="M59.2545 22.5372C59.2545 18.1248 63.3345 16.4874 67.8961 16.4874C72.4578 16.4874 76.4811 18.1248 76.4811 22.5372V44.7105C76.4811 49.1507 72.4011 50.7603 67.8961 50.7603C63.3911 50.7603 59.2545 49.123 59.2545 44.7105V22.5372ZM69.1995 23.3975C69.1995 22.4817 69.1995 21.2052 67.8961 21.2052C66.5928 21.2052 66.5928 22.4817 66.5928 23.3975V43.656C66.5928 44.5718 66.5928 45.8483 67.8961 45.8483C69.1995 45.8483 69.1995 44.5718 69.1995 43.656V23.3975ZM79.2578 50.122V17.1257H87.8711C92.3761 17.1257 96.5128 18.763 96.5128 23.9803V26.5889C96.6828 29.4195 94.4728 31.8339 91.5828 32.0004H90.8461C95.4645 32.2502 96.5128 33.8043 96.5128 37.6062V44.1555C96.4845 46.1813 96.8528 48.1794 97.5895 50.0388H90.1378C89.4011 48.7345 89.0611 47.2359 89.1461 45.7651V38.189C89.1461 36.1354 89.1461 34.498 86.5678 34.498V50.0388L79.2578 50.122ZM86.4545 30.7516H87.3328C88.5228 30.7516 89.0328 30.2521 89.0328 28.6703V23.786C89.0328 22.2042 88.5228 21.7047 87.3328 21.7047H86.4545V30.7516ZM99.0061 22.5372C99.0061 18.1248 103.086 16.4874 107.648 16.4874C112.209 16.4874 116.233 18.1248 116.233 22.5372V44.7105C116.233 49.1507 112.153 50.7603 107.648 50.7603C103.143 50.7603 99.0061 49.123 99.0061 44.7105V22.5372ZM109.008 23.3975C109.008 22.4817 109.008 21.2052 107.704 21.2052C106.401 21.2052 106.401 22.4817 106.401 23.3975V43.656C106.401 44.5718 106.401 45.8483 107.704 45.8483C109.008 45.8483 109.008 44.5718 109.008 43.656V23.3975ZM118.924 50.122V17.1257H128.614L131.929 38.1335L131.958 38.9105H132.071V17.0952H137.908V50.0915H128.869L124.874 24.8933L124.846 23.9775H124.789V50.0915H118.924V50.1193V50.122ZM153.463 22.5372C153.463 18.1248 157.543 16.4874 162.104 16.4874C166.666 16.4874 170.689 18.1248 170.689 22.5372V44.7105C170.689 49.1507 166.609 50.7603 162.104 50.7603C157.599 50.7603 153.463 49.123 153.463 44.7105V22.5372ZM163.379 23.3975C163.379 22.4817 163.379 21.2052 162.076 21.2052C160.773 21.2052 160.773 22.4817 160.773 23.3975V43.656C160.773 44.5718 160.773 45.8483 162.076 45.8483C163.379 45.8483 163.379 44.5718 163.379 43.656V23.3975ZM152.244 17.1257H139.324V22.0932H142.129V50.122H149.468V22.0932H152.273C152.244 22.0932 152.244 17.1257 152.244 17.1257ZM62.1161 9.05008H43.7845V14.3506H49.1961V50.122H56.6761V14.3506H62.1161V9.05008ZM43.2178 51.3153V51.1211C38.3728 49.0675 33.1311 48.1794 27.8895 48.4847H0.689453V50.2885H37.3811C39.3645 50.4273 41.3195 50.8158 43.2178 51.4541M32.3945 1.55722L31.3178 0.558169C31.0061 0.419412 30.6378 0.419412 30.2978 0.558169L28.6545 1.44621V9.27209C27.4078 11.2702 25.5945 12.9075 23.4411 13.9621C22.9595 14.1563 22.6478 14.6836 22.7045 15.1831V44.3775C21.6278 44.3775 19.8711 44.6273 19.8711 44.6273V19.9286C19.8711 19.0128 19.4461 18.7353 18.5678 18.5133C15.3095 17.764 12.1078 16.7094 9.07612 15.3774V10.2989L7.68779 9.6051C7.29112 9.46634 6.89445 9.46634 6.49779 9.6051C5.90279 9.88261 5.33612 10.2156 4.79779 10.5764C2.36112 11.9362 0.83112 14.4033 0.717786 17.1535V47.3469H3.46612V17.1535C3.43779 15.2941 4.42945 13.5458 6.07279 12.63H6.27112V47.3469H8.99112V18.2635C11.1445 19.0406 12.4761 19.5956 14.8278 20.3171L17.0661 20.8999V45.0713C14.4311 45.5431 11.8528 46.3201 9.41612 47.4024H14.6578C18.7945 45.5986 23.2995 44.655 27.8328 44.655L25.3111 44.4608V15.9602H25.5945C26.7278 15.2941 27.7478 14.4616 28.6261 13.518V47.3192H31.4595V4.66537C33.1595 6.85772 34.0945 9.5496 34.1511 12.297V47.6244C35.0011 47.6244 36.0495 47.8187 36.8995 48.0684V12.2415C36.8145 8.24529 35.1995 4.44335 32.3945 1.55722Z" fill="#2064AE"/>
</svg>
