<svg width="170" height="56" viewBox="0 0 170 56" fill="none" xmlns="http://www.w3.org/2000/svg">
<g clip-path="url(#clip0_366_1971)">
<path d="M134.743 30.3148C135.081 29.3673 135.431 28.4238 135.76 27.4763C136.388 25.6825 137.02 23.8928 137.619 22.091C137.736 21.7346 137.925 21.6051 138.263 21.6091C138.999 21.6172 139.735 21.6213 140.475 21.6213C140.745 21.6213 140.882 21.7184 140.974 21.9978C141.767 24.4273 142.571 26.8487 143.392 29.2701C143.537 29.6952 143.758 30.0921 143.983 30.5861C144.088 30.4241 144.16 30.3593 144.181 30.2783C144.7 28.1728 145.21 26.0672 145.725 23.9576C145.886 23.2895 146.031 22.6133 146.212 21.9492C146.252 21.8035 146.421 21.5889 146.534 21.5848C147.516 21.5565 148.497 21.5686 149.535 21.5686C149.101 23.1073 148.706 24.5407 148.296 25.97C147.427 29.0069 146.546 32.0397 145.673 35.0766C145.436 35.8945 145.444 35.8985 144.603 35.8985C144.052 35.8985 143.497 35.8985 142.946 35.8985C142.579 35.8985 142.374 35.7325 142.262 35.3681C141.348 32.5013 140.419 29.6426 139.49 26.7799C139.441 26.63 139.365 26.4883 139.236 26.2008C138.935 27.0552 138.673 27.7557 138.436 28.4643C137.647 30.825 136.867 33.1856 136.09 35.5463C136.002 35.8135 135.861 35.9107 135.579 35.9026C134.928 35.8823 134.272 35.8702 133.62 35.9026C133.234 35.9228 133.089 35.7568 132.993 35.4207C132.462 33.5824 131.926 31.7401 131.375 29.9058C130.579 27.2496 129.77 24.5974 128.962 21.9452C128.873 21.6617 128.986 21.5646 129.239 21.5646C130.213 21.5646 131.182 21.5524 132.152 21.5889C132.297 21.5929 132.526 21.8156 132.562 21.9776C133.198 24.6257 133.809 27.2779 134.429 29.9261C134.461 30.0597 134.529 30.1892 134.578 30.3188C134.634 30.3188 134.686 30.3148 134.743 30.3107V30.3148Z" fill="#2064AE"/>
<path d="M76.5835 26.6301C76.5835 28.0149 76.5915 29.3956 76.5835 30.7804C76.5634 33.3395 74.9059 35.4289 72.4237 36.0565C71.0156 36.4128 69.6116 36.4007 68.2116 36.0079C65.8943 35.356 64.2127 33.1613 64.1845 30.6711C64.1524 27.8043 64.1845 24.9375 64.1765 22.0707C64.1765 21.7023 64.2731 21.5282 64.6955 21.5565C65.4478 21.601 66.2041 21.5889 66.9564 21.5727C67.3305 21.5646 67.4351 21.6942 67.4351 22.0748C67.415 24.7391 67.4271 27.4035 67.4191 30.0678C67.4191 30.9586 67.7409 31.7077 68.3403 32.3434C69.8208 33.9104 72.4639 33.3598 73.176 31.3149C73.3168 30.91 73.3973 30.4606 73.3973 30.0314C73.4133 27.3832 73.4093 24.7351 73.3973 22.0869C73.3973 21.7063 73.4777 21.5362 73.8961 21.5524C74.6645 21.5848 75.4369 21.5767 76.2093 21.5646C76.5231 21.5565 76.6036 21.6739 76.5996 21.9776C76.5835 23.5284 76.5915 25.0793 76.5915 26.6341L76.5835 26.6301Z" fill="#2064AE"/>
<path d="M95.3418 21.5768C96.3274 21.5768 97.2648 21.5768 98.1981 21.5768C98.5361 21.5768 98.4958 21.8238 98.4958 22.0384C98.4958 23.0831 98.5079 24.1318 98.4838 25.1765C98.4757 25.5166 98.5723 25.6259 98.9022 25.6178C99.5539 25.6057 100.21 25.6057 100.861 25.634C100.99 25.6381 101.215 25.796 101.223 25.9013C101.28 26.4884 101.284 27.0796 101.3 27.6667C101.312 28.0554 101.155 28.2376 100.729 28.2133C100.129 28.1809 99.5217 28.2214 98.9183 28.2052C98.5924 28.1971 98.4838 28.3267 98.4878 28.6547C98.5039 29.7844 98.4797 30.9141 98.4958 32.0438C98.5079 32.9022 98.9504 33.6999 100.181 33.4205C100.499 33.3476 100.825 33.3234 101.199 33.2707C101.24 33.9874 101.292 34.6231 101.3 35.2588C101.304 35.6678 101.127 35.9513 100.664 36.0201C99.4614 36.2023 98.2705 36.2752 97.0998 35.8298C96.0056 35.4127 95.3378 34.4409 95.3378 33.2626C95.3378 31.7766 95.3176 30.2946 95.3498 28.8086C95.3619 28.3065 95.1929 28.1728 94.7222 28.2052C94.1268 28.2457 93.5274 28.2133 92.8636 28.2133C92.8636 29.5172 92.8636 30.7805 92.8636 32.0398C92.8636 33.2991 92.8636 34.5624 92.8636 35.8581H89.7418C89.7297 35.7245 89.7055 35.599 89.7055 35.4694C89.7055 32.3678 89.7055 29.2621 89.6895 26.1604C89.6895 25.7312 89.8262 25.6138 90.2326 25.6178C91.7251 25.634 93.2136 25.6219 94.7062 25.6178C95.378 25.6178 95.3579 25.6097 95.3458 24.9538C95.3297 23.8565 95.3418 22.7632 95.3418 21.5849V21.5768Z" fill="#2064AE"/>
<path d="M120.924 26.5086C120.924 25.5246 120.928 24.5366 120.924 23.5527C120.924 23.0466 120.908 22.5404 120.88 22.0383C120.864 21.7022 120.977 21.5443 121.335 21.5524C122.123 21.5727 122.908 21.5686 123.696 21.5524C123.99 21.5484 124.066 21.6658 124.066 21.9411C124.062 26.4235 124.058 30.91 124.066 35.3924C124.066 35.7933 123.934 35.9147 123.543 35.8945C122.924 35.8621 122.3 35.85 121.685 35.8945C121.218 35.9309 121.105 35.692 121.085 35.3114C121.077 35.1333 121.085 34.9551 121.085 34.704C120.944 34.785 120.872 34.8012 120.84 34.8498C119.307 36.9108 115.308 36.433 113.876 34.0076C112.476 31.6307 112.882 28.2578 114.874 26.3871C115.429 25.8648 116.101 25.553 116.845 25.4639C118.221 25.2979 119.561 25.3586 120.639 26.4276C120.683 26.4721 120.747 26.4964 120.808 26.5207C120.836 26.5288 120.872 26.5126 120.92 26.5045L120.924 26.5086ZM121.085 30.8209C121.113 29.2984 120.164 28.1363 118.788 28.193C117.135 28.2578 116.165 29.1365 116.141 30.6994C116.113 32.4973 117.396 33.3557 118.696 33.3516C120.24 33.3435 121.238 32.1328 121.085 30.8209Z" fill="#2064AE"/>
<path d="M169.845 25.6097C169.262 27.0916 168.727 28.4319 168.208 29.7762C167.093 32.6795 165.995 35.5867 164.873 38.4859C164.406 39.6966 163.625 40.636 162.294 40.8709C161.204 41.0652 160.093 41.0774 159.015 40.7413C158.846 40.6887 158.625 40.4012 158.637 40.2433C158.701 39.5468 158.842 38.8544 158.959 38.1337C159.502 38.1782 160.045 38.2511 160.592 38.2592C161.578 38.2673 161.932 37.9069 162.37 37.008C162.744 36.2387 162.636 35.6191 162.306 34.8781C161.014 31.979 159.779 29.0474 158.528 26.1279C158.472 25.9943 158.436 25.8486 158.363 25.6097C158.862 25.6097 159.305 25.6097 159.743 25.6097C160.061 25.6097 160.379 25.6097 160.697 25.6097C161.706 25.6097 161.694 25.6097 162.064 26.5733C162.676 28.1768 163.295 29.7722 163.927 31.3675C164.032 31.6307 164.225 31.8575 164.378 32.1045C164.426 32.0923 164.47 32.0802 164.518 32.068C164.687 31.5659 164.856 31.0638 165.021 30.5577C165.5 29.0879 165.987 27.618 166.441 26.1401C166.558 25.7635 166.711 25.5854 167.133 25.5975C167.998 25.6299 168.863 25.6056 169.849 25.6056L169.845 25.6097Z" fill="#2064AE"/>
<path d="M112.175 31.8252H104.986C105.163 32.7322 105.666 33.3557 106.43 33.6068C107.657 34.0077 108.703 33.6149 109.472 32.4447C110.24 33.0237 110.968 33.5704 111.749 34.1534C110.827 35.1738 109.789 35.7609 108.566 36.0363C106.354 36.5343 103.988 35.6516 102.733 33.87C100.52 30.7238 102.222 26.3264 105.98 25.5368C107.186 25.2817 108.426 25.2656 109.568 25.8365C111.258 26.6828 112.026 28.1566 112.163 29.9909C112.207 30.578 112.171 31.1692 112.171 31.8252H112.175ZM104.962 29.5415C105.082 29.5779 105.179 29.6305 105.271 29.6305C106.442 29.6386 107.609 29.6427 108.78 29.6386C109.097 29.6386 109.109 29.4645 109.029 29.1973C108.763 28.3105 107.919 27.6262 107.086 27.6465C105.951 27.6748 105.259 28.2781 104.962 29.5415Z" fill="#2064AE"/>
<path d="M87.9591 35.8621H84.8734C84.8734 35.4774 84.8815 35.109 84.8734 34.7445C84.8412 33.0925 84.8493 31.4404 84.7527 29.7924C84.6884 28.7113 84.1774 28.2457 83.2803 28.2092C82.2544 28.1647 81.6067 28.6668 81.4016 29.7074C81.3332 30.0516 81.309 30.4079 81.309 30.7602C81.301 32.2948 81.2929 33.8294 81.3171 35.364C81.3251 35.7892 81.1803 35.9147 80.7659 35.9026C79.9291 35.8742 79.0924 35.8945 78.1992 35.8945C78.1791 35.5908 78.1429 35.3155 78.1429 35.0361C78.1389 32.068 78.1389 29.1 78.1309 26.1279C78.1309 25.8526 78.1309 25.6137 78.505 25.6137C79.374 25.6178 80.2429 25.6137 81.1521 25.6137C81.1883 25.9781 81.2246 26.3183 81.2688 26.7637C81.4579 26.6219 81.5826 26.5491 81.6792 26.4519C82.7855 25.3505 84.7568 25.0468 86.1447 25.7554C87.2551 26.3223 87.7418 27.3265 87.8062 28.4684C87.943 30.8897 87.9551 33.3152 88.0154 35.7406C88.0154 35.769 87.9872 35.7973 87.9591 35.858V35.8621Z" fill="#2064AE"/>
<path d="M155.446 29.2741C155.196 28.8814 155.039 28.5858 154.838 28.3226C154.215 27.5127 152.774 27.29 151.905 27.8569C151.724 27.9743 151.539 28.0958 151.37 28.2335C150.767 28.7194 150.775 28.7153 150.183 28.1727C149.801 27.8245 149.399 27.4965 148.96 27.1159C149.741 26.3952 150.477 25.9862 151.294 25.723C152.613 25.2979 153.969 25.2857 155.309 25.5651C156.821 25.885 157.908 27.0957 158.02 28.7437C158.173 30.991 158.173 33.2504 158.246 35.5058C158.254 35.7892 158.129 35.8945 157.855 35.8904C157.204 35.8783 156.548 35.858 155.896 35.8985C155.446 35.9228 155.293 35.7285 155.289 35.3235C155.289 35.1737 155.277 35.028 155.261 34.7607C155.047 34.947 154.902 35.0684 154.762 35.198C153.398 36.4452 150.843 36.4978 149.471 35.2992C147.87 33.8982 148.083 31.4242 149.898 30.3107C150.843 29.7317 151.897 29.5738 152.967 29.4725C153.535 29.4199 154.102 29.4077 154.669 29.3713C154.894 29.3551 155.12 29.3187 155.45 29.2782L155.446 29.2741ZM154.09 31.4647C153.354 31.5133 152.525 31.4971 151.821 32.0194C151.406 32.3272 151.334 33.2544 151.704 33.5986C152.601 34.4287 154.649 34.0157 155.063 32.8698C155.578 31.4404 155.538 31.5416 154.09 31.4607V31.4647Z" fill="#2064AE"/>
<path d="M71.377 50.3622H69.2006V48.9085H72.9782C72.9782 50.5646 72.9822 52.2126 72.9661 53.8566C72.9661 53.9861 72.8294 54.1967 72.7127 54.2331C70.9828 54.7919 69.2288 55.1442 67.4466 54.5166C65.2339 53.7391 64.0391 51.8684 64.0391 49.5078C64.0431 46.0458 67.0764 44.0698 70.0857 44.4747C71.0834 44.6083 72.0127 44.8958 72.8133 45.5275C72.8656 45.568 72.9018 45.6247 72.9863 45.7178C72.6121 46.147 72.242 46.5762 71.9403 46.9244C71.2523 46.6329 70.6569 46.2725 70.0092 46.1267C67.2414 45.4991 65.6121 48.1918 65.9983 50.1678C66.1874 51.1396 66.5655 51.9292 67.3822 52.5284C68.5408 53.3788 69.7799 53.1885 71.0351 52.9334C71.1638 52.905 71.3449 52.6904 71.3489 52.5527C71.3811 51.8522 71.365 51.1436 71.365 50.3581L71.377 50.3622Z" fill="#2064AE"/>
<path d="M103.432 51.7509C102.76 51.7509 102.092 51.7469 101.421 51.7509C100.902 51.755 100.805 51.9291 101.058 52.3583C101.622 53.3099 103.267 53.6014 104.052 52.8402C104.406 52.5 104.623 52.5243 104.965 52.828C105.709 53.488 105.721 53.5326 104.888 54.1237C103.605 55.0348 101.409 54.9457 100.387 53.9577C98.8539 52.4798 98.9464 50.4957 99.8395 49.115C100.531 48.046 102.141 47.4508 103.388 47.7625C104.816 48.1189 105.721 49.119 105.858 50.5929C105.987 51.9413 106.111 51.7955 104.836 51.7712C104.365 51.7631 103.899 51.7712 103.428 51.7712C103.428 51.7631 103.428 51.759 103.428 51.7509H103.432ZM100.962 50.4957C101.927 50.4957 102.897 50.4957 103.863 50.4957C104.172 50.4957 104.221 50.3378 104.136 50.0665C103.935 49.3984 103.456 49.0947 102.809 49.0137C101.819 48.8922 100.958 49.5725 100.966 50.4957H100.962Z" fill="#2064AE"/>
<path d="M83.5267 51.7469C82.8589 51.7469 82.1871 51.7429 81.5192 51.7469C81.0485 51.751 80.9761 51.8684 81.2054 52.2895C81.5514 52.9374 82.0825 53.322 82.8307 53.2492C83.4181 53.1884 84.102 53.3018 84.4319 52.577C84.452 52.5325 84.6451 52.5041 84.7055 52.5487C85.0152 52.7754 85.329 53.0062 85.5865 53.2856C85.6469 53.3544 85.5503 53.6662 85.4417 53.7836C84.5808 54.7109 83.4664 54.8526 82.2957 54.7109C80.8675 54.5368 79.729 53.5043 79.4876 52.0749C79.2141 50.4552 79.548 49.0988 81.0043 48.2282C82.3158 47.4467 83.7641 47.4913 84.9348 48.4307C85.9083 49.2122 86.0894 50.3176 86.0974 51.4675C86.0974 51.5728 85.8359 51.7591 85.6911 51.7672C84.975 51.7996 84.2549 51.7793 83.5348 51.7793C83.5348 51.7672 83.5348 51.755 83.5348 51.7429L83.5267 51.7469ZM81.0566 50.5038C82.01 50.5038 82.9555 50.5038 83.8968 50.5038C84.3675 50.5038 84.444 50.3662 84.2549 49.9167C83.9853 49.281 83.2572 48.9004 82.521 49.0137C81.7606 49.1271 81.1491 49.7264 81.0566 50.5079V50.5038Z" fill="#2064AE"/>
<path d="M155.727 51.1193C155.63 49.3134 157.268 47.6694 159.295 47.6735C161.335 47.6735 162.956 49.2607 162.928 51.2529C162.904 52.9859 161.496 54.8486 159.122 54.7595C157.601 54.7028 155.586 53.3423 155.731 51.1193H155.727ZM157.469 51.1476C157.469 51.2813 157.453 51.4189 157.469 51.5526C157.569 52.249 157.935 52.8037 158.555 53.0872C159.154 53.3625 159.834 53.322 160.377 52.9374C161.343 52.2611 161.391 50.4107 160.53 49.6009C159.939 49.0461 159.231 48.9854 158.571 49.2729C157.819 49.6009 157.428 50.2811 157.465 51.1436L157.469 51.1476Z" fill="#2064AE"/>
<path d="M128.797 51.1679C128.813 53.2209 127.297 54.7312 125.205 54.7393C123.169 54.7514 121.576 53.1763 121.584 51.1558C121.588 49.2608 123.213 47.6978 125.164 47.6695C127.442 47.6371 128.898 49.5564 128.797 51.1679ZM127.087 51.1963C127.1 50.0342 126.279 49.111 125.229 49.1069C124.207 49.1069 123.306 50.0625 123.29 51.172C123.274 52.2814 124.163 53.2047 125.261 53.2087C126.355 53.2168 127.075 52.4232 127.092 51.1963H127.087Z" fill="#2064AE"/>
<path d="M134.732 51.2448C134.607 49.4753 136.084 47.6613 138.333 47.6816C140.308 47.6978 141.901 49.2364 141.909 51.1557C141.917 53.241 140.388 54.723 138.252 54.7514C136.526 54.7757 134.591 53.2208 134.732 51.2408V51.2448ZM138.32 49.1514C137.258 49.0178 136.361 50.192 136.446 51.4027C136.522 52.4758 137.25 53.2329 138.324 53.2248C139.475 53.2167 140.195 52.411 140.187 51.1436C140.179 49.9491 139.415 49.1352 138.324 49.1514H138.32Z" fill="#2064AE"/>
<path d="M91.609 50.2446C91.0618 49.0825 89.8228 48.706 88.8492 49.4308C88.3664 49.7911 88.121 49.617 87.8233 49.2769C87.7026 49.1392 87.5779 49.0056 87.4452 48.8558C87.5216 48.7424 87.5739 48.6331 87.6543 48.5602C88.6159 47.6694 91.0377 47.2766 92.2406 48.3091C92.7274 48.7303 93.0653 49.2404 93.0894 49.8559C93.1458 51.3177 93.1176 52.7875 93.1256 54.2533C93.1256 54.561 92.9808 54.6785 92.6831 54.6218C92.5866 54.6015 92.4779 54.5853 92.3854 54.6015C91.959 54.6825 91.6251 54.6299 91.5889 54.0913C91.5889 54.0306 91.5245 53.9739 91.4802 53.901C91.3314 54.0022 91.2348 54.0589 91.1463 54.1278C90.1607 54.9173 88.8733 54.9497 87.8475 54.2047C86.7451 53.403 86.8216 51.5768 88.0567 51.0099C88.7687 50.6819 89.5894 50.5807 90.3659 50.4066C90.7682 50.3175 91.1825 50.2973 91.613 50.2406L91.609 50.2446ZM89.863 53.3625C90.8687 53.3827 91.617 52.7146 91.5808 51.925C91.5728 51.7874 91.3958 51.5363 91.3274 51.5485C90.6113 51.6497 89.8871 51.7428 89.1992 51.9615C88.998 52.0263 88.8049 52.4717 88.809 52.7389C88.809 52.9211 89.1388 53.1398 89.3641 53.2693C89.5411 53.3706 89.7825 53.3544 89.863 53.3706V53.3625Z" fill="#2064AE"/>
<path d="M114.633 46.2441V44.7338C114.971 44.7176 115.301 44.6893 115.626 44.6893C117.739 44.6771 119.847 44.6771 121.959 44.6569C122.26 44.6569 122.377 44.7419 122.373 45.0577C122.345 46.5438 122.55 46.2239 121.243 46.2441C120.659 46.2522 120.08 46.2441 119.448 46.2441V54.5611H117.646C117.646 52.8199 117.646 51.1395 117.646 49.4551C117.646 48.544 117.626 47.633 117.646 46.726C117.654 46.3535 117.566 46.2239 117.175 46.2401C116.343 46.2725 115.51 46.2482 114.633 46.2482V46.2441Z" fill="#2064AE"/>
<path d="M145.191 54.5368C144.681 54.5692 144.23 54.5894 143.783 54.6259C143.429 54.6542 143.417 54.4153 143.413 54.1683C143.409 52.8038 143.405 51.4392 143.401 50.0706C143.401 49.4794 143.401 48.8923 143.385 48.3011C143.377 47.9812 143.502 47.8233 143.832 47.8598C143.932 47.8719 144.033 47.8679 144.133 47.8719C144.721 47.8854 145.092 48.1661 145.248 48.7141C145.529 48.4509 145.775 48.1027 146.109 47.9367C147.541 47.2362 149.106 48.0217 149.412 49.613C149.556 50.3662 149.577 51.1517 149.605 51.9211C149.637 52.7754 149.613 53.6338 149.613 54.5368H147.887C147.887 53.808 147.899 53.1034 147.887 52.4029C147.871 51.6943 147.855 50.9857 147.786 50.2852C147.734 49.7872 147.573 49.3175 146.978 49.2C146.342 49.0745 145.771 49.2932 145.481 49.856C145.32 50.1718 145.212 50.5524 145.204 50.9047C145.171 52.0992 145.191 53.2937 145.191 54.5368Z" fill="#2064AE"/>
<path d="M151.632 49.3498C151.165 49.1514 150.498 49.4591 150.441 48.706C150.421 48.4347 150.228 48.0176 150.715 47.9124C151.005 47.8476 151.306 47.8435 151.628 47.8071V45.8554C152.131 45.8554 152.61 45.8352 153.084 45.8756C153.177 45.8837 153.31 46.1348 153.318 46.2765C153.346 46.7786 153.33 47.2848 153.33 47.8597C153.72 47.8597 154.114 47.88 154.509 47.8557C154.846 47.8314 154.971 47.9731 154.943 48.293C154.935 48.4104 154.931 48.5278 154.939 48.6453C154.963 49.0866 154.83 49.2567 154.332 49.2162C153.278 49.1312 153.265 49.1676 153.278 50.2244C153.286 50.9168 153.29 51.6092 153.346 52.2935C153.41 53.1317 153.535 53.2613 154.388 53.1722C154.911 53.1155 154.939 53.3423 154.927 53.735C154.899 54.6299 154.842 54.6947 153.949 54.7311C152.742 54.7797 151.898 54.14 151.757 52.9171C151.64 51.8846 151.676 50.8318 151.644 49.7871C151.64 49.6373 151.644 49.4875 151.644 49.3458L151.632 49.3498Z" fill="#2064AE"/>
<path d="M96.727 47.8719C97.1937 47.8719 97.592 47.8759 97.9902 47.8719C98.3081 47.8679 98.4609 47.9974 98.4167 48.3295C98.4006 48.4631 98.4046 48.6007 98.4167 48.7344C98.4448 49.1595 98.2598 49.3053 97.8414 49.2648C96.727 49.1555 96.723 49.1676 96.7351 50.2771C96.7431 50.9493 96.719 51.6295 96.7753 52.2976C96.8356 53.0184 97.0328 53.156 97.7328 53.1763C98.0144 53.1844 98.4006 53.0062 98.4207 53.561C98.4529 54.4113 98.3402 54.638 97.7609 54.7109C96.1799 54.9134 95.154 54.0468 95.1098 52.4474C95.0856 51.5364 95.0776 50.6253 95.0937 49.7143C95.1017 49.3215 94.969 49.1798 94.5707 49.1838C93.9833 49.1919 93.6454 48.5926 93.9552 48.0703C94.0316 47.9407 94.3333 47.8679 94.5184 47.8881C94.9971 47.9407 95.1701 47.7585 95.1017 47.2969C95.0897 47.2159 95.1017 47.1269 95.1017 47.0459C95.1017 45.8149 95.1017 45.823 96.3247 45.8392C96.6466 45.8433 96.731 45.9769 96.727 46.2644C96.719 46.7665 96.727 47.2726 96.727 47.8719Z" fill="#2064AE"/>
<path d="M107.419 54.5935C107.399 54.4558 107.379 54.391 107.379 54.3303C107.379 52.2085 107.379 50.0908 107.379 47.884C107.858 47.884 108.32 47.8638 108.775 47.9002C108.884 47.9083 109 48.1067 109.073 48.2404C109.145 48.378 109.165 48.54 109.246 48.8275C109.797 48.0136 110.408 47.5156 111.39 47.6897C111.426 48.2039 111.458 48.7141 111.498 49.2486C111.313 49.2486 111.201 49.2486 111.088 49.2486C109.958 49.2202 109.185 49.8519 109.101 51.0019C109.024 52.0061 109.061 53.0183 109.081 54.0266C109.089 54.4882 109.012 54.7271 108.469 54.6097C108.139 54.5368 107.777 54.5975 107.423 54.5975L107.419 54.5935Z" fill="#2064AE"/>
<path d="M130.31 54.5773C130.31 53.2492 130.31 52.0061 130.31 50.759C130.31 49.9654 130.298 49.1717 130.318 48.3821C130.318 48.2283 130.435 47.9489 130.511 47.9489C130.986 47.9286 131.465 47.957 131.94 48.0096C131.976 48.0137 131.972 48.3659 131.984 48.5522C131.984 48.6008 131.976 48.6453 131.96 48.8316C132.68 48.2161 133.255 47.4549 134.297 47.6897V49.2851C134.108 49.2851 133.915 49.2851 133.722 49.2851C132.869 49.2972 132.209 49.8074 132.137 50.6618C132.04 51.7672 132.028 52.8807 132.028 53.9902C132.028 54.4518 131.911 54.634 131.437 54.5814C131.091 54.5409 130.737 54.5733 130.31 54.5733V54.5773Z" fill="#2064AE"/>
<path d="M76.6237 48.6412C77.1507 48.3254 77.6295 47.961 78.1605 47.7383C78.8364 47.4589 78.9812 47.5925 79.0214 48.3254C79.0255 48.4104 79.0295 48.4955 79.0335 48.5765C79.0496 49.0192 78.831 49.2473 78.3778 49.2608C77.545 49.2851 76.9456 49.7467 76.7323 50.6172C76.6277 51.0343 76.6157 51.4797 76.6036 51.917C76.5835 52.6742 76.5915 53.4314 76.6036 54.1886C76.6036 54.5044 76.503 54.6623 76.1651 54.6299C75.803 54.5935 75.4329 54.5773 74.9341 54.5449C74.9341 53.5569 74.9341 52.5689 74.9341 51.585C74.9341 50.4917 74.922 49.3984 74.918 48.3052C74.918 48.2242 74.926 48.0703 74.9502 48.0663C75.4088 47.9893 75.8714 47.9043 76.3341 47.8922C76.4226 47.8922 76.5312 48.1999 76.6036 48.374C76.6398 48.459 76.6197 48.5684 76.6237 48.6372V48.6412Z" fill="#2064AE"/>
<path d="M91.2511 21.5646C91.6534 21.5646 92.0517 21.5768 92.454 21.5646C92.7597 21.5525 92.8643 21.678 92.8603 21.9817C92.8482 22.6012 92.8523 23.2248 92.8683 23.8484C92.8764 24.1601 92.7436 24.2654 92.45 24.2614C91.6655 24.2492 90.881 24.2533 90.0965 24.2614C89.7948 24.2614 89.6861 24.1399 89.6942 23.8322C89.7063 23.2126 89.7022 22.5891 89.6821 21.9655C89.6741 21.6861 89.7666 21.5646 90.0522 21.5727C90.4545 21.5849 90.8528 21.5727 91.2551 21.5727C91.2551 21.5727 91.2551 21.5727 91.2551 21.5687L91.2511 21.5646Z" fill="#2064AE"/>
<path d="M49.1976 51.1112C48.8114 51.504 48.3447 51.6984 47.7976 51.6984C47.2504 51.6984 46.7838 51.504 46.3976 51.1112C46.0154 50.7225 45.8223 50.2528 45.8223 49.7021C45.8223 49.1514 46.0154 48.6858 46.4016 48.2971C46.7838 47.9083 47.2504 47.714 47.7935 47.714C48.3367 47.714 48.8073 47.9083 49.1936 48.2971C49.5798 48.6817 49.7729 49.1514 49.7729 49.7021C49.7729 50.2528 49.5798 50.7225 49.1936 51.1112M46.5907 48.4914C46.2608 48.8235 46.0958 49.2284 46.0958 49.7021C46.0958 50.1759 46.2608 50.5848 46.5866 50.9209C46.9165 51.257 47.3188 51.4271 47.7935 51.4271C48.2683 51.4271 48.6665 51.257 48.9964 50.9209C49.3263 50.5848 49.4913 50.1799 49.4913 49.7021C49.4913 49.2243 49.3263 48.8235 48.9964 48.4914C48.6625 48.1553 48.2642 47.9853 47.7935 47.9853C47.3229 47.9853 46.9246 48.1553 46.5907 48.4914ZM47.7533 48.6008C48.0229 48.6008 48.22 48.6291 48.3447 48.6777C48.57 48.7708 48.6826 48.9571 48.6826 49.2324C48.6826 49.4268 48.6102 49.5725 48.4694 49.6616C48.393 49.7102 48.2884 49.7467 48.1556 49.7669C48.3246 49.7953 48.4493 49.8641 48.5257 49.9815C48.6062 50.0989 48.6424 50.2123 48.6424 50.3216V50.4796C48.6424 50.5322 48.6424 50.5848 48.6464 50.6415C48.6464 50.6982 48.6545 50.7347 48.6665 50.7549L48.6786 50.7832H48.3206C48.3206 50.7832 48.3206 50.7711 48.3165 50.763C48.3165 50.7549 48.3165 50.7468 48.3125 50.7387L48.3045 50.6699V50.4958C48.3045 50.2447 48.2361 50.0787 48.0993 49.9977C48.0188 49.9532 47.878 49.9289 47.6729 49.9289H47.3711V50.7873H46.9889V48.6048H47.7493L47.7533 48.6008ZM48.1677 48.9449C48.0711 48.8882 47.9183 48.8639 47.705 48.8639H47.3792V49.6535H47.7251C47.8861 49.6535 48.0068 49.6373 48.0912 49.6049C48.2401 49.5442 48.3165 49.4308 48.3165 49.2648C48.3165 49.0988 48.2683 49.0016 48.1717 48.9449H48.1677Z" fill="#2064AE"/>
<path d="M46.5067 36.9068C47.4079 36.097 47.4843 34.7041 46.6797 33.7971C45.8751 32.89 44.4912 32.8131 43.5941 33.6229L35.5078 40.9033C37.986 43.187 37.7285 44.7905 37.7285 44.7905L46.5067 36.9068Z" fill="#2064AE"/>
<path d="M31.1591 36.2994L29.4453 34.4772L34.8764 29.5494C35.3833 29.0838 36.1718 29.1202 36.6344 29.6304C37.1011 30.1447 37.0729 30.9383 36.566 31.4039L31.1551 36.2994" fill="#2064AE"/>
<path d="M34.586 39.9355L32.0957 37.2792L38.5084 31.4201C39.2406 30.7277 40.3871 30.7642 41.0751 31.5011C41.763 32.234 41.7228 33.3921 40.9946 34.0804L34.586 39.9355Z" fill="#2064AE"/>
<path d="M16.7639 28.0634C19.1576 28.2578 20.5415 28.4117 22.2593 29.424C23.6634 30.25 24.9226 31.57 26.1134 32.8657L27.1473 33.9914L35.6882 43.0331C36.1186 43.5271 36.3801 44.179 36.3801 44.8876C36.3801 46.4425 35.129 47.7058 33.5801 47.7058C32.7996 47.7058 32.0916 47.3819 31.5807 46.8596L23.9208 38.7451L23.9128 38.7329C23.7921 38.6034 23.6191 38.5224 23.43 38.5224C23.0599 38.5224 22.7582 38.8261 22.7582 39.1986C22.7582 39.3768 22.8266 39.5428 22.9392 39.6642L22.9593 39.6885L29.9755 47.143C30.6956 47.884 31.5766 48.5886 32.4134 48.8841C33.2663 49.1919 34.8876 49.0583 35.5997 48.5481C36.0261 48.2444 36.4204 47.9083 36.8025 47.5601L49.4429 36.0848L49.4952 36.0524C49.9457 35.7285 50.5009 35.5382 51.0963 35.5382C52.6251 35.5382 53.8641 36.7853 53.8641 38.324C53.8641 39.1298 53.5262 39.8545 52.9831 40.3647L44.1285 48.3942C42.2055 50.0382 40.2704 52.3826 37.9169 53.5731C31.4922 56.8245 25.5864 55.1644 20.9157 51.67C18.6185 49.9491 16.3254 48.0541 13.292 47.0337C11.8317 46.5397 8.02592 46.4385 4.89601 46.4425H0V28.0472V27.9622C0.510923 20.4875 3.54428 13.7659 8.20695 8.84619C13.0225 3.75642 19.6243 0.585938 26.8979 0.585938C34.3968 0.585938 41.1836 3.95483 46.0354 9.32399C50.8911 14.6891 53.8641 22.0667 53.8682 30.1811C53.8682 31.0355 53.8682 31.6753 53.7998 32.5135C53.7153 33.5905 52.8222 34.4085 51.7682 34.4085C51.7159 34.4085 51.6595 34.4085 51.6072 34.4004C50.4848 34.3113 49.644 33.3233 49.7325 32.1936C49.7888 31.4607 49.7848 30.9262 49.7848 30.1771C49.7848 23.0789 47.1819 16.6853 43.0181 12.0855C38.8462 7.48568 33.1657 4.69177 26.8979 4.68772C20.8191 4.68772 15.2955 7.31562 11.1598 11.6725C7.2012 15.8472 4.5621 21.601 4.08738 28.0553H5.64429C5.88567 22.257 8.19488 17.0133 11.8236 13.1545C15.6576 9.0689 21.0001 6.52199 26.8939 6.52199C32.7876 6.52199 38.1301 9.0689 41.9641 13.1545C45.802 17.236 48.1635 22.8684 48.1635 29.0636C48.1635 29.7641 48.1314 30.4565 48.075 31.1448C48.0026 31.983 47.2704 32.6025 46.4377 32.5296C45.6049 32.4568 44.9894 31.7158 45.0618 30.8816C45.1141 30.2824 45.1382 29.679 45.1382 29.0636C45.1382 23.6499 43.0784 18.7706 39.7635 15.2479C36.4485 11.7251 31.9106 9.56694 26.8898 9.56694C21.8731 9.56694 17.3311 11.7211 14.0162 15.2479C10.9104 18.552 8.90696 23.0465 8.66557 28.0594H10.5001C10.5846 23.492 12.3909 19.3497 15.2794 16.329C18.2363 13.2395 22.3478 11.3121 26.8818 11.3121C31.4157 11.3121 35.5272 13.2355 38.4801 16.329C41.4411 19.4185 43.2635 23.6863 43.2635 28.3833C43.2635 28.9057 43.2434 29.4199 43.1991 29.9301C43.1428 30.5901 42.5635 31.0841 41.9037 31.0234C41.2439 30.9667 40.7572 30.3795 40.8175 29.7195C40.8537 29.2782 40.8738 28.8328 40.8738 28.3793C40.8738 24.3139 39.2968 20.6454 36.7623 17.9932C34.2198 15.341 30.7358 13.7173 26.8858 13.7133C23.0318 13.7133 19.5478 15.341 17.0093 17.9932C14.5392 20.5725 12.9823 24.1155 12.8978 28.0513H14.7966C14.9455 21.2325 20.2639 15.7054 26.8939 15.7014C33.6042 15.7054 39.0393 21.5403 39.0514 28.4805C39.0514 29.0271 38.6089 29.4725 38.0658 29.4725C37.5227 29.4725 37.0801 29.0271 37.0801 28.4805C37.0801 25.5287 35.8772 22.7064 34.0387 20.7831C32.2002 18.8597 29.6778 17.6814 26.8898 17.6814C24.1019 17.6814 21.5835 18.8597 19.7409 20.7831C17.9628 22.6457 16.8363 25.1966 16.7639 28.0351V28.0513" fill="#2064AE"/>
<path d="M27.682 23.6094C27.497 23.7835 27.2556 23.905 26.978 23.905C26.7004 23.905 26.4469 23.7835 26.2619 23.5973L23.832 21.4148C23.3975 21.0261 22.7297 21.0625 22.3394 21.4998C21.9532 21.9371 21.9894 22.6093 22.4239 23.0021L24.713 25.0509C24.713 25.0509 25.8354 25.966 25.8354 28.4482L25.8515 30.084C25.8515 30.3148 25.8515 30.5051 25.8515 30.6711C25.8515 31.2583 26.3222 31.7361 26.9056 31.7361H27.0544C27.6378 31.7361 28.1085 31.2583 28.1085 30.6711C28.1085 30.5092 28.1085 30.3189 28.1085 30.084L28.1286 28.4522C28.1286 25.9741 29.247 25.055 29.247 25.055L31.532 23.0061C31.9665 22.6174 32.0068 21.9452 31.6205 21.5079C31.2343 21.0706 30.5665 21.0301 30.132 21.4229L27.686 23.6175" fill="#2064AE"/>
<path d="M28.4027 21.0786C28.4027 21.8642 27.7671 22.5039 26.9826 22.5039C26.1981 22.5039 25.5625 21.8642 25.5625 21.0786C25.5625 20.2931 26.1981 19.6493 26.9826 19.6493C27.7671 19.6493 28.4027 20.2891 28.4027 21.0786Z" fill="#2064AE"/>
</g>
<defs>
<clipPath id="clip0_366_1971">
<rect width="169.844" height="54.7363" fill="white" transform="translate(0 0.585938)"/>
</clipPath>
</defs>
</svg>
