<svg width="0" height="0" class="hidden">
  <symbol fill="none" xmlns="http://www.w3.org/2000/svg" viewBox="0 0 113 113" id="accountability">
    <rect width="113" height="113" fill="#FFFDF5"></rect>
    <path d="M56.5 113C87.7041 113 113 87.7041 113 56.5C113 25.2959 87.7041 0 56.5 0C25.2959 0 0 25.2959 0 56.5C0 87.7041 25.2959 113 56.5 113Z" fill="#A9CBEF"></path>
    <path d="M77.8206 31.6796C76.0249 30.463 73.545 30.9245 72.3051 32.7074L45.5188 71.3024L40.3882 62.5556C39.2979 60.6888 36.8608 60.0595 34.9796 61.1293C33.0984 62.199 32.4356 64.5903 33.5259 66.4361L41.3502 79.7556C42.077 80.9932 43.3169 81.8112 44.7492 81.979H44.792C44.963 82 45.134 82 45.305 82C46.5877 82 47.8062 81.4756 48.7041 80.5107L78.9109 37.0703C80.1508 35.2874 79.6805 32.8752 77.8633 31.6586L77.8206 31.6796Z" fill="#FFE866"></path>
  </symbol>
  <symbol fill="none" xmlns="http://www.w3.org/2000/svg" viewBox="0 0 113 113" id="caring">
    <rect width="113" height="113" fill="#FFFDF5"></rect>
    <path d="M56.5 113C87.7041 113 113 87.7041 113 56.5C113 25.2959 87.7041 0 56.5 0C25.2959 0 0 25.2959 0 56.5C0 87.7041 25.2959 113 56.5 113Z" fill="#A9CBEF"></path>
    <path d="M65.9638 31.7839C63.4625 32.5769 60.8627 33.9646 58.3024 36.1057C57.5736 36.7005 56.8646 37.3745 56.1359 38.0882C51.4681 33.3897 46.4655 31.546 41.9947 31.7245C38.7056 31.8434 35.6923 33.0527 33.3289 35.0154H33.3092L33.0925 35.2136L31.4775 36.8392C30.1579 38.3856 29.1535 40.2293 28.5823 42.2316C27.0855 47.4256 28.3263 53.829 34.0379 59.7368L56.1556 82L62.1232 75.9931L68.0909 69.9862L74.0585 63.9793L77.9581 60.054C78.6672 59.3403 79.3368 58.6068 79.9277 57.8733C82.035 55.2961 83.4334 52.699 84.2212 50.1615C87.9239 38.1873 77.8597 28.0569 65.9638 31.7839Z" fill="#FFE866"></path>
  </symbol>
  <symbol fill="none" xmlns="http://www.w3.org/2000/svg" viewBox="0 0 113 113" id="independence">
    <rect width="113" height="113" fill="#FFFDF5"></rect>
    <path d="M56.5 113C87.7041 113 113 87.7041 113 56.5C113 25.2959 87.7041 0 56.5 0C25.2959 0 0 25.2959 0 56.5C0 87.7041 25.2959 113 56.5 113Z" fill="#A9CBEF"></path>
    <path d="M44 47.9376V59.9951C44 61.3941 45.0753 62.6153 46.4517 62.682C47.9357 62.7486 49.1615 61.5495 49.1615 60.0839V82.9999C49.1615 85.1094 50.796 86.9302 52.8821 86.9968C55.0758 87.0857 56.9038 85.287 56.9038 83.0887C56.9038 85.287 58.7104 87.0634 60.9255 86.9968C63.1407 86.9302 64.6462 85.1094 64.6462 82.9999V64.414V63.1039V60.0617C64.6462 61.5495 65.872 62.7264 67.356 62.6598C68.7539 62.5931 69.8077 61.3941 69.8077 59.9729V47.9154C69.8077 43.5854 66.3237 40.0769 62.0439 40.0769H51.7853C47.484 40.0769 44.0215 43.5854 44.0215 47.9154L44 47.9376Z" fill="#FFE866"></path>
    <path d="M56.5137 83.0898V67.4487" stroke="#68A4E3" stroke-miterlimit="10"></path>
    <path d="M48.6914 60.4103V50.2437" stroke="#68A4E3" stroke-miterlimit="10"></path>
    <path d="M65.1152 60.4103V50.2437" stroke="#68A4E3" stroke-miterlimit="10"></path>
    <path d="M56.9044 38.5128C60.1438 38.5128 62.7698 35.7117 62.7698 32.2564C62.7698 28.8011 60.1438 26 56.9044 26C53.6651 26 51.0391 28.8011 51.0391 32.2564C51.0391 35.7117 53.6651 38.5128 56.9044 38.5128Z" fill="#FFE866"></path>
  </symbol>
  <symbol fill="none" xmlns="http://www.w3.org/2000/svg" viewBox="0 0 113 113" id="innvoation">
    <rect width="113" height="113" fill="#FFFDF5"></rect>
    <path d="M56.5002 113C87.7045 113 113 87.7045 113 56.5002C113 25.296 87.7045 0 56.5002 0C25.296 0 0 25.296 0 56.5002C0 87.7045 25.296 113 56.5002 113Z" fill="#A9CBEF"></path>
    <path d="M71.8941 50.6801C71.8941 42.169 64.9065 35.2829 56.3345 35.4861C48.2703 35.6689 41.8108 42.0065 41.5061 50.0504C41.3843 53.1582 42.1968 56.0833 43.6796 58.5411C46.6859 63.4975 49.7328 69.246 49.7328 75.0351C49.7328 75.4008 50.0375 75.7055 50.4032 75.7055H62.6721C63.0987 75.7055 63.444 75.3602 63.444 74.9336C63.444 69.0835 66.8972 63.3756 69.8425 58.2974C71.1426 56.063 71.8941 53.4629 71.8941 50.6801Z" fill="#FFE866"></path>
    <path d="M62.0635 77.1882H51.2977C50.7816 77.1882 50.3633 77.6066 50.3633 78.1226V78.6304C50.3633 79.1465 50.7816 79.5648 51.2977 79.5648H62.0635C62.5795 79.5648 62.9979 79.1465 62.9979 78.6304V78.1226C62.9979 77.6066 62.5795 77.1882 62.0635 77.1882Z" fill="#68A4E3" stroke="#68A4E3" stroke-width="3" stroke-miterlimit="10"></path>
    <path d="M59.4814 80.845H53.8953C53.3232 80.845 52.8594 81.3088 52.8594 81.8809V82.4294C52.8594 83.0015 53.3232 83.4653 53.8953 83.4653H59.4814C60.0535 83.4653 60.5173 83.0015 60.5173 82.4294V81.8809C60.5173 81.3088 60.0535 80.845 59.4814 80.845Z" fill="#68A4E3" stroke="#68A4E3" stroke-width="3" stroke-miterlimit="10"></path>
    <path d="M57.5754 84.6233H55.7879C55.2719 84.6233 54.8535 85.0416 54.8535 85.5577V86.0655C54.8535 86.5815 55.2719 86.9999 55.7879 86.9999H57.5754C58.0915 86.9999 58.5098 86.5815 58.5098 86.0655V85.5577C58.5098 85.0416 58.0915 84.6233 57.5754 84.6233Z" fill="#68A4E3" stroke="#68A4E3" stroke-width="3" stroke-miterlimit="10"></path>
    <path d="M56.7215 26H56.3152C55.9114 26 55.584 26.3274 55.584 26.7313V31.4438C55.584 31.8477 55.9114 32.1751 56.3152 32.1751H56.7215C57.1254 32.1751 57.4528 31.8477 57.4528 31.4438V26.7313C57.4528 26.3274 57.1254 26 56.7215 26Z" fill="#FFE866" stroke="#FFE866" stroke-miterlimit="10"></path>
    <path d="M68.8504 29.3256L68.4985 29.1225C68.1488 28.9205 67.7015 29.0404 67.4996 29.3901L65.1433 33.4713C64.9414 33.8211 65.0612 34.2683 65.411 34.4703L65.7628 34.6734C66.1126 34.8753 66.5598 34.7555 66.7617 34.4057L69.118 30.3245C69.3199 29.9748 69.2001 29.5275 68.8504 29.3256Z" fill="#FFE866" stroke="#FFE866" stroke-miterlimit="10"></path>
    <path d="M77.7895 38.3997L77.5863 38.0478C77.3844 37.6981 76.9372 37.5782 76.5874 37.7802L72.5062 40.1365C72.1564 40.3384 72.0366 40.7856 72.2385 41.1354L72.4417 41.4872C72.6436 41.837 73.0908 41.9568 73.4406 41.7549L77.5218 39.3986C77.8716 39.1967 77.9914 38.7494 77.7895 38.3997Z" fill="#FFE866" stroke="#FFE866" stroke-miterlimit="10"></path>
    <path d="M80.875 50.5584V50.1522C80.875 49.7483 80.5476 49.4209 80.1437 49.4209H75.4312C75.0273 49.4209 74.6999 49.7483 74.6999 50.1522V50.5584C74.6999 50.9623 75.0273 51.2897 75.4312 51.2897H80.1437C80.5476 51.2897 80.875 50.9623 80.875 50.5584Z" fill="#FFE866" stroke="#FFE866" stroke-miterlimit="10"></path>
    <path d="M77.6256 62.751L77.8158 62.392C78.0049 62.0351 77.8689 61.5926 77.5121 61.4034L73.348 59.1968C72.9912 59.0077 72.5486 59.1437 72.3595 59.5006L72.1692 59.8595C71.9801 60.2164 72.1161 60.659 72.473 60.8481L76.637 63.0547C76.9939 63.2438 77.4365 63.1078 77.6256 62.751Z" fill="#FFE866" stroke="#FFE866" stroke-miterlimit="10"></path>
    <path d="M47.1184 34.6891L47.4702 34.486C47.82 34.2841 47.9398 33.8368 47.7379 33.4871L45.3816 29.4059C45.1797 29.0561 44.7324 28.9363 44.3827 29.1382L44.0308 29.3413C43.6811 29.5433 43.5613 29.9905 43.7632 30.3402L46.1195 34.4215C46.3214 34.7712 46.7686 34.8911 47.1184 34.6891Z" fill="#FFE866" stroke="#FFE866" stroke-miterlimit="10"></path>
    <path d="M40.4801 41.4827L40.6832 41.1308C40.8851 40.7811 40.7653 40.3339 40.4155 40.1319L36.3343 37.7756C35.9846 37.5737 35.5373 37.6935 35.3354 38.0433L35.1323 38.3951C34.9303 38.7449 35.0502 39.1921 35.3999 39.3941L39.4811 41.7503C39.8309 41.9523 40.2781 41.8324 40.4801 41.4827Z" fill="#FFE866" stroke="#FFE866" stroke-miterlimit="10"></path>
    <path d="M38.1758 50.5789V50.1727C38.1758 49.7688 37.8484 49.4414 37.4445 49.4414H32.7319C32.3281 49.4414 32.0007 49.7688 32.0007 50.1727V50.5789C32.0007 50.9828 32.3281 51.3102 32.7319 51.3102H37.4445C37.8484 51.3102 38.1758 50.9828 38.1758 50.5789Z" fill="#FFE866" stroke="#FFE866" stroke-miterlimit="10"></path>
    <path d="M40.7221 59.8506L40.5319 59.4916C40.3428 59.1347 39.9002 58.9988 39.5433 59.1879L35.3793 61.3945C35.0224 61.5836 34.8864 62.0262 35.0755 62.383L35.2658 62.742C35.4549 63.0988 35.8974 63.2348 36.2543 63.0457L40.4183 60.8391C40.7752 60.65 40.9112 60.2074 40.7221 59.8506Z" fill="#FFE866" stroke="#FFE866" stroke-miterlimit="10"></path>
    <path d="M54.9532 75.787V59.7195C54.9532 59.7195 54.9532 58.0539 53.0641 57.282C51.7438 56.7335 50.6469 58.1554 50.3016 59.2523C50.2406 59.4555 50.1797 59.6789 50.1797 59.882C50.1797 60.2883 50.4844 60.7555 50.7688 61.0602C50.9516 61.2633 51.1953 61.4055 51.4594 61.4867C51.9266 61.6696 52.4141 61.7305 52.9219 61.7914C53.7954 61.893 54.6891 61.9133 55.5829 61.9133H58.1017C58.6298 61.9133 59.158 61.9336 59.6861 61.9336C59.9502 61.9336 60.2142 61.9336 60.4783 61.9336C60.722 61.9336 60.8845 61.8117 61.0877 61.6899C61.2502 61.5883 61.4127 61.4867 61.5752 61.3852C61.8799 61.1617 62.1846 60.8977 62.3877 60.5727C62.794 59.9227 62.5096 59.1508 62.1846 58.5211C61.8596 57.8914 61.2908 57.3226 60.5189 57.3023C60.072 57.3023 59.483 57.4039 59.0767 57.607C58.8126 57.7492 58.6298 58.0132 58.4876 58.257C57.9189 59.2523 58.2033 60.2273 58.2439 61.3039C58.2439 61.7305 58.2642 62.1368 58.2845 62.5633C58.2845 63.7212 58.2845 64.8587 58.2845 66.0165C58.2845 67.3165 58.2642 68.6369 58.2439 69.9369C58.2439 71.0947 58.2033 72.2525 58.1829 73.4104C58.1829 74.1213 58.1626 74.812 58.1423 75.5229C58.1423 75.6042 58.1423 75.6854 58.1423 75.787" stroke="#68A4E3" stroke-width="1.46602" stroke-miterlimit="10"></path>
  </symbol>
  <symbol fill="none" xmlns="http://www.w3.org/2000/svg" viewBox="0 0 113 113" id="respect">
    <rect width="113" height="113" fill="#FFFDF5"></rect>
    <path d="M113 56.4882C113 87.6791 87.7036 113 56.496 113C25.2885 113 0 87.6791 0 56.4882C0 52.2298 0.466256 48.0979 1.36716 44.1556C3.82488 33.1186 9.47528 23.3379 17.3068 15.7851C27.5012 6.02804 41.2676 0 56.496 0C74.0557 0 89.7504 8.01895 100.134 20.5727C101.565 22.3424 102.932 24.2069 104.141 26.1268C104.141 26.1426 104.157 26.1505 104.165 26.1663C109.302 34.2326 112.471 43.6736 112.937 53.8415C112.976 54.7185 113 55.6033 113 56.4882Z" fill="#A9CBEF"></path>
    <path d="M99.3996 54.4643V54.4942C99.3996 54.4942 92.1849 57.0943 87.8812 61.1111C86.3749 62.5158 85.2213 64.0938 84.8566 65.7914L82.4896 62.6174L55.8066 52.6053L59.3931 44.237L75.9922 40.8957L92.7288 33.8005H92.7348L92.7826 33.7766C96.2495 39.216 98.5269 45.4863 99.2262 52.2347C99.3099 52.9699 99.3637 53.7171 99.3996 54.4643Z" fill="#68A4E3"></path>
    <path d="M55.8613 82.3726L60.2068 85.9649C65.449 89.6351 70.3444 82.6475 65.0963 78.9774L73.9847 85.0683C78.5992 88.2961 83.4887 81.3086 78.8741 78.0808L77.5352 77.1424L81.026 79.5632C85.6405 82.791 90.53 75.8034 85.9155 72.5756L81.6715 69.5989L83.393 70.8063C89.3764 74.9965 94.2659 68.003 88.2825 63.8188L50.924 37.6738L50.9001 37.6439L45.8014 36.819L44.7912 36.6517C43.3327 36.4186 42.2986 36.1555 41.2646 35.8268C38.3715 34.8644 35.6936 33.3103 33.3684 31.3378L27.0683 26C21.1328 31.7084 16.859 39.1084 15 47.4587L29.7342 60.2742L29.4772 60.5492L41.2526 70.2863L55.8673 82.3726H55.8613Z" fill="#FFE866"></path>
    <path d="M42.0113 69.966L38.5323 74.9364C37.2772 76.7295 37.7134 79.2005 39.5065 80.4556L40.0011 80.8018C41.7941 82.0569 44.2652 81.6207 45.5203 79.8276L48.9993 74.8572C50.2544 73.0641 49.8182 70.5931 48.0251 69.338L47.5305 68.9918C45.7374 67.7367 43.2664 68.1729 42.0113 69.966Z" fill="#68A4E3"></path>
    <path d="M53.6084 83.1557C52.0662 85.3613 49.3585 86.1324 47.5652 84.8772L47.0691 84.5305C45.2759 83.2752 45.0727 80.4718 46.6208 78.2662C48.163 76.0605 50.8707 75.2895 52.6639 76.5447L53.1601 76.8914C54.9533 78.1466 55.1565 80.95 53.6084 83.1557Z" fill="#68A4E3"></path>
    <path d="M36.8033 62.4908L30.044 72.1476C28.7889 73.9407 29.2251 76.4117 31.0182 77.6668L31.5128 78.013C33.3059 79.2681 35.7769 78.8319 37.032 77.0388L43.7912 67.382C45.0463 65.5889 44.6102 63.1179 42.8171 61.8628L42.3225 61.5166C40.5294 60.2615 38.0583 60.6977 36.8033 62.4908Z" fill="#68A4E3"></path>
    <path d="M27.8376 60.4086L25.1846 64.1989C23.9295 65.992 24.3657 68.463 26.1588 69.7181L26.6534 70.0643C28.4465 71.3193 30.9175 70.8832 32.1726 69.0901L34.8256 65.2998C36.0807 63.5067 35.6445 61.0357 33.8514 59.7806L33.3568 59.4344C31.5637 58.1794 29.0927 58.6155 27.8376 60.4086Z" fill="#68A4E3"></path>
    <path d="M92.7354 33.8244L81.7131 51.6429C78.7304 54.3208 73.3687 53.2867 70.3561 51.2185C67.7201 49.3835 65.0662 47.5484 62.4361 45.7433C61.0494 44.7809 59.6626 43.8126 58.252 42.8502C58.252 42.8502 57.3613 41.9775 55.4306 42.4736C54.7731 42.6171 53.9961 42.9459 53.1054 43.4838C52.1192 44.0696 51.3899 44.494 50.7085 45.1515L48.5208 48.3016C48.216 48.726 47.8394 49.0786 47.4389 49.4074C46.3331 50.3458 44.9703 50.9794 43.6074 51.4516C42.2924 51.876 40.9056 52.1809 39.495 52.2287C38.957 52.2526 38.4131 52.2526 37.8751 52.157C37.3372 52.0613 36.5601 51.9717 36.4166 51.2663C36.3688 50.9615 36.4645 50.6806 36.6258 50.3937C36.6976 50.2323 36.7932 50.0888 36.859 49.9453C37.0921 49.4731 37.2834 49.0069 37.4447 48.5347C37.6121 48.1342 37.8213 47.7337 38.0305 47.3332C38.4071 46.6518 38.8315 45.9704 39.2798 45.289C39.7938 44.4641 40.3617 43.6452 40.9236 42.8442C41.5572 41.9715 42.2147 41.1048 42.8722 40.256C43.5536 39.3833 44.235 38.5405 44.9643 37.7157C45.2213 37.4108 45.5022 37.106 45.7892 36.8011C46.2135 36.3528 46.6379 35.9284 47.0564 35.51L48.21 34.452C49.2919 33.5375 50.2782 32.9218 51.0313 32.8262C57.9411 31.9355 65.5563 32.4974 72.3765 33.8124C73.7632 34.0695 75.1261 34.3982 76.4411 34.7987C77.0747 35.0079 77.6904 35.2231 78.3 35.4562C79.8542 36.1137 81.3306 34.727 82.6516 33.9499C84.3671 32.9158 86.0826 31.8578 87.7742 30.7998C88.4078 30.3994 89.0653 29.9989 89.6989 29.5984C90.7808 30.9373 91.8149 32.348 92.7294 33.8065L92.7354 33.8244Z" fill="#68A4E3"></path>
    <path d="M62.6816 66.9509L79.7171 78.6068" stroke="#68A4E3" stroke-miterlimit="10"></path>
    <path d="M67.4629 60.3757L85.3238 71.9718" stroke="#68A4E3" stroke-miterlimit="10"></path>
    <path d="M54.9102 71.7329L65.9076 79.8052" stroke="#68A4E3" stroke-miterlimit="10"></path>
  </symbol>
</svg>