<svg width="411" height="358" viewBox="0 0 411 358" fill="none" xmlns="http://www.w3.org/2000/svg">
<path d="M185.834 70.9308C215.47 73.7436 239.153 71.1957 255.571 68.2036C283.524 63.1078 279.905 58.6314 311.672 53.0096C328.592 50.0175 337.985 49.8072 344.787 41.7115C352.462 32.5794 355.096 15.4803 346.345 7.03787C336.668 -2.30063 314.454 2.17188 306.607 13.6609C297.019 27.6979 309.416 51.4162 329.593 90.0207C336.36 102.963 343.833 115.387 357.644 138.33C362.51 146.414 371.836 153.754 375.565 167.549C378.163 177.157 377.637 185.782 376.734 191.704" stroke="#68A4E3" stroke-width="2.73104" stroke-miterlimit="10" stroke-dasharray="13.66 13.66"/>
<path d="M178.63 355.137C262.114 355.137 329.791 287.46 329.791 203.976C329.791 120.492 262.114 52.8145 178.63 52.8145C95.1459 52.8145 27.4688 120.492 27.4688 203.976C27.4688 287.46 95.1459 355.137 178.63 355.137Z" stroke="#2064AE" stroke-width="2.73104" stroke-miterlimit="10"/>
<path d="M354.915 283.647C384.393 283.647 408.289 259.751 408.289 230.273C408.289 200.796 384.393 176.899 354.915 176.899C325.437 176.899 301.541 200.796 301.541 230.273C301.541 259.751 325.437 283.647 354.915 283.647Z" fill="#FFF7CC"/>
<path d="M360.779 234.271L360.756 234.321C355.578 232.568 349.224 237.161 346.501 244.665C344.144 251.156 345.27 257.716 348.913 260.65L348.877 260.728L345.317 259.127C339.231 256.388 336.516 249.235 339.255 243.149L341.14 238.957C343.934 232.747 351.231 229.977 357.441 232.771L360.779 234.271Z" fill="#A9CBEF"/>
<g opacity="0.1">
<path d="M360.781 234.271L360.758 234.321C355.58 232.568 349.226 237.161 346.503 244.665C344.146 251.156 345.272 257.716 348.915 260.65L348.879 260.728L345.319 259.127C339.233 256.388 336.518 249.235 339.257 243.149L341.142 238.957C343.936 232.747 351.233 229.977 357.443 232.771L360.781 234.271Z" fill="black"/>
</g>
<path d="M365.359 251.526C368.108 243.951 366.12 236.28 360.918 234.392C355.716 232.504 349.271 237.113 346.521 244.688C343.772 252.262 345.76 259.933 350.962 261.821C356.164 263.709 362.61 259.1 365.359 251.526Z" fill="#A9CBEF"/>
<path d="M339.752 222.789L339.729 222.84C334.551 221.087 328.197 225.68 325.474 233.184C323.117 239.674 324.243 246.235 327.885 249.168L327.85 249.246L324.289 247.645C318.204 244.906 315.488 237.753 318.227 231.668L320.113 227.476C322.906 221.266 330.203 218.496 336.413 221.289L339.752 222.789Z" fill="#A9CBEF"/>
<path d="M177.714 316.972L34.3831 319.793H34.0675C27.2808 320.931 21.9084 320.646 21.9084 320.646C5.24169 321.051 4.64951 302.468 5.62738 291.984C6.01308 287.878 7.25198 283.904 9.2311 280.289L12.2777 274.725L55.2768 196.227L121.161 199.335C141.521 201.03 177.714 316.969 177.714 316.969V316.972Z" fill="#FFF7CC"/>
<path d="M345.54 233.757C343.674 234.999 342.128 236.76 341.142 238.954L339.256 243.146C338.458 244.918 338.127 246.781 338.201 248.596C335.555 250.552 332.575 251.28 329.918 250.314C324.717 248.425 322.726 240.754 325.473 233.184C328.223 225.61 334.667 221.001 339.872 222.887C343.616 224.247 345.696 228.598 345.544 233.753L345.54 233.757Z" fill="#A9CBEF"/>
<g opacity="0.1">
<path d="M345.539 233.757C343.672 234.999 342.126 236.76 341.14 238.954L339.254 243.146C338.456 244.918 338.125 246.781 338.199 248.596C335.553 250.552 332.573 251.28 329.916 250.314C324.715 248.425 322.724 240.754 325.471 233.184C328.221 225.61 334.665 221.001 339.87 222.887C343.614 224.247 345.694 228.598 345.542 233.753L345.539 233.757Z" fill="black"/>
</g>
<path d="M342.456 236.702C341.95 237.392 341.506 238.143 341.143 238.958L339.464 242.69L333.831 239.437C332.693 238.778 332.304 237.325 332.958 236.184L333.917 234.52C334.575 233.383 336.028 232.993 337.17 233.648L342.456 236.698V236.702Z" fill="#A9CBEF"/>
<path d="M385.856 235.205C385.856 241.47 382.463 246.939 377.41 249.877C376.72 250.278 375.929 250.485 375.131 250.485H365.679C366.552 247.652 366.766 244.843 366.412 242.37C365.886 238.715 364.113 235.778 361.351 234.55C361.203 234.484 361.051 234.422 360.899 234.367C360.852 234.352 360.806 234.332 360.759 234.317L360.782 234.266L357.443 232.766C355.768 232.014 354.019 231.664 352.297 231.679C352.811 229.244 353.847 227.004 355.285 225.076C355.332 225.013 355.379 224.951 355.425 224.893C355.468 224.838 355.507 224.783 355.55 224.733C355.768 224.452 355.998 224.18 356.236 223.915C356.302 223.841 356.372 223.767 356.438 223.693C356.481 223.646 356.524 223.603 356.567 223.556C356.598 223.521 356.629 223.49 356.664 223.455C356.676 223.443 356.688 223.432 356.695 223.42C356.727 223.385 356.762 223.354 356.793 223.319C356.91 223.198 357.026 223.085 357.147 222.968C357.186 222.929 357.229 222.89 357.268 222.855C357.428 222.703 357.591 222.555 357.759 222.411C357.802 222.376 357.841 222.337 357.884 222.302C357.923 222.267 357.965 222.236 358.004 222.2C358.176 222.056 358.351 221.916 358.526 221.78C358.569 221.745 358.616 221.713 358.659 221.678C358.702 221.643 358.748 221.612 358.791 221.577C358.873 221.515 358.955 221.456 359.037 221.398C359.045 221.394 359.052 221.386 359.06 221.382C359.107 221.351 359.154 221.316 359.2 221.285C359.232 221.265 359.259 221.242 359.29 221.223C359.36 221.172 359.434 221.125 359.508 221.075C359.535 221.055 359.563 221.039 359.586 221.02C359.703 220.942 359.824 220.868 359.941 220.79C359.984 220.763 360.026 220.739 360.065 220.712C360.252 220.599 360.443 220.486 360.634 220.381C360.677 220.358 360.72 220.334 360.763 220.311C360.841 220.268 360.915 220.229 360.993 220.19C361.051 220.159 361.106 220.132 361.164 220.101C361.226 220.069 361.285 220.038 361.347 220.007C361.409 219.976 361.468 219.949 361.53 219.917C361.592 219.886 361.651 219.859 361.713 219.832C361.772 219.804 361.83 219.777 361.892 219.75C362.091 219.66 362.29 219.575 362.492 219.493C362.551 219.469 362.605 219.446 362.664 219.423C362.726 219.395 362.792 219.372 362.859 219.349C362.925 219.325 362.987 219.298 363.053 219.275C363.12 219.251 363.182 219.228 363.248 219.205C363.314 219.181 363.381 219.158 363.447 219.138C363.509 219.115 363.572 219.095 363.638 219.076C363.774 219.033 363.907 218.99 364.043 218.951C364.109 218.932 364.175 218.912 364.246 218.893C364.312 218.873 364.378 218.854 364.448 218.838C364.491 218.827 364.538 218.815 364.581 218.803C364.62 218.792 364.662 218.78 364.701 218.772C364.752 218.76 364.803 218.745 364.849 218.733C364.916 218.718 364.986 218.702 365.056 218.686C365.262 218.64 365.469 218.597 365.675 218.554C365.738 218.542 365.804 218.531 365.866 218.519C365.956 218.503 366.046 218.488 366.131 218.472C366.19 218.464 366.244 218.453 366.303 218.445C366.361 218.437 366.42 218.425 366.482 218.418C366.552 218.406 366.622 218.398 366.692 218.39C366.731 218.386 366.77 218.379 366.813 218.375C366.86 218.371 366.91 218.363 366.957 218.359C367.016 218.351 367.074 218.347 367.132 218.34C367.335 218.32 367.538 218.301 367.74 218.289C367.775 218.289 367.814 218.285 367.849 218.281C367.904 218.281 367.962 218.273 368.017 218.273C368.091 218.273 368.161 218.266 368.235 218.266C368.309 218.266 368.379 218.262 368.453 218.258C368.519 218.258 368.59 218.258 368.66 218.254H368.683C368.753 218.254 368.823 218.254 368.893 218.254C368.956 218.254 369.014 218.254 369.077 218.254C369.115 218.254 369.154 218.254 369.19 218.254C369.232 218.254 369.275 218.254 369.318 218.254C369.33 218.254 369.341 218.254 369.353 218.254C369.419 218.254 369.482 218.254 369.548 218.262C369.618 218.262 369.688 218.266 369.758 218.269C369.906 218.277 370.054 218.285 370.202 218.297C370.273 218.301 370.343 218.308 370.413 218.312C370.491 218.32 370.569 218.328 370.647 218.336C370.705 218.34 370.76 218.347 370.814 218.355C370.962 218.371 371.114 218.39 371.262 218.414C371.332 218.425 371.402 218.433 371.473 218.445C371.523 218.453 371.57 218.46 371.621 218.468C371.656 218.472 371.687 218.48 371.722 218.484C371.761 218.492 371.8 218.495 371.839 218.503C371.94 218.523 372.041 218.538 372.143 218.562C372.232 218.577 372.322 218.597 372.415 218.616C372.556 218.647 372.692 218.675 372.832 218.71C372.879 218.721 372.926 218.733 372.972 218.745C373.031 218.76 373.085 218.772 373.144 218.788C373.21 218.803 373.272 218.823 373.339 218.838C373.401 218.854 373.463 218.873 373.53 218.893C373.643 218.924 373.752 218.955 373.861 218.99C373.904 219.002 373.943 219.018 373.985 219.029C374.215 219.099 374.441 219.177 374.667 219.259C374.71 219.275 374.757 219.29 374.8 219.31C375.018 219.391 375.236 219.477 375.45 219.567C375.501 219.59 375.555 219.61 375.606 219.633C375.606 219.633 375.606 219.633 375.61 219.633C375.653 219.653 375.7 219.672 375.742 219.691C375.922 219.769 376.097 219.851 376.268 219.933C376.323 219.96 376.381 219.988 376.436 220.015C376.498 220.046 376.557 220.077 376.619 220.108C376.681 220.14 376.74 220.171 376.798 220.202C376.853 220.233 376.911 220.26 376.966 220.291C377.098 220.365 377.235 220.44 377.363 220.514C377.414 220.541 377.464 220.572 377.511 220.599C377.566 220.63 377.624 220.665 377.679 220.701C377.87 220.817 378.061 220.938 378.248 221.059C378.29 221.086 378.333 221.117 378.376 221.145C378.419 221.172 378.458 221.199 378.501 221.23C378.528 221.25 378.555 221.269 378.586 221.289C378.629 221.32 378.672 221.347 378.715 221.378C378.754 221.406 378.793 221.433 378.828 221.46C378.98 221.569 379.132 221.682 379.28 221.799C379.288 221.803 379.296 221.811 379.303 221.819C379.373 221.873 379.44 221.928 379.51 221.982C379.521 221.994 379.537 222.002 379.549 222.013C379.615 222.068 379.681 222.123 379.747 222.177C379.763 222.189 379.775 222.2 379.79 222.212C379.849 222.259 379.907 222.31 379.966 222.36C379.977 222.368 379.989 222.38 380.001 222.391C380.032 222.415 380.059 222.442 380.09 222.469C380.153 222.524 380.215 222.578 380.277 222.633C380.332 222.684 380.386 222.73 380.441 222.781C380.445 222.785 380.453 222.793 380.456 222.797C380.48 222.816 380.503 222.839 380.523 222.859C380.577 222.91 380.632 222.96 380.686 223.015C380.784 223.108 380.881 223.206 380.975 223.303C381.037 223.365 381.095 223.428 381.158 223.49C381.228 223.564 381.298 223.638 381.364 223.712C381.368 223.716 381.372 223.724 381.38 223.728C381.45 223.802 381.516 223.88 381.586 223.954C381.586 223.954 381.59 223.958 381.594 223.961C381.66 224.035 381.727 224.113 381.793 224.187C381.793 224.187 381.793 224.187 381.797 224.191C381.863 224.269 381.925 224.343 381.991 224.421C381.991 224.421 381.995 224.425 381.999 224.429C382.062 224.507 382.128 224.585 382.19 224.663C382.198 224.67 382.202 224.678 382.21 224.69C382.264 224.76 382.319 224.83 382.373 224.9C382.389 224.92 382.401 224.935 382.416 224.955C382.463 225.017 382.51 225.08 382.556 225.142C382.627 225.239 382.701 225.337 382.767 225.434C384.719 228.196 385.868 231.57 385.868 235.213L385.856 235.205Z" fill="#68A4E3"/>
<path d="M376.775 235.112C376.775 239.374 373.32 242.834 369.054 242.834C368.127 242.834 367.238 242.67 366.416 242.37C365.89 238.716 364.118 235.778 361.355 234.551C361.64 230.546 364.979 227.391 369.054 227.391C373.129 227.391 376.775 230.846 376.775 235.112Z" fill="#68A4E3"/>
<g opacity="0.1">
<path d="M376.77 235.112C376.77 239.374 373.314 242.834 369.048 242.834C368.121 242.834 367.232 242.67 366.41 242.37C365.884 238.716 364.112 235.778 361.35 234.551C361.634 230.546 364.973 227.391 369.048 227.391C373.123 227.391 376.77 230.846 376.77 235.112Z" fill="black"/>
</g>
<path d="M376.933 199.939H361.54C353.534 199.939 348.037 208 350.962 215.453L355.283 225.076C356.343 223.654 357.621 222.403 359.062 221.375L356.413 215.469C354.34 210.19 358.232 204.482 363.905 204.482H374.805C380.649 204.482 384.518 210.548 382.056 215.846L379.282 221.788C380.614 222.82 381.787 224.047 382.761 225.426L387.171 215.987C390.65 208.503 385.184 199.939 376.933 199.939Z" fill="#A9CBEF"/>
<path d="M127.38 197.08C127.107 203.929 126.69 201.95 123.421 202.737C119.128 203.774 117.2 207.825 116.07 211.788C115.014 215.485 112.112 223.097 108.43 231.984C107.67 233.803 107.362 235.794 106.178 237.372C105.317 238.513 104.238 239.499 103.061 239.499C100.233 239.499 92.8814 234.411 91.1866 228.754C89.4919 223.097 81.443 213.011 79.8768 210.658C77.6133 207.264 74.4186 200.489 64.4724 200.014C62.3452 199.913 62.9101 199.913 60.1401 200.15C55.6404 200.54 47.942 207.05 46.2278 214.335C45.1682 213.276 44.6344 211.807 44.763 210.311C44.9461 208.16 45.6746 204.728 48.0239 200.178C48.4134 199.414 48.803 198.639 49.1498 197.852C49.4887 197.077 50.0848 195.845 51.0393 194.256C52.6756 191.529 58.5039 188.284 60.4518 182.486C60.5258 182.264 60.5921 182.038 60.6544 181.812C61.9712 176.981 66.0152 172.493 67.7527 170.732C67.893 170.596 68.0138 170.471 68.119 170.37C68.4073 170.086 68.5709 169.934 68.5709 169.934C68.5709 169.934 68.5553 169.895 68.5202 169.825H68.5163C67.9553 168.683 63.4478 159.469 62.9179 155.227C62.353 150.704 67.4411 146.745 68.5748 143.917C69.7046 141.088 71.4032 132.042 72.533 130.344C73.6628 128.645 80.8936 119.622 87.2362 118.469C93.4579 117.339 94.5878 117.904 94.5878 117.904C94.5878 117.904 107.031 118.469 113.818 125.82C120.605 133.172 121.17 138.829 121.17 138.829C121.17 138.829 122.864 144.486 121.734 150.704L120.605 172.758C120.605 172.758 120.62 172.996 120.655 173.413C120.659 173.467 120.667 173.526 120.667 173.584C120.889 175.965 121.684 182.942 123.998 188.026C126.826 194.248 127.504 194.248 127.391 197.077L127.38 197.08Z" fill="#A9CBEF"/>
<path d="M127.945 233.838C127.945 233.838 129.087 238.957 130.774 244.018C132.468 249.106 136.996 267.206 136.996 267.206L144.343 292.234" stroke="#2064AE" stroke-width="0.937102" stroke-miterlimit="10"/>
<path d="M115.883 134.294C116.748 135.825 116.635 136.565 116.635 136.565V152.967C118.899 170.125 111.905 179.549 99.1035 181.244C84.864 183.133 79.0201 164.366 81.5719 141.556L115.883 134.294Z" fill="#E0B7AA"/>
<g opacity="0.1">
<path d="M75.3491 196.516C75.3491 196.516 65.734 194.821 62.9056 190.859C61.1641 188.42 60.6148 184.594 60.4395 182.482C60.5135 182.26 60.5797 182.034 60.642 181.808C61.9589 176.978 66.0028 172.489 67.7404 170.729C67.7443 170.729 67.7521 170.725 67.756 170.725C67.643 171.013 64.6743 178.567 68.5585 186.332C72.5168 194.248 75.3452 196.512 75.3452 196.512L75.3491 196.516Z" fill="black"/>
</g>
<g opacity="0.1">
<path d="M86.0924 187.465C86.0924 187.465 82.6991 188.595 81.0044 188.595C79.3096 188.595 74.2177 185.201 73.0879 183.507C72.1879 182.151 67.0414 175.867 68.1128 170.37C68.4011 170.085 68.5647 169.933 68.5647 169.933C68.5647 169.933 68.5491 169.894 68.5141 169.824C69.7452 170.79 75.5228 175.372 76.4812 177.285C77.611 179.548 78.1759 182.373 80.4395 183.507C82.703 184.636 86.0963 187.465 86.0963 187.465H86.0924Z" fill="black"/>
</g>
<g opacity="0.1">
<path d="M120.653 173.587C119.099 177.46 109.749 200.613 108.716 202.172C107.586 203.866 103.059 206.13 98.5361 206.695C94.0129 207.26 90.6196 202.737 88.3561 199.908C87.3003 198.584 82.6992 193.686 82.6992 193.686C103.714 198.942 118.627 176.618 120.641 173.424C120.645 173.474 120.653 173.533 120.653 173.587Z" fill="black"/>
</g>
<path d="M112.544 135.809C112.256 135.938 111.964 136.051 111.664 136.152C105.426 138.252 107.475 137.999 101.935 139.958C94.7631 142.498 81.2949 141.937 81.2949 141.937C81.2949 141.937 90.0607 132.042 98.5421 130.908C111.628 129.163 115.902 134.301 115.902 134.301L112.544 135.805V135.809Z" fill="#A9CBEF"/>
<g opacity="0.1">
<path d="M112.542 135.809C112.254 135.938 111.962 136.051 111.662 136.152C105.424 138.252 107.473 137.999 101.933 139.958C94.7611 142.498 81.293 141.937 81.293 141.937C81.293 141.937 90.0588 132.042 98.5402 130.908C111.627 129.163 115.9 134.301 115.9 134.301L112.542 135.805V135.809Z" fill="black"/>
</g>
<path d="M95.7129 162.582C95.7129 162.582 99.6711 169.934 105.328 168.239" stroke="#2064AE" stroke-width="0.937102" stroke-miterlimit="10"/>
<path d="M105.892 145.615C105.892 145.615 106.457 154.665 108.721 157.49C110.984 160.314 103.633 161.448 103.633 161.448" stroke="#2064AE" stroke-width="0.937102" stroke-miterlimit="10"/>
<path d="M111.007 151.525C111.935 151.399 112.55 150.292 112.381 149.054C112.212 147.815 111.323 146.913 110.396 147.04C109.469 147.166 108.854 148.273 109.022 149.511C109.191 150.75 110.08 151.652 111.007 151.525Z" fill="#2064AE" stroke="#2064AE" stroke-width="0.937102" stroke-miterlimit="10"/>
<path d="M100.232 153.682C101.159 153.555 101.774 152.449 101.605 151.21C101.437 149.971 100.548 149.07 99.6206 149.196C98.6932 149.322 98.0782 150.429 98.247 151.668C98.4158 152.906 99.3045 153.808 100.232 153.682Z" fill="#2064AE" stroke="#2064AE" stroke-width="0.937102" stroke-miterlimit="10"/>
<path d="M256.609 292.374H158.206C155.081 292.374 152.549 294.906 152.549 298.029C152.549 301.152 155.081 303.684 158.206 303.684H256.609C259.733 303.684 262.265 301.152 262.265 298.029C262.265 294.906 259.733 292.374 256.609 292.374Z" fill="#A9CBEF"/>
<path d="M279.517 303.684H202.292C198.119 303.684 195.384 299.32 197.204 295.565L226.789 234.485C227.736 232.533 229.711 231.294 231.877 231.294H306.718C310.812 231.294 313.551 235.509 311.884 239.249L284.686 300.329C283.779 302.371 281.753 303.684 279.52 303.684H279.517Z" fill="#A9CBEF"/>
<path d="M100.236 287.002C100.236 287.002 118.333 282.479 123.99 283.609C129.647 284.739 136.998 288.132 139.258 288.697C141.517 289.262 151.701 298.877 152.831 302.27C152.831 302.27 148.873 303.965 146.044 301.705C143.216 299.442 138.128 299.442 136.994 298.877C135.861 298.312 126.249 302.27 122.856 301.705C119.463 301.141 103.626 301.141 103.626 301.141L100.232 287.002H100.236Z" fill="#E0B7AA"/>
<path d="M347.375 303.517H3.25698C1.4582 303.517 0 304.975 0 306.774V318.96C0 320.759 1.4582 322.217 3.25698 322.217H347.375C349.174 322.217 350.632 320.759 350.632 318.96V306.774C350.632 304.975 349.174 303.517 347.375 303.517Z" fill="#E9F2FB"/>
<path d="M89.6992 286.687C89.6992 286.687 99.6688 283.605 101.367 284.739C102.661 285.604 103.958 296.017 104.496 300.903C104.656 302.364 103.752 303.727 102.341 304.137C99.0143 305.107 93.2912 306.626 91.9588 305.999L89.6992 286.687Z" fill="#A9CBEF"/>
<path d="M34.3831 319.797H34.0675C27.2808 320.935 21.9084 320.651 21.9084 320.651C5.24169 321.056 4.64951 302.472 5.62738 291.988C6.01308 287.882 7.25198 283.908 9.2311 280.293L12.2777 274.729L46.5111 287.567L88.9258 282.478L92.3191 307.362C92.3191 307.362 73.6577 311.32 68.5658 312.45" fill="#FFF7CC"/>
<path d="M66.301 236.102L46.5059 287.567L88.9206 282.475L92.314 307.358" stroke="#2064AE" stroke-width="0.937102" stroke-miterlimit="10"/>
<path d="M271.596 114.51L271.031 117.339" stroke="#2064AE" stroke-width="0.937102" stroke-miterlimit="10"/>
<path d="M340.55 76.1748H170.205C162.915 76.1748 157.006 82.0844 157.006 89.3741V194.174C157.006 201.464 162.915 207.373 170.205 207.373H340.55C347.84 207.373 353.749 201.464 353.749 194.174V89.3741C353.749 82.0844 347.84 76.1748 340.55 76.1748Z" fill="#A9CBEF"/>
<path d="M336.591 80.0117H174.361C167.467 80.0117 161.879 85.6003 161.879 92.4942V190.815C161.879 197.709 167.467 203.298 174.361 203.298H336.591C343.485 203.298 349.073 197.709 349.073 190.815V92.4942C349.073 85.6003 343.485 80.0117 336.591 80.0117Z" fill="#FFF099"/>
<path d="M270.795 122.898C270.643 122.96 270.53 122.995 270.46 122.995C269.895 122.995 280.64 156.929 280.64 156.929L282.903 166.544H258.585L259.15 157.494C259.15 157.494 256.886 141.657 255.756 141.092C255.756 141.092 252.324 143.523 247.275 142.222C242.565 141.01 243.255 141.548 241.053 139.393C239.035 137.414 235.396 133.736 233.702 126.385C233.316 124.71 233.312 122.356 233.53 119.707L237.095 100.372L237.66 96.9785C237.66 96.9785 254.28 104.77 261.639 104.42C262.243 104.392 262.816 104.681 263.182 105.16L268.044 111.479C268.044 111.479 269.544 109.636 271.414 109.539C273.393 109.438 275.158 110.813 275.719 112.718C276.257 114.561 276.787 117.116 276.117 118.468C275.123 120.459 271.925 122.454 270.795 122.898Z" fill="#F0DFD6"/>
<path d="M284.033 118.468C284.033 118.468 275.115 132.669 273.074 132.353L270.795 122.898C271.924 122.458 275.119 120.459 276.116 118.468C276.79 117.116 276.257 114.561 275.719 112.718C275.158 110.813 273.393 109.438 271.414 109.539C269.544 109.636 268.609 110.941 268.309 111.467C268.254 111.565 268.11 111.569 268.044 111.479L263.182 105.16C262.816 104.681 262.243 104.392 261.639 104.42C254.28 104.77 237.66 96.9785 237.66 96.9785C237.66 98.2914 234.29 110.727 233.53 119.707L233.133 121.862C233.133 121.862 227.476 113.945 230.869 103.2C230.869 103.2 233.133 90.7568 243.878 83.4052C254.623 76.0536 261.974 79.4469 261.974 79.4469C261.974 79.4469 268.196 80.0118 273.849 82.8403C279.506 85.6687 284.594 96.4136 284.594 98.1083C284.594 99.8031 289.117 112.812 284.029 118.468H284.033Z" fill="#E9F2FB"/>
<g opacity="0.1">
<path d="M260.852 135.436C260.852 135.436 259.317 152.574 258.67 153.053C258.023 153.532 256.893 141.092 255.76 141.092C255.76 141.092 260.283 137.699 260.848 135.436H260.852Z" fill="black"/>
</g>
<path d="M243.318 132.607C243.318 132.607 250.105 134.87 256.327 128.648" stroke="#2064AE" stroke-width="0.937102" stroke-miterlimit="10"/>
<path d="M239.076 120.163C242.355 120.163 245.013 117.505 245.013 114.226C245.013 110.947 242.355 108.289 239.076 108.289C235.797 108.289 233.139 110.947 233.139 114.226C233.139 117.505 235.797 120.163 239.076 120.163Z" stroke="#2064AE" stroke-width="0.937102" stroke-miterlimit="10"/>
<path d="M255.478 122.426C258.757 122.426 261.416 119.768 261.416 116.489C261.416 113.21 258.757 110.552 255.478 110.552C252.199 110.552 249.541 113.21 249.541 116.489C249.541 119.768 252.199 122.426 255.478 122.426Z" stroke="#2064AE" stroke-width="0.937102" stroke-miterlimit="10"/>
<path d="M245.033 113.326C246.837 112.352 248.621 111.775 250.273 113.712" stroke="#2064AE" stroke-width="0.937102" stroke-miterlimit="10"/>
<path d="M261.414 117.339L269.607 110.244" stroke="#2064AE" stroke-width="0.937102" stroke-miterlimit="10"/>
<path d="M247.277 116.205L244.121 124.616C243.989 124.975 244.156 125.372 244.507 125.524L247.838 126.954" stroke="#2064AE" stroke-width="0.937102" stroke-miterlimit="10"/>
<path d="M236.504 114.062C238 114.366 239.492 114.674 240.988 114.978" stroke="#2064AE" stroke-width="0.937102" stroke-miterlimit="10"/>
<path d="M252.391 117.272C253.887 117.576 255.379 117.884 256.875 118.188" stroke="#2064AE" stroke-width="0.937102" stroke-miterlimit="10"/>
<path d="M215.039 203.302C215.039 203.302 234.269 171.632 235.964 167.109C237.659 162.586 241.621 159.757 246.709 158.627C251.797 157.498 259.152 157.498 259.152 157.498C259.152 157.498 263.111 167.678 280.642 156.933C280.642 156.933 300.437 157.498 304.961 159.196C309.484 160.895 315.705 170.506 315.705 170.506C315.705 170.506 335.501 201.046 334.936 203.306H215.043L215.039 203.302Z" fill="#68A4E3"/>
<path d="M150.968 124.694C174.743 124.694 194.018 105.42 194.018 81.6445C194.018 57.8688 174.743 38.5947 150.968 38.5947C127.192 38.5947 107.918 57.8688 107.918 81.6445C107.918 105.42 127.192 124.694 150.968 124.694Z" fill="#E9F2FB"/>
<path d="M145.263 77.7482H148.474C152.132 77.7482 154.672 75.6561 154.672 72.2238C154.672 68.7915 152.284 66.8474 148.696 66.8474C145.108 66.8474 141.827 69.1616 139.957 72.8199L132.637 65.9475C135.625 60.0491 141.375 56.0908 149.214 56.0908C158.922 56.0908 165.717 62.7372 165.717 71.4017C165.717 79.0182 161.385 83.7245 155.26 85.9646L154.812 92.089H145.852L145.256 77.7521L145.263 77.7482ZM143.545 105.082C143.545 101.198 146.381 98.1355 150.34 98.1355C154.298 98.1355 157.06 101.198 157.06 105.082C157.06 108.966 154.224 111.95 150.34 111.95C146.456 111.95 143.545 108.962 143.545 105.082Z" fill="#68A4E3"/>
</svg>
