<svg width="800" height="698" viewBox="0 0 800 698" fill="none" xmlns="http://www.w3.org/2000/svg">
<path d="M364.123 137.063C422.192 142.574 468.597 137.582 500.765 131.719C555.536 121.734 548.445 112.963 610.689 101.948C643.842 96.0854 662.247 95.6732 675.575 79.8105C690.613 61.9173 695.774 28.4133 678.629 11.8712C659.667 -6.42663 616.14 2.33678 600.766 24.8484C581.979 52.3523 606.269 98.8259 645.804 174.468C659.064 199.826 673.705 224.17 700.766 269.125C710.301 284.964 728.576 299.346 735.881 326.377C740.973 345.201 739.942 362.102 738.171 373.705" stroke="#68A4E3" stroke-width="2.73104" stroke-miterlimit="10" stroke-dasharray="13.66 13.66"/>
<path d="M350.007 693.935C513.585 693.935 646.192 561.329 646.192 397.75C646.192 234.172 513.585 101.565 350.007 101.565C186.429 101.565 53.8223 234.172 53.8223 397.75C53.8223 561.329 186.429 693.935 350.007 693.935Z" stroke="#2064AE" stroke-width="2.73104" stroke-miterlimit="10"/>
<path d="M695.419 553.859C753.177 553.859 799.999 507.036 799.999 449.278C799.999 391.52 753.177 344.697 695.419 344.697C637.66 344.697 590.838 391.52 590.838 449.278C590.838 507.036 637.66 553.859 695.419 553.859Z" fill="#FFF7CC"/>
<path d="M706.909 457.111L706.863 457.21C696.718 453.775 684.268 462.775 678.932 477.477C674.314 490.195 676.52 503.05 683.657 508.798L683.588 508.951L676.611 505.813C664.688 500.447 659.367 486.431 664.733 474.508L668.428 466.294C673.901 454.126 688.199 448.698 700.367 454.172L706.909 457.111Z" fill="#A9CBEF"/>
<g opacity="0.1">
<path d="M706.915 457.11L706.869 457.209C696.724 453.774 684.274 462.774 678.938 477.477C674.32 490.194 676.526 503.049 683.663 508.798L683.594 508.95L676.617 505.813C664.693 500.446 659.373 486.431 664.739 474.507L668.434 466.293C673.907 454.125 688.205 448.698 700.373 454.171L706.915 457.11Z" fill="black"/>
</g>
<path d="M715.884 490.92C721.271 476.078 717.375 461.048 707.183 457.348C696.99 453.648 684.36 462.68 678.973 477.522C673.586 492.363 677.482 507.393 687.674 511.093C697.867 514.793 710.497 505.761 715.884 490.92Z" fill="#A9CBEF"/>
<path d="M665.71 434.614L665.664 434.713C655.519 431.278 643.069 440.278 637.733 454.98C633.114 467.698 635.321 480.553 642.458 486.301L642.389 486.454L635.412 483.316C623.488 477.95 618.168 463.934 623.534 452.011L627.229 443.797C632.702 431.629 647 426.201 659.168 431.675L665.71 434.614Z" fill="#A9CBEF"/>
<path d="M348.211 619.156L67.37 624.683H66.7516C53.4539 626.912 42.9271 626.355 42.9271 626.355C10.2704 627.148 9.11009 590.736 11.0261 570.194C11.7819 562.148 14.2094 554.362 18.0872 547.278L24.0567 536.377L108.309 382.567L237.401 388.659C277.295 391.979 348.211 619.148 348.211 619.148V619.156Z" fill="#FFF7CC"/>
<path d="M677.05 456.103C673.394 458.538 670.363 461.988 668.432 466.286L664.737 474.5C663.172 477.973 662.523 481.622 662.668 485.179C657.485 489.012 651.645 490.439 646.439 488.546C636.248 484.844 632.347 469.813 637.729 454.981C643.119 440.141 655.745 431.11 665.943 434.805C673.279 437.469 677.355 445.996 677.058 456.095L677.05 456.103Z" fill="#A9CBEF"/>
<g opacity="0.1">
<path d="M677.046 456.103C673.39 458.538 670.359 461.988 668.428 466.286L664.733 474.5C663.168 477.973 662.519 481.622 662.664 485.179C657.481 489.012 651.641 490.439 646.435 488.546C636.244 484.844 632.344 469.813 637.725 454.981C643.115 440.141 655.741 431.11 665.939 434.805C673.275 437.469 677.351 445.996 677.054 456.095L677.046 456.103Z" fill="black"/>
</g>
<path d="M671.008 461.874C670.016 463.226 669.146 464.699 668.436 466.294L665.146 473.607L654.107 467.233C651.878 465.943 651.115 463.096 652.398 460.859L654.275 457.6C655.565 455.371 658.413 454.607 660.649 455.89L671.008 461.867V461.874Z" fill="#A9CBEF"/>
<path d="M756.045 458.941C756.045 471.216 749.396 481.933 739.495 487.689C738.144 488.475 736.595 488.88 735.03 488.88H716.511C718.22 483.33 718.64 477.827 717.946 472.979C716.915 465.819 713.442 460.063 708.03 457.658C707.74 457.529 707.442 457.407 707.144 457.3C707.052 457.269 706.961 457.231 706.869 457.2L706.915 457.101L700.373 454.162C697.091 452.689 693.663 452.002 690.289 452.033C691.297 447.261 693.327 442.872 696.144 439.094C696.236 438.971 696.327 438.849 696.419 438.735C696.503 438.628 696.579 438.521 696.663 438.422C697.091 437.872 697.541 437.338 698.007 436.819C698.136 436.674 698.274 436.529 698.404 436.384C698.488 436.292 698.572 436.208 698.655 436.116C698.717 436.048 698.778 435.987 698.846 435.918C698.869 435.895 698.892 435.872 698.907 435.849C698.968 435.781 699.037 435.719 699.098 435.651C699.327 435.414 699.556 435.193 699.793 434.964C699.869 434.887 699.953 434.811 700.03 434.742C700.343 434.445 700.663 434.155 700.991 433.872C701.075 433.803 701.152 433.727 701.236 433.658C701.312 433.59 701.396 433.529 701.472 433.46C701.808 433.177 702.152 432.903 702.495 432.635C702.579 432.567 702.671 432.506 702.755 432.437C702.839 432.368 702.93 432.307 703.014 432.239C703.175 432.116 703.335 432.002 703.495 431.887C703.511 431.88 703.526 431.864 703.541 431.857C703.633 431.796 703.724 431.727 703.816 431.666C703.877 431.628 703.93 431.582 703.991 431.544C704.129 431.445 704.274 431.353 704.419 431.254C704.472 431.216 704.526 431.185 704.572 431.147C704.801 430.994 705.037 430.849 705.266 430.697C705.35 430.643 705.434 430.597 705.51 430.544C705.877 430.322 706.251 430.101 706.625 429.895C706.709 429.849 706.793 429.803 706.877 429.758C707.03 429.674 707.175 429.597 707.327 429.521C707.442 429.46 707.549 429.406 707.663 429.345C707.785 429.284 707.9 429.223 708.022 429.162C708.144 429.101 708.259 429.048 708.381 428.987C708.503 428.926 708.617 428.872 708.74 428.819C708.854 428.765 708.969 428.712 709.091 428.658C709.48 428.483 709.869 428.315 710.266 428.155C710.381 428.109 710.488 428.063 710.602 428.017C710.724 427.964 710.854 427.918 710.984 427.872C711.114 427.826 711.236 427.773 711.366 427.727C711.495 427.681 711.617 427.635 711.747 427.59C711.877 427.544 712.007 427.498 712.137 427.46C712.259 427.414 712.381 427.376 712.511 427.338C712.778 427.254 713.037 427.17 713.304 427.093C713.434 427.055 713.564 427.017 713.701 426.979C713.831 426.941 713.961 426.903 714.098 426.872C714.182 426.849 714.274 426.826 714.358 426.803C714.434 426.78 714.518 426.758 714.595 426.742C714.694 426.719 714.793 426.689 714.885 426.666C715.014 426.635 715.152 426.605 715.289 426.574C715.694 426.483 716.098 426.399 716.503 426.315C716.625 426.292 716.755 426.269 716.877 426.246C717.053 426.216 717.228 426.185 717.396 426.155C717.511 426.139 717.617 426.116 717.732 426.101C717.846 426.086 717.961 426.063 718.083 426.048C718.22 426.025 718.358 426.009 718.495 425.994C718.572 425.987 718.648 425.971 718.732 425.964C718.824 425.956 718.923 425.941 719.014 425.933C719.129 425.918 719.243 425.91 719.358 425.895C719.755 425.857 720.152 425.819 720.549 425.796C720.617 425.796 720.694 425.788 720.763 425.78C720.869 425.78 720.984 425.765 721.091 425.765C721.236 425.765 721.373 425.75 721.518 425.75C721.663 425.75 721.801 425.742 721.946 425.735C722.075 425.735 722.213 425.735 722.35 425.727H722.396C722.534 425.727 722.671 425.727 722.808 425.727C722.93 425.727 723.045 425.727 723.167 425.727C723.243 425.727 723.32 425.727 723.388 425.727C723.472 425.727 723.556 425.727 723.64 425.727C723.663 425.727 723.686 425.727 723.709 425.727C723.839 425.727 723.961 425.727 724.091 425.742C724.228 425.742 724.366 425.75 724.503 425.758C724.793 425.773 725.083 425.788 725.373 425.811C725.511 425.819 725.648 425.834 725.785 425.842C725.938 425.857 726.091 425.872 726.243 425.887C726.358 425.895 726.465 425.91 726.572 425.926C726.862 425.956 727.159 425.994 727.45 426.04C727.587 426.063 727.724 426.078 727.862 426.101C727.961 426.116 728.053 426.132 728.152 426.147C728.221 426.155 728.282 426.17 728.35 426.177C728.427 426.193 728.503 426.2 728.579 426.216C728.778 426.254 728.976 426.284 729.175 426.33C729.35 426.361 729.526 426.399 729.709 426.437C729.984 426.498 730.251 426.551 730.526 426.62C730.618 426.643 730.709 426.666 730.801 426.689C730.915 426.719 731.022 426.742 731.137 426.773C731.266 426.803 731.388 426.842 731.518 426.872C731.64 426.903 731.763 426.941 731.892 426.979C732.114 427.04 732.327 427.101 732.541 427.17C732.625 427.193 732.702 427.223 732.785 427.246C733.236 427.384 733.679 427.536 734.121 427.696C734.205 427.727 734.297 427.758 734.381 427.796C734.808 427.956 735.236 428.124 735.656 428.3C735.755 428.345 735.862 428.384 735.961 428.429C735.961 428.429 735.961 428.429 735.969 428.429C736.053 428.468 736.144 428.506 736.228 428.544C736.579 428.697 736.923 428.857 737.259 429.017C737.366 429.071 737.48 429.124 737.587 429.177C737.709 429.238 737.824 429.3 737.946 429.361C738.068 429.422 738.182 429.483 738.297 429.544C738.404 429.605 738.518 429.658 738.625 429.719C738.885 429.864 739.152 430.01 739.404 430.155C739.503 430.208 739.602 430.269 739.694 430.322C739.801 430.384 739.915 430.452 740.022 430.521C740.396 430.75 740.77 430.987 741.137 431.223C741.221 431.277 741.305 431.338 741.389 431.391C741.473 431.445 741.549 431.498 741.633 431.559C741.686 431.597 741.74 431.635 741.801 431.674C741.885 431.735 741.969 431.788 742.053 431.849C742.129 431.903 742.205 431.956 742.274 432.01C742.572 432.223 742.869 432.445 743.16 432.674C743.175 432.681 743.19 432.697 743.205 432.712C743.343 432.819 743.473 432.926 743.61 433.032C743.633 433.055 743.663 433.071 743.686 433.093C743.816 433.2 743.946 433.307 744.076 433.414C744.106 433.437 744.129 433.46 744.16 433.483C744.274 433.574 744.389 433.674 744.503 433.773C744.526 433.788 744.549 433.811 744.572 433.834C744.633 433.88 744.686 433.933 744.747 433.987C744.869 434.094 744.992 434.2 745.114 434.307C745.221 434.406 745.328 434.498 745.434 434.597C745.442 434.605 745.457 434.62 745.465 434.628C745.511 434.666 745.557 434.712 745.595 434.75C745.702 434.849 745.808 434.948 745.915 435.055C746.106 435.239 746.297 435.429 746.48 435.62C746.602 435.742 746.717 435.865 746.839 435.987C746.976 436.132 747.114 436.277 747.244 436.422C747.251 436.429 747.259 436.445 747.274 436.452C747.411 436.597 747.541 436.75 747.679 436.895C747.679 436.895 747.686 436.903 747.694 436.91C747.824 437.055 747.953 437.208 748.083 437.353C748.083 437.353 748.083 437.353 748.091 437.361C748.221 437.513 748.343 437.658 748.473 437.811C748.473 437.811 748.48 437.819 748.488 437.826C748.61 437.979 748.74 438.132 748.862 438.284C748.877 438.3 748.885 438.315 748.9 438.338C749.007 438.475 749.114 438.613 749.221 438.75C749.251 438.788 749.274 438.819 749.305 438.857C749.396 438.979 749.488 439.101 749.579 439.223C749.717 439.414 749.862 439.605 749.992 439.796C753.816 445.208 756.068 451.819 756.068 458.956L756.045 458.941Z" fill="#68A4E3"/>
<path d="M738.253 458.76C738.253 467.111 731.482 473.89 723.123 473.89C721.306 473.89 719.566 473.569 717.955 472.981C716.925 465.821 713.451 460.065 708.039 457.66C708.596 449.813 715.138 443.63 723.123 443.63C731.108 443.63 738.253 450.401 738.253 458.76Z" fill="#68A4E3"/>
<g opacity="0.1">
<path d="M738.241 458.76C738.241 467.111 731.47 473.89 723.111 473.89C721.295 473.89 719.554 473.569 717.943 472.981C716.913 465.821 713.44 460.065 708.027 457.66C708.585 449.813 715.127 443.63 723.111 443.63C731.096 443.63 738.241 450.401 738.241 458.76Z" fill="black"/>
</g>
<path d="M738.56 389.842H708.399C692.712 389.842 681.941 405.636 687.674 420.239L696.14 439.094C698.216 436.308 700.72 433.857 703.544 431.842L698.353 420.269C694.292 409.926 701.918 398.743 713.033 398.743H734.392C745.842 398.743 753.422 410.628 748.598 421.01L743.163 432.651C745.773 434.674 748.071 437.079 749.98 439.781L758.621 421.285C765.438 406.621 754.728 389.842 738.56 389.842Z" fill="#A9CBEF"/>
<path d="M249.588 384.24C249.053 397.66 248.236 393.782 241.832 395.324C233.42 397.355 229.641 405.294 227.427 413.057C225.358 420.301 219.671 435.218 212.458 452.63C210.969 456.195 210.366 460.096 208.045 463.187C206.358 465.424 204.244 467.355 201.938 467.355C196.396 467.355 181.992 457.386 178.671 446.302C175.351 435.218 159.579 415.454 156.511 410.843C152.076 404.195 145.816 390.92 126.327 389.988C122.159 389.79 123.266 389.79 117.839 390.255C109.022 391.019 93.9378 403.775 90.579 418.05C88.5027 415.973 87.4569 413.095 87.7088 410.164C88.0676 405.95 89.4951 399.225 94.0981 390.309C94.8615 388.813 95.6249 387.294 96.3043 385.752C96.9684 384.233 98.1363 381.82 100.007 378.706C103.213 373.362 114.633 367.003 118.449 355.645C118.594 355.209 118.724 354.767 118.846 354.324C121.427 344.858 129.35 336.064 132.755 332.614C133.03 332.347 133.266 332.103 133.472 331.904C134.037 331.347 134.358 331.049 134.358 331.049C134.358 331.049 134.327 330.973 134.259 330.835H134.251C133.152 328.599 124.32 310.545 123.282 302.232C122.175 293.369 132.144 285.614 134.366 280.072C136.579 274.53 139.908 256.804 142.121 253.476C144.335 250.148 158.503 232.468 170.931 230.209C183.122 227.995 185.335 229.102 185.335 229.102C185.335 229.102 209.717 230.209 223.015 244.613C236.313 259.018 237.42 270.102 237.42 270.102C237.42 270.102 240.74 281.186 238.526 293.369L236.313 336.583C236.313 336.583 236.343 337.049 236.412 337.866C236.42 337.973 236.435 338.087 236.435 338.202C236.87 342.866 238.427 356.538 242.962 366.5C248.504 378.691 249.832 378.691 249.61 384.233L249.588 384.24Z" fill="#A9CBEF"/>
<path d="M250.695 456.262C250.695 456.262 252.932 466.293 256.237 476.209C259.558 486.178 268.428 521.644 268.428 521.644L282.825 570.683" stroke="#2064AE" stroke-width="0.937102" stroke-miterlimit="10"/>
<path d="M227.061 261.216C228.755 264.216 228.534 265.667 228.534 265.667V297.804C232.969 331.423 219.267 349.889 194.183 353.209C166.282 356.911 154.831 320.14 159.831 275.445L227.061 261.216Z" fill="#E0B7AA"/>
<g opacity="0.1">
<path d="M147.638 383.133C147.638 383.133 128.798 379.812 123.256 372.049C119.844 367.27 118.767 359.774 118.424 355.636C118.569 355.201 118.699 354.759 118.821 354.316C121.401 344.85 129.325 336.056 132.729 332.606C132.737 332.606 132.752 332.598 132.76 332.598C132.538 333.163 126.722 347.965 134.332 363.178C142.088 378.69 147.63 383.125 147.63 383.125L147.638 383.133Z" fill="black"/>
</g>
<g opacity="0.1">
<path d="M168.689 365.4C168.689 365.4 162.04 367.613 158.72 367.613C155.399 367.613 145.422 360.964 143.208 357.644C141.445 354.987 131.361 342.674 133.46 331.903C134.025 331.346 134.345 331.048 134.345 331.048C134.345 331.048 134.315 330.972 134.246 330.834C136.658 332.728 147.979 341.705 149.857 345.453C152.071 349.888 153.178 355.422 157.613 357.644C162.048 359.858 168.697 365.4 168.697 365.4H168.689Z" fill="black"/>
</g>
<g opacity="0.1">
<path d="M236.408 338.208C233.362 345.796 215.041 391.162 213.018 394.216C210.805 397.536 201.934 401.972 193.072 403.078C184.209 404.185 177.56 395.323 173.125 389.781C171.056 387.185 162.041 377.59 162.041 377.59C203.217 387.887 232.438 344.147 236.385 337.887C236.393 337.986 236.408 338.101 236.408 338.208Z" fill="black"/>
</g>
<path d="M220.518 264.185C219.954 264.437 219.381 264.659 218.793 264.857C206.572 268.972 210.587 268.475 199.732 272.315C185.679 277.292 159.289 276.193 159.289 276.193C159.289 276.193 176.465 256.804 193.083 254.582C218.725 251.162 227.099 261.231 227.099 261.231L220.518 264.178V264.185Z" fill="#A9CBEF"/>
<g opacity="0.1">
<path d="M220.515 264.185C219.95 264.437 219.377 264.659 218.789 264.857C206.568 268.972 210.583 268.475 199.728 272.315C185.675 277.292 159.285 276.193 159.285 276.193C159.285 276.193 176.461 256.804 193.079 254.582C218.721 251.162 227.095 261.231 227.095 261.231L220.515 264.178V264.185Z" fill="black"/>
</g>
<path d="M187.539 316.644C187.539 316.644 195.295 331.049 206.379 327.728" stroke="#2064AE" stroke-width="0.937102" stroke-miterlimit="10"/>
<path d="M207.486 283.399C207.486 283.399 208.593 301.132 213.028 306.667C217.463 312.201 203.059 314.422 203.059 314.422" stroke="#2064AE" stroke-width="0.937102" stroke-miterlimit="10"/>
<path d="M217.507 294.979C219.325 294.732 220.53 292.563 220.199 290.136C219.868 287.709 218.127 285.943 216.31 286.19C214.493 286.438 213.288 288.606 213.618 291.033C213.949 293.46 215.69 295.227 217.507 294.979Z" fill="#2064AE" stroke="#2064AE" stroke-width="0.937102" stroke-miterlimit="10"/>
<path d="M196.394 299.204C198.211 298.957 199.416 296.789 199.086 294.362C198.755 291.935 197.014 290.168 195.196 290.415C193.379 290.663 192.174 292.831 192.505 295.258C192.836 297.685 194.577 299.452 196.394 299.204Z" fill="#2064AE" stroke="#2064AE" stroke-width="0.937102" stroke-miterlimit="10"/>
<path d="M502.799 570.958H309.988C303.867 570.958 298.904 575.919 298.904 582.038C298.904 588.158 303.867 593.118 309.988 593.118H502.799C508.92 593.118 513.883 588.158 513.883 582.038C513.883 575.919 508.92 570.958 502.799 570.958Z" fill="#A9CBEF"/>
<path d="M547.683 593.118H396.369C388.194 593.118 382.835 584.569 386.4 577.21L444.37 457.53C446.225 453.705 450.095 451.278 454.339 451.278H600.981C609.004 451.278 614.371 459.537 611.103 466.866L557.813 586.546C556.034 590.546 552.065 593.118 547.691 593.118H547.683Z" fill="#A9CBEF"/>
<path d="M196.402 560.433C196.402 560.433 231.86 551.57 242.944 553.784C254.028 555.997 268.433 562.646 272.861 563.753C277.288 564.86 297.242 583.7 299.456 590.349C299.456 590.349 291.7 593.669 286.158 589.242C280.616 584.807 270.647 584.807 268.425 583.7C266.204 582.593 247.372 590.349 240.723 589.242C234.074 588.135 203.043 588.135 203.043 588.135L196.395 560.433H196.402Z" fill="#E0B7AA"/>
<path d="M680.645 592.791H6.38171C2.85719 592.791 0 595.648 0 599.172V623.05C0 626.575 2.85719 629.432 6.38171 629.432H680.645C684.169 629.432 687.027 626.575 687.027 623.05V599.172C687.027 595.648 684.169 592.791 680.645 592.791Z" fill="#E9F2FB"/>
<path d="M175.756 559.815C175.756 559.815 195.29 553.776 198.619 555.998C201.153 557.692 203.695 578.097 204.748 587.67C205.061 590.532 203.29 593.204 200.527 594.006C194.008 595.906 182.794 598.883 180.183 597.654L175.756 559.815Z" fill="#A9CBEF"/>
<path d="M67.37 624.691H66.7516C53.4539 626.92 42.9271 626.363 42.9271 626.363C10.2704 627.157 9.11009 590.744 11.0261 570.202C11.7819 562.156 14.2094 554.37 18.0872 547.286L24.0567 536.385L91.1335 561.538L174.241 551.569L180.89 600.325C180.89 600.325 144.325 608.08 134.347 610.294" fill="#FFF7CC"/>
<path d="M129.91 460.698L91.123 561.538L174.23 551.561L180.879 600.317" stroke="#2064AE" stroke-width="0.937102" stroke-miterlimit="10"/>
<path d="M532.165 222.452L531.059 227.994" stroke="#2064AE" stroke-width="0.937102" stroke-miterlimit="10"/>
<path d="M667.272 147.338H333.499C319.216 147.338 307.637 158.917 307.637 173.201V378.545C307.637 392.829 319.216 404.408 333.499 404.408H667.272C681.556 404.408 693.135 392.829 693.135 378.545V173.201C693.135 158.917 681.556 147.338 667.272 147.338Z" fill="#A9CBEF"/>
<path d="M659.516 154.856H341.644C328.136 154.856 317.186 165.806 317.186 179.314V371.964C317.186 385.472 328.136 396.422 341.644 396.422H659.516C673.024 396.422 683.974 385.472 683.974 371.964V179.314C683.974 165.806 673.024 154.856 659.516 154.856Z" fill="#FFF099"/>
<path d="M530.594 238.887C530.296 239.009 530.075 239.078 529.937 239.078C528.831 239.078 549.884 305.567 549.884 305.567L554.319 324.407H506.67L507.777 306.674C507.777 306.674 503.342 275.643 501.128 274.536C501.128 274.536 494.403 279.3 484.51 276.75C475.281 274.376 476.632 275.429 472.319 271.208C468.365 267.33 461.235 260.124 457.914 245.719C457.158 242.437 457.151 237.826 457.578 232.635L464.563 194.749L465.67 188.101C465.67 188.101 498.235 203.368 512.655 202.681C513.838 202.627 514.96 203.192 515.678 204.131L525.205 216.513C525.205 216.513 528.143 212.902 531.808 212.711C535.686 212.513 539.144 215.208 540.243 218.94C541.296 222.551 542.334 227.559 541.021 230.208C539.075 234.108 532.808 238.017 530.594 238.887Z" fill="#F0DFD6"/>
<path d="M556.533 230.208C556.533 230.208 539.06 258.032 535.06 257.414L530.594 238.887C532.808 238.025 539.067 234.109 541.021 230.208C542.342 227.559 541.296 222.551 540.243 218.941C539.144 215.208 535.685 212.513 531.808 212.712C528.143 212.902 526.311 215.46 525.724 216.49C525.617 216.681 525.334 216.689 525.205 216.513L515.678 204.131C514.96 203.192 513.838 202.627 512.655 202.681C498.235 203.368 465.67 188.101 465.67 188.101C465.67 190.673 459.067 215.04 457.578 232.635L456.8 236.857C456.8 236.857 445.715 221.345 452.364 200.292C452.364 200.292 456.8 175.91 477.853 161.505C498.907 147.1 513.311 153.749 513.311 153.749C513.311 153.749 525.502 154.856 536.579 160.398C547.663 165.94 557.632 186.994 557.632 190.314C557.632 193.635 566.495 219.124 556.525 230.208H556.533Z" fill="#E9F2FB"/>
<g opacity="0.1">
<path d="M511.112 263.453C511.112 263.453 508.104 297.033 506.837 297.972C505.57 298.911 503.356 274.537 501.135 274.537C501.135 274.537 509.997 267.888 511.104 263.453H511.112Z" fill="black"/>
</g>
<path d="M476.758 257.91C476.758 257.91 490.056 262.345 502.247 250.154" stroke="#2064AE" stroke-width="0.937102" stroke-miterlimit="10"/>
<path d="M468.444 233.529C474.869 233.529 480.078 228.32 480.078 221.895C480.078 215.47 474.869 210.262 468.444 210.262C462.019 210.262 456.811 215.47 456.811 221.895C456.811 228.32 462.019 233.529 468.444 233.529Z" stroke="#2064AE" stroke-width="0.937102" stroke-miterlimit="10"/>
<path d="M500.583 237.963C507.008 237.963 512.217 232.755 512.217 226.329C512.217 219.904 507.008 214.696 500.583 214.696C494.158 214.696 488.949 219.904 488.949 226.329C488.949 232.755 494.158 237.963 500.583 237.963Z" stroke="#2064AE" stroke-width="0.937102" stroke-miterlimit="10"/>
<path d="M480.117 220.131C483.652 218.223 487.148 217.093 490.384 220.887" stroke="#2064AE" stroke-width="0.937102" stroke-miterlimit="10"/>
<path d="M512.215 227.994L528.268 214.093" stroke="#2064AE" stroke-width="0.937102" stroke-miterlimit="10"/>
<path d="M484.514 225.773L478.331 242.254C478.071 242.956 478.399 243.735 479.087 244.033L485.613 246.834" stroke="#2064AE" stroke-width="0.937102" stroke-miterlimit="10"/>
<path d="M463.404 221.575C466.336 222.17 469.259 222.773 472.191 223.369" stroke="#2064AE" stroke-width="0.937102" stroke-miterlimit="10"/>
<path d="M494.533 227.864C497.465 228.46 500.388 229.063 503.32 229.658" stroke="#2064AE" stroke-width="0.937102" stroke-miterlimit="10"/>
<path d="M421.348 396.43C421.348 396.43 459.027 334.376 462.348 325.513C465.668 316.651 473.432 311.109 483.401 308.895C493.371 306.681 507.783 306.681 507.783 306.681C507.783 306.681 515.539 326.628 549.89 305.574C549.89 305.574 588.677 306.681 597.539 310.009C606.402 313.338 618.593 332.17 618.593 332.17C618.593 332.17 657.38 392.01 656.273 396.437H421.355L421.348 396.43Z" fill="#68A4E3"/>
<path d="M295.807 242.407C342.393 242.407 380.158 204.641 380.158 158.055C380.158 111.469 342.393 73.7036 295.807 73.7036C249.221 73.7036 211.455 111.469 211.455 158.055C211.455 204.641 249.221 242.407 295.807 242.407Z" fill="#E9F2FB"/>
<path d="M284.629 150.421H290.919C298.087 150.421 303.064 146.321 303.064 139.596C303.064 132.871 298.385 129.062 291.355 129.062C284.324 129.062 277.896 133.596 274.232 140.764L259.889 127.298C265.744 115.741 277.011 107.985 292.37 107.985C311.393 107.985 324.706 121.008 324.706 137.986C324.706 152.909 316.217 162.131 304.217 166.52L303.339 178.52H285.782L284.614 150.428L284.629 150.421ZM281.263 203.978C281.263 196.368 286.82 190.367 294.576 190.367C302.332 190.367 307.744 196.368 307.744 203.978C307.744 211.589 302.187 217.436 294.576 217.436C286.965 217.436 281.263 211.581 281.263 203.978Z" fill="#68A4E3"/>
</svg>
